<?xml version="1.0" encoding="utf-8"?>
<!-- Generator: Adobe Illustrator 16.0.0, SVG Export Plug-In . SVG Version: 6.00 Build 0)  -->
<!DOCTYPE svg PUBLIC "-//W3C//DTD SVG 1.1//EN" "http://www.w3.org/Graphics/SVG/1.1/DTD/svg11.dtd">
<svg version="1.1" id="Layer_1" xmlns="http://www.w3.org/2000/svg" xmlns:xlink="http://www.w3.org/1999/xlink" x="0px" y="0px"
	 width="300px" height="300px" viewBox="0 0 300 300" enable-background="new 0 0 300 300" xml:space="preserve">
<g>
	<g>
		<g>
			<path fill="#FFC55E" d="M150,13.356c-75.346,0-136.643,61.298-136.643,136.643c0,4.419,0.218,8.787,0.63,13.1
				c1.601,16.751,6.239,32.628,13.356,47.076C49.635,255.429,96.236,286.644,150,286.644c75.344,0,136.643-61.299,136.643-136.645
				C286.643,74.654,225.344,13.356,150,13.356z"/>
		</g>
		<g>
			<path fill="#FFE384" d="M150,28.916c-66.271,0-120.269,53.518-121.064,119.604c-0.007,0.493-0.019,0.985-0.019,1.479
				c0,3.114,0.124,6.199,0.356,9.254c2.854,37.593,22.954,70.432,52.382,90.63c4.814,3.304,9.872,6.279,15.15,8.871
				c16.065,7.89,34.12,12.329,53.194,12.329c66.764,0,121.082-54.317,121.082-121.084C271.082,83.234,216.764,28.916,150,28.916z"/>
		</g>
	</g>
	<g>
		<linearGradient id="SVGID_1_" gradientUnits="userSpaceOnUse" x1="142.8179" y1="195.4341" x2="142.8179" y2="159.9958">
			<stop  offset="0" style="stop-color:#FFE384"/>
			<stop  offset="1" style="stop-color:#FFD073"/>
		</linearGradient>
		<path fill="url(#SVGID_1_)" d="M53.876,222.694c32.286,47.54,91.021,48.233,91.021,48.233l109.175-107.747l-1.299,0.129
			l-35.849-0.178l0.291-1.853l-22.27-1.211l-8.265,2.913l-55.622,0.285l-17.411-0.337l1.362-5.195l-17.31,3.867l-19.548,0.017
			l-1.551,1.458l-6.519,0.006h-15.56l-9.725-1.068l-13.225,11.669C31.575,173.683,30.278,187.945,53.876,222.694z"/>
	</g>
	<g>
		<linearGradient id="SVGID_2_" gradientUnits="userSpaceOnUse" x1="157.8804" y1="131.9321" x2="157.8804" y2="116.3645">
			<stop  offset="0" style="stop-color:#FFE384"/>
			<stop  offset="1" style="stop-color:#FFD073"/>
		</linearGradient>
		<polygon fill="url(#SVGID_2_)" points="99.128,146.714 168.496,159.679 216.633,112.516 176.567,112.613 175.4,114.46 
			154.492,114.46 132.126,114.46 		"/>
	</g>
	<polygon fill="#FFE384" points="243.233,162.749 136.08,270.15 128.819,269.111 237.862,162.662 	"/>
	<polygon fill="#FFE384" points="220.1,159.939 115.075,265.742 108.009,261.852 213.551,158.901 	"/>
	<polygon fill="#FFE384" points="108.496,159.096 51.219,216.34 46.875,211.543 100.035,159.939 	"/>
	<polygon fill="#FFE384" points="146.582,160.587 69.307,237.475 64.249,226.584 134.654,157.994 	"/>
	<polygon fill="#FFE384" points="166.259,162.889 80.327,248.626 72.028,241.885 146.713,166.194 146.713,160.846 153.326,159.29 	
		"/>
	<polygon fill="#FFE384" points="69.176,157.475 36.437,190.799 33.714,184.379 60.554,158.188 	"/>
	<polygon fill="#FFE384" points="84.087,155.595 39.549,199.062 39.048,198.002 81.883,156.567 	"/>
	<polygon fill="#FFE384" points="195.465,158.966 96.664,257.768 92.515,255.368 190.019,159.939 	"/>
	<polygon fill="#FFE384" points="176.048,113.683 141.04,148.95 137.895,147.49 172.644,113.261 	"/>
	<polygon fill="#FFE384" points="201.946,111.187 150.083,161.754 146.811,158.707 196.339,109.696 	"/>
	<polygon fill="#FFE384" points="161.526,112.127 124.443,150.507 120.779,148.269 155.529,114.039 	"/>
	<g>
		<linearGradient id="SVGID_3_" gradientUnits="userSpaceOnUse" x1="131.2817" y1="224.6392" x2="131.2817" y2="208.6862">
			<stop  offset="0" style="stop-color:#FFE384"/>
			<stop  offset="1" style="stop-color:#FFD073"/>
		</linearGradient>
		<polygon fill="url(#SVGID_3_)" points="69.176,235.66 146.193,256.665 193.388,210.767 180.686,209.335 138.187,208.82 
			137.02,210.668 116.112,210.668 93.746,210.668 		"/>
	</g>
	<polygon fill="#FFE384" points="155.043,208.334 120.034,243.602 107.034,242.143 141.784,207.913 	"/>
	<polygon fill="#FFE384" points="182.758,208.951 130.893,259.518 123.729,256.211 173.259,207.199 	"/>
	<polygon fill="#FFE384" points="123.147,208.334 86.063,246.714 82.919,244.736 117.667,210.506 	"/>
	<g>
		<linearGradient id="SVGID_4_" gradientUnits="userSpaceOnUse" x1="97.3774" y1="93.812" x2="97.3774" y2="83.4389">
			<stop  offset="0" style="stop-color:#FFE384"/>
			<stop  offset="1" style="stop-color:#FFD073"/>
		</linearGradient>
		<polygon fill="url(#SVGID_4_)" points="52.709,115.126 99.702,124.575 142.046,83.438 132.19,83.569 115.464,83.569 85.515,83.18 
					"/>
	</g>
	<polygon fill="#FFE384" points="119.932,81.056 89.867,111.343 88.464,110.478 118.306,81.083 	"/>
	<polygon fill="#FFE384" points="136.858,81.105 89.985,126.746 89.638,124.777 135.82,79.29 	"/>
	<polygon fill="#FFE384" points="104.22,81.016 72.375,113.975 71.25,112.613 100.424,83.05 	"/>
	<g>
		<linearGradient id="SVGID_5_" gradientUnits="userSpaceOnUse" x1="159.4185" y1="252.7754" x2="159.4185" y2="239.8089">
			<stop  offset="0" style="stop-color:#FFE384"/>
			<stop  offset="1" style="stop-color:#FFD073"/>
		</linearGradient>
		<polygon fill="url(#SVGID_5_)" points="113.648,264.314 176.925,267.168 205.188,237.217 192.028,237.086 187.361,240.198 
			168.106,239.938 138.804,239.679 		"/>
	</g>
	<polygon fill="#FFE384" points="175.166,238.073 145.103,268.36 141.106,266.848 170.946,237.452 	"/>
	<polygon fill="#FFE384" points="194.297,236.697 162.142,268.854 159.029,268.854 191.963,235.66 	"/>
	<polygon fill="#FFE384" points="159.714,238.033 133.745,265.354 129.986,263.929 153.715,239.42 	"/>
	<g>
		<linearGradient id="SVGID_6_" gradientUnits="userSpaceOnUse" x1="145.4824" y1="240.7637" x2="145.4824" y2="219.5022">
			<stop  offset="0" style="stop-color:#FF614A"/>
			<stop  offset="0.9949" style="stop-color:#FFAA6A"/>
		</linearGradient>
		<path fill="url(#SVGID_6_)" d="M152.882,235.83v4.473h-14.799v-17.823h14.799v4.474h-6.914v2.207h4.812v4.475h-4.812v2.195
			H152.882z"/>
		<linearGradient id="SVGID_7_" gradientUnits="userSpaceOnUse" x1="164.3462" y1="240.7637" x2="164.3462" y2="219.5022">
			<stop  offset="0" style="stop-color:#FF614A"/>
			<stop  offset="0.9949" style="stop-color:#FFAA6A"/>
		</linearGradient>
		<path fill="url(#SVGID_7_)" d="M157.53,222.479h6.892c2.148,0,3.782,0.396,4.899,1.191c1.118,0.794,1.675,1.956,1.675,3.481
			c0,0.95-0.242,1.735-0.729,2.359c-0.487,0.621-1.246,1.166-2.283,1.635c2.118,0.778,3.178,2.211,3.178,4.298
			c0,1.55-0.546,2.747-1.636,3.592c-1.091,0.845-2.769,1.267-5.034,1.267h-6.961v-6.189c0.989,1.223,2.2,1.834,3.633,1.834
			c0.646,0,1.161-0.15,1.542-0.451c0.381-0.299,0.571-0.705,0.571-1.221c0-0.646-0.246-1.162-0.741-1.547
			c-0.494-0.385-1.158-0.578-1.99-0.578c-0.843,0-1.847,0.215-3.015,0.643v-3.152c0.817,0.217,1.701,0.326,2.651,0.326
			c0.903,0,1.615-0.18,2.138-0.537c0.521-0.359,0.782-0.842,0.782-1.449c0-0.53-0.194-0.951-0.583-1.268
			c-0.391-0.314-0.912-0.473-1.565-0.473c-0.686,0-1.332,0.166-1.94,0.498c-0.605,0.33-1.101,0.803-1.482,1.418V222.479z"/>
		<linearGradient id="SVGID_8_" gradientUnits="userSpaceOnUse" x1="180.1465" y1="240.7637" x2="180.1465" y2="219.5022">
			<stop  offset="0" style="stop-color:#FF614A"/>
			<stop  offset="0.9949" style="stop-color:#FFAA6A"/>
		</linearGradient>
		<path fill="url(#SVGID_8_)" d="M187.306,237.126v3.177h-14.319c1.938-2.406,3.388-4.311,4.346-5.716
			c0.957-1.406,1.437-2.562,1.437-3.464c0-0.515-0.169-0.945-0.503-1.297c-0.335-0.352-0.748-0.525-1.238-0.525
			c-0.638,0-1.257,0.254-1.856,0.758c-0.601,0.507-1.297,1.32-2.091,2.441l0.14-8.081c1.091-0.772,2.104-1.335,3.043-1.688
			c0.938-0.354,1.983-0.531,3.136-0.531c2.148,0,3.928,0.645,5.332,1.934c1.407,1.287,2.107,3.072,2.107,5.354
			c0,2.516-0.973,5.062-2.92,7.64H187.306z"/>
		<linearGradient id="SVGID_9_" gradientUnits="userSpaceOnUse" x1="197.9082" y1="240.7637" x2="197.9082" y2="219.5021">
			<stop  offset="0" style="stop-color:#FF614A"/>
			<stop  offset="0.9949" style="stop-color:#FFAA6A"/>
		</linearGradient>
		<path fill="url(#SVGID_9_)" d="M197.901,222.199c2.578,0,4.747,0.883,6.506,2.65c1.76,1.769,2.641,3.945,2.641,6.529
			c0,2.595-0.881,4.777-2.641,6.554c-1.759,1.775-3.928,2.662-6.506,2.662c-2.568,0-4.733-0.887-6.493-2.662
			c-1.761-1.776-2.639-3.959-2.639-6.554c0-2.584,0.878-4.761,2.639-6.529C193.168,223.082,195.333,222.199,197.901,222.199z
			 M197.901,232.77c0.531,0,0.967-0.177,1.309-0.531c0.342-0.355,0.515-0.8,0.515-1.337c0-0.538-0.173-0.982-0.515-1.339
			c-0.342-0.354-0.777-0.53-1.309-0.53c-0.514,0-0.942,0.179-1.291,0.537c-0.345,0.358-0.519,0.802-0.519,1.332
			c0,0.537,0.174,0.981,0.519,1.337C196.959,232.593,197.388,232.77,197.901,232.77z"/>
	</g>
	<g>
		<linearGradient id="SVGID_10_" gradientUnits="userSpaceOnUse" x1="105.188" y1="221.2979" x2="105.188" y2="175.7861">
			<stop  offset="0" style="stop-color:#FF7570"/>
			<stop  offset="0.9949" style="stop-color:#FFC99E"/>
		</linearGradient>
		<path fill="url(#SVGID_10_)" d="M117.014,203.705v7.15H93.362v-28.486h23.651v7.15h-11.052v3.527h7.69v7.149h-7.69v3.509H117.014z
			"/>
		<linearGradient id="SVGID_11_" gradientUnits="userSpaceOnUse" x1="134.3633" y1="221.2979" x2="134.3633" y2="175.7868">
			<stop  offset="0" style="stop-color:#FF7570"/>
			<stop  offset="0.9949" style="stop-color:#FFC99E"/>
		</linearGradient>
		<path fill="url(#SVGID_11_)" d="M120.316,210.855v-0.504c3.685-1.146,6.845-3.117,9.483-5.918
			c-3.235-0.484-5.733-1.664-7.494-3.537c-1.761-1.872-2.643-4.197-2.643-6.971c0-3.51,1.377-6.388,4.126-8.634
			c2.75-2.247,6.31-3.37,10.677-3.37c4.355,0,7.879,1.148,10.566,3.444c2.687,2.296,4.031,5.286,4.031,8.97
			c0,3.073-0.959,6.037-2.875,8.895c-1.916,2.856-4.717,5.396-8.399,7.625H120.316z M134.578,192.469
			c-0.734,0-1.344,0.239-1.828,0.719c-0.487,0.479-0.729,1.079-0.729,1.801c0,0.76,0.236,1.389,0.709,1.885
			c0.474,0.499,1.076,0.748,1.811,0.748c0.71,0,1.319-0.258,1.83-0.775c0.51-0.516,0.766-1.136,0.766-1.857
			c0-0.709-0.247-1.307-0.738-1.792C135.906,192.711,135.301,192.469,134.578,192.469z"/>
		<linearGradient id="SVGID_12_" gradientUnits="userSpaceOnUse" x1="164.0083" y1="221.2964" x2="164.0083" y2="175.7862">
			<stop  offset="0" style="stop-color:#FF7570"/>
			<stop  offset="0.9949" style="stop-color:#FFC99E"/>
		</linearGradient>
		<path fill="url(#SVGID_12_)" d="M177.196,182.369v5.097h-10.062l-0.986,3.846c3.185,0.212,5.619,1.147,7.307,2.81
			c1.685,1.661,2.529,3.836,2.529,6.523c0,3.111-1.142,5.669-3.426,7.672c-2.285,2.004-5.21,3.005-8.782,3.005
			c-3.074,0-5.856-0.659-8.346-1.979c-2.488-1.317-4.024-3.136-4.609-5.45l0.225-0.262c2.028,1.382,4.182,2.072,6.459,2.072
			c1.717,0,3.11-0.376,4.18-1.129c1.07-0.753,1.606-1.721,1.606-2.903c0-2.414-2.042-3.621-6.124-3.621
			c-2.265,0-4.076,0.474-5.43,1.417l-0.302-0.24l4.202-16.857H177.196z"/>
		<linearGradient id="SVGID_13_" gradientUnits="userSpaceOnUse" x1="186.6777" y1="221.2979" x2="186.6777" y2="175.7868">
			<stop  offset="0" style="stop-color:#FF7570"/>
			<stop  offset="0.9949" style="stop-color:#FFC99E"/>
		</linearGradient>
		<path fill="url(#SVGID_13_)" d="M193.015,210.855h-12.674V185.58l12.674-3.658V210.855z"/>
	</g>
	<g>
		<linearGradient id="SVGID_14_" gradientUnits="userSpaceOnUse" x1="59.7603" y1="176.4268" x2="59.7603" y2="127.4683">
			<stop  offset="0" style="stop-color:#FF614A"/>
			<stop  offset="0.9949" style="stop-color:#FFAA6A"/>
		</linearGradient>
		<path fill="url(#SVGID_14_)" d="M44.354,163.267v-25.225h10.843l4.563,5.257l4.58-5.257h10.825v25.225H63.993v-12.63l-4.232,4.878
			l-4.232-4.878v12.63H44.354z"/>
		<linearGradient id="SVGID_15_" gradientUnits="userSpaceOnUse" x1="89.8047" y1="176.4268" x2="89.8047" y2="127.4677">
			<stop  offset="0" style="stop-color:#FF614A"/>
			<stop  offset="0.9949" style="stop-color:#FFAA6A"/>
		</linearGradient>
		<path fill="url(#SVGID_15_)" d="M101.202,139.331l-2.776,7.951c-1.817-2.458-3.907-3.687-6.265-3.687
			c-1.312,0-1.969,0.495-1.969,1.487c0,0.309,0.208,0.624,0.621,0.942c0.412,0.319,1.495,0.822,3.247,1.505
			c1.929,0.761,3.414,1.452,4.456,2.074c1.041,0.622,1.821,1.419,2.339,2.389s0.776,2.099,0.776,3.389
			c0,2.7-1.024,4.758-3.074,6.174c-2.049,1.416-5.063,2.124-9.043,2.124c-4.462,0-8.309-0.634-11.537-1.9l2.727-8.431
			c0.794,1.234,1.778,2.215,2.951,2.942s2.301,1.091,3.38,1.091c0.53,0,0.974-0.138,1.331-0.413
			c0.358-0.275,0.537-0.612,0.537-1.009c0-0.374-0.173-0.733-0.521-1.075c-0.346-0.34-1.264-0.814-2.753-1.42
			c-1.344-0.54-2.456-1.067-3.337-1.579c-0.884-0.513-1.648-1.242-2.299-2.19c-0.651-0.948-0.976-2.144-0.976-3.587
			c0-2.8,1.019-4.91,3.059-6.331c2.038-1.422,5.047-2.133,9.025-2.133C94.739,137.645,98.106,138.206,101.202,139.331z"/>
		<linearGradient id="SVGID_16_" gradientUnits="userSpaceOnUse" x1="117.0884" y1="176.4268" x2="117.0884" y2="127.4677">
			<stop  offset="0" style="stop-color:#FF614A"/>
			<stop  offset="0.9949" style="stop-color:#FFAA6A"/>
		</linearGradient>
		<path fill="url(#SVGID_16_)" d="M130.214,141.017l-5.389,7.587c-2.249-1.079-4.325-1.619-6.233-1.619
			c-1.267,0-2.283,0.328-3.049,0.984c-0.767,0.654-1.148,1.522-1.148,2.604c0,2.049,1.344,3.074,4.033,3.074v-3.951h11.174V163.3
			c-4.519,0.253-7.576,0.38-9.174,0.38c-6.172,0-10.459-1.311-12.861-3.934s-3.604-5.682-3.604-9.174
			c0-2.402,0.559-4.607,1.678-6.612c1.119-2.007,2.734-3.56,4.844-4.662c2.11-1.103,4.61-1.653,7.498-1.653
			c2.026,0,4.126,0.295,6.297,0.885S128.43,139.947,130.214,141.017z"/>
		<linearGradient id="SVGID_17_" gradientUnits="userSpaceOnUse" x1="147.1826" y1="176.4268" x2="147.1826" y2="127.4686">
			<stop  offset="0" style="stop-color:#FF614A"/>
			<stop  offset="0.9949" style="stop-color:#FFAA6A"/>
		</linearGradient>
		<path fill="url(#SVGID_17_)" d="M147.604,138.042h5.423l-6.265,28.167h-5.423L147.604,138.042z"/>
		<linearGradient id="SVGID_18_" gradientUnits="userSpaceOnUse" x1="176.1592" y1="176.4268" x2="176.1592" y2="127.4683">
			<stop  offset="0" style="stop-color:#FF614A"/>
			<stop  offset="0.9949" style="stop-color:#FFAA6A"/>
		</linearGradient>
		<path fill="url(#SVGID_18_)" d="M186.633,156.936v6.331h-20.946v-25.225h20.946v6.33h-9.787v3.124h6.812v6.331h-6.812v3.108
			H186.633z"/>
		<linearGradient id="SVGID_19_" gradientUnits="userSpaceOnUse" x1="202.0625" y1="176.4268" x2="202.0625" y2="127.4688">
			<stop  offset="0" style="stop-color:#FF614A"/>
			<stop  offset="0.9949" style="stop-color:#FFAA6A"/>
		</linearGradient>
		<path fill="url(#SVGID_19_)" d="M214.502,138.042v0.445c-3.219,0.992-6.017,2.738-8.399,5.241c2.868,0.43,5.078,1.474,6.64,3.132
			c1.558,1.659,2.339,3.722,2.339,6.191c0,3.106-1.216,5.655-3.646,7.644c-2.429,1.989-5.583,2.984-9.465,2.984
			c-3.854,0-6.975-1.019-9.354-3.059c-2.38-2.037-3.57-4.688-3.57-7.951c0-2.731,0.851-5.36,2.554-7.885
			c1.703-2.523,4.18-4.771,7.431-6.743H214.502z M201.873,154.323c0.659,0,1.206-0.208,1.636-0.628
			c0.431-0.42,0.646-0.952,0.646-1.604c0-0.672-0.213-1.229-0.638-1.669c-0.424-0.44-0.96-0.661-1.611-0.661
			c-0.617,0-1.155,0.229-1.612,0.686c-0.457,0.458-0.685,1.006-0.685,1.645c0,0.628,0.218,1.157,0.653,1.587
			C200.696,154.109,201.234,154.323,201.873,154.323z"/>
		<linearGradient id="SVGID_20_" gradientUnits="userSpaceOnUse" x1="227.25" y1="176.4272" x2="227.25" y2="127.4678">
			<stop  offset="0" style="stop-color:#FF614A"/>
			<stop  offset="0.9949" style="stop-color:#FFAA6A"/>
		</linearGradient>
		<path fill="url(#SVGID_20_)" d="M237.384,158.771v4.496h-20.268c2.744-3.405,4.794-6.102,6.15-8.091
			c1.354-1.99,2.033-3.624,2.033-4.902c0-0.727-0.237-1.339-0.711-1.835c-0.474-0.495-1.059-0.743-1.753-0.743
			c-0.903,0-1.779,0.358-2.627,1.074c-0.85,0.717-1.836,1.867-2.959,3.455l0.197-11.439c1.542-1.09,2.979-1.887,4.309-2.389
			c1.327-0.501,2.806-0.752,4.437-0.752c3.042,0,5.558,0.912,7.547,2.736c1.988,1.823,2.982,4.351,2.982,7.579
			c0,3.56-1.377,7.162-4.133,10.811H237.384z"/>
		<linearGradient id="SVGID_21_" gradientUnits="userSpaceOnUse" x1="248.3262" y1="176.4272" x2="248.3262" y2="127.4678">
			<stop  offset="0" style="stop-color:#FF614A"/>
			<stop  offset="0.9949" style="stop-color:#FFAA6A"/>
		</linearGradient>
		<path fill="url(#SVGID_21_)" d="M253.938,163.267h-11.226v-22.382l11.226-3.24V163.267z"/>
	</g>
	<g>
		<linearGradient id="SVGID_22_" gradientUnits="userSpaceOnUse" x1="143.4038" y1="115.5933" x2="143.4038" y2="86.2293">
			<stop  offset="0" style="stop-color:#FF7570"/>
			<stop  offset="0.9949" style="stop-color:#FFC99E"/>
		</linearGradient>
		<path fill="url(#SVGID_22_)" d="M154.637,107.769v6.792h-22.466v-27.06h22.466v6.792h-10.498v3.352h7.308v6.79h-7.308v3.334
			H154.637z"/>
		<linearGradient id="SVGID_23_" gradientUnits="userSpaceOnUse" x1="165.3267" y1="115.5933" x2="165.3267" y2="86.2301">
			<stop  offset="0" style="stop-color:#FF7570"/>
			<stop  offset="0.9949" style="stop-color:#FFC99E"/>
		</linearGradient>
		<path fill="url(#SVGID_23_)" d="M171.346,114.561h-12.039V90.552l12.039-3.476V114.561z"/>
		<linearGradient id="SVGID_24_" gradientUnits="userSpaceOnUse" x1="185.6211" y1="115.5933" x2="185.6211" y2="86.2293">
			<stop  offset="0" style="stop-color:#FF7570"/>
			<stop  offset="0.9949" style="stop-color:#FFC99E"/>
		</linearGradient>
		<path fill="url(#SVGID_24_)" d="M175.275,87.501h10.463c3.262,0,5.74,0.604,7.438,1.81c1.695,1.206,2.544,2.968,2.544,5.283
			c0,1.442-0.369,2.637-1.109,3.582c-0.74,0.946-1.895,1.773-3.467,2.483c3.215,1.182,4.823,3.356,4.823,6.524
			c0,2.354-0.827,4.17-2.482,5.453c-1.652,1.282-4.201,1.924-7.642,1.924h-10.568v-9.398c1.502,1.856,3.34,2.785,5.514,2.785
			c0.982,0,1.762-0.229,2.342-0.684c0.58-0.454,0.868-1.073,0.868-1.853c0-0.981-0.376-1.765-1.127-2.35
			c-0.749-0.585-1.758-0.878-3.021-0.878c-1.278,0-2.802,0.325-4.575,0.975v-4.786c1.242,0.33,2.582,0.496,4.025,0.496
			c1.37,0,2.453-0.272,3.246-0.816c0.791-0.543,1.187-1.276,1.187-2.198c0-0.805-0.296-1.445-0.887-1.924
			c-0.592-0.479-1.385-0.718-2.377-0.718c-1.04,0-2.02,0.251-2.942,0.753c-0.922,0.503-1.673,1.221-2.252,2.154V87.501z"/>
		<linearGradient id="SVGID_25_" gradientUnits="userSpaceOnUse" x1="208.6465" y1="115.5933" x2="208.6465" y2="86.2293">
			<stop  offset="0" style="stop-color:#FF7570"/>
			<stop  offset="0.9949" style="stop-color:#FFC99E"/>
		</linearGradient>
		<path fill="url(#SVGID_25_)" d="M198.301,87.501h10.459c3.267,0,5.744,0.604,7.441,1.81c1.695,1.206,2.542,2.968,2.542,5.283
			c0,1.442-0.37,2.637-1.105,3.582c-0.739,0.946-1.896,1.773-3.467,2.483c3.215,1.182,4.822,3.356,4.822,6.524
			c0,2.354-0.828,4.17-2.482,5.453c-1.655,1.282-4.203,1.924-7.642,1.924h-10.568v-9.398c1.499,1.856,3.339,2.785,5.515,2.785
			c0.979,0,1.76-0.229,2.34-0.684c0.578-0.454,0.868-1.073,0.868-1.853c0-0.981-0.373-1.765-1.127-2.35
			c-0.749-0.585-1.757-0.878-3.021-0.878c-1.278,0-2.802,0.325-4.575,0.975v-4.786c1.239,0.33,2.58,0.496,4.023,0.496
			c1.37,0,2.452-0.272,3.244-0.816c0.793-0.543,1.188-1.276,1.188-2.198c0-0.805-0.295-1.445-0.886-1.924
			c-0.591-0.479-1.384-0.718-2.377-0.718c-1.04,0-2.021,0.251-2.942,0.753c-0.923,0.503-1.672,1.221-2.251,2.154V87.501z"/>
	</g>
	<g>
		<linearGradient id="SVGID_26_" gradientUnits="userSpaceOnUse" x1="92.6533" y1="82.5869" x2="92.6533" y2="63.1382">
			<stop  offset="0" style="stop-color:#FF614A"/>
			<stop  offset="0.9949" style="stop-color:#FFAA6A"/>
		</linearGradient>
		<path fill="url(#SVGID_26_)" d="M99.868,79.18v4.361h-14.43V66.162h14.43v4.362h-6.742v2.152h4.691v4.361h-4.691v2.142H99.868z"/>
		<linearGradient id="SVGID_27_" gradientUnits="userSpaceOnUse" x1="108.71" y1="82.5869" x2="108.71" y2="63.1377">
			<stop  offset="0" style="stop-color:#FF614A"/>
			<stop  offset="0.9949" style="stop-color:#FFAA6A"/>
		</linearGradient>
		<path fill="url(#SVGID_27_)" d="M115.69,80.443v3.098h-13.961c1.89-2.346,3.302-4.204,4.235-5.575
			c0.934-1.369,1.4-2.495,1.4-3.376c0-0.501-0.163-0.922-0.489-1.264s-0.729-0.514-1.207-0.514c-0.623,0-1.228,0.247-1.812,0.741
			c-0.585,0.493-1.264,1.287-2.038,2.38l0.137-7.881c1.063-0.751,2.052-1.3,2.967-1.646s1.934-0.519,3.058-0.519
			c2.096,0,3.829,0.629,5.199,1.885c1.37,1.257,2.055,2.998,2.055,5.223c0,2.452-0.948,4.935-2.847,7.447H115.69z"/>
		<linearGradient id="SVGID_28_" gradientUnits="userSpaceOnUse" x1="124.4297" y1="82.5869" x2="124.4297" y2="63.1377">
			<stop  offset="0" style="stop-color:#FF614A"/>
			<stop  offset="0.9949" style="stop-color:#FFAA6A"/>
		</linearGradient>
		<path fill="url(#SVGID_28_)" d="M131.411,80.443v3.098h-13.963c1.891-2.346,3.304-4.204,4.236-5.575
			c0.934-1.369,1.401-2.495,1.401-3.376c0-0.501-0.163-0.922-0.49-1.264c-0.326-0.342-0.729-0.514-1.207-0.514
			c-0.622,0-1.226,0.247-1.811,0.741c-0.585,0.493-1.264,1.287-2.038,2.38l0.136-7.881c1.063-0.751,2.052-1.3,2.968-1.646
			c0.915-0.346,1.934-0.519,3.057-0.519c2.097,0,3.829,0.629,5.199,1.885c1.37,1.257,2.057,2.998,2.057,5.223
			c0,2.452-0.95,4.935-2.847,7.447H131.411z"/>
		<linearGradient id="SVGID_29_" gradientUnits="userSpaceOnUse" x1="138.0166" y1="82.5869" x2="138.0166" y2="63.1377">
			<stop  offset="0" style="stop-color:#FF614A"/>
			<stop  offset="0.9949" style="stop-color:#FFAA6A"/>
		</linearGradient>
		<path fill="url(#SVGID_29_)" d="M141.883,83.541h-7.732v-15.42l7.732-2.232V83.541z"/>
	</g>
</g>
</svg>
