<?xml version="1.0" encoding="utf-8"?>
<!-- Generator: Adobe Illustrator 16.0.0, SVG Export Plug-In . SVG Version: 6.00 Build 0)  -->
<!DOCTYPE svg PUBLIC "-//W3C//DTD SVG 1.1//EN" "http://www.w3.org/Graphics/SVG/1.1/DTD/svg11.dtd">
<svg version="1.1" id="Layer_1" xmlns="http://www.w3.org/2000/svg" xmlns:xlink="http://www.w3.org/1999/xlink" x="0px" y="0px"
	 width="300px" height="300px" viewBox="0 0 300 300" enable-background="new 0 0 300 300" xml:space="preserve">
<g>
	<g>
		<g>
			<g>
				<path fill="#FFC55E" d="M149.543,45.893c-68.165,0-123.621,55.457-123.621,123.622c0,3.997,0.198,7.949,0.57,11.851
					c1.448,15.155,5.645,29.52,12.083,42.591c20.167,40.94,62.329,69.181,110.967,69.181c68.165,0,123.622-55.457,123.622-123.622
					C273.165,101.35,217.708,45.893,149.543,45.893z"/>
			</g>
			<g>
				<path fill="#FFE384" d="M149.543,59.97c-59.955,0-108.807,48.418-109.527,108.207c-0.005,0.446-0.017,0.892-0.017,1.338
					c0,2.817,0.112,5.608,0.322,8.372c2.583,34.01,20.767,63.721,47.391,81.992c4.356,2.99,8.931,5.682,13.706,8.026
					c14.535,7.139,30.869,11.155,48.125,11.155c60.404,0,109.546-49.142,109.546-109.546
					C259.089,109.112,209.947,59.97,149.543,59.97z"/>
			</g>
		</g>
		<g>
			<linearGradient id="SVGID_1_" gradientUnits="userSpaceOnUse" x1="143.0454" y1="210.6201" x2="143.0454" y2="178.5591">
				<stop  offset="0" style="stop-color:#FFE384"/>
				<stop  offset="1" style="stop-color:#FFD073"/>
			</linearGradient>
			<path fill="url(#SVGID_1_)" d="M62.58,235.282c29.209,43.009,82.348,43.637,82.348,43.637l98.77-97.48l-1.173,0.118l-32.436-0.16
				l0.264-1.677l-20.146-1.096l-7.477,2.637l-50.322,0.258l-15.752-0.306l1.232-4.7l-15.66,3.498l-17.686,0.016l-1.402,1.32
				l-5.897,0.005H63.167l-8.797-0.968l-11.965,10.558C42.404,190.941,41.23,203.845,62.58,235.282z"/>
		</g>
		<g>
			<linearGradient id="SVGID_2_" gradientUnits="userSpaceOnUse" x1="156.6719" y1="153.1699" x2="156.6719" y2="139.0856">
				<stop  offset="0" style="stop-color:#FFE384"/>
				<stop  offset="1" style="stop-color:#FFD073"/>
			</linearGradient>
			<polygon fill="url(#SVGID_2_)" points="103.519,166.542 166.276,178.272 209.826,135.603 173.579,135.691 172.523,137.362 
				153.607,137.362 133.374,137.362 			"/>
		</g>
		<polygon fill="#FFE384" points="233.893,181.048 136.951,278.215 130.382,277.277 229.035,180.97 		"/>
		<polygon fill="#FFE384" points="212.965,178.507 117.947,274.228 111.555,270.709 207.039,177.568 		"/>
		<polygon fill="#FFE384" points="111.995,177.744 60.176,229.534 56.247,225.194 104.34,178.507 		"/>
		<polygon fill="#FFE384" points="146.453,179.094 76.539,248.655 71.964,238.801 135.661,176.748 		"/>
		<polygon fill="#FFE384" points="164.253,181.175 86.511,258.742 79.003,252.643 146.57,184.167 146.57,179.328 152.553,177.921 		
			"/>
		<polygon fill="#FFE384" points="76.422,176.278 46.803,206.425 44.339,200.619 68.622,176.924 		"/>
		<polygon fill="#FFE384" points="89.912,174.577 49.618,213.903 49.165,212.942 87.918,175.457 		"/>
		<polygon fill="#FFE384" points="190.676,177.627 101.291,267.014 97.537,264.843 185.749,178.507 		"/>
		<polygon fill="#FFE384" points="173.11,136.659 141.438,168.566 138.592,167.246 170.03,136.277 		"/>
		<polygon fill="#FFE384" points="196.541,134.4 149.62,180.149 146.658,177.393 191.469,133.052 		"/>
		<polygon fill="#FFE384" points="159.974,135.251 126.423,169.974 123.108,167.949 154.545,136.98 		"/>
		<g>
			<linearGradient id="SVGID_3_" gradientUnits="userSpaceOnUse" x1="132.6108" y1="237.041" x2="132.6108" y2="222.608">
				<stop  offset="0" style="stop-color:#FFE384"/>
				<stop  offset="1" style="stop-color:#FFD073"/>
			</linearGradient>
			<polygon fill="url(#SVGID_3_)" points="76.422,247.014 146.101,266.016 188.799,224.49 177.305,223.196 138.856,222.729 
				137.801,224.401 118.886,224.401 98.651,224.401 			"/>
		</g>
		<polygon fill="#FFE384" points="154.105,222.29 122.434,254.197 110.673,252.878 142.111,221.909 		"/>
		<polygon fill="#FFE384" points="179.18,222.848 132.257,268.597 125.777,265.605 170.588,221.264 		"/>
		<polygon fill="#FFE384" points="125.25,222.29 91.701,257.013 88.854,255.224 120.293,224.256 		"/>
		<g>
			<linearGradient id="SVGID_4_" gradientUnits="userSpaceOnUse" x1="101.9351" y1="118.6812" x2="101.9351" y2="109.2967">
				<stop  offset="0" style="stop-color:#FFE384"/>
				<stop  offset="1" style="stop-color:#FFD073"/>
			</linearGradient>
			<polygon fill="url(#SVGID_4_)" points="61.524,137.965 104.039,146.513 142.347,109.297 133.432,109.415 118.299,109.415 
				91.203,109.062 			"/>
		</g>
		<polygon fill="#FFE384" points="122.341,107.141 95.142,134.542 93.872,133.76 120.869,107.165 		"/>
		<polygon fill="#FFE384" points="137.655,107.186 95.249,148.477 94.934,146.696 136.716,105.544 		"/>
		<polygon fill="#FFE384" points="108.126,107.104 79.316,136.923 78.299,135.691 104.692,108.945 		"/>
		<g>
			<linearGradient id="SVGID_5_" gradientUnits="userSpaceOnUse" x1="158.0654" y1="262.4971" x2="158.0654" y2="250.7664">
				<stop  offset="0" style="stop-color:#FFE384"/>
				<stop  offset="1" style="stop-color:#FFD073"/>
			</linearGradient>
			<polygon fill="url(#SVGID_5_)" points="116.657,272.938 173.902,275.518 199.475,248.42 187.568,248.303 183.344,251.118 
				165.925,250.883 139.415,250.648 			"/>
		</g>
		<polygon fill="#FFE384" points="172.313,249.196 145.113,276.597 141.498,275.229 168.495,248.635 		"/>
		<polygon fill="#FFE384" points="189.621,247.951 160.529,277.044 157.714,277.044 187.511,247.013 		"/>
		<polygon fill="#FFE384" points="158.333,249.16 134.839,273.876 131.438,272.587 152.905,250.414 		"/>
		<g>
			<linearGradient id="SVGID_6_" gradientUnits="userSpaceOnUse" x1="145.458" y1="251.6309" x2="145.458" y2="232.394">
				<stop  offset="0" style="stop-color:#FF614A"/>
				<stop  offset="0.9949" style="stop-color:#FFAA6A"/>
			</linearGradient>
			<path fill="url(#SVGID_6_)" d="M152.152,247.166v4.048h-13.389v-16.126h13.389v4.047h-6.257v1.998h4.354v4.047h-4.354v1.986
				H152.152z"/>
			<linearGradient id="SVGID_7_" gradientUnits="userSpaceOnUse" x1="162.5215" y1="251.6309" x2="162.5215" y2="232.394">
				<stop  offset="0" style="stop-color:#FF614A"/>
				<stop  offset="0.9949" style="stop-color:#FFAA6A"/>
			</linearGradient>
			<path fill="url(#SVGID_7_)" d="M156.356,235.088h6.234c1.945,0,3.424,0.359,4.434,1.078c1.011,0.719,1.517,1.769,1.517,3.148
				c0,0.86-0.221,1.571-0.662,2.135c-0.439,0.563-1.129,1.057-2.063,1.479c1.915,0.704,2.872,2.001,2.872,3.889
				c0,1.401-0.492,2.484-1.479,3.249s-2.504,1.147-4.555,1.147h-6.298v-5.602c0.896,1.106,1.992,1.659,3.285,1.659
				c0.587,0,1.052-0.136,1.397-0.407c0.344-0.271,0.518-0.64,0.518-1.104c0-0.584-0.225-1.052-0.671-1.4
				c-0.448-0.349-1.05-0.523-1.804-0.523c-0.76,0-1.669,0.194-2.726,0.582v-2.854c0.74,0.197,1.541,0.296,2.399,0.296
				c0.816,0,1.462-0.162,1.934-0.486c0.473-0.324,0.708-0.761,0.708-1.311c0-0.479-0.176-0.86-0.528-1.146
				c-0.353-0.285-0.823-0.428-1.416-0.428c-0.62,0-1.204,0.15-1.755,0.449c-0.549,0.3-0.996,0.728-1.342,1.284V235.088z"/>
			<linearGradient id="SVGID_8_" gradientUnits="userSpaceOnUse" x1="176.8184" y1="251.6309" x2="176.8184" y2="232.3948">
				<stop  offset="0" style="stop-color:#FF614A"/>
				<stop  offset="0.9949" style="stop-color:#FFAA6A"/>
			</linearGradient>
			<path fill="url(#SVGID_8_)" d="M183.295,248.339v2.875h-12.954c1.753-2.178,3.063-3.901,3.931-5.173
				c0.866-1.271,1.3-2.317,1.3-3.134c0-0.465-0.151-0.855-0.454-1.172c-0.304-0.318-0.677-0.477-1.12-0.477
				c-0.578,0-1.138,0.229-1.68,0.687c-0.544,0.458-1.175,1.194-1.892,2.209l0.126-7.312c0.986-0.698,1.904-1.207,2.752-1.527
				c0.85-0.32,1.795-0.48,2.838-0.48c1.945,0,3.552,0.582,4.824,1.748c1.271,1.166,1.907,2.781,1.907,4.846
				c0,2.274-0.881,4.579-2.642,6.91H183.295z"/>
			<linearGradient id="SVGID_9_" gradientUnits="userSpaceOnUse" x1="192.8877" y1="251.6309" x2="192.8877" y2="232.3954">
				<stop  offset="0" style="stop-color:#FF614A"/>
				<stop  offset="0.9949" style="stop-color:#FFAA6A"/>
			</linearGradient>
			<path fill="url(#SVGID_9_)" d="M192.882,234.835c2.331,0,4.295,0.799,5.887,2.397c1.592,1.601,2.388,3.569,2.388,5.907
				c0,2.346-0.796,4.322-2.388,5.928c-1.592,1.606-3.556,2.41-5.887,2.41c-2.324,0-4.283-0.804-5.875-2.41
				c-1.592-1.605-2.388-3.582-2.388-5.928c0-2.338,0.796-4.307,2.388-5.907C188.599,235.634,190.558,234.835,192.882,234.835z
				 M192.882,244.397c0.479,0,0.874-0.16,1.184-0.48c0.31-0.321,0.464-0.725,0.464-1.211c0-0.485-0.154-0.889-0.464-1.209
				s-0.704-0.481-1.184-0.481c-0.465,0-0.854,0.162-1.167,0.486s-0.471,0.726-0.471,1.204c0,0.486,0.157,0.89,0.471,1.211
				C192.028,244.237,192.417,244.397,192.882,244.397z"/>
		</g>
		<g>
			<linearGradient id="SVGID_10_" gradientUnits="userSpaceOnUse" x1="109.0024" y1="234.0176" x2="109.0024" y2="192.8448">
				<stop  offset="0" style="stop-color:#FF7570"/>
				<stop  offset="0.9949" style="stop-color:#FFC99E"/>
			</linearGradient>
			<path fill="url(#SVGID_10_)" d="M119.701,218.104v6.468H98.304v-25.771h21.397v6.468h-9.998v3.19h6.957v6.469h-6.957v3.176
				H119.701z"/>
			<linearGradient id="SVGID_11_" gradientUnits="userSpaceOnUse" x1="135.397" y1="234.0186" x2="135.397" y2="192.8438">
				<stop  offset="0" style="stop-color:#FF7570"/>
				<stop  offset="0.9949" style="stop-color:#FFC99E"/>
			</linearGradient>
			<path fill="url(#SVGID_11_)" d="M122.689,224.571v-0.457c3.333-1.035,6.192-2.819,8.579-5.354
				c-2.926-0.438-5.187-1.505-6.78-3.199c-1.593-1.694-2.391-3.797-2.391-6.308c0-3.174,1.246-5.778,3.733-7.81
				c2.488-2.032,5.708-3.05,9.66-3.05c3.941,0,7.127,1.039,9.559,3.117c2.432,2.076,3.647,4.781,3.647,8.113
				c0,2.781-0.867,5.464-2.6,8.048c-1.734,2.584-4.268,4.883-7.599,6.898H122.689z M135.592,207.937
				c-0.665,0-1.216,0.218-1.654,0.65c-0.44,0.434-0.659,0.977-0.659,1.629c0,0.688,0.215,1.256,0.642,1.706
				c0.428,0.451,0.973,0.676,1.638,0.676c0.643,0,1.194-0.232,1.656-0.701c0.461-0.467,0.692-1.026,0.692-1.681
				c0-0.642-0.224-1.181-0.667-1.62C136.793,208.156,136.246,207.937,135.592,207.937z"/>
			<linearGradient id="SVGID_12_" gradientUnits="userSpaceOnUse" x1="162.2168" y1="234.0176" x2="162.2168" y2="192.8455">
				<stop  offset="0" style="stop-color:#FF7570"/>
				<stop  offset="0.9949" style="stop-color:#FFC99E"/>
			</linearGradient>
			<path fill="url(#SVGID_12_)" d="M174.148,198.801v4.61h-9.103l-0.895,3.479c2.881,0.191,5.085,1.039,6.61,2.542
				c1.526,1.503,2.29,3.471,2.29,5.902c0,2.814-1.034,5.128-3.102,6.94c-2.064,1.813-4.713,2.719-7.944,2.719
				c-2.78,0-5.296-0.597-7.548-1.79c-2.252-1.192-3.643-2.837-4.173-4.931l0.204-0.236c1.835,1.249,3.782,1.874,5.844,1.874
				c1.553,0,2.813-0.341,3.783-1.021c0.966-0.682,1.451-1.557,1.451-2.626c0-2.185-1.848-3.277-5.54-3.277
				c-2.05,0-3.687,0.429-4.912,1.284l-0.272-0.22l3.8-15.249H174.148z"/>
			<linearGradient id="SVGID_13_" gradientUnits="userSpaceOnUse" x1="182.7266" y1="234.0186" x2="182.7266" y2="192.8438">
				<stop  offset="0" style="stop-color:#FF7570"/>
				<stop  offset="0.9949" style="stop-color:#FFC99E"/>
			</linearGradient>
			<path fill="url(#SVGID_13_)" d="M188.461,224.571h-11.468v-22.866l11.468-3.311V224.571z"/>
		</g>
		<g>
			<linearGradient id="SVGID_14_" gradientUnits="userSpaceOnUse" x1="67.9038" y1="193.4238" x2="67.9038" y2="149.13">
				<stop  offset="0" style="stop-color:#FF614A"/>
				<stop  offset="0.9949" style="stop-color:#FFAA6A"/>
			</linearGradient>
			<path fill="url(#SVGID_14_)" d="M53.966,181.518v-22.821h9.81l4.129,4.755l4.143-4.755h9.794v22.821H71.733v-11.426l-3.829,4.411
				l-3.829-4.411v11.426H53.966z"/>
			<linearGradient id="SVGID_15_" gradientUnits="userSpaceOnUse" x1="95.0845" y1="193.4238" x2="95.0845" y2="149.1311">
				<stop  offset="0" style="stop-color:#FF614A"/>
				<stop  offset="0.9949" style="stop-color:#FFAA6A"/>
			</linearGradient>
			<path fill="url(#SVGID_15_)" d="M105.396,159.862l-2.512,7.194c-1.645-2.225-3.535-3.336-5.668-3.336
				c-1.188,0-1.781,0.45-1.781,1.346c0,0.279,0.188,0.563,0.562,0.854c0.373,0.289,1.353,0.742,2.937,1.36
				c1.746,0.688,3.089,1.313,4.031,1.877s1.648,1.284,2.117,2.162c0.468,0.876,0.702,1.898,0.702,3.064
				c0,2.443-0.927,4.306-2.781,5.586c-1.854,1.281-4.582,1.922-8.182,1.922c-4.037,0-7.517-0.573-10.438-1.72l2.467-7.627
				c0.718,1.117,1.609,2.004,2.67,2.661c1.061,0.658,2.081,0.988,3.058,0.988c0.479,0,0.88-0.125,1.204-0.374
				c0.324-0.25,0.486-0.554,0.486-0.912c0-0.34-0.157-0.664-0.471-0.973c-0.313-0.31-1.144-0.738-2.49-1.286
				c-1.216-0.488-2.223-0.966-3.02-1.429c-0.799-0.463-1.491-1.124-2.08-1.981c-0.588-0.856-0.882-1.938-0.882-3.245
				c0-2.532,0.922-4.441,2.767-5.728c1.844-1.286,4.565-1.929,8.166-1.929C99.549,158.338,102.596,158.846,105.396,159.862z"/>
			<linearGradient id="SVGID_16_" gradientUnits="userSpaceOnUse" x1="119.769" y1="193.4238" x2="119.769" y2="149.1311">
				<stop  offset="0" style="stop-color:#FF614A"/>
				<stop  offset="0.9949" style="stop-color:#FFAA6A"/>
			</linearGradient>
			<path fill="url(#SVGID_16_)" d="M131.644,161.388l-4.876,6.865c-2.035-0.978-3.913-1.466-5.639-1.466
				c-1.146,0-2.065,0.297-2.758,0.891c-0.694,0.592-1.039,1.377-1.039,2.354c0,1.856,1.215,2.782,3.648,2.782v-3.574h10.11v12.308
				c-4.088,0.23-6.854,0.345-8.3,0.345c-5.583,0-9.461-1.187-11.635-3.56c-2.174-2.373-3.261-5.139-3.261-8.301
				c0-2.173,0.506-4.166,1.518-5.98c1.012-1.815,2.473-3.221,4.382-4.218c1.91-0.998,4.171-1.495,6.783-1.495
				c1.834,0,3.733,0.266,5.697,0.8C128.238,159.671,130.028,160.421,131.644,161.388z"/>
			<linearGradient id="SVGID_17_" gradientUnits="userSpaceOnUse" x1="146.9946" y1="193.4238" x2="146.9946" y2="149.1301">
				<stop  offset="0" style="stop-color:#FF614A"/>
				<stop  offset="0.9949" style="stop-color:#FFAA6A"/>
			</linearGradient>
			<path fill="url(#SVGID_17_)" d="M147.376,158.696h4.905l-5.667,25.483h-4.906L147.376,158.696z"/>
			<linearGradient id="SVGID_18_" gradientUnits="userSpaceOnUse" x1="173.2109" y1="193.4238" x2="173.2109" y2="149.13">
				<stop  offset="0" style="stop-color:#FF614A"/>
				<stop  offset="0.9949" style="stop-color:#FFAA6A"/>
			</linearGradient>
			<path fill="url(#SVGID_18_)" d="M182.685,175.791v5.727h-18.947v-22.821h18.947v5.729h-8.854v2.826h6.162v5.729h-6.162v2.812
				H182.685z"/>
			<linearGradient id="SVGID_19_" gradientUnits="userSpaceOnUse" x1="196.6455" y1="193.4238" x2="196.6455" y2="149.1298">
				<stop  offset="0" style="stop-color:#FF614A"/>
				<stop  offset="0.9949" style="stop-color:#FFAA6A"/>
			</linearGradient>
			<path fill="url(#SVGID_19_)" d="M207.898,158.696v0.404c-2.911,0.896-5.442,2.477-7.598,4.74
				c2.594,0.389,4.595,1.333,6.006,2.834c1.41,1.5,2.115,3.368,2.115,5.601c0,2.811-1.098,5.117-3.298,6.917
				c-2.197,1.799-5.051,2.699-8.561,2.699c-3.49,0-6.312-0.922-8.464-2.767c-2.154-1.845-3.23-4.242-3.23-7.193
				c0-2.473,0.77-4.851,2.311-7.134c1.54-2.283,3.781-4.317,6.722-6.102H207.898z M196.474,173.427c0.599,0,1.091-0.189,1.479-0.568
				c0.39-0.378,0.584-0.862,0.584-1.45c0-0.608-0.192-1.112-0.575-1.511c-0.384-0.397-0.871-0.599-1.458-0.599
				c-0.56,0-1.046,0.208-1.458,0.621c-0.415,0.414-0.621,0.911-0.621,1.488c0,0.568,0.196,1.048,0.591,1.436
				C195.408,173.232,195.895,173.427,196.474,173.427z"/>
			<linearGradient id="SVGID_20_" gradientUnits="userSpaceOnUse" x1="219.4336" y1="193.4238" x2="219.4336" y2="149.1314">
				<stop  offset="0" style="stop-color:#FF614A"/>
				<stop  offset="0.9949" style="stop-color:#FFAA6A"/>
			</linearGradient>
			<path fill="url(#SVGID_20_)" d="M228.602,177.449v4.068h-18.335c2.48-3.08,4.337-5.521,5.562-7.321
				c1.226-1.799,1.84-3.276,1.84-4.433c0-0.659-0.217-1.213-0.645-1.661s-0.956-0.672-1.584-0.672c-0.818,0-1.612,0.323-2.377,0.972
				c-0.769,0.647-1.66,1.689-2.678,3.125l0.179-10.349c1.396-0.987,2.695-1.707,3.896-2.16c1.201-0.454,2.539-0.681,4.014-0.681
				c2.754,0,5.029,0.824,6.829,2.475s2.698,3.936,2.698,6.855c0,3.222-1.246,6.482-3.738,9.781H228.602z"/>
			<linearGradient id="SVGID_21_" gradientUnits="userSpaceOnUse" x1="238.5" y1="193.4238" x2="238.5" y2="149.1314">
				<stop  offset="0" style="stop-color:#FF614A"/>
				<stop  offset="0.9949" style="stop-color:#FFAA6A"/>
			</linearGradient>
			<path fill="url(#SVGID_21_)" d="M243.578,181.518h-10.155v-20.249l10.155-2.931V181.518z"/>
		</g>
		<g>
			<linearGradient id="SVGID_22_" gradientUnits="userSpaceOnUse" x1="143.5762" y1="138.3867" x2="143.5762" y2="111.821">
				<stop  offset="0" style="stop-color:#FF7570"/>
				<stop  offset="0.9949" style="stop-color:#FFC99E"/>
			</linearGradient>
			<path fill="url(#SVGID_22_)" d="M153.738,131.309v6.144h-20.325v-24.481h20.325v6.146h-9.496v3.031h6.609v6.145h-6.609v3.016
				H153.738z"/>
			<linearGradient id="SVGID_23_" gradientUnits="userSpaceOnUse" x1="163.4102" y1="138.3867" x2="163.4102" y2="111.8212">
				<stop  offset="0" style="stop-color:#FF7570"/>
				<stop  offset="0.9949" style="stop-color:#FFC99E"/>
			</linearGradient>
			<path fill="url(#SVGID_23_)" d="M168.855,137.453h-10.892v-21.72l10.892-3.146V137.453z"/>
			<linearGradient id="SVGID_24_" gradientUnits="userSpaceOnUse" x1="181.7715" y1="138.3867" x2="181.7715" y2="111.821">
				<stop  offset="0" style="stop-color:#FF7570"/>
				<stop  offset="0.9949" style="stop-color:#FFC99E"/>
			</linearGradient>
			<path fill="url(#SVGID_24_)" d="M172.411,112.972h9.464c2.953,0,5.195,0.547,6.73,1.637c1.534,1.091,2.303,2.686,2.303,4.781
				c0,1.305-0.336,2.385-1.003,3.241c-0.669,0.856-1.715,1.604-3.137,2.246c2.908,1.069,4.363,3.039,4.363,5.904
				c0,2.128-0.749,3.771-2.246,4.932c-1.496,1.161-3.801,1.741-6.914,1.741h-9.561v-8.502c1.357,1.679,3.021,2.519,4.989,2.519
				c0.887,0,1.592-0.206,2.117-0.618c0.523-0.411,0.786-0.97,0.786-1.675c0-0.889-0.339-1.597-1.02-2.126
				c-0.678-0.529-1.59-0.794-2.735-0.794c-1.154,0-2.534,0.294-4.138,0.882v-4.331c1.122,0.3,2.337,0.45,3.641,0.45
				c1.241,0,2.221-0.246,2.937-0.738c0.717-0.492,1.073-1.155,1.073-1.989c0-0.728-0.267-1.308-0.801-1.741
				c-0.535-0.433-1.251-0.649-2.15-0.649c-0.94,0-1.828,0.227-2.662,0.682c-0.835,0.455-1.514,1.104-2.037,1.949V112.972z"/>
			<linearGradient id="SVGID_25_" gradientUnits="userSpaceOnUse" x1="202.6016" y1="138.3867" x2="202.6016" y2="111.821">
				<stop  offset="0" style="stop-color:#FF7570"/>
				<stop  offset="0.9949" style="stop-color:#FFC99E"/>
			</linearGradient>
			<path fill="url(#SVGID_25_)" d="M193.24,112.972h9.466c2.952,0,5.194,0.547,6.73,1.637c1.533,1.091,2.302,2.686,2.302,4.781
				c0,1.305-0.335,2.385-1.004,3.241c-0.667,0.856-1.714,1.604-3.136,2.246c2.909,1.069,4.364,3.039,4.364,5.904
				c0,2.128-0.75,3.771-2.247,4.932s-3.8,1.741-6.914,1.741h-9.562v-8.502c1.359,1.679,3.021,2.519,4.99,2.519
				c0.887,0,1.593-0.206,2.117-0.618c0.523-0.411,0.787-0.97,0.787-1.675c0-0.889-0.34-1.597-1.021-2.126
				c-0.678-0.529-1.591-0.794-2.734-0.794c-1.155,0-2.535,0.294-4.14,0.882v-4.331c1.124,0.3,2.337,0.45,3.643,0.45
				c1.241,0,2.22-0.246,2.937-0.738c0.716-0.492,1.073-1.155,1.073-1.989c0-0.728-0.268-1.308-0.802-1.741
				c-0.535-0.433-1.251-0.649-2.15-0.649c-0.94,0-1.827,0.227-2.661,0.682c-0.836,0.455-1.516,1.104-2.039,1.949V112.972z"/>
		</g>
		<g>
			<linearGradient id="SVGID_26_" gradientUnits="userSpaceOnUse" x1="97.6616" y1="108.5264" x2="97.6616" y2="90.9311">
				<stop  offset="0" style="stop-color:#FF614A"/>
				<stop  offset="0.9949" style="stop-color:#FFAA6A"/>
			</linearGradient>
			<path fill="url(#SVGID_26_)" d="M104.189,105.444v3.946H91.135V93.667h13.054v3.946h-6.1v1.946h4.245v3.947h-4.245v1.938H104.189
				z"/>
			<linearGradient id="SVGID_27_" gradientUnits="userSpaceOnUse" x1="112.1885" y1="108.5264" x2="112.1885" y2="90.93">
				<stop  offset="0" style="stop-color:#FF614A"/>
				<stop  offset="0.9949" style="stop-color:#FFAA6A"/>
			</linearGradient>
			<path fill="url(#SVGID_27_)" d="M118.504,106.586v2.803h-12.632c1.71-2.123,2.988-3.803,3.833-5.043
				c0.845-1.24,1.268-2.259,1.268-3.055c0-0.454-0.148-0.834-0.443-1.144c-0.295-0.309-0.659-0.464-1.092-0.464
				c-0.563,0-1.109,0.224-1.638,0.67c-0.529,0.445-1.144,1.164-1.844,2.153l0.123-7.131c0.963-0.679,1.856-1.175,2.685-1.488
				c0.828-0.312,1.749-0.469,2.766-0.469c1.896,0,3.464,0.569,4.704,1.705c1.24,1.138,1.859,2.712,1.859,4.724
				c0,2.219-0.858,4.465-2.575,6.738H118.504z"/>
			<linearGradient id="SVGID_28_" gradientUnits="userSpaceOnUse" x1="126.4106" y1="108.5264" x2="126.4106" y2="90.93">
				<stop  offset="0" style="stop-color:#FF614A"/>
				<stop  offset="0.9949" style="stop-color:#FFAA6A"/>
			</linearGradient>
			<path fill="url(#SVGID_28_)" d="M132.727,106.586v2.803h-12.632c1.71-2.123,2.988-3.803,3.833-5.043
				c0.845-1.24,1.268-2.259,1.268-3.055c0-0.454-0.148-0.834-0.443-1.144c-0.295-0.309-0.659-0.464-1.092-0.464
				c-0.563,0-1.109,0.224-1.638,0.67c-0.529,0.445-1.144,1.164-1.844,2.153l0.123-7.131c0.962-0.679,1.856-1.175,2.685-1.488
				c0.828-0.312,1.75-0.469,2.766-0.469c1.897,0,3.465,0.569,4.705,1.705c1.239,1.138,1.859,2.712,1.859,4.724
				c0,2.219-0.858,4.465-2.575,6.738H132.727z"/>
			<linearGradient id="SVGID_29_" gradientUnits="userSpaceOnUse" x1="138.7026" y1="108.5264" x2="138.7026" y2="90.93">
				<stop  offset="0" style="stop-color:#FF614A"/>
				<stop  offset="0.9949" style="stop-color:#FFAA6A"/>
			</linearGradient>
			<path fill="url(#SVGID_29_)" d="M142.201,109.39h-6.996V95.438l6.996-2.02V109.39z"/>
		</g>
	</g>
	<circle fill="none" cx="150" cy="169.274" r="128.724"/>
	<text transform="matrix(0.5808 -0.8141 0.8141 0.5808 33.9233 110.3198)"><tspan x="0" y="0" fill="#FFC55E" font-family="'GillSans-UltraBold'" font-size="38.9986">A</tspan><tspan x="36.253" y="-0.039" fill="#FFC55E" font-family="'GillSans-UltraBold'" font-size="38.9986" rotate="15.05">D</tspan><tspan x="66.067" y="7.508" fill="#FFC55E" font-family="'GillSans-UltraBold'" font-size="38.9986" rotate="28.639">D</tspan><tspan x="93.046" y="22.687" fill="#FFC55E" font-family="'GillSans-UltraBold'" font-size="38.9986" rotate="38.953">I</tspan><tspan x="105.369" y="31.908" fill="#FFC55E" font-family="'GillSans-UltraBold'" font-size="38.9986" rotate="47.703">T</tspan><tspan x="121.4" y="49.642" fill="#FFC55E" font-family="'GillSans-UltraBold'" font-size="38.9986" rotate="56.321">I</tspan><tspan x="130.649" y="61.871" fill="#FFC55E" font-family="'GillSans-UltraBold'" font-size="38.9986" rotate="66.218">V</tspan><tspan x="142.098" y="87.186" fill="#FFC55E" font-family="'GillSans-UltraBold'" font-size="38.9986" rotate="77.532">E</tspan><tspan x="147.837" y="111.798" fill="#FFC55E" font-family="'GillSans-UltraBold'" font-size="38.9986" rotate="88.84">S</tspan></text>
</g>
</svg>
