<?xml version="1.0" encoding="utf-8"?>
<!-- Generator: Adobe Illustrator 16.0.0, SVG Export Plug-In . SVG Version: 6.00 Build 0)  -->
<!DOCTYPE svg PUBLIC "-//W3C//DTD SVG 1.1//EN" "http://www.w3.org/Graphics/SVG/1.1/DTD/svg11.dtd">
<svg version="1.1" id="Layer_1" xmlns="http://www.w3.org/2000/svg" xmlns:xlink="http://www.w3.org/1999/xlink" x="0px" y="0px"
	 width="300px" height="300px" viewBox="0 0 300 300" enable-background="new 0 0 300 300" xml:space="preserve">
<g>
	<g>
		<g>
			<g>
				<path fill="#FFCE5E" d="M148.821,45.58c-68.208,0-123.697,55.49-123.697,123.698c0,3.999,0.198,7.953,0.57,11.856
					c1.449,15.165,5.648,29.537,12.091,42.617c20.179,40.967,62.366,69.224,111.035,69.224c68.206,0,123.697-55.492,123.697-123.697
					C272.518,101.069,217.026,45.58,148.821,45.58z"/>
			</g>
			<g>
				<path fill="#FFE384" d="M148.821,59.664c-59.993,0-108.874,48.448-109.595,108.274c-0.005,0.445-0.017,0.891-0.017,1.339
					c0,2.818,0.113,5.611,0.323,8.376c2.584,34.03,20.78,63.759,47.421,82.043c4.358,2.992,8.936,5.686,13.714,8.031
					c14.544,7.144,30.888,11.162,48.155,11.162c60.44,0,109.612-49.172,109.612-109.612
					C258.433,108.836,209.261,59.664,148.821,59.664z"/>
			</g>
		</g>
		<g>
			<linearGradient id="SVGID_1_" gradientUnits="userSpaceOnUse" x1="142.3184" y1="210.4072" x2="142.3184" y2="178.3269">
				<stop  offset="0" style="stop-color:#FFE384"/>
				<stop  offset="1" style="stop-color:#FFD073"/>
			</linearGradient>
			<path fill="url(#SVGID_1_)" d="M61.804,235.084c29.227,43.036,82.398,43.663,82.398,43.663l98.83-97.538l-1.174,0.117
				l-32.454-0.16l0.264-1.678l-20.159-1.098l-7.481,2.639l-50.352,0.259l-15.762-0.307l1.233-4.702l-15.67,3.5l-17.696,0.014
				l-1.404,1.321l-5.901,0.006H62.391l-8.803-0.969l-11.973,10.564C41.616,190.716,40.441,203.626,61.804,235.084z"/>
		</g>
		<g>
			<linearGradient id="SVGID_2_" gradientUnits="userSpaceOnUse" x1="155.9531" y1="152.9209" x2="155.9531" y2="138.8279">
				<stop  offset="0" style="stop-color:#FFE384"/>
				<stop  offset="1" style="stop-color:#FFD073"/>
			</linearGradient>
			<polygon fill="url(#SVGID_2_)" points="102.768,166.302 165.564,178.039 209.14,135.343 172.87,135.432 171.814,137.104 
				152.887,137.104 132.641,137.104 			"/>
		</g>
		<polygon fill="#FFE384" points="233.221,180.817 136.221,278.043 129.647,277.105 228.361,180.738 		"/>
		<polygon fill="#FFE384" points="212.28,178.272 117.205,274.052 110.809,270.531 206.352,177.335 		"/>
		<polygon fill="#FFE384" points="111.249,177.511 59.398,229.332 55.467,224.989 103.59,178.274 		"/>
		<polygon fill="#FFE384" points="145.728,178.861 75.772,248.465 71.194,238.605 134.929,176.514 		"/>
		<polygon fill="#FFE384" points="163.54,180.944 85.749,258.559 78.237,252.456 145.844,183.937 145.844,179.095 151.831,177.687 
					"/>
		<polygon fill="#FFE384" points="75.654,176.043 46.017,206.209 43.552,200.398 67.849,176.69 		"/>
		<polygon fill="#FFE384" points="89.153,174.343 48.834,213.692 48.38,212.729 87.157,175.223 		"/>
		<polygon fill="#FFE384" points="189.979,177.395 100.538,266.836 96.782,264.662 185.048,178.272 		"/>
		<polygon fill="#FFE384" points="172.401,136.401 140.71,168.326 137.862,167.006 169.319,136.019 		"/>
		<polygon fill="#FFE384" points="195.848,134.141 148.897,179.918 145.933,177.159 190.771,132.792 		"/>
		<polygon fill="#FFE384" points="159.255,134.992 125.686,169.734 122.369,167.709 153.826,136.723 		"/>
		<g>
			<linearGradient id="SVGID_3_" gradientUnits="userSpaceOnUse" x1="131.8774" y1="236.8457" x2="131.8774" y2="222.4043">
				<stop  offset="0" style="stop-color:#FFE384"/>
				<stop  offset="1" style="stop-color:#FFD073"/>
			</linearGradient>
			<polygon fill="url(#SVGID_3_)" points="75.654,246.823 145.375,265.837 188.101,224.287 176.6,222.99 138.127,222.525 
				137.071,224.196 118.144,224.196 97.896,224.196 			"/>
		</g>
		<polygon fill="#FFE384" points="153.385,222.084 121.694,254.01 109.926,252.691 141.383,221.704 		"/>
		<polygon fill="#FFE384" points="178.475,222.642 131.524,268.42 125.04,265.426 169.877,221.058 		"/>
		<polygon fill="#FFE384" points="124.512,222.084 90.942,256.828 88.095,255.036 119.552,224.05 		"/>
		<g>
			<linearGradient id="SVGID_4_" gradientUnits="userSpaceOnUse" x1="99.8052" y1="133.3901" x2="103.6787" y2="105.2194">
				<stop  offset="0" style="stop-color:#FFE384"/>
				<stop  offset="1" style="stop-color:#FFD073"/>
			</linearGradient>
			<polygon fill="url(#SVGID_4_)" points="60.747,137.708 103.288,146.261 141.619,109.021 132.699,109.139 117.557,109.139 
				90.444,108.787 			"/>
		</g>
		<polygon fill="#FFE384" points="121.601,106.864 94.386,134.282 93.115,133.5 120.129,106.889 		"/>
		<polygon fill="#FFE384" points="136.925,106.91 94.492,148.226 94.177,146.444 135.985,105.266 		"/>
		<polygon fill="#FFE384" points="107.378,106.829 78.55,136.665 77.532,135.432 103.942,108.67 		"/>
		<g>
			<linearGradient id="SVGID_5_" gradientUnits="userSpaceOnUse" x1="157.3477" y1="262.3154" x2="157.3477" y2="250.5776">
				<stop  offset="0" style="stop-color:#FFE384"/>
				<stop  offset="1" style="stop-color:#FFD073"/>
			</linearGradient>
			<polygon fill="url(#SVGID_5_)" points="115.914,272.763 173.193,275.344 198.782,248.231 186.868,248.112 182.643,250.931 
				165.213,250.695 138.685,250.46 			"/>
		</g>
		<polygon fill="#FFE384" points="171.604,249.007 144.389,276.423 140.77,275.055 167.784,248.445 		"/>
		<polygon fill="#FFE384" points="188.923,247.761 159.812,276.87 156.995,276.87 186.811,246.821 		"/>
		<polygon fill="#FFE384" points="157.615,248.971 134.106,273.702 130.704,272.41 152.185,250.225 		"/>
		<g>
			<linearGradient id="SVGID_6_" gradientUnits="userSpaceOnUse" x1="144.7329" y1="251.4424" x2="144.7329" y2="232.1939">
				<stop  offset="0" style="stop-color:#FF614A"/>
				<stop  offset="0.9949" style="stop-color:#FFAA6A"/>
			</linearGradient>
			<path fill="url(#SVGID_6_)" d="M151.432,246.976v4.05h-13.398V234.89h13.398v4.051h-6.261v1.997h4.356v4.051h-4.356v1.987
				H151.432z"/>
			<linearGradient id="SVGID_7_" gradientUnits="userSpaceOnUse" x1="161.8076" y1="251.4424" x2="161.8076" y2="232.1939">
				<stop  offset="0" style="stop-color:#FF614A"/>
				<stop  offset="0.9949" style="stop-color:#FFAA6A"/>
			</linearGradient>
			<path fill="url(#SVGID_7_)" d="M155.639,234.89h6.239c1.944,0,3.423,0.36,4.435,1.078c1.012,0.72,1.518,1.77,1.518,3.152
				c0,0.86-0.221,1.572-0.662,2.136c-0.439,0.563-1.129,1.057-2.065,1.479c1.916,0.704,2.874,2.001,2.874,3.89
				c0,1.404-0.492,2.488-1.48,3.252c-0.986,0.766-2.505,1.148-4.558,1.148h-6.3v-5.604c0.896,1.107,1.992,1.661,3.288,1.661
				c0.585,0,1.05-0.137,1.396-0.409c0.345-0.271,0.519-0.639,0.519-1.104c0-0.585-0.225-1.052-0.672-1.4
				c-0.448-0.35-1.049-0.524-1.802-0.524c-0.762,0-1.673,0.194-2.729,0.582v-2.855c0.739,0.197,1.541,0.296,2.4,0.296
				c0.817,0,1.461-0.162,1.935-0.486c0.472-0.324,0.709-0.762,0.709-1.312c0-0.479-0.178-0.862-0.529-1.146
				c-0.353-0.287-0.824-0.43-1.417-0.43c-0.62,0-1.205,0.152-1.756,0.451c-0.55,0.299-0.996,0.728-1.342,1.283V234.89z"/>
			<linearGradient id="SVGID_8_" gradientUnits="userSpaceOnUse" x1="176.1113" y1="251.4424" x2="176.1113" y2="232.1949">
				<stop  offset="0" style="stop-color:#FF614A"/>
				<stop  offset="0.9949" style="stop-color:#FFAA6A"/>
			</linearGradient>
			<path fill="url(#SVGID_8_)" d="M182.593,248.148v2.877h-12.962c1.756-2.179,3.065-3.903,3.934-5.175
				c0.866-1.274,1.3-2.318,1.3-3.137c0-0.465-0.151-0.856-0.454-1.173c-0.304-0.318-0.677-0.477-1.121-0.477
				c-0.58,0-1.139,0.229-1.682,0.688c-0.543,0.457-1.175,1.195-1.893,2.209l0.127-7.315c0.986-0.697,1.905-1.208,2.754-1.528
				c0.851-0.32,1.796-0.48,2.839-0.48c1.947,0,3.555,0.583,4.827,1.75c1.272,1.165,1.909,2.783,1.909,4.848
				c0,2.276-0.883,4.582-2.644,6.914H182.593z"/>
			<linearGradient id="SVGID_9_" gradientUnits="userSpaceOnUse" x1="192.1904" y1="251.4424" x2="192.1904" y2="232.1956">
				<stop  offset="0" style="stop-color:#FF614A"/>
				<stop  offset="0.9949" style="stop-color:#FFAA6A"/>
			</linearGradient>
			<path fill="url(#SVGID_9_)" d="M192.186,234.637c2.333,0,4.297,0.799,5.89,2.398c1.594,1.601,2.389,3.572,2.389,5.912
				c0,2.347-0.795,4.323-2.389,5.931c-1.593,1.608-3.557,2.411-5.89,2.411c-2.326,0-4.286-0.803-5.879-2.411
				c-1.593-1.607-2.39-3.584-2.39-5.931c0-2.34,0.797-4.312,2.39-5.912C187.899,235.436,189.859,234.637,192.186,234.637z
				 M192.186,244.205c0.48,0,0.875-0.16,1.185-0.481c0.309-0.32,0.464-0.724,0.464-1.212c0-0.484-0.155-0.888-0.464-1.208
				c-0.31-0.32-0.704-0.482-1.185-0.482c-0.465,0-0.854,0.162-1.168,0.486s-0.471,0.726-0.471,1.204
				c0,0.488,0.157,0.892,0.471,1.212C191.331,244.045,191.721,244.205,192.186,244.205z"/>
		</g>
		<g>
			<linearGradient id="SVGID_10_" gradientUnits="userSpaceOnUse" x1="108.2544" y1="233.8184" x2="108.2544" y2="192.6222">
				<stop  offset="0" style="stop-color:#FF7570"/>
				<stop  offset="0.9949" style="stop-color:#FFC99E"/>
			</linearGradient>
			<path fill="url(#SVGID_10_)" d="M118.959,217.896v6.471H97.549v-25.785h21.411v6.472h-10.003v3.193h6.961v6.471h-6.961v3.179
				H118.959z"/>
			<linearGradient id="SVGID_11_" gradientUnits="userSpaceOnUse" x1="134.6655" y1="233.8193" x2="134.6655" y2="192.62">
				<stop  offset="0" style="stop-color:#FF7570"/>
				<stop  offset="0.9949" style="stop-color:#FFC99E"/>
			</linearGradient>
			<path fill="url(#SVGID_11_)" d="M121.95,224.366v-0.457c3.335-1.036,6.196-2.819,8.585-5.355
				c-2.929-0.438-5.19-1.507-6.785-3.201c-1.594-1.695-2.392-3.8-2.392-6.312c0-3.178,1.247-5.782,3.735-7.815
				c2.49-2.033,5.712-3.052,9.666-3.052c3.942,0,7.131,1.04,9.563,3.119c2.434,2.078,3.649,4.784,3.649,8.118
				c0,2.782-0.868,5.467-2.601,8.053c-1.736,2.585-4.271,4.886-7.604,6.902H121.95z M134.86,207.723
				c-0.665,0-1.216,0.217-1.654,0.65c-0.441,0.433-0.66,0.977-0.66,1.629c0,0.688,0.214,1.258,0.642,1.707
				c0.429,0.451,0.974,0.677,1.639,0.677c0.642,0,1.194-0.233,1.656-0.702c0.462-0.467,0.693-1.026,0.693-1.682
				c0-0.643-0.224-1.183-0.668-1.621C136.062,207.941,135.515,207.723,134.86,207.723z"/>
			<linearGradient id="SVGID_12_" gradientUnits="userSpaceOnUse" x1="161.501" y1="233.8203" x2="161.501" y2="192.6221">
				<stop  offset="0" style="stop-color:#FF7570"/>
				<stop  offset="0.9949" style="stop-color:#FFC99E"/>
			</linearGradient>
			<path fill="url(#SVGID_12_)" d="M173.44,198.581v4.612h-9.107l-0.896,3.48c2.883,0.192,5.088,1.04,6.615,2.543
				c1.527,1.506,2.29,3.474,2.29,5.906c0,2.815-1.034,5.132-3.103,6.945c-2.067,1.813-4.717,2.722-7.95,2.722
				c-2.782,0-5.3-0.6-7.553-1.792c-2.253-1.194-3.643-2.838-4.175-4.935l0.204-0.237c1.837,1.252,3.787,1.877,5.847,1.877
				c1.556,0,2.815-0.342,3.786-1.022c0.967-0.683,1.452-1.559,1.452-2.629c0-2.185-1.848-3.278-5.544-3.278
				c-2.051,0-3.688,0.429-4.915,1.285l-0.272-0.22l3.802-15.258H173.44z"/>
			<linearGradient id="SVGID_13_" gradientUnits="userSpaceOnUse" x1="182.0254" y1="233.8193" x2="182.0254" y2="192.62">
				<stop  offset="0" style="stop-color:#FF7570"/>
				<stop  offset="0.9949" style="stop-color:#FFC99E"/>
			</linearGradient>
			<path fill="url(#SVGID_13_)" d="M187.762,224.366h-11.474v-22.88l11.474-3.312V224.366z"/>
		</g>
		<g>
			<linearGradient id="SVGID_14_" gradientUnits="userSpaceOnUse" x1="67.1309" y1="193.1992" x2="67.1309" y2="148.8807">
				<stop  offset="0" style="stop-color:#FF614A"/>
				<stop  offset="0.9949" style="stop-color:#FFAA6A"/>
			</linearGradient>
			<path fill="url(#SVGID_14_)" d="M53.185,181.286v-22.834H63l4.131,4.758l4.145-4.758h9.801v22.834H70.962v-11.433l-3.831,4.416
				l-3.832-4.416v11.433H53.185z"/>
			<linearGradient id="SVGID_15_" gradientUnits="userSpaceOnUse" x1="94.3286" y1="193.2021" x2="94.3286" y2="148.8782">
				<stop  offset="0" style="stop-color:#FF614A"/>
				<stop  offset="0.9949" style="stop-color:#FFAA6A"/>
			</linearGradient>
			<path fill="url(#SVGID_15_)" d="M104.646,159.619l-2.513,7.196c-1.646-2.225-3.537-3.336-5.671-3.336
				c-1.189,0-1.783,0.448-1.783,1.347c0,0.278,0.188,0.563,0.562,0.853c0.373,0.29,1.353,0.743,2.939,1.362
				c1.747,0.688,3.091,1.313,4.034,1.879c0.943,0.562,1.649,1.283,2.118,2.161c0.469,0.879,0.703,1.901,0.703,3.067
				c0,2.445-0.928,4.308-2.783,5.59c-1.855,1.281-4.584,1.924-8.186,1.924c-4.04,0-7.522-0.575-10.444-1.723l2.468-7.632
				c0.719,1.117,1.61,2.005,2.672,2.664c1.062,0.658,2.083,0.988,3.06,0.988c0.479,0,0.881-0.124,1.205-0.373
				c0.324-0.251,0.487-0.556,0.487-0.914c0-0.34-0.157-0.664-0.471-0.973c-0.314-0.309-1.145-0.738-2.492-1.288
				c-1.217-0.488-2.224-0.965-3.022-1.43c-0.799-0.463-1.492-1.123-2.081-1.981c-0.588-0.858-0.882-1.94-0.882-3.247
				c0-2.534,0.923-4.444,2.769-5.731c1.845-1.288,4.569-1.931,8.171-1.931C98.795,158.092,101.844,158.603,104.646,159.619z"/>
			<linearGradient id="SVGID_16_" gradientUnits="userSpaceOnUse" x1="119.0278" y1="193.2021" x2="119.0278" y2="148.8782">
				<stop  offset="0" style="stop-color:#FF614A"/>
				<stop  offset="0.9949" style="stop-color:#FFAA6A"/>
			</linearGradient>
			<path fill="url(#SVGID_16_)" d="M130.91,161.146l-4.878,6.868c-2.036-0.979-3.916-1.467-5.643-1.467
				c-1.146,0-2.067,0.296-2.761,0.892c-0.693,0.592-1.039,1.379-1.039,2.355c0,1.855,1.216,2.782,3.65,2.782v-3.575h10.116v12.315
				c-4.091,0.231-6.859,0.346-8.305,0.346c-5.587,0-9.468-1.188-11.643-3.563c-2.175-2.374-3.263-5.141-3.263-8.305
				c0-2.176,0.506-4.169,1.519-5.984c1.013-1.817,2.475-3.224,4.385-4.221c1.91-0.999,4.173-1.497,6.787-1.497
				c1.835,0,3.735,0.268,5.701,0.801C127.502,159.427,129.293,160.179,130.91,161.146z"/>
			<linearGradient id="SVGID_17_" gradientUnits="userSpaceOnUse" x1="146.2695" y1="193.2002" x2="146.2695" y2="148.881">
				<stop  offset="0" style="stop-color:#FF614A"/>
				<stop  offset="0.9949" style="stop-color:#FFAA6A"/>
			</linearGradient>
			<path fill="url(#SVGID_17_)" d="M146.652,158.452h4.907l-5.67,25.498h-4.911L146.652,158.452z"/>
			<linearGradient id="SVGID_18_" gradientUnits="userSpaceOnUse" x1="172.502" y1="193.1992" x2="172.502" y2="148.8807">
				<stop  offset="0" style="stop-color:#FF614A"/>
				<stop  offset="0.9949" style="stop-color:#FFAA6A"/>
			</linearGradient>
			<path fill="url(#SVGID_18_)" d="M181.981,175.555v5.731h-18.959v-22.834h18.959v5.731h-8.858v2.828h6.166v5.73h-6.166v2.812
				H181.981z"/>
			<linearGradient id="SVGID_19_" gradientUnits="userSpaceOnUse" x1="195.9521" y1="193.2021" x2="195.9521" y2="148.8802">
				<stop  offset="0" style="stop-color:#FF614A"/>
				<stop  offset="0.9949" style="stop-color:#FFAA6A"/>
			</linearGradient>
			<path fill="url(#SVGID_19_)" d="M207.211,158.452v0.403c-2.913,0.897-5.446,2.478-7.601,4.744
				c2.594,0.388,4.596,1.333,6.009,2.836c1.411,1.501,2.117,3.37,2.117,5.604c0,2.812-1.1,5.12-3.3,6.922
				c-2.2,1.799-5.056,2.701-8.567,2.701c-3.492,0-6.314-0.924-8.469-2.769c-2.155-1.846-3.232-4.246-3.232-7.199
				c0-2.474,0.77-4.854,2.312-7.138c1.54-2.284,3.782-4.319,6.726-6.104H207.211z M195.78,173.191c0.597,0,1.09-0.189,1.48-0.569
				c0.391-0.378,0.584-0.862,0.584-1.452c0-0.608-0.192-1.111-0.576-1.511s-0.871-0.599-1.459-0.599
				c-0.559,0-1.047,0.207-1.459,0.621c-0.416,0.415-0.621,0.911-0.621,1.488c0,0.57,0.196,1.049,0.591,1.438
				C194.714,172.996,195.2,173.191,195.78,173.191z"/>
			<linearGradient id="SVGID_20_" gradientUnits="userSpaceOnUse" x1="218.7539" y1="193.2002" x2="218.7539" y2="148.8798">
				<stop  offset="0" style="stop-color:#FF614A"/>
				<stop  offset="0.9949" style="stop-color:#FFAA6A"/>
			</linearGradient>
			<path fill="url(#SVGID_20_)" d="M227.927,177.216v4.07H209.58c2.482-3.081,4.34-5.523,5.566-7.325
				c1.227-1.8,1.841-3.279,1.841-4.436c0-0.659-0.216-1.213-0.645-1.662c-0.428-0.448-0.956-0.674-1.585-0.674
				c-0.818,0-1.612,0.324-2.379,0.975c-0.769,0.646-1.661,1.689-2.679,3.127l0.179-10.355c1.397-0.986,2.696-1.708,3.898-2.163
				c1.201-0.453,2.541-0.681,4.018-0.681c2.755,0,5.031,0.827,6.832,2.477c1.801,1.651,2.699,3.938,2.699,6.86
				c0,3.224-1.246,6.484-3.74,9.787H227.927z"/>
			<linearGradient id="SVGID_21_" gradientUnits="userSpaceOnUse" x1="237.832" y1="193.2002" x2="237.832" y2="148.8798">
				<stop  offset="0" style="stop-color:#FF614A"/>
				<stop  offset="0.9949" style="stop-color:#FFAA6A"/>
			</linearGradient>
			<path fill="url(#SVGID_21_)" d="M242.912,181.286h-10.16v-20.262l10.16-2.933V181.286z"/>
		</g>
		<g>
			<linearGradient id="SVGID_22_" gradientUnits="userSpaceOnUse" x1="142.8501" y1="138.1299" x2="142.8501" y2="111.5477">
				<stop  offset="0" style="stop-color:#FF7570"/>
				<stop  offset="0.9949" style="stop-color:#FFC99E"/>
			</linearGradient>
			<path fill="url(#SVGID_22_)" d="M153.019,131.047v6.148h-20.337v-24.496h20.337v6.148h-9.502v3.034h6.613v6.148h-6.613v3.018
				H153.019z"/>
			<linearGradient id="SVGID_23_" gradientUnits="userSpaceOnUse" x1="162.6953" y1="138.1299" x2="162.6953" y2="111.5482">
				<stop  offset="0" style="stop-color:#FF7570"/>
				<stop  offset="0.9949" style="stop-color:#FFC99E"/>
			</linearGradient>
			<path fill="url(#SVGID_23_)" d="M168.145,137.195h-10.898v-21.734l10.898-3.147V137.195z"/>
			<linearGradient id="SVGID_24_" gradientUnits="userSpaceOnUse" x1="181.0693" y1="138.1299" x2="181.0693" y2="111.5477">
				<stop  offset="0" style="stop-color:#FF7570"/>
				<stop  offset="0.9949" style="stop-color:#FFC99E"/>
			</linearGradient>
			<path fill="url(#SVGID_24_)" d="M171.703,112.699h9.469c2.955,0,5.198,0.546,6.735,1.638c1.534,1.092,2.303,2.687,2.303,4.784
				c0,1.306-0.335,2.386-1.004,3.242c-0.668,0.857-1.716,1.606-3.138,2.248c2.911,1.07,4.367,3.04,4.367,5.907
				c0,2.13-0.751,3.775-2.248,4.936c-1.498,1.162-3.804,1.742-6.919,1.742h-9.565v-8.508c1.357,1.68,3.021,2.521,4.991,2.521
				c0.887,0,1.594-0.207,2.119-0.62c0.523-0.411,0.786-0.971,0.786-1.676c0-0.889-0.34-1.598-1.021-2.127
				c-0.679-0.53-1.591-0.794-2.735-0.794c-1.156,0-2.537,0.294-4.141,0.882v-4.333c1.123,0.3,2.337,0.45,3.643,0.45
				c1.242,0,2.221-0.247,2.938-0.739c0.717-0.492,1.074-1.155,1.074-1.989c0-0.729-0.266-1.31-0.802-1.743
				c-0.535-0.434-1.252-0.65-2.151-0.65c-0.94,0-1.829,0.227-2.665,0.683c-0.834,0.455-1.514,1.104-2.036,1.95V112.699z"/>
			<linearGradient id="SVGID_25_" gradientUnits="userSpaceOnUse" x1="201.9111" y1="138.1299" x2="201.9111" y2="111.5477">
				<stop  offset="0" style="stop-color:#FF7570"/>
				<stop  offset="0.9949" style="stop-color:#FFC99E"/>
			</linearGradient>
			<path fill="url(#SVGID_25_)" d="M192.545,112.699h9.471c2.954,0,5.197,0.546,6.733,1.638c1.535,1.092,2.304,2.687,2.304,4.784
				c0,1.306-0.335,2.386-1.004,3.242c-0.668,0.857-1.715,1.606-3.138,2.248c2.911,1.07,4.366,3.04,4.366,5.907
				c0,2.13-0.75,3.775-2.248,4.936c-1.497,1.162-3.803,1.742-6.918,1.742h-9.566v-8.508c1.359,1.68,3.022,2.521,4.993,2.521
				c0.887,0,1.592-0.207,2.117-0.62c0.525-0.411,0.787-0.971,0.787-1.676c0-0.889-0.339-1.598-1.021-2.127
				c-0.678-0.53-1.591-0.794-2.735-0.794c-1.155,0-2.537,0.294-4.142,0.882v-4.333c1.124,0.3,2.338,0.45,3.644,0.45
				c1.242,0,2.221-0.247,2.938-0.739c0.718-0.492,1.075-1.155,1.075-1.989c0-0.729-0.268-1.31-0.803-1.743
				c-0.535-0.434-1.251-0.65-2.151-0.65c-0.94,0-1.829,0.227-2.662,0.683c-0.837,0.455-1.517,1.104-2.04,1.95V112.699z"/>
		</g>
		<g>
			<linearGradient id="SVGID_26_" gradientUnits="userSpaceOnUse" x1="96.9077" y1="108.251" x2="96.9077" y2="90.6443">
				<stop  offset="0" style="stop-color:#FF614A"/>
				<stop  offset="0.9949" style="stop-color:#FFAA6A"/>
			</linearGradient>
			<path fill="url(#SVGID_26_)" d="M103.438,105.166v3.949H90.376V93.382h13.062v3.949h-6.104v1.947h4.247v3.949h-4.247v1.938
				H103.438z"/>
			<linearGradient id="SVGID_27_" gradientUnits="userSpaceOnUse" x1="111.4429" y1="108.251" x2="111.4429" y2="90.6439">
				<stop  offset="0" style="stop-color:#FF614A"/>
				<stop  offset="0.9949" style="stop-color:#FFAA6A"/>
			</linearGradient>
			<path fill="url(#SVGID_27_)" d="M117.763,106.311v2.804h-12.64c1.712-2.124,2.99-3.806,3.835-5.046
				c0.846-1.242,1.269-2.26,1.269-3.058c0-0.453-0.148-0.835-0.443-1.145c-0.295-0.309-0.66-0.464-1.093-0.464
				c-0.564,0-1.11,0.225-1.639,0.671c-0.529,0.446-1.145,1.165-1.845,2.154l0.123-7.135c0.963-0.68,1.858-1.177,2.687-1.489
				c0.828-0.312,1.75-0.469,2.767-0.469c1.897,0,3.466,0.57,4.707,1.706c1.24,1.139,1.86,2.713,1.86,4.727
				c0,2.221-0.859,4.468-2.577,6.743H117.763z"/>
			<linearGradient id="SVGID_28_" gradientUnits="userSpaceOnUse" x1="125.6733" y1="108.251" x2="125.6733" y2="90.6439">
				<stop  offset="0" style="stop-color:#FF614A"/>
				<stop  offset="0.9949" style="stop-color:#FFAA6A"/>
			</linearGradient>
			<path fill="url(#SVGID_28_)" d="M131.994,106.311v2.804h-12.64c1.712-2.124,2.99-3.806,3.835-5.046
				c0.846-1.242,1.269-2.26,1.269-3.058c0-0.453-0.148-0.835-0.443-1.145c-0.295-0.309-0.66-0.464-1.093-0.464
				c-0.563,0-1.11,0.225-1.639,0.671c-0.529,0.446-1.145,1.165-1.846,2.154l0.123-7.135c0.963-0.68,1.858-1.177,2.687-1.489
				c0.828-0.312,1.75-0.469,2.767-0.469c1.897,0,3.466,0.57,4.707,1.706c1.24,1.139,1.86,2.713,1.86,4.727
				c0,2.221-0.859,4.468-2.577,6.743H131.994z"/>
			<linearGradient id="SVGID_29_" gradientUnits="userSpaceOnUse" x1="137.9736" y1="108.251" x2="137.9736" y2="90.6439">
				<stop  offset="0" style="stop-color:#FF614A"/>
				<stop  offset="0.9949" style="stop-color:#FFAA6A"/>
			</linearGradient>
			<path fill="url(#SVGID_29_)" d="M141.474,109.115h-7v-13.96l7-2.021V109.115z"/>
		</g>
	</g>
	<g>
		<g>
			<path fill="#FFCE5E" d="M40.527,96.011c0.832,1.16-0.169,4.469-2.228,7.353c-2.056,2.883-5.573,2.657-7.814-0.502l-9.658-13.618
				c-2.241-3.16-2.232-8.324,0.017-11.478l2.476-3.472c2.25-3.153,7.131-4.841,10.848-3.75l16.02,4.7
				c3.717,1.091,5.077,4.339,3.023,7.218c-2.054,2.879-4.854,4.9-6.223,4.49c-1.369-0.41-3.723,0.986-5.232,3.103
				C40.247,92.169,39.693,94.85,40.527,96.011z M32.541,84.942c1.236,1.687,2.87,2.194,3.631,1.127
				c0.761-1.066-0.25-2.446-2.248-3.066C31.928,82.383,31.305,83.255,32.541,84.942z"/>
		</g>
		<g>
			<path fill="#FFCE5E" d="M42.422,61.617c-2.46-2.991-2.026-7.453,0.966-9.913l0.175-0.143c2.991-2.46,8.168-6.085,11.502-8.055
				c0,0,1.901-1.123,5.88-0.704c3.979,0.42,7.249,2.184,9.807,5.293c1.629,1.982,2.676,4.259,3.138,6.831
				c0.463,2.572,0.144,5.129-0.957,7.671c-1.101,2.541-3,4.921-5.698,7.14l-5.376,4.422c-2.992,2.461-7.453,2.026-9.913-0.966
				L42.422,61.617z M55.583,56.081c-0.348,0.286,0.341,1.706,1.534,3.155c1.191,1.448,2.223,2.588,2.292,2.531
				c0.069-0.056,0.976-0.96,2.016-2.008c0,0,0,0,0.192-0.856c0.191-0.856-0.104-1.761-0.886-2.712
				C59.311,54.464,57.595,54.427,55.583,56.081L55.583,56.081z"/>
		</g>
		<g>
			<path fill="#FFCE5E" d="M70.658,39.487c-1.689-3.486-0.219-7.72,3.267-9.409l0.202-0.098c3.486-1.688,9.37-3.996,13.075-5.126
				c0,0,2.111-0.644,5.881,0.698c3.77,1.343,6.532,3.826,8.288,7.45c1.119,2.309,1.601,4.769,1.446,7.376
				c-0.155,2.609-1.066,5.019-2.732,7.231c-1.667,2.212-4.072,4.079-7.216,5.602l-6.266,3.035c-3.485,1.689-7.72,0.219-9.408-3.268
				L70.658,39.487z M84.751,37.199c-0.405,0.196-0.068,1.738,0.75,3.426c0.818,1.688,1.552,3.038,1.633,2.999
				c0.08-0.039,1.174-0.704,2.431-1.478c0,0,0,0,0.388-0.788c0.388-0.788,0.312-1.736-0.225-2.845
				C88.754,36.502,87.094,36.064,84.751,37.199L84.751,37.199z"/>
		</g>
		<g>
			<path fill="#FFCE5E" d="M114.751,44.914c-3.409,0.946-7.045-1.333-8.082-5.065l-4.012-14.444
				c-1.036-3.732,0.905-7.56,4.312-8.506c3.408-0.946,7.044,1.333,8.082,5.065l4.011,14.443
				C120.1,40.139,118.159,43.967,114.751,44.914z"/>
		</g>
		<g>
			<path fill="#FFCE5E" d="M122.417,26.027c-0.849-0.031-1.577-0.226-2.238-1.011c-1.081-1.281-1.553-3.212-1.745-4.833
				c-0.418-3.518,2.388-6.769,6.234-7.225l11.671-1.386c3.845-0.457,7.335,2.048,7.751,5.565c0.215,1.814,0.267,3.908-0.94,5.406
				c-1.236,1.532-4.249,1.171-4.62,3.223c-0.32,1.748,0.367,3.833,0.718,5.523l0.25,2.096c0.456,3.846-2.049,7.335-5.566,7.753
				c-3.517,0.417-6.769-2.388-7.226-6.234l-0.249-2.096c0.341-2.427,0.688-6.904-2.924-6.795
				C123.138,26.027,122.768,26.041,122.417,26.027z"/>
		</g>
		<g>
			<path fill="#FFCE5E" d="M153.525,40.304c-3.534-0.114-6.325-3.375-6.2-7.247l0.483-14.983c0.124-3.872,3.12-6.946,6.654-6.832
				c3.536,0.113,6.326,3.374,6.2,7.246l-0.482,14.983C160.055,37.343,157.061,40.417,153.525,40.304z"/>
		</g>
		<g>
			<path fill="#FFCE5E" d="M188.92,16.437c3.457,0.718,4.678,4.038,2.713,7.375l-8.435,14.321c-1.966,3.337-6.324,5.497-9.684,4.798
				c-3.36-0.698-6.498-4.415-6.973-8.26l-2.037-16.501c-0.475-3.844,1.966-6.401,5.423-5.683c3.459,0.719,6.561,3.615,6.896,6.435
				c0.334,2.82,1.778,3.121,3.208,0.668C181.463,17.137,185.463,15.718,188.92,16.437z"/>
		</g>
		<g>
			<path fill="#FFCE5E" d="M205.079,46.637c2.854,1.215,4.547,3.721,3.76,5.567c-0.786,1.846-4.345,2.115-7.909,0.597l-9.251-3.94
				c-3.565-1.518-5.239-5.675-3.721-9.239l5.875-13.792c1.517-3.564,5.676-5.237,9.238-3.72l9.252,3.941
				c3.563,1.517,5.835,4.27,5.05,6.117c-0.785,1.846-3.764,2.362-6.619,1.147c-2.854-1.216-5.505-1.465-5.896-0.555
				c-0.387,0.912,0.922,2.349,2.907,3.195c1.986,0.846,2.969,3.048,2.182,4.895c-0.787,1.847-3.056,2.666-5.041,1.82
				c-1.985-0.847-3.927-0.796-4.313,0.11S202.226,45.422,205.079,46.637z"/>
		</g>
	</g>
	<g>
		<path fill="#FFCE5E" d="M243.168,44.047c-0.141,1.743-2.218,2.837-3.751,3.1c-2.497,0.43-4.049-1.481-5.918-2.73
			c-1.862-1.242-3.928-0.937-3.155,1.666c0.817,2.743,4.122,4.417,5.607,6.771c0.72,1.145,1.092,2.327,1.118,3.55
			c0.024,1.224-0.287,2.475-0.935,3.754c-1.36,2.679-3.415,4.205-6.163,4.578c-2.747,0.372-6.095-0.443-10.043-2.447
			c-2.051-1.041-11.01-4.948-10.105-8.237c0.483-1.737,2.271-3.177,4.018-3.524c3.266-0.646,4.335,3.011,6.8,4.263
			c0.524,0.267,1.034,0.354,1.529,0.26c0.494-0.093,0.841-0.337,1.04-0.731c0.188-0.371,0.196-0.814,0.025-1.328
			c-0.173-0.515-0.845-1.446-2.018-2.798c-1.061-1.213-1.901-2.295-2.518-3.248c-0.616-0.953-1.008-2.062-1.176-3.332
			c-0.169-1.268,0.112-2.618,0.839-4.05c1.409-2.778,3.483-4.359,6.224-4.743c2.739-0.385,6.082,0.426,10.032,2.429
			c2.812,1.426,5.785,2.877,7.926,5.26C243.025,43.048,243.204,43.565,243.168,44.047z"/>
	</g>
</g>
</svg>
