<?xml version="1.0" encoding="utf-8"?>
<!-- Generator: Adobe Illustrator 16.0.0, SVG Export Plug-In . SVG Version: 6.00 Build 0)  -->
<!DOCTYPE svg PUBLIC "-//W3C//DTD SVG 1.1//EN" "http://www.w3.org/Graphics/SVG/1.1/DTD/svg11.dtd">
<svg version="1.1" id="Layer_1" xmlns="http://www.w3.org/2000/svg" xmlns:xlink="http://www.w3.org/1999/xlink" x="0px" y="0px"
	 width="300px" height="300px" viewBox="0 0 300 300" enable-background="new 0 0 300 300" xml:space="preserve">
<g>
	<g>
		<g>
			<path fill="#5C9DBD" d="M270.22,150c0-66.289-53.932-120.219-120.22-120.219c-65.799,0-119.409,53.136-120.199,118.751
				l92.195-89.917l35.177,13.355l70.472,43.305l-10.485,20.24L97.186,257.978c15.95,7.833,33.875,12.242,52.814,12.242
				C216.288,270.219,270.22,216.29,270.22,150z"/>
			<path fill="#4C598D" d="M75.111,253.738L51.238,231.34C58.201,239.785,66.229,247.314,75.111,253.738z"/>
			<path fill="#ADC9E6" d="M227.645,115.275L157.173,71.97l-35.177-13.355l-92.195,89.917c-0.007,0.489-0.02,0.978-0.02,1.468
				c0,47.352,27.521,88.39,67.405,107.978l119.973-122.463L227.645,115.275z"/>
			<path fill="#42C8BC" d="M150,14.333C75.192,14.333,14.333,75.193,14.333,150c0,4.387,0.217,8.724,0.625,13.005
				c1.589,16.633,6.195,32.396,13.261,46.74c22.132,44.932,68.402,75.923,121.78,75.923c74.808,0,135.667-60.861,135.667-135.668
				S224.808,14.333,150,14.333z"/>
		</g>
		<g>
			<linearGradient id="SVGID_1_" gradientUnits="userSpaceOnUse" x1="138.1147" y1="122.2036" x2="76.0027" y2="184.3157">
				<stop  offset="0" style="stop-color:#5D8CA9"/>
				<stop  offset="1" style="stop-color:#5C9DBD"/>
			</linearGradient>
			<path fill="url(#SVGID_1_)" d="M82.144,249.17c-29.219-20.054-49.174-52.659-52.009-89.982"/>
			<path fill="#A9E3D4" d="M150,29.781c-65.799,0-119.409,53.136-120.199,118.751c-0.007,0.489-0.02,0.978-0.02,1.468
				c0,3.091,0.124,6.154,0.354,9.188c2.835,37.324,22.791,69.928,52.009,89.982c4.78,3.281,9.8,6.233,15.042,8.807
				c15.95,7.833,33.875,12.242,52.814,12.242c66.288,0,120.22-53.93,120.22-120.219C270.22,83.711,216.288,29.781,150,29.781z"/>
		</g>
	</g>
	<linearGradient id="SVGID_2_" gradientUnits="userSpaceOnUse" x1="65.6245" y1="142.6201" x2="201.5674" y2="142.6201">
		<stop  offset="0" style="stop-color:#A9E3D4"/>
		<stop  offset="0.3259" style="stop-color:#A4E0D1"/>
		<stop  offset="0.7106" style="stop-color:#96D6C7"/>
		<stop  offset="1" style="stop-color:#86CCBC"/>
	</linearGradient>
	<path fill="url(#SVGID_2_)" d="M196.16,92.014l-50.554-36.632l4.214,55.389l-84.195,83.201c0,0,4.294,15.835,33.512,35.888
		L201.567,122.91L196.16,92.014z"/>
	<path fill="#E2F1FF" d="M143.71,41.189c-0.442,0.321-0.492,1.061-0.492,1.061l-0.682,10.831l47.835,9.198l1.474-1.747l0.95-11.051
		c0,0,0.043-0.181-0.142-0.447c-0.135-0.194-0.703-0.307-0.703-0.307l-46.529-7.638C145.422,41.089,144.198,40.834,143.71,41.189z"
		/>
	<path fill="#CAE2E7" d="M126.258,72.643c0,0.173,0.859,0.244,0.859,0.244l48.122,11.051l15.818-22.293l-48.521-8.563L128.87,68.509
		C128.87,68.509,126.258,71.076,126.258,72.643z"/>
	<path fill="#E2F1FF" d="M126.258,72.643l3.841,58.205c0,0-0.135,1.162,0.38,1.764c0.513,0.603,1.45,0.797,1.45,0.797l41.431,15.208
		c0,0,1.356,0.571,1.356,0.41c0-0.654,0.021-4.246,0.021-4.246l0.501-60.843L126.258,72.643z"/>
	<path fill="#95AEB8" d="M206.356,69.799l-3.152,1.337l-27.973,12.801c0,0-0.22-1.274,1.079-2.874
		c1.323-1.626,14.049-18.05,14.563-19.451c0.654-1.779,1.211-12.539,1.78-12.578c0.57-0.038-0.105,11.005,0.435,12.179
		c0.413,0.899,7.57,4.354,10.662,5.938C204.446,67.508,206.375,68.509,206.356,69.799z"/>
	<path fill="#AFCBD2" d="M175.239,83.937l-0.448,63.765l-0.074,1.324c0.847,0.131,2.368-1.402,2.368-1.402l26.295-22.344
		c0,0,1.117-0.75,1.495-1.54c0.38-0.789,0.321-0.774,0.424-1.954c0.855-9.655,1.38-51.781,1.058-51.987
		C205.996,69.569,175.239,83.937,175.239,83.937z"/>
	<path fill="#F2F6FF" d="M126.258,72.643c0,0,0-1.803,1.459-2.845l48.847,10.945c0,0-1.413,1.857-1.391,3.224v1.083l-48.851-11.446
		L126.258,72.643z"/>
	<g>
		<g enable-background="new    ">
			<defs>
				<polygon id="SVGID_3_" enable-background="new    " points="132.68,100.284 132.019,86.545 170.701,97.456 168.188,111.196 				
					"/>
			</defs>
			<clipPath id="SVGID_4_">
				<use xlink:href="#SVGID_3_"  overflow="visible"/>
			</clipPath>
		</g>
	</g>
	<g>
		<path fill="#8DDBFF" d="M144.747,98.088c-0.033-0.009-0.069-0.018-0.103-0.027c-0.639-0.158-1.221-0.187-1.744-0.078
			c-0.523,0.105-1.008,0.347-1.455,0.725c-0.334-0.565-0.754-1.029-1.258-1.391c-0.486-0.35-1.058-0.608-1.72-0.78
			c-0.029-0.008-0.059-0.015-0.089-0.022c-0.673-0.163-1.279-0.195-1.819-0.096c-0.539,0.1-1.035,0.34-1.483,0.721l-0.015-0.229
			c-0.028-0.386-0.174-0.72-0.446-1.001c-0.265-0.274-0.583-0.458-0.955-0.554c-0.012-0.002-0.021-0.005-0.033-0.008
			c-0.399-0.094-0.713-0.056-0.938,0.12c-0.228,0.174-0.324,0.489-0.288,0.938l0.609,6.852c0.047,0.496,0.214,0.905,0.496,1.225
			c0.276,0.313,0.608,0.521,0.998,0.627c0.01,0.002,0.019,0.005,0.028,0.008c0.41,0.103,0.727,0.061,0.956-0.13
			c0.229-0.189,0.325-0.533,0.283-1.031l-0.241-3.237c-0.071-1.006,0.018-1.743,0.268-2.21c0.253-0.468,0.832-0.591,1.736-0.37
			c0.012,0.004,0.026,0.006,0.038,0.01c0.43,0.114,0.753,0.296,0.964,0.553c0.219,0.267,0.357,0.571,0.42,0.918
			c0.061,0.344,0.106,0.818,0.134,1.421l0.203,3.816c0.028,0.504,0.171,0.914,0.435,1.23c0.25,0.306,0.563,0.511,0.943,0.617
			c0.012,0.003,0.024,0.006,0.036,0.011c0.406,0.106,0.727,0.064,0.963-0.12c0.236-0.188,0.344-0.532,0.325-1.036l-0.115-3.188
			c-0.033-1.024,0.042-1.713,0.229-2.065c0.168-0.272,0.411-0.464,0.728-0.568c0.318-0.106,0.653-0.117,1.01-0.027
			c0.013,0.003,0.024,0.006,0.038,0.009c0.423,0.115,0.741,0.298,0.951,0.556c0.22,0.266,0.354,0.56,0.404,0.882
			c0.052,0.322,0.08,0.741,0.083,1.256l0.058,4.033c0.009,0.497,0.14,0.907,0.392,1.227c0.246,0.312,0.553,0.521,0.928,0.628
			c0.009,0.003,0.019,0.005,0.027,0.008c0.397,0.105,0.716,0.067,0.955-0.123c0.243-0.186,0.36-0.531,0.36-1.034l0.019-4.681
			c0.008-0.933-0.099-1.644-0.32-2.136c-0.256-0.546-0.651-1.015-1.183-1.408C146.052,98.555,145.447,98.275,144.747,98.088"/>
		<path fill="#8DDBFF" d="M152.06,99.92c-0.013-0.004-0.027-0.008-0.04-0.01c-0.39-0.102-0.709-0.063-0.961,0.116
			c-0.25,0.177-0.384,0.505-0.397,0.979l-0.148,6.86c-0.007,0.47,0.103,0.861,0.331,1.176c0.22,0.304,0.502,0.507,0.854,0.609
			c0.01,0.004,0.022,0.008,0.033,0.01c0.366,0.102,0.669,0.06,0.913-0.12c0.244-0.182,0.374-0.511,0.389-0.992l0.261-6.934
			c0.021-0.428-0.089-0.794-0.329-1.1C152.734,100.221,152.431,100.021,152.06,99.92 M152.234,96.462
			c-0.011-0.004-0.021-0.006-0.031-0.009c-0.363-0.091-0.688-0.062-0.975,0.09c-0.284,0.153-0.431,0.396-0.443,0.738
			c-0.012,0.375,0.11,0.698,0.368,0.969c0.25,0.265,0.553,0.445,0.911,0.542c0.01,0.003,0.023,0.007,0.033,0.009
			c0.36,0.092,0.673,0.066,0.943-0.075c0.271-0.143,0.416-0.396,0.437-0.766c0.021-0.382-0.098-0.706-0.359-0.971
			C152.866,96.727,152.572,96.551,152.234,96.462"/>
		<path fill="#8DDBFF" d="M157.683,97.734c-0.013-0.004-0.026-0.007-0.04-0.01c-0.402-0.104-0.734-0.063-0.989,0.122
			c-0.257,0.185-0.401,0.519-0.437,1l-0.608,10.406c-0.022,0.467,0.074,0.858,0.288,1.174c0.208,0.307,0.486,0.512,0.833,0.615
			c0.008,0.002,0.017,0.004,0.024,0.007c0.366,0.101,0.668,0.062,0.913-0.117c0.246-0.179,0.381-0.511,0.412-0.998l0.778-10.408
			c0.043-0.487-0.047-0.883-0.273-1.192C158.368,98.041,158.064,97.838,157.683,97.734"/>
		<path fill="#8DDBFF" d="M163.216,99.159c-0.01-0.003-0.02-0.006-0.03-0.008c-0.413-0.107-0.75-0.052-1.001,0.17
			c-0.255,0.222-0.408,0.598-0.465,1.13l-0.943,10.236c-0.04,0.481,0.04,0.875,0.231,1.182c0.188,0.297,0.458,0.5,0.815,0.608
			c0.009,0.004,0.016,0.006,0.025,0.008c0.316,0.091,0.606,0.045,0.872-0.135c0.265-0.179,0.421-0.5,0.466-0.964l0.188-1.908
			l1.454-0.862l1.725,4.087c0.216,0.493,0.391,0.841,0.526,1.046c0.132,0.195,0.332,0.335,0.602,0.42
			c0.011,0.003,0.022,0.006,0.032,0.009c0.33,0.098,0.611,0.066,0.842-0.094c0.23-0.162,0.372-0.433,0.425-0.814
			c0.017-0.135-0.004-0.288-0.06-0.461c-0.058-0.171-0.158-0.426-0.298-0.765l-1.968-4.572l1.458-0.81
			c0.75-0.4,1.153-0.778,1.204-1.13c0.044-0.286-0.025-0.555-0.204-0.803c-0.171-0.238-0.407-0.402-0.704-0.488
			c-0.01-0.003-0.021-0.006-0.028-0.008c-0.265-0.073-0.496-0.069-0.697,0.012c-0.199,0.077-0.5,0.246-0.894,0.502l-3.139,2.066
			l0.662-5.825c0.061-0.49-0.01-0.894-0.215-1.208C163.899,99.475,163.603,99.267,163.216,99.159"/>
	</g>
	<g>
		<linearGradient id="SVGID_5_" gradientUnits="userSpaceOnUse" x1="82.6016" y1="227.1963" x2="82.6016" y2="198.9926">
			<stop  offset="0" style="stop-color:#A9E3D4"/>
			<stop  offset="0.3259" style="stop-color:#A4E0D1"/>
			<stop  offset="0.7106" style="stop-color:#96D6C7"/>
			<stop  offset="1" style="stop-color:#86CCBC"/>
		</linearGradient>
		<polygon fill="url(#SVGID_5_)" points="110.414,151.588 82.984,124.723 93.062,182.277 54.79,220.244 72.135,239.824 
			109.502,202.479 		"/>
		<path fill="#DEA379" d="M61.274,169.567l13.462,32.901c0,0,4.806,2.832,16.906,2.574c12.101-0.256,17.562-2.574,17.562-2.574
			l12.806-32.901H61.274z"/>
		<g>
			<path fill="#C49D80" d="M70.438,168.87c0,0,3.469,22.024,13.704,35.927c0,0-4.056-0.58-5.664-0.901
				c-3.146-0.629-4.811-1.428-4.811-1.428L60.86,169.567L70.438,168.87z"/>
		</g>
		<g>
			<g>
				<path fill="#FEDFE5" d="M57.847,168.632c-0.094-0.408-0.221-0.819-0.4-1.222l0.444-1.3c0,0-3.547-3.211-3.325-5.902
					c0.221-2.688,3.325-4.463,3.325-4.463s-1.109-2.315-0.222-3.708c0.888-1.393,7.761-4.562,7.761-4.562l0.666-1.923
					c0,0-2.217-3.104-1.774-6.875c0.443-3.773,6.652-6.462,6.652-6.462s0-2.311,1.994-4.468c0,0-1.551-3.599-1.107-5.982
					c0.444-2.383,4.878-5.043,6.873-7.927c1.996-2.881,3.769-7.612,5.322-9.792c1.553-2.181,6.874-6.289,4.213-12.106
					c-2.66-5.818-9.161-4.938-10.936-3.694c0,0,14.041-12.989,23.797,13.175c0,0,13.083,15.078,12.195,22.839
					c0,0,11.53,6.374,3.326,17.044c0,0,7.829,4.774,7.24,8.61c-0.588,3.836-3.692,3.711-3.692,3.711v2.564
					c0,0,5.47,3.802,5.174,4.672c-0.255,0.748-0.072,3.684-0.016,4.503c-11.339,5.153-24.229,8.068-37.897,8.068
					C77.018,173.433,67.033,171.731,57.847,168.632z"/>
			</g>
			<path fill="#FEDFE5" d="M113.476,124.26c0,0,10.784,6.688,3.174,17.044c0,0,7.615,5.006,7.208,7.571
				c-0.406,2.562-0.633,4.497-3.659,4.75v2.564l-1.522,0.089l-14.292-15.229l-2.935-19.475L113.476,124.26z"/>
			<path fill="#FDD6CC" d="M99.765,154.609c0,0-6.615-4.783-7.797-5.738c-1.184-0.955-4.468-3.16-9.091-5.82
				c-4.801-2.761-11.494-5.116-12.159-10.633c0,0-3.831,4.451-1.773,8.042c1.293,2.259,1.751,3.054,6.282,5.641
				c4.189,2.39,15.668,6.518,15.668,6.518L99.765,154.609z"/>
			<path fill="#FDD6CC" d="M79.476,87.451c0,0,6.578-2.217,9.165,1.627c2.587,3.842,2.587,6.319,2.587,8.111
				c0,1.792,0,8.888,0,10.07c0,1.182,0.37,1.786,0.96,3.554c0.591,1.767,0.96,2.803,0,3.985c-0.96,1.182-5.284,1.496-5.875,1.644
				c-0.592,0.148-4.719,0.447-3.831,1.927c0.886,1.477,6.011,7.682,6.011,7.682s9.645,11.926,11.271,12.74
				c0,0-7.644-1.054-9.417-0.463c0,0-9.623-11.425-10.946-13.866c-1.405-2.586-2.032-4.175-0.998-6.541
				c1.194-2.73,6.873-1.589,7.612-3.214c0.74-1.626,0.764-2.06,0.929-4.472c0.255-3.733,1.474-5.026,1.622-8.573
				C88.715,98.114,91.045,86.517,79.476,87.451z"/>
			<path fill="#FEDFE5" d="M77.332,88.246c0,0,5.852-5.238,12.122-2.549c5.125,2.195,8.799,7.925,11.938,15.817
				c1.002,2.523,12.161,10.384,12.084,22.747l-9.915-1.067l-6.937-4.126c0,0,4.658-0.024,4.12-2.777
				c-0.48-2.459-0.188-3.386-5.155-8.902c-2.69-2.987-1.099-7.927-2.429-11.126C91.829,93.062,89.854,82.153,77.332,88.246z"/>
			<path fill="#FDD6CC" d="M113.476,176.178c0,0-9.979-13.946-19.513-17.568c-9.534-3.623-25.722-8.977-27.938-12.614
				c0,0-1.681,2.229-3.696,2.71c-3.104,0.738-4.661,3.332-4.661,3.332s10.129,4.739,18.557,7.606
				c8.424,2.866,11.234,3.696,22.838,9.175C104.054,171.177,113.476,176.178,113.476,176.178z"/>
			<path fill="#FEF9F5" d="M77.332,88.246c0,0,7.215-2.257,9.794,0.111c3.179,2.919,3.807,7.65,3.807,11.862
				s-0.099,8.705,0.738,11.161c1.109,3.251,0.517,3.917-2.365,4.361c-2.883,0.443-6.184-1.15-7.096,1.774
				c-0.887,2.845,7.243,10.2,7.243,10.2l8.943,10.815c0,0,4.878,1.442,5.987,2.52c0,0,7.609-3.039,12.266,0.255
				c0,0,0.595-8.786-14.039-18.775c0,0-3.326-3.019-5.986-3.462c0,0,5.986,1.188,3.546-5.061c-2.438-6.248-4.655-4.771-5.099-9.169
				c-0.444-4.398-3.636-17.131-7.761-18.218C85.315,86.094,83.161,85.625,77.332,88.246z"/>
			<path fill="#FEDFE5" d="M120.198,156.189c0,0,5.305,3.083,5.174,4.672c-0.131,1.59-0.814,1.3,0.001,3.771
				c0.817,2.472,2.023,4.334,1.75,5.644c-0.273,1.311-8.769-5.644-8.769-5.644l-10.348-6.614l3.105-3.88L120.198,156.189z"/>
			<path fill="#FEF9F5" d="M119.671,156.456c0,0-4.435-8.57-11.308-13.118c-6.875-4.548-7.317-4.548-8.87-4.548
				c0,0-3.622-1.148-7.243-0.832c-3.622,0.314-7.613,3.197-7.613,3.197s-11.227-8.214-11.671-13.409
				c-0.1,0.108-5.153,5.36,0.141,9.686c4.484,3.664,13.082,7.714,15.744,9.71c2.66,1.997,8.87,6.651,8.87,6.651
				s9.756,1.331,11.087,2.663C110.137,157.785,111.689,154.902,119.671,156.456z"/>
			<path fill="#FEF9F5" d="M117.854,172.873c0.683-1.139,1.294,1.162,3.23,1.53c1.937,0.366,6.259-1.334,6.038-4.126
				c-0.223-2.792-11.212-15.409-24.79-16.703c-13.389-1.277-16.057-0.287-23.891-1.765c-9.147-1.724-12.79-6.985-12.79-6.985
				s-0.223,2.652,1.646,4.82c1.718,1.994,9.979,4.828,13.97,5.937c3.991,1.106,23.061,9.354,24.835,12.104
				c1.773,2.751,6.652,8.97,7.982,8.631C115.415,175.978,117.189,173.981,117.854,172.873z"/>
			<path fill="#FDD6CC" d="M57.36,156.128c0,0,3.902,2.322,7.318,6.22c7.451,8.503,19.371,11.085,19.371,11.085l-13.344-1.495
				c0,0-8.095-1.847-10.89-8.376c-0.592-1.385-3.325-5.766-3.325-5.766C56.312,156.451,57.36,156.128,57.36,156.128z"/>
			<path fill="#FEF9F5" d="M97.954,172.048c0,0-4.849-5.006-11.279-5.449c-6.431-0.443-1.804-0.241-8.234-0.686
				c-3.81-0.263-14.359-4.274-17.019-6.774c0,0,6.155,8.104,12.362,10.765C79.994,172.565,89.529,175.081,97.954,172.048z"/>
			<path fill="#FDD6CC" d="M119.366,173.433c0,0-1.075,4.332-5.89,2.745c-2.749-0.906,4.815-13.888-11.182-18.956
				C102.293,157.222,112.537,156.835,119.366,173.433z"/>
		</g>
	</g>
	<g>
		<g>
			<linearGradient id="SVGID_6_" gradientUnits="userSpaceOnUse" x1="129.0391" y1="267.4951" x2="199.4141" y2="197.1201">
				<stop  offset="0" style="stop-color:#A9E3D4"/>
				<stop  offset="0.3259" style="stop-color:#A4E0D1"/>
				<stop  offset="0.7106" style="stop-color:#96D6C7"/>
				<stop  offset="1" style="stop-color:#86CCBC"/>
			</linearGradient>
			<path fill="url(#SVGID_6_)" d="M239.057,186.957l-54.705-31.34l-91.623,97.571c18.51,11.644,36.314,17.032,57.271,17.032
				c11.744,0,28.729-3.833,39.584-6.704l48.903-50.917L239.057,186.957z"/>
		</g>
		<path fill="#E5AC2F" d="M188.853,151.988c0,0,2.696-3.68,7.109-1.963c4.417,1.716,46.111,15.942,46.111,15.942l-3.678,46.355
			l-50.365,16.161c0,0-2.06-5.922-7.209-3.605c-4.624,2.082-3.091,6.695-3.091,6.695l-24.198,7.24c0,0-4.169-0.982-4.417-6.132
			c-0.244-5.15,0.493-37.036,0.493-37.036s-0.246-3.924,3.924-7.113C157.702,185.344,188.853,151.988,188.853,151.988z"/>
		<path fill="#FBDF5E" d="M242.075,165.844c0,0-41.696-14.225-46.113-15.942c-4.413-1.717-7.109,1.962-7.109,1.962
			s-31.697,32.016-35.567,35.565c-1.47,1.348-5.496,7.088-3.188,9.319c3.68,3.556,46.111-13.613,46.111-13.613L242.075,165.844z"/>
		<ellipse fill="#E5AC2F" cx="203.046" cy="169.612" rx="7.45" ry="2.759"/>
		<circle fill="#C65A19" cx="197.211" cy="202.817" r="6.002"/>
		<circle fill="#C65A19" cx="216.587" cy="188.18" r="3.774"/>
	</g>
</g>
</svg>
