<?xml version="1.0" encoding="utf-8"?>
<!-- Generator: Adobe Illustrator 16.0.0, SVG Export Plug-In . SVG Version: 6.00 Build 0)  -->
<!DOCTYPE svg PUBLIC "-//W3C//DTD SVG 1.1//EN" "http://www.w3.org/Graphics/SVG/1.1/DTD/svg11.dtd">
<svg version="1.1" id="Layer_1" xmlns="http://www.w3.org/2000/svg" xmlns:xlink="http://www.w3.org/1999/xlink" x="0px" y="0px"
	 width="300px" height="300px" viewBox="0 0 300 300" enable-background="new 0 0 300 300" xml:space="preserve">
<g>
	<g>
		<g>
			<g>
				<path fill="#5C9DBD" d="M259.016,170.17c0-60.374-49.119-109.493-109.494-109.493c-59.926,0-108.755,48.396-109.475,108.157
					l83.969-81.895l32.04,12.165l64.182,39.44l-9.546,18.434L101.421,268.515c14.527,7.135,30.853,11.148,48.101,11.148
					C209.896,279.663,259.016,230.548,259.016,170.17z"/>
				<path fill="#4C598D" d="M81.315,264.653l-21.743-20.398C65.913,251.944,73.225,258.803,81.315,264.653z"/>
				<path fill="#ADC9E6" d="M220.237,138.544l-64.182-39.44l-32.04-12.165l-83.969,81.895c-0.005,0.444-0.017,0.89-0.017,1.336
					c0,43.128,25.065,80.506,61.391,98.345l109.271-111.537L220.237,138.544z"/>
				<path fill="#42C8BC" d="M149.521,46.607c-68.133,0-123.562,55.431-123.562,123.563c0,3.996,0.197,7.947,0.57,11.846
					c1.449,15.148,5.642,29.506,12.078,42.569c20.157,40.923,62.299,69.148,110.914,69.148c68.132,0,123.563-55.43,123.563-123.563
					C273.085,102.038,217.653,46.607,149.521,46.607z"/>
			</g>
			<g>
				<linearGradient id="SVGID_1_" gradientUnits="userSpaceOnUse" x1="138.6992" y1="144.8535" x2="82.1283" y2="201.4244">
					<stop  offset="0" style="stop-color:#5D8CA9"/>
					<stop  offset="1" style="stop-color:#5C9DBD"/>
				</linearGradient>
				<path fill="url(#SVGID_1_)" d="M87.721,260.492c-26.612-18.265-44.787-47.96-47.369-81.954"/>
				<path fill="#A9E3D4" d="M149.521,60.677c-59.926,0-108.755,48.396-109.475,108.157c-0.005,0.444-0.017,0.89-0.017,1.336
					c0,2.816,0.113,5.606,0.322,8.368c2.583,33.994,20.757,63.689,47.369,81.954c4.354,2.987,8.926,5.678,13.7,8.022
					c14.527,7.135,30.853,11.148,48.101,11.148c60.375,0,109.494-49.115,109.494-109.493
					C259.016,109.796,209.896,60.677,149.521,60.677z"/>
			</g>
		</g>
		<linearGradient id="SVGID_2_" gradientUnits="userSpaceOnUse" x1="72.6748" y1="163.4492" x2="196.4893" y2="163.4492">
			<stop  offset="0" style="stop-color:#A9E3D4"/>
			<stop  offset="0.3259" style="stop-color:#A4E0D1"/>
			<stop  offset="0.7106" style="stop-color:#96D6C7"/>
			<stop  offset="1" style="stop-color:#86CCBC"/>
		</linearGradient>
		<path fill="url(#SVGID_2_)" d="M191.565,117.358L145.52,83.994l3.838,50.447l-76.683,75.777c0,0,3.911,14.422,30.522,32.687
			l93.292-97.407L191.565,117.358z"/>
		<path fill="#E2F1FF" d="M143.794,71.068c-0.402,0.293-0.447,0.967-0.447,0.967l-0.621,9.864l43.567,8.378l1.342-1.591
			l0.867-10.064c0,0,0.036-0.166-0.131-0.407c-0.122-0.177-0.64-0.28-0.64-0.28l-42.378-6.957
			C145.354,70.977,144.237,70.744,143.794,71.068z"/>
		<path fill="#CAE2E7" d="M127.898,99.715c0,0.159,0.782,0.223,0.782,0.223l43.829,10.065l14.407-20.305l-44.191-7.8l-12.448,14.052
			C130.278,95.951,127.898,98.289,127.898,99.715z"/>
		<path fill="#E2F1FF" d="M127.898,99.715l3.499,53.012c0,0-0.122,1.059,0.346,1.607c0.467,0.549,1.321,0.725,1.321,0.725
			l37.734,13.852c0,0,1.235,0.52,1.235,0.374c0-0.596,0.019-3.867,0.019-3.867l0.457-55.414L127.898,99.715z"/>
		<path fill="#95AEB8" d="M200.851,97.126l-2.871,1.217l-25.478,11.66c0,0-0.199-1.162,0.983-2.619
			c1.205-1.481,12.797-16.439,13.266-17.715c0.597-1.621,1.101-11.421,1.62-11.455c0.518-0.036-0.096,10.022,0.396,11.092
			c0.377,0.819,6.895,3.966,9.711,5.408C199.111,95.039,200.869,95.951,200.851,97.126z"/>
		<path fill="#AFCBD2" d="M172.51,110.003l-0.408,58.075l-0.067,1.206c0.771,0.118,2.158-1.276,2.158-1.276l23.947-20.353
			c0,0,1.017-0.683,1.361-1.402c0.346-0.719,0.294-0.705,0.388-1.779c0.776-8.795,1.254-47.162,0.962-47.349
			C200.522,96.917,172.51,110.003,172.51,110.003z"/>
		<path fill="#F2F6FF" d="M127.898,99.715c0,0,0-1.642,1.329-2.591l44.488,9.97c0,0-1.285,1.69-1.266,2.936v0.985l-44.493-10.425
			L127.898,99.715z"/>
		<g>
			<g enable-background="new    ">
				<defs>
					<polygon id="SVGID_3_" enable-background="new    " points="133.747,124.891 133.145,112.377 168.377,122.314 166.087,134.829 
											"/>
				</defs>
				<clipPath id="SVGID_4_">
					<use xlink:href="#SVGID_3_"  overflow="visible"/>
				</clipPath>
			</g>
		</g>
		<g>
			<path fill="#8DDBFF" d="M144.739,122.89c-0.031-0.008-0.062-0.016-0.093-0.024c-0.583-0.144-1.114-0.169-1.59-0.072
				c-0.476,0.096-0.916,0.316-1.325,0.661c-0.305-0.516-0.685-0.938-1.145-1.268c-0.445-0.317-0.965-0.553-1.568-0.71
				c-0.027-0.007-0.053-0.013-0.081-0.02c-0.614-0.148-1.165-0.178-1.658-0.086c-0.49,0.091-0.941,0.31-1.351,0.656l-0.014-0.208
				c-0.025-0.352-0.16-0.656-0.406-0.912c-0.242-0.25-0.531-0.418-0.87-0.505c-0.01-0.001-0.019-0.004-0.029-0.007
				c-0.364-0.085-0.648-0.052-0.855,0.109c-0.206,0.159-0.293,0.445-0.26,0.854l0.554,6.24c0.043,0.453,0.195,0.825,0.452,1.115
				c0.251,0.285,0.553,0.475,0.908,0.572c0.01,0.002,0.019,0.005,0.027,0.008c0.373,0.094,0.662,0.055,0.87-0.119
				c0.208-0.173,0.295-0.486,0.258-0.939l-0.219-2.948c-0.065-0.918,0.016-1.587,0.245-2.015c0.23-0.425,0.758-0.537,1.581-0.336
				c0.011,0.004,0.022,0.006,0.035,0.009c0.391,0.104,0.685,0.27,0.877,0.505c0.199,0.242,0.325,0.521,0.383,0.835
				c0.056,0.313,0.097,0.746,0.122,1.294l0.185,3.476c0.026,0.459,0.157,0.832,0.396,1.119c0.229,0.28,0.514,0.466,0.86,0.562
				c0.01,0.004,0.021,0.006,0.034,0.01c0.368,0.097,0.66,0.059,0.877-0.109c0.213-0.17,0.313-0.485,0.295-0.945l-0.104-2.902
				c-0.03-0.933,0.038-1.561,0.21-1.882c0.154-0.247,0.374-0.421,0.662-0.516c0.289-0.098,0.596-0.106,0.921-0.025
				c0.011,0.002,0.022,0.005,0.035,0.008c0.384,0.105,0.672,0.271,0.865,0.506c0.199,0.243,0.321,0.51,0.369,0.803
				c0.045,0.294,0.071,0.676,0.075,1.145l0.051,3.673c0.007,0.452,0.128,0.825,0.356,1.116c0.224,0.285,0.506,0.476,0.846,0.573
				c0.008,0.002,0.016,0.005,0.024,0.007c0.361,0.096,0.651,0.061,0.871-0.111c0.219-0.169,0.328-0.484,0.328-0.943l0.015-4.263
				c0.008-0.85-0.089-1.496-0.291-1.944c-0.234-0.498-0.593-0.925-1.076-1.283C145.926,123.316,145.376,123.061,144.739,122.89"/>
			<path fill="#8DDBFF" d="M151.398,124.559c-0.011-0.004-0.023-0.007-0.034-0.009c-0.356-0.092-0.647-0.057-0.878,0.106
				c-0.227,0.161-0.348,0.459-0.361,0.892l-0.134,6.249c-0.006,0.427,0.094,0.783,0.301,1.07c0.198,0.277,0.458,0.462,0.776,0.555
				c0.013,0.004,0.021,0.007,0.032,0.009c0.333,0.093,0.608,0.055,0.83-0.109c0.225-0.167,0.343-0.466,0.354-0.904l0.238-6.315
				c0.021-0.39-0.08-0.724-0.299-1.002C152.014,124.833,151.736,124.651,151.398,124.559 M151.559,121.41
				c-0.01-0.003-0.021-0.006-0.031-0.008c-0.33-0.083-0.625-0.056-0.886,0.082c-0.259,0.14-0.394,0.361-0.404,0.672
				c-0.01,0.341,0.1,0.635,0.334,0.882c0.229,0.241,0.506,0.405,0.831,0.494c0.01,0.002,0.02,0.006,0.031,0.007
				c0.326,0.083,0.611,0.062,0.858-0.068s0.379-0.36,0.397-0.696c0.02-0.35-0.088-0.644-0.326-0.885
				C152.132,121.651,151.864,121.492,151.559,121.41"/>
			<path fill="#8DDBFF" d="M156.52,122.567c-0.012-0.003-0.024-0.006-0.034-0.009c-0.368-0.095-0.669-0.057-0.901,0.112
				c-0.234,0.168-0.364,0.472-0.397,0.911l-0.553,9.478c-0.021,0.427,0.066,0.783,0.261,1.07c0.19,0.279,0.444,0.467,0.759,0.56
				c0.008,0.002,0.017,0.004,0.022,0.007c0.333,0.092,0.609,0.057,0.832-0.106c0.222-0.162,0.346-0.466,0.374-0.909l0.709-9.48
				c0.039-0.444-0.044-0.803-0.249-1.084C157.145,122.847,156.868,122.663,156.52,122.567"/>
			<path fill="#8DDBFF" d="M161.56,123.866c-0.009-0.002-0.016-0.005-0.026-0.007c-0.377-0.099-0.683-0.048-0.914,0.154
				c-0.23,0.202-0.37,0.544-0.422,1.029l-0.858,9.322c-0.037,0.438,0.033,0.796,0.209,1.077c0.17,0.271,0.419,0.456,0.742,0.554
				c0.008,0.004,0.016,0.005,0.025,0.007c0.287,0.083,0.552,0.041,0.794-0.123c0.239-0.163,0.383-0.455,0.422-0.878l0.171-1.738
				l1.326-0.785l1.57,3.723c0.194,0.449,0.356,0.765,0.481,0.952c0.118,0.178,0.301,0.306,0.546,0.382
				c0.009,0.003,0.02,0.006,0.027,0.008c0.303,0.089,0.558,0.061,0.769-0.086c0.21-0.148,0.339-0.393,0.386-0.741
				c0.016-0.123-0.001-0.263-0.054-0.42c-0.053-0.157-0.143-0.389-0.271-0.697l-1.792-4.165l1.329-0.736
				c0.682-0.365,1.047-0.708,1.097-1.029c0.04-0.259-0.024-0.505-0.187-0.731c-0.158-0.216-0.371-0.366-0.642-0.444
				c-0.009-0.002-0.019-0.005-0.026-0.008c-0.239-0.067-0.45-0.063-0.634,0.01c-0.183,0.071-0.455,0.224-0.815,0.458l-2.856,1.882
				l0.601-5.307c0.056-0.446-0.008-0.813-0.195-1.1C162.18,124.154,161.912,123.963,161.56,123.866"/>
		</g>
		<g>
			<linearGradient id="SVGID_5_" gradientUnits="userSpaceOnUse" x1="88.1377" y1="240.4805" x2="88.1377" y2="214.7933">
				<stop  offset="0" style="stop-color:#A9E3D4"/>
				<stop  offset="0.3259" style="stop-color:#A4E0D1"/>
				<stop  offset="0.7106" style="stop-color:#96D6C7"/>
				<stop  offset="1" style="stop-color:#86CCBC"/>
			</linearGradient>
			<polygon fill="url(#SVGID_5_)" points="113.468,171.617 88.486,147.15 97.665,199.568 62.808,234.148 78.605,251.981 
				112.639,217.967 			"/>
			<path fill="#DEA379" d="M68.712,187.994l12.262,29.964c0,0,4.376,2.578,15.397,2.344c11.021-0.234,15.996-2.344,15.996-2.344
				l11.664-29.964H68.712z"/>
			<g>
				<path fill="#C49D80" d="M77.058,187.357c0,0,3.161,20.058,12.482,32.72c0,0-3.693-0.526-5.159-0.819
					c-2.865-0.572-4.381-1.3-4.381-1.3l-11.664-29.964L77.058,187.357z"/>
			</g>
			<g>
				<g>
					<path fill="#FEDFE5" d="M65.591,187.141c-0.085-0.371-0.201-0.746-0.365-1.113l0.405-1.184c0,0-3.231-2.925-3.03-5.375
						c0.202-2.448,3.03-4.064,3.03-4.064s-1.011-2.11-0.203-3.378c0.809-1.268,7.068-4.155,7.068-4.155l0.606-1.752
						c0,0-2.02-2.826-1.615-6.262c0.403-3.436,6.059-5.886,6.059-5.886s0-2.104,1.816-4.069c0,0-1.413-3.278-1.009-5.448
						c0.405-2.17,4.443-4.593,6.26-7.219c1.818-2.625,3.433-6.933,4.847-8.918c1.415-1.986,6.26-5.727,3.837-11.026
						c-2.422-5.299-8.344-4.498-9.96-3.365c0,0,12.789-11.83,21.673,12.001c0,0,11.916,13.732,11.108,20.8
						c0,0,10.5,5.804,3.029,15.525c0,0,7.13,4.348,6.594,7.842c-0.536,3.493-3.362,3.379-3.362,3.379v2.336
						c0,0,4.981,3.462,4.711,4.255c-0.231,0.682-0.065,3.355-0.013,4.1c-10.328,4.695-22.068,7.348-34.517,7.348
						C83.051,191.511,73.958,189.963,65.591,187.141z"/>
				</g>
				<path fill="#FEDFE5" d="M116.257,146.727c0,0,9.821,6.092,2.891,15.525c0,0,6.935,4.56,6.564,6.894
					c-0.37,2.336-0.577,4.097-3.332,4.327v2.336l-1.388,0.08l-13.016-13.87l-2.673-17.737L116.257,146.727z"/>
				<path fill="#FDD6CC" d="M103.769,174.37c0,0-6.024-4.357-7.101-5.228c-1.079-0.868-4.07-2.879-8.281-5.301
					c-4.372-2.514-10.468-4.659-11.074-9.685c0,0-3.489,4.054-1.615,7.324c1.178,2.057,1.595,2.782,5.723,5.138
					c3.815,2.176,14.27,5.937,14.27,5.937L103.769,174.37z"/>
				<path fill="#FDD6CC" d="M85.291,113.203c0,0,5.991-2.02,8.347,1.481c2.357,3.5,2.357,5.755,2.357,7.388c0,1.632,0,8.094,0,9.172
					c0,1.076,0.336,1.626,0.875,3.236c0.538,1.611,0.875,2.553,0,3.63c-0.875,1.076-4.813,1.363-5.352,1.498
					c-0.539,0.134-4.297,0.407-3.489,1.754c0.807,1.346,5.475,6.996,5.475,6.996s8.784,10.863,10.266,11.605
					c0,0-6.961-0.961-8.576-0.423c0,0-8.764-10.406-9.97-12.628c-1.28-2.356-1.851-3.804-0.909-5.958
					c1.088-2.487,6.26-1.448,6.934-2.928c0.674-1.48,0.695-1.875,0.845-4.073c0.233-3.4,1.344-4.577,1.478-7.808
					C93.705,122.915,95.827,112.352,85.291,113.203z"/>
				<path fill="#FEDFE5" d="M83.337,113.926c0,0,5.33-4.771,11.041-2.322c4.668,2,8.014,7.218,10.872,14.405
					c0.913,2.298,11.077,9.458,11.007,20.718l-9.031-0.972l-6.318-3.758c0,0,4.243-0.021,3.754-2.529
					c-0.438-2.241-0.173-3.083-4.696-8.107c-2.449-2.72-1.002-7.22-2.212-10.134C96.542,118.313,94.742,108.377,83.337,113.926z"/>
				<path fill="#FDD6CC" d="M116.257,194.013c0,0-9.088-12.702-17.772-16.001c-8.684-3.298-23.427-8.175-25.445-11.487
					c0,0-1.532,2.029-3.366,2.468c-2.828,0.673-4.245,3.034-4.245,3.034s9.225,4.317,16.9,6.929
					c7.673,2.61,10.233,3.365,20.801,8.355C107.676,189.459,116.257,194.013,116.257,194.013z"/>
				<path fill="#FEF9F5" d="M83.337,113.926c0,0,6.573-2.056,8.92,0.102c2.895,2.658,3.467,6.967,3.467,10.804
					c0,3.836-0.09,7.928,0.672,10.165c1.01,2.961,0.471,3.567-2.154,3.972c-2.625,0.403-5.631-1.048-6.462,1.615
					c-0.807,2.591,6.598,9.29,6.598,9.29l8.146,9.852c0,0,4.442,1.312,5.452,2.294c0,0,6.93-2.767,11.172,0.233
					c0,0,0.542-8.002-12.787-17.102c0,0-3.028-2.75-5.453-3.153c0,0,5.453,1.082,3.23-4.609c-2.22-5.69-4.24-4.345-4.645-8.35
					c-0.403-4.006-3.31-15.603-7.067-16.593C90.609,111.966,88.646,111.539,83.337,113.926z"/>
				<path fill="#FEDFE5" d="M122.38,175.809c0,0,4.831,2.807,4.711,4.255c-0.12,1.449-0.741,1.184,0.001,3.436
					c0.743,2.25,1.842,3.945,1.592,5.138c-0.248,1.197-7.986-5.138-7.986-5.138l-9.424-6.025l2.828-3.534L122.38,175.809z"/>
				<path fill="#FEF9F5" d="M121.9,176.051c0,0-4.04-7.806-10.299-11.946c-6.262-4.143-6.665-4.143-8.079-4.143
					c0,0-3.298-1.048-6.597-0.759c-3.298,0.287-6.933,2.912-6.933,2.912s-10.226-7.481-10.63-12.213
					c-0.091,0.099-4.693,4.881,0.127,8.821c4.084,3.338,11.916,7.027,14.34,8.845c2.422,1.817,8.078,6.059,8.078,6.059
					s8.886,1.211,10.097,2.424C113.216,177.262,114.63,174.637,121.9,176.051z"/>
				<path fill="#FEF9F5" d="M120.245,191.004c0.623-1.039,1.179,1.058,2.942,1.393c1.765,0.334,5.701-1.215,5.498-3.76
					c-0.202-2.541-10.211-14.033-22.577-15.213c-12.195-1.16-14.625-0.26-21.76-1.605c-8.33-1.571-11.649-6.362-11.649-6.362
					s-0.202,2.415,1.5,4.392c1.565,1.815,9.087,4.396,12.724,5.405c3.634,1.009,21.002,8.519,22.618,11.025
					c1.615,2.504,6.058,8.169,7.271,7.86C118.021,193.832,119.639,192.014,120.245,191.004z"/>
				<path fill="#FDD6CC" d="M65.148,175.752c0,0,3.553,2.115,6.665,5.665c6.786,7.745,17.643,10.094,17.643,10.094l-12.154-1.359
					c0,0-7.373-1.683-9.918-7.628c-0.539-1.263-3.027-5.252-3.027-5.252C64.194,176.046,65.148,175.752,65.148,175.752z"/>
				<path fill="#FEF9F5" d="M102.12,190.251c0,0-4.417-4.56-10.273-4.961c-5.856-0.406-1.642-0.222-7.499-0.625
					c-3.469-0.239-13.078-3.894-15.501-6.17c0,0,5.606,7.38,11.261,9.804C85.762,190.722,94.447,193.014,102.12,190.251z"/>
				<path fill="#FDD6CC" d="M121.62,191.511c0,0-0.977,3.946-5.363,2.502c-2.504-0.825,4.386-12.648-10.185-17.266
					C106.072,176.747,115.401,176.397,121.62,191.511z"/>
			</g>
		</g>
		<g>
			<g>
				<linearGradient id="SVGID_6_" gradientUnits="userSpaceOnUse" x1="130.4326" y1="277.1826" x2="194.5273" y2="213.0879">
					<stop  offset="0" style="stop-color:#A9E3D4"/>
					<stop  offset="0.3259" style="stop-color:#A4E0D1"/>
					<stop  offset="0.7106" style="stop-color:#96D6C7"/>
					<stop  offset="1" style="stop-color:#86CCBC"/>
				</linearGradient>
				<path fill="url(#SVGID_6_)" d="M230.632,203.831l-49.821-28.546l-83.45,88.865c16.858,10.608,33.075,15.513,52.161,15.513
					c10.698,0,26.167-3.489,36.053-6.105l44.54-46.373L230.632,203.831z"/>
			</g>
			<path fill="#E5AC2F" d="M184.906,171.98c0,0,2.458-3.352,6.479-1.788s41.997,14.521,41.997,14.521l-3.351,42.219l-45.87,14.719
				c0,0-1.878-5.392-6.567-3.281c-4.211,1.894-2.814,6.097-2.814,6.097l-22.04,6.592c0,0-3.797-0.894-4.021-5.585
				c-0.224-4.69,0.446-33.73,0.446-33.73s-0.223-3.575,3.575-6.479C156.535,202.36,184.906,171.98,184.906,171.98z"/>
			<path fill="#FBDF5E" d="M233.382,184.603c0,0-37.977-12.958-41.997-14.521c-4.021-1.563-6.479,1.787-6.479,1.787
				s-28.868,29.159-32.39,32.391c-1.342,1.229-5.006,6.456-2.905,8.488c3.35,3.237,41.998-12.397,41.998-12.397L233.382,184.603z"/>
			<ellipse fill="#E5AC2F" cx="197.835" cy="188.031" rx="6.785" ry="2.515"/>
			<circle fill="#C65A19" cx="192.521" cy="218.274" r="5.466"/>
			<circle fill="#C65A19" cx="210.169" cy="204.944" r="3.438"/>
		</g>
	</g>
	<circle fill="none" cx="149.098" cy="170.81" r="129.191"/>
	<text transform="matrix(0.7939 -0.608 0.608 0.7939 56.8745 78.7051)"><tspan x="0" y="0" fill="#42C8BC" font-family="'GillSans-UltraBold'" font-size="39.1399">D</tspan><tspan x="31.579" y="-0.673" fill="#42C8BC" font-family="'GillSans-UltraBold'" font-size="39.1399" rotate="14.815">A</tspan><tspan x="67.427" y="9.757" fill="#42C8BC" font-family="'GillSans-UltraBold'" font-size="39.1399" rotate="27.014">I</tspan><tspan x="83.504" y="16.894" fill="#42C8BC" font-family="'GillSans-UltraBold'" font-size="39.1399" rotate="38.373">R</tspan><tspan x="107.292" y="34.879" fill="#42C8BC" font-family="'GillSans-UltraBold'" font-size="39.1399" rotate="51.449">Y</tspan></text>
</g>
</svg>
