<?xml version="1.0" encoding="utf-8"?>
<!-- Generator: Adobe Illustrator 16.0.0, SVG Export Plug-In . SVG Version: 6.00 Build 0)  -->
<!DOCTYPE svg PUBLIC "-//W3C//DTD SVG 1.1//EN" "http://www.w3.org/Graphics/SVG/1.1/DTD/svg11.dtd">
<svg version="1.1" id="Layer_1" xmlns="http://www.w3.org/2000/svg" xmlns:xlink="http://www.w3.org/1999/xlink" x="0px" y="0px"
	 width="300px" height="300px" viewBox="0 0 300 300" enable-background="new 0 0 300 300" xml:space="preserve">
<g>
	<g>
		<g>
			<g>
				<path fill="#5C9DBD" d="M259.547,168.253c0-60.946-49.584-110.529-110.53-110.529c-60.493,0-109.783,48.853-110.51,109.178
					l84.764-82.668l32.341,12.28l64.79,39.813l-9.637,18.609L100.461,267.526c14.665,7.202,31.146,11.254,48.556,11.254
					C209.963,278.78,259.547,229.2,259.547,168.253z"/>
				<path fill="#4C598D" d="M80.166,263.628l-21.949-20.592C64.618,250.8,72,257.721,80.166,263.628z"/>
				<path fill="#ADC9E6" d="M220.402,136.326l-64.79-39.813l-32.341-12.28l-84.764,82.668c-0.005,0.451-0.016,0.9-0.016,1.352
					c0,43.533,25.302,81.266,61.97,99.273l110.305-112.591L220.402,136.326z"/>
				<path fill="#42C8BC" d="M149.017,43.521c-68.776,0-124.73,55.955-124.73,124.732c0,4.033,0.2,8.021,0.575,11.956
					c1.461,15.292,5.696,29.784,12.192,42.974c20.348,41.308,62.888,69.802,111.963,69.802c68.777,0,124.732-55.956,124.732-124.731
					C273.749,99.476,217.794,43.521,149.017,43.521z"/>
			</g>
			<g>
				<linearGradient id="SVGID_1_" gradientUnits="userSpaceOnUse" x1="138.0898" y1="142.6992" x2="80.9859" y2="199.8032">
					<stop  offset="0" style="stop-color:#5D8CA9"/>
					<stop  offset="1" style="stop-color:#5C9DBD"/>
				</linearGradient>
				<path fill="url(#SVGID_1_)" d="M86.632,259.429c-26.863-18.438-45.21-48.415-47.817-82.729"/>
				<path fill="#A9E3D4" d="M149.017,57.724c-60.493,0-109.783,48.853-110.51,109.178c-0.005,0.451-0.016,0.9-0.016,1.352
					c0,2.84,0.113,5.657,0.324,8.447c2.607,34.313,20.954,64.291,47.817,82.729c4.395,3.016,9.011,5.732,13.829,8.098
					c14.665,7.202,31.146,11.254,48.556,11.254c60.946,0,110.53-49.58,110.53-110.527
					C259.547,107.307,209.963,57.724,149.017,57.724z"/>
			</g>
		</g>
		<linearGradient id="SVGID_2_" gradientUnits="userSpaceOnUse" x1="71.4434" y1="161.4678" x2="196.4287" y2="161.4678">
			<stop  offset="0" style="stop-color:#A9E3D4"/>
			<stop  offset="0.3259" style="stop-color:#A4E0D1"/>
			<stop  offset="0.7106" style="stop-color:#96D6C7"/>
			<stop  offset="1" style="stop-color:#86CCBC"/>
		</linearGradient>
		<path fill="url(#SVGID_2_)" d="M191.458,114.94l-46.48-33.679l3.875,50.924l-77.409,76.493c0,0,3.948,14.56,30.812,32.997
			l94.173-98.329L191.458,114.94z"/>
		<path fill="#E2F1FF" d="M143.236,68.212c-0.406,0.296-0.452,0.976-0.452,0.976l-0.626,9.958l43.979,8.457l1.354-1.605l0.876-10.16
			c0,0,0.037-0.167-0.134-0.411c-0.122-0.179-0.644-0.282-0.644-0.282l-42.779-7.022C144.81,68.121,143.683,67.886,143.236,68.212z"
			/>
		<path fill="#CAE2E7" d="M127.19,97.131c0,0.159,0.789,0.224,0.789,0.224l44.244,10.16l14.543-20.497l-44.609-7.873l-12.565,14.185
			C129.592,93.331,127.19,95.69,127.19,97.131z"/>
		<path fill="#E2F1FF" d="M127.19,97.131l3.531,53.512c0,0-0.123,1.069,0.35,1.625c0.471,0.553,1.333,0.73,1.333,0.73l38.09,13.981
			c0,0,1.25,0.527,1.25,0.378c0-0.601,0.018-3.903,0.018-3.903l0.462-55.939L127.19,97.131z"/>
		<path fill="#95AEB8" d="M200.831,94.517l-2.896,1.229l-25.718,11.77c0,0-0.204-1.171,0.99-2.643
			c1.217-1.495,12.917-16.595,13.391-17.883c0.603-1.636,1.111-11.527,1.635-11.563c0.525-0.036-0.095,10.118,0.402,11.197
			c0.381,0.827,6.958,4.002,9.799,5.459C199.076,92.41,200.851,93.331,200.831,94.517z"/>
		<path fill="#AFCBD2" d="M172.224,107.515l-0.411,58.624l-0.068,1.219c0.777,0.119,2.178-1.289,2.178-1.289l24.173-20.544
			c0,0,1.027-0.69,1.376-1.415c0.349-0.726,0.295-0.713,0.391-1.796c0.782-8.878,1.266-47.608,0.97-47.796
			C200.501,94.306,172.224,107.515,172.224,107.515z"/>
		<path fill="#F2F6FF" d="M127.19,97.131c0,0,0-1.659,1.341-2.616l44.908,10.063c0,0-1.298,1.707-1.277,2.964v0.996l-44.914-10.522
			L127.19,97.131z"/>
		<g>
			<g enable-background="new    ">
				<defs>
					<polygon id="SVGID_3_" enable-background="new    " points="133.093,122.544 132.486,109.913 168.05,119.944 165.74,132.577 
											"/>
				</defs>
				<clipPath id="SVGID_4_">
					<use xlink:href="#SVGID_3_"  overflow="visible"/>
				</clipPath>
			</g>
		</g>
		<g>
			<path fill="#8DDBFF" d="M144.189,120.525c-0.03-0.009-0.062-0.017-0.094-0.024c-0.588-0.145-1.123-0.172-1.604-0.073
				c-0.481,0.097-0.926,0.319-1.337,0.667c-0.308-0.521-0.692-0.946-1.156-1.279c-0.448-0.321-0.974-0.558-1.583-0.716
				c-0.026-0.007-0.053-0.015-0.081-0.021c-0.62-0.149-1.176-0.179-1.674-0.087c-0.494,0.091-0.95,0.313-1.363,0.662l-0.015-0.209
				c-0.024-0.356-0.16-0.663-0.41-0.922c-0.244-0.252-0.536-0.421-0.878-0.509c-0.01-0.001-0.019-0.005-0.03-0.007
				c-0.367-0.086-0.655-0.052-0.862,0.11c-0.209,0.16-0.296,0.45-0.264,0.862l0.56,6.299c0.042,0.457,0.196,0.833,0.455,1.126
				c0.254,0.288,0.559,0.479,0.917,0.577c0.01,0.002,0.018,0.005,0.026,0.008c0.376,0.095,0.667,0.055,0.878-0.121
				c0.211-0.173,0.298-0.489,0.26-0.947l-0.221-2.977c-0.066-0.924,0.016-1.602,0.247-2.032c0.232-0.429,0.765-0.542,1.596-0.339
				c0.013,0.002,0.023,0.005,0.036,0.008c0.396,0.104,0.691,0.272,0.885,0.51c0.201,0.245,0.33,0.524,0.387,0.842
				c0.057,0.317,0.099,0.753,0.124,1.307l0.186,3.509c0.026,0.464,0.159,0.84,0.399,1.13c0.23,0.282,0.52,0.471,0.868,0.567
				c0.011,0.004,0.022,0.006,0.034,0.01c0.373,0.097,0.667,0.059,0.886-0.111c0.216-0.171,0.316-0.489,0.299-0.953l-0.106-2.93
				c-0.03-0.94,0.039-1.574,0.212-1.898c0.156-0.251,0.377-0.426,0.668-0.522c0.292-0.099,0.6-0.108,0.929-0.025
				c0.012,0.002,0.022,0.005,0.035,0.008c0.389,0.105,0.68,0.273,0.874,0.511c0.201,0.245,0.325,0.514,0.372,0.811
				c0.045,0.297,0.073,0.682,0.077,1.156l0.053,3.707c0.006,0.458,0.129,0.833,0.358,1.127c0.227,0.288,0.512,0.481,0.855,0.578
				c0.007,0.004,0.015,0.006,0.023,0.008c0.365,0.097,0.658,0.062,0.879-0.112c0.222-0.171,0.332-0.488,0.332-0.951l0.015-4.304
				c0.009-0.857-0.09-1.511-0.294-1.963c-0.235-0.501-0.597-0.933-1.085-1.295C145.388,120.954,144.833,120.697,144.189,120.525"/>
			<path fill="#8DDBFF" d="M150.912,122.208c-0.011-0.003-0.023-0.005-0.034-0.008c-0.359-0.093-0.653-0.059-0.887,0.106
				c-0.229,0.163-0.351,0.464-0.364,0.9l-0.135,6.308c-0.007,0.432,0.095,0.792,0.304,1.08c0.2,0.28,0.462,0.467,0.783,0.561
				c0.012,0.002,0.021,0.006,0.031,0.009c0.337,0.093,0.615,0.055,0.839-0.11c0.227-0.168,0.345-0.47,0.358-0.914l0.241-6.375
				c0.019-0.393-0.082-0.729-0.303-1.011C151.532,122.485,151.254,122.302,150.912,122.208 M151.074,119.03
				c-0.01-0.003-0.021-0.005-0.031-0.008c-0.333-0.084-0.631-0.056-0.895,0.083c-0.262,0.14-0.397,0.364-0.408,0.678
				c-0.01,0.344,0.101,0.643,0.337,0.891c0.232,0.244,0.511,0.409,0.84,0.497c0.01,0.003,0.02,0.006,0.03,0.008
				c0.33,0.085,0.618,0.062,0.866-0.068c0.249-0.132,0.384-0.365,0.402-0.705c0.019-0.351-0.089-0.649-0.33-0.893
				C151.652,119.274,151.383,119.112,151.074,119.03"/>
			<path fill="#8DDBFF" d="M156.081,120.199c-0.011-0.003-0.023-0.007-0.033-0.009c-0.372-0.096-0.677-0.058-0.911,0.112
				c-0.235,0.17-0.368,0.478-0.399,0.92l-0.561,9.568c-0.021,0.43,0.067,0.789,0.264,1.08c0.191,0.282,0.448,0.471,0.767,0.563
				c0.007,0.003,0.017,0.005,0.023,0.008c0.335,0.093,0.613,0.057,0.838-0.108c0.227-0.163,0.352-0.47,0.379-0.917l0.716-9.57
				c0.039-0.447-0.043-0.811-0.251-1.096C156.713,120.482,156.434,120.296,156.081,120.199"/>
			<path fill="#8DDBFF" d="M161.17,121.511c-0.008-0.003-0.018-0.006-0.027-0.008c-0.382-0.099-0.689-0.048-0.923,0.155
				c-0.231,0.204-0.374,0.55-0.426,1.04l-0.868,9.411c-0.037,0.442,0.036,0.805,0.213,1.086c0.172,0.273,0.423,0.459,0.749,0.559
				c0.009,0.003,0.016,0.005,0.024,0.007c0.291,0.084,0.558,0.042,0.802-0.124c0.244-0.164,0.387-0.46,0.428-0.886l0.172-1.753
				l1.338-0.793l1.586,3.759c0.197,0.453,0.358,0.772,0.485,0.96c0.119,0.18,0.303,0.308,0.553,0.386
				c0.008,0.003,0.019,0.006,0.026,0.008c0.307,0.09,0.562,0.061,0.775-0.086c0.212-0.15,0.343-0.397,0.39-0.748
				c0.015-0.125-0.002-0.267-0.054-0.424c-0.052-0.158-0.145-0.393-0.274-0.704l-1.809-4.204l1.341-0.744
				c0.69-0.367,1.06-0.715,1.107-1.039c0.04-0.261-0.024-0.509-0.188-0.738c-0.159-0.219-0.376-0.369-0.649-0.448
				c-0.009-0.003-0.019-0.005-0.025-0.007c-0.242-0.067-0.455-0.064-0.64,0.01c-0.185,0.072-0.46,0.226-0.823,0.462l-2.885,1.901
				l0.607-5.356c0.056-0.451-0.008-0.822-0.196-1.11C161.797,121.8,161.524,121.609,161.17,121.511"/>
		</g>
		<g>
			<linearGradient id="SVGID_5_" gradientUnits="userSpaceOnUse" x1="87.0532" y1="239.2256" x2="87.0532" y2="213.2955">
				<stop  offset="0" style="stop-color:#A9E3D4"/>
				<stop  offset="0.3259" style="stop-color:#A4E0D1"/>
				<stop  offset="0.7106" style="stop-color:#96D6C7"/>
				<stop  offset="1" style="stop-color:#86CCBC"/>
			</linearGradient>
			<polygon fill="url(#SVGID_5_)" points="112.624,169.712 87.404,145.013 96.669,197.928 61.482,232.835 77.43,250.836 
				111.785,216.502 			"/>
			<path fill="#DEA379" d="M67.444,186.243l12.377,30.247c0,0,4.419,2.603,15.544,2.369c11.125-0.237,16.147-2.369,16.147-2.369
				l11.773-30.247H67.444z"/>
			<g>
				<path fill="#C49D80" d="M75.869,185.601c0,0,3.19,20.249,12.6,33.031c0,0-3.729-0.532-5.208-0.827
					c-2.893-0.579-4.423-1.314-4.423-1.314l-11.773-30.247L75.869,185.601z"/>
			</g>
			<g>
				<g>
					<path fill="#FEDFE5" d="M64.293,185.382c-0.086-0.374-0.203-0.751-0.367-1.123l0.408-1.195c0,0-3.263-2.952-3.059-5.426
						c0.204-2.471,3.059-4.103,3.059-4.103s-1.02-2.13-0.205-3.41c0.816-1.278,7.135-4.193,7.135-4.193l0.612-1.77
						c0,0-2.039-2.852-1.631-6.32c0.408-3.468,6.116-5.94,6.116-5.94s0-2.126,1.833-4.11c0,0-1.426-3.308-1.019-5.499
						c0.41-2.19,4.485-4.636,6.32-7.287c1.835-2.649,3.465-6.999,4.893-9.004c1.428-2.004,6.319-5.78,3.873-11.13
						c-2.445-5.348-8.422-4.539-10.054-3.396c0,0,12.909-11.942,21.878,12.113c0,0,12.028,13.863,11.213,20.999
						c0,0,10.6,5.86,3.058,15.67c0,0,7.197,4.39,6.657,7.917c-0.542,3.526-3.395,3.411-3.395,3.411v2.357
						c0,0,5.03,3.494,4.757,4.297c-0.233,0.686-0.066,3.386-0.014,4.139c-10.426,4.738-22.275,7.416-34.843,7.416
						C81.919,189.795,72.739,188.232,64.293,185.382z"/>
				</g>
				<path fill="#FEDFE5" d="M115.438,144.588c0,0,9.914,6.148,2.918,15.67c0,0,7,4.604,6.626,6.961
					c-0.374,2.356-0.583,4.133-3.365,4.367v2.357l-1.4,0.082l-13.139-14.002l-2.699-17.905L115.438,144.588z"/>
				<path fill="#FDD6CC" d="M102.833,172.49c0,0-6.083-4.397-7.169-5.275c-1.088-0.877-4.107-2.907-8.359-5.352
					c-4.413-2.538-10.566-4.703-11.178-9.776c0,0-3.522,4.095-1.63,7.394c1.188,2.078,1.611,2.809,5.776,5.188
					c3.851,2.196,14.406,5.992,14.406,5.992L102.833,172.49z"/>
				<path fill="#FDD6CC" d="M84.179,110.746c0,0,6.047-2.039,8.426,1.495c2.379,3.532,2.379,5.81,2.379,7.458
					c0,1.646,0,8.17,0,9.257c0,1.087,0.34,1.643,0.883,3.268c0.543,1.626,0.882,2.578,0,3.663c-0.883,1.088-4.859,1.376-5.402,1.514
					c-0.543,0.135-4.338,0.41-3.522,1.77c0.814,1.359,5.527,7.062,5.527,7.062s8.868,10.964,10.363,11.711
					c0,0-7.027-0.968-8.658-0.424c0,0-8.846-10.503-10.063-12.747c-1.291-2.38-1.868-3.84-0.917-6.015
					c1.099-2.511,6.32-1.461,6.999-2.956s0.702-1.893,0.853-4.112c0.236-3.433,1.356-4.62,1.493-7.882
					C92.674,120.548,94.815,109.887,84.179,110.746z"/>
				<path fill="#FEDFE5" d="M82.208,111.476c0,0,5.38-4.816,11.145-2.344c4.713,2.019,8.09,7.287,10.975,14.541
					c0.922,2.321,11.182,9.549,11.111,20.915l-9.116-0.982l-6.377-3.793c0,0,4.283-0.022,3.789-2.554
					c-0.442-2.261-0.174-3.111-4.74-8.183c-2.473-2.747-1.011-7.289-2.233-10.23C95.536,115.904,93.72,105.874,82.208,111.476z"/>
				<path fill="#FDD6CC" d="M115.438,192.32c0,0-9.174-12.822-17.94-16.152c-8.766-3.33-23.648-8.251-25.686-11.597
					c0,0-1.546,2.051-3.398,2.49c-2.854,0.68-4.285,3.063-4.285,3.063s9.312,4.359,17.061,6.994
					c7.746,2.635,10.329,3.397,20.998,8.437C106.776,187.724,115.438,192.32,115.438,192.32z"/>
				<path fill="#FEF9F5" d="M82.208,111.476c0,0,6.634-2.075,9.005,0.102c2.922,2.685,3.5,7.034,3.5,10.907s-0.09,8.002,0.68,10.26
					c1.019,2.99,0.475,3.602-2.175,4.01c-2.65,0.407-5.686-1.058-6.523,1.63c-0.815,2.616,6.66,9.378,6.66,9.378l8.222,9.943
					c0,0,4.485,1.324,5.504,2.316c0,0,6.996-2.794,11.277,0.234c0,0,0.547-8.076-12.908-17.262c0,0-3.057-2.776-5.504-3.183
					c0,0,5.504,1.092,3.261-4.653s-4.28-4.387-4.688-8.431c-0.408-4.041-3.343-15.75-7.136-16.748
					C89.547,109.498,87.567,109.065,82.208,111.476z"/>
				<path fill="#FEDFE5" d="M121.618,173.943c0,0,4.876,2.833,4.757,4.297c-0.121,1.461-0.747,1.194,0.001,3.466
					c0.751,2.271,1.859,3.983,1.608,5.188c-0.251,1.208-8.062-5.188-8.062-5.188l-9.514-6.082l2.855-3.565L121.618,173.943z"/>
				<path fill="#FEF9F5" d="M121.134,174.188c0,0-4.077-7.88-10.396-12.061c-6.321-4.183-6.728-4.183-8.155-4.183
					c0,0-3.33-1.056-6.66-0.765c-3.33,0.289-6.999,2.939-6.999,2.939s-10.322-7.551-10.73-12.329c-0.092,0.1-4.738,4.93,0.129,8.906
					c4.123,3.369,12.028,7.093,14.475,8.927c2.445,1.837,8.154,6.117,8.154,6.117s8.97,1.224,10.194,2.447
					C112.369,175.411,113.796,172.76,121.134,174.188z"/>
				<path fill="#FEF9F5" d="M119.463,189.283c0.628-1.05,1.19,1.067,2.971,1.404c1.781,0.339,5.754-1.226,5.55-3.794
					c-0.205-2.566-10.308-14.167-22.791-15.356c-12.311-1.173-14.763-0.262-21.966-1.622c-8.41-1.585-11.759-6.422-11.759-6.422
					s-0.204,2.438,1.514,4.434c1.579,1.831,9.173,4.436,12.844,5.455c3.669,1.018,21.201,8.601,22.833,11.129
					c1.63,2.53,6.115,8.248,7.338,7.937C117.22,192.138,118.852,190.302,119.463,189.283z"/>
				<path fill="#FDD6CC" d="M63.847,173.885c0,0,3.586,2.137,6.728,5.721c6.85,7.818,17.81,10.189,17.81,10.189l-12.269-1.374
					c0,0-7.442-1.696-10.012-7.7c-0.544-1.274-3.057-5.302-3.057-5.302C62.882,174.185,63.847,173.885,63.847,173.885z"/>
				<path fill="#FEF9F5" d="M101.167,188.523c0,0-4.458-4.603-10.369-5.01c-5.913-0.408-1.659-0.223-7.571-0.63
					c-3.503-0.242-13.201-3.931-15.647-6.229c0,0,5.659,7.452,11.366,9.897C84.655,188.999,93.421,191.312,101.167,188.523z"/>
				<path fill="#FDD6CC" d="M120.853,189.795c0,0-0.987,3.983-5.415,2.525c-2.528-0.833,4.428-12.768-10.281-17.427
					C105.157,174.894,114.575,174.537,120.853,189.795z"/>
			</g>
		</g>
		<g>
			<g>
				<linearGradient id="SVGID_6_" gradientUnits="userSpaceOnUse" x1="129.749" y1="276.2764" x2="194.4505" y2="211.5749">
					<stop  offset="0" style="stop-color:#A9E3D4"/>
					<stop  offset="0.3259" style="stop-color:#A4E0D1"/>
					<stop  offset="0.7106" style="stop-color:#96D6C7"/>
					<stop  offset="1" style="stop-color:#86CCBC"/>
				</linearGradient>
				<path fill="url(#SVGID_6_)" d="M230.896,202.229l-50.293-28.813L96.363,263.12c17.018,10.709,33.387,15.66,52.654,15.66
					c10.799,0,26.415-3.521,36.394-6.162l44.962-46.812L230.896,202.229z"/>
			</g>
			<path fill="#E5AC2F" d="M184.736,170.08c0,0,2.48-3.384,6.542-1.806c4.056,1.579,42.391,14.658,42.391,14.658l-3.382,42.62
				l-46.302,14.858c0,0-1.896-5.446-6.63-3.315c-4.252,1.914-2.841,6.155-2.841,6.155l-22.248,6.655c0,0-3.835-0.902-4.061-5.638
				c-0.226-4.736,0.451-34.05,0.451-34.05s-0.226-3.607,3.61-6.54C156.098,200.748,184.736,170.08,184.736,170.08z"/>
			<path fill="#FBDF5E" d="M233.669,182.821c0,0-38.335-13.079-42.391-14.66c-4.062-1.578-6.542,1.807-6.542,1.807
				s-29.14,29.434-32.695,32.694c-1.355,1.244-5.054,6.52-2.932,8.571c3.382,3.269,42.394-12.516,42.394-12.516L233.669,182.821z"/>
			<ellipse fill="#E5AC2F" cx="197.789" cy="186.284" rx="6.849" ry="2.537"/>
			<circle fill="#C65A19" cx="192.424" cy="216.812" r="5.517"/>
			<circle fill="#C65A19" cx="210.238" cy="203.354" r="3.47"/>
		</g>
	</g>
	<g>
		<g>
			<path fill="#42C8BC" d="M42.121,55.427c-2.53-3.305-1.896-8.08,1.408-10.61l0.241-0.186c3.306-2.53,9-6.229,12.656-8.222
				c0,0,2.119-1.154,6.396-0.555c4.275,0.603,7.735,2.629,10.376,6.078c1.684,2.198,2.727,4.693,3.129,7.483
				c0.401,2.791-0.038,5.536-1.319,8.237c-1.284,2.699-3.421,5.194-6.414,7.487l-5.988,4.585c-3.305,2.532-8.079,1.898-10.611-1.407
				L42.121,55.427z M56.541,49.976c-0.385,0.295,0.307,1.851,1.538,3.459c1.062,1.389,1.625,3.029,3.383,2.051
				c1.932-1.075,1.807-3.659,0.626-5.201C60.621,48.37,58.771,48.266,56.541,49.976z"/>
		</g>
		<g>
			<path fill="#42C8BC" d="M90.889,49.02c-0.139,1.187-0.206,2.39-0.847,3.453c-0.979,1.625-2.712,2.503-4.552,2.748
				c-3.555,0.477-6.622-1.607-6.906-5.503L77.355,32.8c-0.283-3.896,2.419-8.347,6.007-9.893l4.018-1.731
				c3.587-1.546,8.679-0.452,11.316,2.429l11.451,12.512c2.637,2.882,2.595,5.785,0.204,8.452c-1.42,1.585-3.491,2.055-5.527,1.667
				c-3.706-0.707-6.022-4.535-10.244-2.714c-1.379,0.594-2.457,1.823-3.109,3.152C91.109,47.414,90.981,48.213,90.889,49.02z
				 M89.758,35.246c0.186,2.109,1.335,3.405,2.553,2.88c1.219-0.526,1.065-2.25-0.339-3.834
				C90.567,32.707,89.571,33.137,89.758,35.246z"/>
		</g>
		<g>
			<path fill="#42C8BC" d="M121.193,40.931c-3.515,0.691-7.006-1.88-7.759-5.713l-2.938-14.95c-0.752-3.833,1.507-7.533,5.02-8.224
				c3.515-0.691,7.006,1.881,7.759,5.713l2.938,14.95C126.966,36.54,124.706,40.241,121.193,40.931z"/>
		</g>
		<g>
			<path fill="#42C8BC" d="M129.572,15.91c0.092-5.686,5.859-7.273,10.506-7.63c5.081-0.393,12.913-0.582,16.65,3.488
				c1.716,1.868,2.795,3.824,2.752,6.345c-0.044,2.776-1.198,4.932-3.46,6.465c2.328,2.748,4.747,6.104,4.786,9.867
				c0.043,4.012-3.978,4.734-7.162,4.091c-3.323-0.67-5.472-2.914-6.879-5.92c-0.698-1.489-1.276-3.317-2.668-4.333
				c-2.271-1.658-1.733,1.934-1.752,3.075c-0.062,3.905-3.044,7.053-6.625,6.995c-3.581-0.059-6.459-3.301-6.395-7.207
				C129.325,31.146,129.572,15.916,129.572,15.91z M143.542,15.69c-0.546,0.179-0.954,0.841-0.979,2.223
				c-0.026,1.561,0.036,2.838,0.137,2.839c0.101,0.001,3.199,0.384,3.709-0.86C147.218,17.915,144.931,15.236,143.542,15.69z"/>
		</g>
		<g>
			<path fill="#42C8BC" d="M178.012,36.445c-0.737,3.456-4.212,5.67-7.718,4.921c-3.508-0.749-5.773-4.19-5.034-7.645
				c0.737-3.455,0.143-9.244-1.322-12.864c0,0-2.186-5.402-2.188-5.407c-1.272-3.142,0.413-6.085,3.486-7.038
				c4.98-1.544,7.364,2.846,8.284,6.951c0.485,2.169,3.562,2.985,4.442,0.949c1.312-3.036,3.439-5.375,6.865-5.317
				c5.509,0.094,7.977,6.225,3.836,10.208l-4.191,4.037C181.658,27.947,178.751,32.991,178.012,36.445z"/>
		</g>
	</g>
</g>
</svg>
