<?xml version="1.0" encoding="utf-8"?>
<!-- Generator: Adobe Illustrator 16.0.0, SVG Export Plug-In . SVG Version: 6.00 Build 0)  -->
<!DOCTYPE svg PUBLIC "-//W3C//DTD SVG 1.1//EN" "http://www.w3.org/Graphics/SVG/1.1/DTD/svg11.dtd">
<svg version="1.1" id="Layer_1" xmlns="http://www.w3.org/2000/svg" xmlns:xlink="http://www.w3.org/1999/xlink" x="0px" y="0px"
	 width="300px" height="300px" viewBox="0 0 300 300" enable-background="new 0 0 300 300" xml:space="preserve">
<g>
	<path fill="#F5B97A" stroke="#FF9D52" stroke-width="15.4953" stroke-miterlimit="10" d="M278.334,150
		c0,70.876-57.457,128.334-128.333,128.334S21.666,220.876,21.666,150C21.666,79.123,79.124,21.666,150,21.666
		C228.17,21.666,278.334,88.597,278.334,150z"/>
	<g>
		<linearGradient id="SVGID_1_" gradientUnits="userSpaceOnUse" x1="104.8335" y1="243.9624" x2="136.5317" y2="212.2642">
			<stop  offset="0" style="stop-color:#F5B97A"/>
			<stop  offset="1" style="stop-color:#E8AB7A"/>
		</linearGradient>
		<polygon fill="url(#SVGID_1_)" points="56.99,222.776 137.049,269.262 214.43,206.331 157.745,163.563 129.566,167.437 
			106.113,170.715 		"/>
	</g>
	<g>
		<linearGradient id="SVGID_2_" gradientUnits="userSpaceOnUse" x1="96.4346" y1="148.1699" x2="126.9283" y2="117.6762">
			<stop  offset="0" style="stop-color:#F5B97A"/>
			<stop  offset="1" style="stop-color:#E8AB7A"/>
		</linearGradient>
		<polygon fill="url(#SVGID_2_)" points="54.805,132.184 125.693,176.732 184.25,118.644 184.568,105.787 186.131,96.232 
			143.414,63.235 120.004,67.048 109.083,77.231 		"/>
	</g>
	<g>
		<path fill="#F5E0C5" d="M192.047,92.917c-0.072,24.642-17.16,43.589-38.172,43.543c-21.013-0.048-37.992-19.073-37.92-43.714
			c0.061-21.308,21.772-47.448,38.18-47.411C169.754,45.37,192.107,71.61,192.047,92.917z"/>
		<g>
			<path fill="#E0C7AA" d="M121.776,92.757c-0.31-20.468,18.408-48.627,36.226-47.289c-0.702-0.083-1.396-0.058-2.07-0.13
				c-17.248-1.841-42.15,26.093-42.21,47.403c-0.072,24.642,18.853,44.92,41.949,43.721c0.707-0.037,1.414-0.016,2.117-0.049
				C136.749,136.728,122.265,124.905,121.776,92.757z"/>
		</g>
	</g>
	<g>
		<path fill="#FFFFFF" d="M114.966,163.792c-34.448,20.573-20.11,62.978,2.088,75.601c10.3,5.858,35.786,10.504,50.927,2.176
			c8.705-4.787,24.373-18.281,30.469-22.198c10.383-6.676,19.266-12.669,20.617-27.018c1.1-11.657-4.846-21.52-15.74-24.625
			c-5.93-1.688-12.463-2.143-23.02-3.059C169.746,163.753,135.207,151.703,114.966,163.792z"/>
		<circle fill="#FDB03B" cx="149.156" cy="199.893" r="23.395"/>
		<g>
			<path fill="#FFDABB" d="M149.821,184.561c8.876,0,16.29,6.257,18.074,14.599c-0.113-10.111-8.342-18.272-18.482-18.272
				c-10.21,0-18.487,8.277-18.487,18.488c0,1.335,0.145,2.636,0.413,3.889c-0.001-0.073-0.005-0.143-0.005-0.215
				C131.333,192.837,139.61,184.561,149.821,184.561z"/>
		</g>
	</g>
</g>
</svg>
