<?xml version="1.0" encoding="utf-8"?>
<!-- Generator: Adobe Illustrator 16.0.0, SVG Export Plug-In . SVG Version: 6.00 Build 0)  -->
<!DOCTYPE svg PUBLIC "-//W3C//DTD SVG 1.1//EN" "http://www.w3.org/Graphics/SVG/1.1/DTD/svg11.dtd">
<svg version="1.1" id="Layer_1" xmlns="http://www.w3.org/2000/svg" xmlns:xlink="http://www.w3.org/1999/xlink" x="0px" y="0px"
	 width="300px" height="300px" viewBox="0 0 300 300" enable-background="new 0 0 300 300" xml:space="preserve">
<g>
	<g>
		<path fill="#F5B97A" stroke="#FF8A52" stroke-width="14.0893" stroke-miterlimit="10" d="M265.582,168.811
			c0,64.445-52.243,116.689-116.689,116.689c-64.445,0-116.689-52.244-116.689-116.689c0-64.447,52.244-116.689,116.689-116.689
			C219.968,52.121,265.582,112.979,265.582,168.811z"/>
		<g>
			<linearGradient id="SVGID_1_" gradientUnits="userSpaceOnUse" x1="107.8247" y1="254.2471" x2="136.6469" y2="225.4248">
				<stop  offset="0" style="stop-color:#F5B97A"/>
				<stop  offset="1" style="stop-color:#E8AB7A"/>
			</linearGradient>
			<polygon fill="url(#SVGID_1_)" points="64.323,234.983 137.118,277.251 207.477,220.029 155.937,181.143 130.313,184.664 
				108.989,187.647 			"/>
		</g>
		<g>
			<linearGradient id="SVGID_2_" gradientUnits="userSpaceOnUse" x1="100.188" y1="167.1475" x2="127.9147" y2="139.4208">
				<stop  offset="0" style="stop-color:#F5B97A"/>
				<stop  offset="1" style="stop-color:#E8AB7A"/>
			</linearGradient>
			<polygon fill="url(#SVGID_2_)" points="62.336,152.612 126.792,193.117 180.034,140.301 180.324,128.609 181.742,119.92 
				142.905,89.918 121.619,93.386 111.689,102.645 			"/>
		</g>
		<g>
			<path fill="#F5E0C5" d="M187.125,116.907c-0.064,22.405-15.604,39.633-34.709,39.591c-19.106-0.043-34.544-17.341-34.479-39.747
				c0.055-19.375,19.796-43.143,34.717-43.109C166.855,73.674,187.179,97.533,187.125,116.907z"/>
			<g>
				<path fill="#E0C7AA" d="M123.231,116.763c-0.282-18.611,16.737-44.216,32.938-43c-0.639-0.073-1.271-0.05-1.884-0.117
					c-15.682-1.674-38.324,23.725-38.379,43.102c-0.065,22.406,17.142,40.845,38.142,39.755c0.643-0.034,1.286-0.015,1.925-0.046
					C136.844,156.743,123.675,145.993,123.231,116.763z"/>
			</g>
		</g>
		<g>
			<path fill="#FFFFFF" d="M117.038,181.352c-31.322,18.705-18.286,57.263,1.898,68.74c9.367,5.325,32.54,9.551,46.307,1.979
				c7.916-4.354,22.163-16.621,27.703-20.184c9.442-6.07,17.519-11.521,18.749-24.567c0.998-10.6-4.407-19.567-14.315-22.39
				c-5.39-1.535-11.329-1.948-20.931-2.781C166.851,181.315,135.442,170.358,117.038,181.352z"/>
			<circle fill="#FDB03B" cx="148.125" cy="214.176" r="21.273"/>
			<g>
				<path fill="#FFDABB" d="M148.73,200.236c8.072,0,14.811,5.688,16.436,13.273c-0.105-9.193-7.589-16.615-16.808-16.615
					c-9.283,0-16.81,7.526-16.81,16.811c0,1.214,0.132,2.397,0.376,3.537c0-0.066-0.005-0.131-0.005-0.197
					C131.92,207.762,139.446,200.236,148.73,200.236z"/>
			</g>
		</g>
	</g>
	<g>
		<g>
			<path fill="#FF8A52" d="M72.677,55.13c2.635-1.984,5.84-2.211,7.124-0.506c1.282,1.706-0.382,5.142-3.699,7.638l-8.444,6.352
				c-3.317,2.496-8.074,1.824-10.569-1.493l-9.505-12.634c-2.496-3.318-1.825-8.074,1.492-10.57l8.443-6.352
				c3.317-2.497,7.081-3.144,8.364-1.438c1.283,1.704,0.177,4.721-2.458,6.704c-2.634,1.983-4.273,4.293-3.64,5.134
				c0.632,0.84,2.65,0.4,4.484-0.98c1.834-1.378,4.384-1.114,5.666,0.591c1.283,1.706,0.833,4.227-1.001,5.607
				c-1.833,1.381-2.819,3.194-2.19,4.031S70.042,57.113,72.677,55.13z"/>
		</g>
		<g>
			<path fill="#FF8A52" d="M97.38,23.295c0.322,0.439,0.485,1.031,0.441,1.804c-0.276,4.893-4.122,7.349-8.125,9.012
				c-2.458,1.021-4.889,3.021-3.811,5.935c1.082,2.922,3.267,2.425,5.705,1.598c-0.997-3.296,2.028-6.428,4.961-7.136
				c3.151-0.762,6.402,1.139,7.759,4.053l0.619,1.331c1.633,3.514,0.165,7.867-3.262,9.674c0,0-1.443,0.76-3.101,1.53
				c-6.399,2.975-11.478,3.681-15.233,2.119c-3.754-1.562-6.475-4.154-8.158-7.779c-1.157-2.491-1.641-5.044-1.446-7.666
				c0.193-2.618,1.118-5.007,2.775-7.167c1.659-2.16,3.983-3.937,6.978-5.328C85.667,24.259,95.193,20.31,97.38,23.295z"/>
		</g>
		<g>
			<path fill="#FF8A52" d="M130.019,15.615c0.011,0.027,0.022,0.053,0.034,0.08c1.805,4.437-6.078,8.118-9.111,8.795
				c0,0-0.027,0.006-2.128,0.47c-1.415,0.312-2.47,0.928-3.164,1.848c-0.693,0.922-0.907,1.985-0.642,3.191
				c0.504,2.289,2.259,3.103,5.261,2.441c-0.534-2.427,1.835-5.031,5.267-5.788c3.431-0.757,6.922,1.721,7.756,5.504l0.317,1.434
				c0.834,3.784-1.541,7.716-5.278,8.738c0,0-1.573,0.431-3.358,0.825c-6.892,1.52-12.001,1.112-15.331-1.227
				c-3.329-2.337-5.422-5.457-6.284-9.358c-0.591-2.683-0.509-5.281,0.246-7.796c0.757-2.515,2.176-4.648,4.262-6.399
				c2.084-1.75,4.739-2.979,7.964-3.692C118.583,14.072,128.442,12.132,130.019,15.615z"/>
		</g>
		<g>
			<path fill="#FF8A52" d="M161.357,13.558c0.679,1.664-0.721,3.627-2.006,4.578c-2.095,1.55-4.399,0.514-6.692,0.234
				c-2.285-0.278-4.039,0.957-2.125,2.987c2.017,2.14,5.825,2.146,8.276,3.62c1.19,0.716,2.078,1.629,2.668,2.74
				c0.59,1.111,0.882,2.403,0.878,3.876c-0.007,3.088-1.187,5.439-3.533,7.052c-2.349,1.612-5.799,2.413-10.348,2.401
				c-2.362-0.006-12.392,0.553-13.083-2.883c-0.36-1.818,0.613-3.966,2.055-5.092c2.698-2.104,5.37,0.757,8.212,0.765
				c0.604,0.002,1.111-0.153,1.521-0.468c0.411-0.314,0.617-0.698,0.619-1.152c0-0.428-0.196-0.838-0.593-1.23
				c-0.396-0.392-1.444-0.937-3.144-1.635c-1.535-0.622-2.807-1.226-3.813-1.815c-1.007-0.588-1.88-1.425-2.621-2.512
				c-0.741-1.085-1.109-2.454-1.104-4.104c0.008-3.201,1.18-5.611,3.516-7.23c2.336-1.621,5.778-2.423,10.328-2.412
				c3.239,0.008,6.641-0.037,9.705,1.158C160.766,12.707,161.169,13.098,161.357,13.558z"/>
		</g>
	</g>
</g>
</svg>
