<?xml version="1.0" encoding="utf-8"?>
<!-- Generator: Adobe Illustrator 16.0.0, SVG Export Plug-In . SVG Version: 6.00 Build 0)  -->
<!DOCTYPE svg PUBLIC "-//W3C//DTD SVG 1.1//EN" "http://www.w3.org/Graphics/SVG/1.1/DTD/svg11.dtd">
<svg version="1.1" id="Layer_1" xmlns="http://www.w3.org/2000/svg" xmlns:xlink="http://www.w3.org/1999/xlink" x="0px" y="0px"
	 width="300px" height="300px" viewBox="0 0 300 300" enable-background="new 0 0 300 300" xml:space="preserve">
<g>
	<g>
		<g>
			<path fill="#5C9DBD" d="M271.952,150.388c0-66.603-54.187-120.788-120.788-120.788c-66.109,0-119.975,53.388-120.769,119.313
				l92.631-90.343l35.345,13.418l70.805,43.51l-10.534,20.335L98.1,258.878c16.025,7.87,34.037,12.298,53.064,12.298
				C217.766,271.176,271.952,216.991,271.952,150.388z"/>
			<path fill="#4C598D" d="M74.756,254.229l-23.985-22.503C57.766,240.21,65.832,247.774,74.756,254.229z"/>
			<path fill="#ADC9E6" d="M228.012,115.11l-70.805-43.51l-35.345-13.419L29.23,148.525c-0.006,0.49-0.019,0.982-0.019,1.475
				c0,47.576,27.65,88.809,67.724,108.489l120.543-123.044L228.012,115.11z"/>
			<path fill="#42C895" d="M150,13.69C74.838,13.69,13.69,74.838,13.69,150c0,4.407,0.219,8.766,0.629,13.067
				c1.597,16.711,6.224,32.549,13.324,46.961C49.88,255.171,96.368,286.31,150,286.31c75.162,0,136.31-61.148,136.31-136.31
				C286.31,74.838,225.162,13.69,150,13.69z"/>
		</g>
		<g>
			<linearGradient id="SVGID_1_" gradientUnits="userSpaceOnUse" x1="138.061" y1="122.0698" x2="75.6533" y2="184.4775">
				<stop  offset="0" style="stop-color:#5D8CA9"/>
				<stop  offset="1" style="stop-color:#5C9DBD"/>
			</linearGradient>
			<path fill="url(#SVGID_1_)" d="M81.822,249.639c-29.356-20.146-49.406-52.907-52.255-90.408"/>
			<path fill="#A9E39D" d="M150,29.211c-66.109,0-119.975,53.388-120.77,119.314c-0.006,0.49-0.019,0.982-0.019,1.475
				c0,3.105,0.124,6.184,0.355,9.23c2.849,37.501,22.898,70.262,52.255,90.408c4.803,3.297,9.848,6.265,15.113,8.851
				c16.025,7.869,34.037,12.299,53.064,12.299c66.602,0,120.788-54.185,120.788-120.788C270.788,83.397,216.602,29.211,150,29.211z"
				/>
		</g>
	</g>
	<g>
		<g>
			<linearGradient id="SVGID_2_" gradientUnits="userSpaceOnUse" x1="144.3394" y1="198.2632" x2="175.4982" y2="167.1044">
				<stop  offset="0" style="stop-color:#A9E39D"/>
				<stop  offset="1" style="stop-color:#9BD18E"/>
			</linearGradient>
			<polygon fill="url(#SVGID_2_)" points="93.941,174.068 182.41,234.986 242.435,175.436 222.258,171.814 229.362,156.887 
				223.552,151.896 206.887,155.829 214.497,131.459 192.671,133.258 203.115,112.316 198.459,109.213 177.308,108.864 
				159.25,108.823 148.312,119.022 			"/>
		</g>
		<g id="_x39_BFoGp.tif_1_">
			<g>
				<g>
					<path fill="#FFFFFF" d="M239,171.105c0.764,1.287,1.532,2.571,2.299,3.857c-5.726,0.354-11.447,0.821-17.182,1.025
						c-3.078,0.109-5.027,1.442-6.623,4.021c-2.643,4.282-5.583,8.377-8.379,12.523c-2.161-2.324-2.501-3.86-1.101-6.667
						c0.894-1.795,1.988-3.492,3.025-5.215c0.583-0.964,1.229-1.891,2.069-3.171c-0.945,0.051-1.492,0.111-2.037,0.101
						c-3.265-0.07-6.536-0.074-9.796-0.276c-1.562-0.097-2.731-1.033-3.502-2.482c-0.862-1.624-1.827-3.198-2.812-4.752
						c-0.918-1.453-1.051-2.956-0.242-4.424c1.414-2.56,2.937-5.063,4.418-7.586c0.302-0.516,0.625-1.019,1.112-1.807
						c-1.228,0.062-2.078,0.144-2.925,0.138c-2.412-0.011-4.826-0.009-7.234-0.102c-2.256-0.083-3.892-1.254-5.023-3.171
						c-0.497-0.842-0.988-1.688-1.504-2.52c-1.672-2.689-1.822-5.348,0.022-8.05c1.195-1.761,2.272-3.598,3.395-5.404
						c0.291-0.472,0.559-0.952,1.004-1.712c-0.888,0.051-1.445,0.121-1.996,0.107c-3.269-0.068-6.548-0.02-9.789-0.322
						c-1.056-0.1-2.302-0.918-2.967-1.784c-1.286-1.678-2.229-3.615-3.297-5.457c-0.842-1.445-0.997-2.973-0.173-4.444
						c1.463-2.603,3.015-5.151,4.527-7.726c0.294-0.5,0.601-0.999,1.055-1.759c-1.762,0.109-3.13,0.235-4.497,0.271
						c-1.379,0.036-2.761,0.04-4.137-0.038c-4.73-0.268-6.702-1.896-8.049-6.49c1.053,0.314,2.134,0.748,3.255,0.947
						c5.685,1.013,11.353,0.367,17.011-0.3c0.388-0.045,0.857-0.38,1.079-0.715c4.03-6.234,8.938-12.064,9.316-19.997
						c1.296,2.176,2.59,4.351,3.89,6.527c-0.196,4.987-3.363,8.708-5.81,13.11c2.188-0.171,4.046-0.357,5.908-0.453
						c3.128-0.164,6.328-0.56,8.738,2.179c1.062,1.778,2.123,3.561,3.183,5.341c0.391,5.324-3.073,9.145-5.516,13.667
						c0.82-0.052,1.365-0.083,1.914-0.119c2.406-0.149,4.811-0.372,7.216-0.423c1.906-0.041,3.812,0.139,5.225,1.711
						c1.356,2.274,2.712,4.551,4.065,6.825c-0.005,5.189-3.374,8.964-5.832,13.469c2.191-0.185,4.105-0.396,6.029-0.494
						c3.31-0.168,6.725-0.593,9.016,2.689c0.028,0.037,0.107,0.042,0.159,0.062c0.766,1.286,1.534,2.57,2.297,3.856
						c0.707,1.988,0.644,3.978-0.298,5.846c-1.161,2.301-2.47,4.533-3.712,6.793c-0.285,0.52-0.576,1.04-0.978,1.758
						c3.108-0.18,5.901-0.396,8.698-0.486C235.477,169.523,237.432,169.664,239,171.105z M214.232,132.866
						c-0.777-0.07-1.115-0.157-1.445-0.128c-5.605,0.552-11.214,1.08-16.812,1.72c-0.628,0.073-1.354,0.663-1.748,1.218
						c-2.751,3.895-5.501,7.799-8.105,11.793c-1.83,2.804-1.662,3.402,1.623,3.516c5.321,0.187,10.666-0.147,15.999-0.325
						c0.412-0.017,0.949-0.433,1.195-0.816c2.208-3.432,4.479-6.834,6.492-10.378C212.57,137.455,213.266,135.195,214.232,132.866z
						 M172.524,128.578c0.078,0.253,0.155,0.507,0.231,0.761c0.736,0.08,1.475,0.14,2.206,0.247
						c5.646,0.82,11.254,0.184,16.855-0.464c0.462-0.055,1.027-0.373,1.296-0.746c3.31-4.643,6.563-9.332,8.323-14.838
						c0.646-2.021,0.39-2.37-1.791-2.192c-4.64,0.381-9.266,0.942-13.907,1.318c-1.799,0.147-3.108,0.739-4.002,2.4
						c-0.671,1.258-1.664,2.341-2.472,3.529C177.007,121.914,174.77,125.249,172.524,128.578z M226.871,153.691
						c-0.775-0.081-1.335-0.236-1.878-0.186c-5.432,0.529-10.858,1.079-16.281,1.667c-0.378,0.043-0.827,0.366-1.062,0.693
						c-2.496,3.51-4.99,7.026-7.417,10.585c-0.955,1.402-1.741,2.915-2.854,4.803c1.054,0.143,1.732,0.225,2.409,0.329
						c5.751,0.873,11.47,0.236,17.18-0.457c0.492-0.058,1.082-0.486,1.376-0.916c3.057-4.456,6.133-8.908,7.979-14.048
						C226.583,155.434,226.665,154.641,226.871,153.691z"/>
				</g>
			</g>
		</g>
	</g>
	<g>
		<linearGradient id="SVGID_3_" gradientUnits="userSpaceOnUse" x1="80.1714" y1="193.6216" x2="124.0848" y2="149.7082">
			<stop  offset="0" style="stop-color:#A9E39D"/>
			<stop  offset="1" style="stop-color:#9BD18E"/>
		</linearGradient>
		<polygon fill="url(#SVGID_3_)" points="30.688,134.506 115.663,266.042 140.024,242.665 137.78,186.889 137.78,105.406 
			137.78,84.453 130.678,40.164 101.049,64.588 90.109,74.787 		"/>
	</g>
	<g>
		<g>
			<g enable-background="new    ">
				<defs>
					<polygon id="SVGID_4_" enable-background="new    " points="123.334,98.11 122.577,82.36 166.919,94.869 164.038,110.618 					
						"/>
				</defs>
				<clipPath id="SVGID_5_">
					<use xlink:href="#SVGID_4_"  overflow="visible"/>
				</clipPath>
			</g>
		</g>
		<path fill-rule="evenodd" clip-rule="evenodd" fill="#C6F3DE" d="M106.338,66.279v169.81c1.628,9.065,9.386,15.938,18.716,15.938
			c9.331,0,17.089-6.872,18.718-15.938V66.088L106.338,66.279z"/>
		<path fill-rule="evenodd" clip-rule="evenodd" fill="#42B095" d="M125.054,249.369c-7.825,0-14.543-5.675-16.06-13.524V122.547
			h32.12v113.298C139.599,243.694,132.88,249.369,125.054,249.369z"/>
		<g>
			<g>
				<path fill="#7ACEC9" d="M120.862,122.544l-10.346,113.508c-0.338,2.781,1.646,5.31,4.43,5.645
					c2.781,0.335,5.309-1.646,5.645-4.43l10.545-115.421L120.862,122.544z"/>
			</g>
			<g>
				<polygon fill="#DDF3E0" points="120.869,122.539 131.067,122.607 136.122,66.197 126.083,66.134 				"/>
				<path fill="#FFFFFF" d="M137.389,54.055l0.307-8.506c0.337-2.782-1.647-5.31-4.431-5.645c-2.783-0.336-5.31,1.648-5.645,4.431
					l-0.483,10.403l-0.828,8.104h10.146L137.389,54.055z"/>
				<g>
					<path fill="#C6F3DE" d="M105.712,62.664c-0.628-0.028-1.152,0.752-1.17,1.744c-0.018,0.99,0.477,1.819,1.104,1.849
						l23.633,0.071l-0.363-3.601L105.712,62.664z"/>
					<path fill="#C6F3DE" d="M145.426,62.768l-1.256-0.003l-2.927-0.006l-10.273-0.022l-2.053-0.006l0.364,3.596l1.108,0.002
						l10.273,0.022l3.867,0.007l0.828,0.003c0.628,0.027,1.152-0.752,1.169-1.745C146.548,63.625,146.053,62.797,145.426,62.768z"/>
				</g>
			</g>
		</g>
	</g>
</g>
</svg>
