<?xml version="1.0" encoding="utf-8"?>
<!-- Generator: Adobe Illustrator 16.0.0, SVG Export Plug-In . SVG Version: 6.00 Build 0)  -->
<!DOCTYPE svg PUBLIC "-//W3C//DTD SVG 1.1//EN" "http://www.w3.org/Graphics/SVG/1.1/DTD/svg11.dtd">
<svg version="1.1" id="Layer_1" xmlns="http://www.w3.org/2000/svg" xmlns:xlink="http://www.w3.org/1999/xlink" x="0px" y="0px"
	 width="300px" height="300px" viewBox="0 0 300 300" enable-background="new 0 0 300 300" xml:space="preserve">
<g>
	<g>
		<g>
			<g>
				<path fill="#5C9DBD" d="M259.574,168.846c0-60.463-49.189-109.654-109.653-109.654c-60.015,0-108.914,48.466-109.635,108.314
					l84.093-82.015l32.085,12.182l64.276,39.499l-9.56,18.461l-109.432,111.7c14.549,7.145,30.899,11.165,48.172,11.165
					C210.385,278.498,259.574,229.309,259.574,168.846z"/>
				<path fill="#4C598D" d="M80.558,263.112l-21.775-20.427C65.133,250.387,72.457,257.254,80.558,263.112z"/>
				<path fill="#ADC9E6" d="M219.684,136.819l-64.275-39.498l-32.087-12.183l-84.092,82.016c-0.006,0.445-0.018,0.891-0.018,1.339
					c0,43.19,25.102,80.622,61.48,98.487l109.431-111.7L219.684,136.819z"/>
				<path fill="#42C895" d="M148.864,44.749c-68.232,0-123.743,55.511-123.743,123.745c0,4,0.198,7.957,0.571,11.862
					c1.45,15.171,5.649,29.549,12.095,42.631c20.187,40.982,62.39,69.25,111.077,69.25c68.232,0,123.743-55.512,123.743-123.743
					C272.607,100.26,217.097,44.749,148.864,44.749z"/>
			</g>
			<g>
				<linearGradient id="SVGID_1_" gradientUnits="userSpaceOnUse" x1="138.0264" y1="143.1377" x2="81.3719" y2="199.7922">
					<stop  offset="0" style="stop-color:#5D8CA9"/>
					<stop  offset="1" style="stop-color:#5C9DBD"/>
				</linearGradient>
				<path fill="url(#SVGID_1_)" d="M86.973,258.947c-26.65-18.29-44.853-48.03-47.438-82.074"/>
				<path fill="#A9E39D" d="M148.864,58.839c-60.015,0-108.914,48.466-109.635,108.315c-0.006,0.445-0.018,0.891-0.018,1.339
					c0,2.818,0.112,5.613,0.323,8.38c2.585,34.044,20.788,63.784,47.438,82.074c4.36,2.992,8.939,5.687,13.72,8.033
					c14.549,7.145,30.899,11.166,48.172,11.166c60.465,0,109.653-49.19,109.653-109.653
					C258.518,108.031,209.329,58.839,148.864,58.839z"/>
			</g>
		</g>
		<g>
			<g>
				<linearGradient id="SVGID_2_" gradientUnits="userSpaceOnUse" x1="143.7271" y1="212.3086" x2="172.0134" y2="184.0222">
					<stop  offset="0" style="stop-color:#A9E39D"/>
					<stop  offset="1" style="stop-color:#9BD18E"/>
				</linearGradient>
				<polygon fill="url(#SVGID_2_)" points="97.975,190.343 178.286,245.645 232.78,191.584 214.461,188.296 220.913,174.745 
					215.637,170.215 200.508,173.784 207.416,151.661 187.602,153.294 197.084,134.284 192.856,131.465 173.655,131.148 
					157.263,131.111 147.331,140.371 				"/>
			</g>
			<g id="_x39_BFoGp.tif_3_">
				<g>
					<g>
						<path fill="#FFFFFF" d="M229.659,187.651c0.695,1.17,1.393,2.335,2.088,3.503c-5.197,0.322-10.393,0.746-15.597,0.932
							c-2.795,0.099-4.565,1.31-6.015,3.65c-2.398,3.888-5.068,7.604-7.604,11.368c-1.962-2.109-2.27-3.504-1.002-6.053
							c0.812-1.629,1.808-3.169,2.75-4.733c0.528-0.875,1.114-1.715,1.877-2.878c-0.859,0.046-1.354,0.103-1.85,0.091
							c-2.963-0.063-5.934-0.067-8.893-0.251c-1.416-0.088-2.479-0.938-3.177-2.254c-0.785-1.474-1.662-2.904-2.554-4.314
							c-0.835-1.317-0.954-2.683-0.222-4.015c1.284-2.325,2.667-4.597,4.011-6.888c0.274-0.469,0.569-0.924,1.012-1.64
							c-1.114,0.058-1.887,0.13-2.657,0.125c-2.188-0.01-4.379-0.009-6.568-0.092c-2.045-0.076-3.53-1.139-4.558-2.88
							c-0.451-0.763-0.898-1.531-1.366-2.286c-1.517-2.442-1.653-4.854,0.019-7.309c1.087-1.599,2.064-3.267,3.084-4.906
							c0.264-0.427,0.506-0.863,0.91-1.554c-0.806,0.048-1.31,0.11-1.812,0.098c-2.967-0.061-5.943-0.018-8.888-0.291
							c-0.956-0.091-2.087-0.835-2.691-1.62c-1.166-1.523-2.025-3.282-2.994-4.955c-0.764-1.312-0.905-2.698-0.155-4.034
							c1.325-2.362,2.733-4.678,4.108-7.014c0.269-0.454,0.546-0.906,0.957-1.597c-1.6,0.1-2.84,0.214-4.083,0.248
							c-1.25,0.033-2.504,0.035-3.754-0.035c-4.293-0.243-6.084-1.722-7.307-5.892c0.955,0.285,1.938,0.678,2.954,0.859
							c5.16,0.92,10.306,0.334,15.441-0.272c0.354-0.042,0.782-0.346,0.98-0.65c3.659-5.658,8.114-10.95,8.459-18.152
							c1.177,1.974,2.353,3.949,3.53,5.926c-0.177,4.527-3.054,7.905-5.272,11.902c1.986-0.155,3.672-0.326,5.363-0.413
							c2.838-0.148,5.744-0.507,7.933,1.978c0.964,1.615,1.927,3.232,2.888,4.848c0.354,4.835-2.79,8.302-5.007,12.408
							c0.745-0.047,1.24-0.076,1.736-0.108c2.185-0.136,4.368-0.337,6.553-0.385c1.729-0.036,3.463,0.127,4.742,1.554
							c1.233,2.065,2.461,4.132,3.691,6.196c-0.004,4.711-3.063,8.138-5.297,12.229c1.99-0.169,3.729-0.359,5.475-0.449
							c3.007-0.152,6.104-0.539,8.187,2.441c0.024,0.034,0.096,0.038,0.144,0.057c0.693,1.167,1.392,2.334,2.085,3.5
							c0.642,1.806,0.583,3.611-0.27,5.307c-1.054,2.09-2.241,4.116-3.37,6.168c-0.259,0.472-0.522,0.944-0.888,1.595
							c2.821-0.162,5.358-0.359,7.897-0.441C226.462,186.216,228.237,186.343,229.659,187.651z M207.177,152.938
							c-0.705-0.062-1.014-0.142-1.314-0.115c-5.088,0.501-10.18,0.981-15.26,1.562c-0.57,0.066-1.229,0.603-1.587,1.105
							c-2.498,3.534-4.996,7.081-7.358,10.705c-1.66,2.546-1.51,3.09,1.474,3.192c4.83,0.169,9.683-0.135,14.524-0.296
							c0.373-0.016,0.86-0.392,1.084-0.741c2.005-3.114,4.067-6.203,5.896-9.42C205.666,157.105,206.298,155.053,207.177,152.938z
							 M169.312,149.045c0.072,0.23,0.143,0.46,0.209,0.691c0.671,0.072,1.342,0.127,2.003,0.225
							c5.127,0.744,10.217,0.167,15.306-0.421c0.417-0.049,0.929-0.339,1.172-0.678c3.006-4.215,5.96-8.472,7.558-13.47
							c0.586-1.835,0.354-2.151-1.625-1.99c-4.212,0.345-8.412,0.855-12.627,1.196c-1.633,0.133-2.818,0.672-3.631,2.18
							c-0.611,1.141-1.511,2.125-2.244,3.203C173.383,142.996,171.351,146.023,169.312,149.045z M218.65,171.845
							c-0.704-0.074-1.214-0.215-1.706-0.17c-4.929,0.48-9.857,0.979-14.779,1.514c-0.345,0.038-0.752,0.333-0.964,0.629
							c-2.268,3.188-4.53,6.38-6.733,9.61c-0.867,1.273-1.581,2.646-2.591,4.359c0.956,0.13,1.572,0.203,2.189,0.298
							c5.22,0.794,10.41,0.216,15.594-0.413c0.447-0.053,0.982-0.442,1.249-0.832c2.775-4.045,5.567-8.087,7.244-12.753
							C218.388,173.425,218.464,172.706,218.65,171.845z"/>
					</g>
				</g>
			</g>
		</g>
		<g>
			<linearGradient id="SVGID_3_" gradientUnits="userSpaceOnUse" x1="85.4741" y1="208.0947" x2="125.3397" y2="168.2291">
				<stop  offset="0" style="stop-color:#A9E39D"/>
				<stop  offset="1" style="stop-color:#9BD18E"/>
			</linearGradient>
			<polygon fill="url(#SVGID_3_)" points="40.551,154.428 117.693,273.838 139.81,252.616 137.771,201.981 137.771,128.009 
				137.771,108.988 131.324,68.782 104.426,90.955 94.496,100.213 			"/>
		</g>
		<g>
			<g>
				<g enable-background="new    ">
					<defs>
						<polygon id="SVGID_4_" enable-background="new    " points="124.657,121.386 123.97,107.089 164.224,118.444 161.609,132.741 
													"/>
					</defs>
					<clipPath id="SVGID_5_">
						<use xlink:href="#SVGID_4_"  overflow="visible"/>
					</clipPath>
				</g>
			</g>
			<path fill-rule="evenodd" clip-rule="evenodd" fill="#C6F3DE" d="M109.228,92.49v154.156c1.478,8.229,8.521,14.467,16.991,14.467
				c8.47,0,15.513-6.237,16.992-14.467V92.316L109.228,92.49z"/>
			<path fill-rule="evenodd" clip-rule="evenodd" fill="#42B095" d="M126.219,258.702c-7.104,0-13.204-5.151-14.58-12.278V143.57
				h29.159v102.854C139.422,253.551,133.323,258.702,126.219,258.702z"/>
			<g>
				<g>
					<path fill="#7ACEC9" d="M122.414,143.568l-9.392,103.044c-0.307,2.525,1.495,4.819,4.021,5.124
						c2.525,0.304,4.819-1.496,5.125-4.021l9.573-104.782L122.414,143.568z"/>
				</g>
				<g>
					<polygon fill="#DDF3E0" points="122.42,143.564 131.678,143.625 136.267,92.416 127.153,92.357 					"/>
					<path fill="#FFFFFF" d="M137.417,81.392l0.279-7.721c0.305-2.527-1.496-4.821-4.022-5.125c-2.526-0.305-4.82,1.497-5.125,4.023
						l-0.439,9.445l-0.751,7.356h9.21L137.417,81.392z"/>
					<g>
						<path fill="#C6F3DE" d="M108.659,89.208c-0.569-0.026-1.045,0.682-1.061,1.583c-0.017,0.9,0.432,1.651,1.001,1.678
							l21.456,0.064l-0.331-3.269L108.659,89.208z"/>
						<path fill="#C6F3DE" d="M144.712,89.301l-1.14-0.002l-2.656-0.004l-9.328-0.021l-1.863-0.004l0.331,3.263l1.006,0.001
							l9.327,0.021l3.511,0.007l0.751,0.002c0.571,0.025,1.045-0.683,1.062-1.584C145.73,90.08,145.282,89.328,144.712,89.301z"/>
					</g>
				</g>
			</g>
		</g>
	</g>
	<path fill="none" d="M276.776,168.429c0,70.872-57.451,128.325-128.324,128.325c-70.87,0-128.322-57.453-128.322-128.325
		c0-70.869,57.452-128.32,128.322-128.32C219.325,40.108,276.776,97.56,276.776,168.429z"/>
	<text transform="matrix(0.867 -0.4983 0.4983 0.867 70.208 65.3696)"><tspan x="0" y="0" fill="#42C895" font-family="'GillSans-UltraBold'" font-size="38.8771">G</tspan><tspan x="31.652" y="-0.754" fill="#42C895" font-family="'GillSans-UltraBold'" font-size="38.8771" rotate="15.795">M</tspan><tspan x="67.245" y="9.209" fill="#42C895" font-family="'GillSans-UltraBold'" font-size="38.8771" rotate="30.817">O</tspan><tspan x="92.727" y="24.423" fill="#42C895" font-family="'GillSans-UltraBold'" font-size="38.8771" rotate="41.531">s</tspan></text>
</g>
</svg>
