<?xml version="1.0" encoding="utf-8"?>
<!-- Generator: Adobe Illustrator 16.0.0, SVG Export Plug-In . SVG Version: 6.00 Build 0)  -->
<!DOCTYPE svg PUBLIC "-//W3C//DTD SVG 1.1//EN" "http://www.w3.org/Graphics/SVG/1.1/DTD/svg11.dtd">
<svg version="1.1" id="Layer_1" xmlns="http://www.w3.org/2000/svg" xmlns:xlink="http://www.w3.org/1999/xlink" x="0px" y="0px"
	 width="300px" height="300px" viewBox="0 0 300 300" enable-background="new 0 0 300 300" xml:space="preserve">
<g>
	<g>
		<g>
			<g>
				<path fill="#5C9DBD" d="M259.085,169.158c0-60.557-49.267-109.825-109.826-109.825c-60.109,0-109.085,48.542-109.807,108.484
					l84.225-82.143l32.136,12.201l64.378,39.56l-9.576,18.49L101.012,267.801c14.572,7.156,30.947,11.183,48.248,11.183
					C209.818,278.983,259.085,229.717,259.085,169.158z"/>
				<path fill="#4C598D" d="M79.787,263.574l-21.809-20.46C64.339,250.828,71.673,257.706,79.787,263.574z"/>
				<path fill="#ADC9E6" d="M219.132,137.083l-64.378-39.561l-32.136-12.201l-84.224,82.144c-0.005,0.446-0.018,0.893-0.018,1.341
					c0,43.259,25.142,80.749,61.577,98.643l109.603-111.876L219.132,137.083z"/>
				<path fill="#42C895" d="M148.201,44.868c-68.339,0-123.937,55.599-123.937,123.938c0,4.008,0.198,7.971,0.572,11.881
					c1.452,15.195,5.659,29.596,12.114,42.699c20.218,41.046,62.488,69.357,111.25,69.357c68.34,0,123.938-55.598,123.938-123.938
					C272.139,100.466,216.541,44.868,148.201,44.868z"/>
			</g>
			<g>
				<linearGradient id="SVGID_1_" gradientUnits="userSpaceOnUse" x1="137.3467" y1="143.4102" x2="80.603" y2="200.1539">
					<stop  offset="0" style="stop-color:#5D8CA9"/>
					<stop  offset="1" style="stop-color:#5C9DBD"/>
				</linearGradient>
				<path fill="url(#SVGID_1_)" d="M86.212,259.401C59.52,241.083,41.29,211.297,38.7,177.199"/>
				<path fill="#A9E39D" d="M148.201,58.98c-60.108,0-109.084,48.542-109.807,108.484c-0.005,0.446-0.018,0.893-0.018,1.341
					c0,2.823,0.113,5.623,0.324,8.394c2.589,34.098,20.819,63.884,47.512,82.202c4.368,2.998,8.954,5.695,13.742,8.047
					c14.571,7.156,30.948,11.183,48.247,11.183c60.559,0,109.826-49.267,109.826-109.825
					C258.026,108.249,208.76,58.98,148.201,58.98z"/>
			</g>
		</g>
		<g>
			<g>
				<linearGradient id="SVGID_2_" gradientUnits="userSpaceOnUse" x1="143.0552" y1="212.6885" x2="171.3856" y2="184.358">
					<stop  offset="0" style="stop-color:#A9E39D"/>
					<stop  offset="1" style="stop-color:#9BD18E"/>
				</linearGradient>
				<polygon fill="url(#SVGID_2_)" points="97.232,190.689 177.669,246.079 232.247,191.933 213.901,188.641 220.362,175.067 
					215.077,170.529 199.925,174.106 206.846,151.948 186.999,153.583 196.496,134.543 192.263,131.72 173.031,131.403 
					156.611,131.366 146.665,140.641 				"/>
			</g>
			<g id="_x39_BFoGp.tif_8_">
				<g>
					<g>
						<path fill="#FFFFFF" d="M229.123,187.996c0.696,1.17,1.394,2.338,2.091,3.507c-5.207,0.322-10.409,0.747-15.622,0.933
							c-2.799,0.1-4.572,1.312-6.023,3.657c-2.402,3.894-5.076,7.615-7.617,11.386c-1.965-2.112-2.273-3.51-1.003-6.062
							c0.814-1.632,1.811-3.174,2.754-4.741c0.53-0.876,1.117-1.718,1.881-2.883c-0.86,0.046-1.356,0.103-1.853,0.091
							c-2.969-0.063-5.942-0.066-8.906-0.25c-1.42-0.09-2.483-0.941-3.183-2.258c-0.786-1.477-1.663-2.908-2.56-4.321
							c-0.834-1.32-0.953-2.687-0.22-4.021c1.286-2.328,2.671-4.604,4.018-6.897c0.274-0.469,0.568-0.926,1.012-1.642
							c-1.114,0.056-1.889,0.129-2.66,0.125c-2.191-0.01-4.386-0.009-6.577-0.093c-2.05-0.076-3.537-1.14-4.566-2.885
							c-0.454-0.764-0.899-1.534-1.369-2.29c-1.518-2.445-1.655-4.861,0.02-7.319c1.089-1.601,2.067-3.271,3.089-4.913
							c0.263-0.429,0.506-0.866,0.911-1.557c-0.807,0.047-1.312,0.11-1.814,0.098c-2.971-0.062-5.954-0.018-8.9-0.293
							c-0.958-0.09-2.092-0.834-2.696-1.623c-1.169-1.524-2.028-3.287-3-4.961c-0.764-1.314-0.905-2.703-0.154-4.041
							c1.328-2.367,2.737-4.685,4.115-7.025c0.268-0.455,0.546-0.908,0.959-1.6c-1.603,0.1-2.847,0.215-4.091,0.248
							c-1.251,0.032-2.508,0.036-3.76-0.035c-4.3-0.244-6.094-1.725-7.318-5.9c0.957,0.285,1.94,0.679,2.959,0.86
							c5.169,0.921,10.321,0.334,15.466-0.273c0.355-0.041,0.782-0.346,0.981-0.649c3.665-5.668,8.127-10.969,8.472-18.183
							c1.18,1.979,2.357,3.957,3.537,5.936c-0.178,4.535-3.059,7.917-5.282,11.921c1.989-0.156,3.679-0.327,5.372-0.413
							c2.843-0.149,5.755-0.509,7.946,1.981c0.964,1.617,1.929,3.237,2.893,4.855c0.354,4.842-2.795,8.315-5.016,12.427
							c0.747-0.047,1.242-0.075,1.74-0.108c2.188-0.136,4.374-0.338,6.562-0.385c1.732-0.037,3.468,0.127,4.749,1.555
							c1.236,2.069,2.467,4.138,3.698,6.207c-0.005,4.718-3.068,8.149-5.304,12.246c1.992-0.168,3.733-0.359,5.481-0.448
							c3.012-0.153,6.113-0.54,8.198,2.443c0.025,0.035,0.098,0.039,0.146,0.059c0.694,1.168,1.394,2.337,2.088,3.505
							c0.642,1.81,0.584,3.618-0.271,5.315c-1.056,2.093-2.244,4.122-3.375,6.178c-0.259,0.472-0.523,0.944-0.889,1.597
							c2.826-0.163,5.366-0.359,7.909-0.441C225.919,186.557,227.698,186.686,229.123,187.996z M206.605,153.227
							c-0.708-0.063-1.016-0.143-1.316-0.115c-5.096,0.501-10.195,0.981-15.285,1.563c-0.57,0.067-1.231,0.603-1.589,1.107
							c-2.501,3.541-5.003,7.092-7.371,10.722c-1.662,2.55-1.512,3.094,1.478,3.197c4.838,0.17,9.697-0.134,14.547-0.296
							c0.375-0.016,0.861-0.394,1.086-0.742c2.007-3.12,4.073-6.213,5.904-9.437C205.092,157.399,205.725,155.345,206.605,153.227z
							 M168.681,149.329c0.073,0.23,0.142,0.459,0.211,0.69c0.67,0.073,1.342,0.128,2.005,0.225
							c5.134,0.746,10.233,0.167,15.328-0.422c0.419-0.05,0.932-0.339,1.177-0.679c3.009-4.22,5.968-8.485,7.567-13.491
							c0.587-1.838,0.356-2.155-1.627-1.993c-4.22,0.347-8.426,0.856-12.646,1.199c-1.636,0.134-2.823,0.672-3.636,2.183
							c-0.613,1.143-1.514,2.127-2.249,3.208C172.757,143.27,170.722,146.301,168.681,149.329z M218.096,172.163
							c-0.704-0.074-1.215-0.216-1.708-0.17c-4.938,0.481-9.873,0.981-14.804,1.517c-0.345,0.039-0.752,0.332-0.964,0.631
							c-2.271,3.19-4.538,6.388-6.743,9.624c-0.87,1.274-1.584,2.649-2.596,4.366c0.956,0.129,1.573,0.204,2.191,0.299
							c5.229,0.793,10.427,0.216,15.619-0.415c0.448-0.052,0.983-0.442,1.251-0.833c2.78-4.051,5.576-8.1,7.254-12.772
							C217.833,173.746,217.909,173.025,218.096,172.163z"/>
					</g>
				</g>
			</g>
		</g>
		<g>
			<linearGradient id="SVGID_3_" gradientUnits="userSpaceOnUse" x1="84.7109" y1="208.4688" x2="124.639" y2="168.5407">
				<stop  offset="0" style="stop-color:#A9E39D"/>
				<stop  offset="1" style="stop-color:#9BD18E"/>
			</linearGradient>
			<polygon fill="url(#SVGID_3_)" points="39.719,154.719 116.981,274.315 139.132,253.06 137.091,202.346 137.091,128.259 
				137.091,109.208 130.634,68.938 103.693,91.146 93.747,100.42 			"/>
		</g>
		<g>
			<g>
				<g enable-background="new    ">
					<defs>
						<polygon id="SVGID_4_" enable-background="new    " points="123.956,121.625 123.268,107.306 163.585,118.679 
							160.966,132.999 						"/>
					</defs>
					<clipPath id="SVGID_5_">
						<use xlink:href="#SVGID_4_"  overflow="visible"/>
					</clipPath>
				</g>
			</g>
			<path fill-rule="evenodd" clip-rule="evenodd" fill="#C6F3DE" d="M108.502,92.684v154.397c1.481,8.243,8.534,14.49,17.018,14.49
				c8.484,0,15.538-6.247,17.019-14.49V92.509L108.502,92.684z"/>
			<path fill-rule="evenodd" clip-rule="evenodd" fill="#42B095" d="M125.52,259.156c-7.115,0-13.224-5.16-14.603-12.298V143.845
				h29.207v103.013C138.744,253.996,132.636,259.156,125.52,259.156z"/>
			<g>
				<g>
					<path fill="#7ACEC9" d="M121.708,143.842l-9.407,103.205c-0.306,2.53,1.498,4.828,4.028,5.134
						c2.529,0.304,4.826-1.498,5.132-4.028l9.587-104.946L121.708,143.842z"/>
				</g>
				<g>
					<polygon fill="#DDF3E0" points="121.715,143.838 130.987,143.899 135.583,92.61 126.456,92.551 					"/>
					<path fill="#FFFFFF" d="M136.735,81.569l0.279-7.734c0.306-2.53-1.499-4.828-4.029-5.132c-2.53-0.306-4.828,1.498-5.132,4.028
						l-0.439,9.458l-0.753,7.369h9.225L136.735,81.569z"/>
					<g>
						<path fill="#C6F3DE" d="M107.933,89.396c-0.57-0.025-1.047,0.684-1.063,1.586c-0.017,0.901,0.433,1.654,1.003,1.681
							l21.489,0.064l-0.33-3.273L107.933,89.396z"/>
						<path fill="#C6F3DE" d="M144.043,89.491l-1.143-0.002l-2.661-0.006l-9.341-0.021l-1.866-0.005l0.332,3.27l1.007,0.001
							l9.34,0.021l3.517,0.006l0.752,0.003c0.573,0.025,1.047-0.684,1.064-1.586C145.062,90.271,144.612,89.517,144.043,89.491z"/>
					</g>
				</g>
			</g>
		</g>
	</g>
	<g>
		<g>
			<path fill="#42C895" d="M84.297,27.562c1.35,1.504,1.208,4.405,0.547,5.898c-1.1,2.482-4.273,4.074-6.552,5.36
				c0,0-0.017,0.009-1.9,1.093c-1.264,0.727-2.09,1.636-2.478,2.729c-0.387,1.093-0.271,2.178,0.347,3.256
				c1.174,2.043,3.103,2.294,5.784,0.753c-1.246-2.167,0.243-5.381,3.307-7.142c3.064-1.761,7.154-0.449,9.088,2.916l0.765,1.331
				c1.934,3.365,0.846,7.836-2.418,9.936c0,0-1.403,0.904-2.997,1.819c-6.155,3.538-11.181,4.687-15.08,3.448
				c-3.898-1.238-6.849-3.601-8.852-7.083c-1.377-2.396-2.083-4.915-2.116-7.557c-0.034-2.64,0.685-5.115,2.158-7.424
				c1.472-2.309,3.648-4.291,6.527-5.944c2.402-1.379,4.967-2.184,7.604-2.97c1.545-0.46,4.802-1.9,6.205-0.484
				C84.256,27.517,84.277,27.539,84.297,27.562z"/>
		</g>
		<g>
			<path fill="#42C895" d="M103.933,48.477c-3.428,0.859-7.006-1.517-7.95-5.281l-3.625-14.453
				c-0.944-3.765,1.287-6.781,4.331-8.361c3.297-1.711,7.525-0.485,9.33,0.776c1.805,1.261,4.1,0.686,5.099-1.279
				c1-1.965,4.215-5.253,7.858-5.088c3.421,0.155,6.812,1.565,7.757,5.33l3.625,14.453c0.945,3.764-1.087,7.548-4.516,8.408
				c-3.428,0.86-7.006-1.517-7.95-5.28l-0.101-0.401c-0.944-3.764-2.789-5.481-3.395-3.532c-0.855,2.756-2.15,3.58-4.721,1.185
				c-1.494-1.392-2.271,0.953-1.327,4.716l0.101,0.401C109.394,43.833,107.361,47.617,103.933,48.477z"/>
		</g>
		<g>
			<path fill="#42C895" d="M145.686,40.699c-4.145-0.067-7.635-1.578-10.47-4.534c-2.837-2.955-4.223-6.522-4.152-10.705
				c0.067-4.169,1.565-7.68,4.495-10.528c2.93-2.849,6.468-4.241,10.613-4.173c4.156,0.067,7.653,1.572,10.489,4.515
				s4.222,6.5,4.153,10.669c-0.066,4.183-1.566,7.704-4.496,10.566C153.386,39.37,149.842,40.767,145.686,40.699z M145.99,21.879
				c-0.824-0.012-1.513,0.264-2.067,0.832c-0.555,0.568-0.839,1.289-0.852,2.164c-0.015,0.874,0.245,1.604,0.781,2.19
				c0.537,0.584,1.215,0.885,2.04,0.897c0.836,0.014,1.531-0.263,2.085-0.831c0.555-0.568,0.839-1.289,0.853-2.164
				c0.014-0.874-0.246-1.604-0.781-2.189C147.513,22.193,146.827,21.893,145.99,21.879z"/>
		</g>
		<g>
			<path fill="#42C895" d="M159.428,38.225c-0.248-1.63,1.421-3.478,2.959-3.73c2.146-0.353,3.878,2.312,5.956,2.739
				c0.672,0.138,1.237,0.1,1.703-0.116c0.465-0.214,0.746-0.557,0.844-1.029c0.094-0.459,0.006-0.895-0.264-1.307
				c-0.272-0.411-1.096-0.98-2.476-1.703c-1.389-0.726-2.505-1.439-3.345-2.136c-0.838-0.698-1.471-1.602-1.895-2.711
				c-0.425-1.111-0.52-2.243-0.28-3.397c0.462-2.234,1.777-3.771,3.95-4.611c2.173-0.839,4.99-0.901,8.455-0.188
				c2.629,0.542,5.504,1.303,7.755,2.821c2.427,1.636,0.332,4.309-1.63,4.723c-1.757,0.372-3.494-1.583-5.205-1.937
				c-0.559-0.116-1.038-0.084-1.436,0.092c-0.398,0.176-0.638,0.458-0.717,0.842c-0.096,0.459,0,0.893,0.283,1.301
				c0.285,0.408,1.151,0.962,2.6,1.663c1.473,0.704,2.663,1.409,3.572,2.114c0.909,0.706,1.562,1.617,1.96,2.734
				c0.396,1.117,0.462,2.315,0.199,3.594c-0.475,2.308-1.786,3.938-3.93,4.887c-2.144,0.949-4.699,1.118-7.665,0.506
				c-2.301-0.475-4.621-0.986-6.805-1.874c-1.404-0.571-3.564-1.222-4.362-2.619C159.536,38.672,159.462,38.451,159.428,38.225z"/>
		</g>
	</g>
</g>
</svg>
