<?xml version="1.0" encoding="UTF-8" standalone="no"?>
<!-- Created with Inkscape (http://www.inkscape.org/) -->

<svg
   xmlns:dc="http://purl.org/dc/elements/1.1/"
   xmlns:cc="http://creativecommons.org/ns#"
   xmlns:rdf="http://www.w3.org/1999/02/22-rdf-syntax-ns#"
   xmlns:svg="http://www.w3.org/2000/svg"
   xmlns="http://www.w3.org/2000/svg"
   xmlns:xlink="http://www.w3.org/1999/xlink"
   xmlns:sodipodi="http://sodipodi.sourceforge.net/DTD/sodipodi-0.dtd"
   xmlns:inkscape="http://www.inkscape.org/namespaces/inkscape"
   width="200"
   height="200"
   id="svg2"
   version="1.1"
   inkscape:version="0.48.2 r9819"
   sodipodi:docname="Icon_paganism.svg"
   inkscape:export-filename="/home/nx/Documents/rw/wigobuttons/wigocp_redone50.png"
   inkscape:export-xdpi="22.5"
   inkscape:export-ydpi="22.5"
   style="display:inline">
  <defs
     id="defs4">
    <linearGradient
       id="linearGradient3684">
      <stop
         style="stop-color:#000000;stop-opacity:1;"
         offset="0"
         id="stop3686" />
      <stop
         id="stop3692"
         offset="0.89795917"
         style="stop-color:#000000;stop-opacity:0.86666667;" />
      <stop
         style="stop-color:#000000;stop-opacity:0;"
         offset="1"
         id="stop3688" />
    </linearGradient>
    <radialGradient
       r="97.496925"
       fy="188.21428"
       fx="236.78572"
       cy="188.21428"
       cx="236.78572"
       gradientUnits="userSpaceOnUse"
       id="radialGradient3884"
       xlink:href="#linearGradient3684"
       inkscape:collect="always" />
  </defs>
  <sodipodi:namedview
     id="base"
     pagecolor="#ffffff"
     bordercolor="#666666"
     borderopacity="1.0"
     inkscape:pageopacity="0"
     inkscape:pageshadow="2"
     inkscape:zoom="1"
     inkscape:cx="7.0000106"
     inkscape:cy="146.15999"
     inkscape:document-units="px"
     inkscape:current-layer="layer1"
     showgrid="false"
     inkscape:window-width="1366"
     inkscape:window-height="706"
     inkscape:window-x="-8"
     inkscape:window-y="-8"
     inkscape:window-maximized="1"
     showguides="true"
     inkscape:guide-bbox="true"
     inkscape:snap-object-midpoints="true" />
  <metadata
     id="metadata7">
    <rdf:RDF>
      <cc:Work
         rdf:about="">
        <dc:format>image/svg+xml</dc:format>
        <dc:type
           rdf:resource="http://purl.org/dc/dcmitype/StillImage" />
        <dc:title></dc:title>
      </cc:Work>
    </rdf:RDF>
  </metadata>
  <g
     inkscape:label="Layer 1"
     inkscape:groupmode="layer"
     id="layer1"
     transform="translate(0,-852.36218)"
     style="display:inline">
    <path
       sodipodi:type="arc"
       style="fill:url(#radialGradient3884);fill-opacity:1;stroke:none;display:inline"
       id="path3674"
       sodipodi:cx="236.78572"
       sodipodi:cy="188.21428"
       sodipodi:rx="97.496925"
       sodipodi:ry="97.496925"
       d="m 334.28265,188.21428 c 0,53.84606 -43.65086,97.49692 -97.49693,97.49692 -53.84606,0 -97.49692,-43.65086 -97.49692,-97.49692 0,-53.84607 43.65086,-97.496926 97.49692,-97.496926 53.84607,0 97.49693,43.650856 97.49693,97.496926 z"
       transform="translate(-134.78572,766.1479)" />
    <path
       transform="translate(-136.78572,764.1479)"
       d="m 324.92078,188.21428 c 0,48.67565 -39.45941,88.13506 -88.13506,88.13506 -48.67565,0 -88.13506,-39.45941 -88.13506,-88.13506 0,-48.67565 39.45941,-88.13506 88.13506,-88.13506 48.67565,0 88.13506,39.45941 88.13506,88.13506 z"
       sodipodi:ry="88.135063"
       sodipodi:rx="88.135063"
       sodipodi:cy="188.21428"
       sodipodi:cx="236.78572"
       id="path3625"
       style="fill:#47374a;fill-opacity:1;stroke:#ffffff;stroke-width:8;stroke-miterlimit:4;stroke-opacity:1;stroke-dasharray:none"
       sodipodi:type="arc" />
    <g
       id="g3700"
       transform="translate(9.340823,830.10736)">
      <path
         id="path3666"
         d=""
         style="fill:#000000"
         inkscape:connector-curvature="0" />
      <path
         id="path3664"
         d=""
         style="fill:#000000"
         inkscape:connector-curvature="0" />
    </g>
    <g
       style="font-size:28.01132774px;font-style:normal;font-variant:normal;font-weight:normal;font-stretch:normal;line-height:125%;letter-spacing:0px;word-spacing:0px;fill:#ffffff;fill-opacity:1;stroke:none;display:inline;font-family:Cambria Math;-inkscape-font-specification:Cambria Math"
       id="text3834-4" />
    <path
       style="fill:#ffffff"
       inkscape:connector-curvature="0"
       d="m 100.60315,990.7975 c 36.15848,0 54.46668,-6.351 57.75003,-18.48063 0.54588,-2.21821 -1.25339,-2.89062 -3.05227,-2.89062 H 100.60315 45.904984 c -1.79887,0 -3.59775,0.67241 -3.05419,2.89062 3.28759,12.12963 21.59618,18.48063 57.752356,18.48063"
       id="path7" />
    <path
       style="fill:#ffffff"
       inkscape:connector-curvature="0"
       d="m 101.3104,905.71704 c -36.156175,0 -55.424965,12.4116 -57.752355,24.89496 -0.54356,2.86439 1.253,3.85082 3.05419,3.85082 1.80583,0 54.698165,0 54.698165,0 0,0 52.89233,0 54.69545,0 1.79926,0 3.60007,-0.98682 3.05458,-3.85082 -2.32507,-12.48336 -21.59386,-24.89496 -57.75003,-24.89496"
       id="path9" />
    <rect
       style="fill:#ffffff;fill-opacity:1;fill-rule:nonzero;stroke:#ffffff;stroke-width:7.05600023;stroke-miterlimit:4;stroke-opacity:1;stroke-dasharray:none;stroke-dashoffset:0"
       id="rect3806"
       width="123.03658"
       height="7.7781744"
       x="38.481709"
       y="954.47308"
       ry="3.8890872" />
    <path
       style="fill:#ffffff;stroke:none"
       d="m 47.034937,935.91825 c -2.452213,-0.7348 -6.11012,0.95201 -2.081382,1.83319 -1.449465,0.56718 -6.133806,2.54611 -1.750671,2.36151 4.819154,-0.37138 -5.844071,3.68739 -0.600183,3.82918 3.516022,-0.002 5.528372,2.84034 9.191822,2.14279 2.718568,1.65687 5.36866,2.14282 8.131926,0.16108 4.253957,1.2358 9.306511,1.73796 14.06109,0.82445 1.927812,-1.94311 1.60982,3.02934 3.514419,0.27342 2.258765,-2.12183 6.718071,2.63866 10.212289,0.47777 3.076937,-1.3608 6.969854,-0.079 8.55678,1.8616 3.789283,-1.51411 7.529533,-4.77274 11.714363,-2.91812 3.73309,-1.94009 6.26888,1.97003 10.35881,0.94284 3.65528,1.7097 8.33109,5.59454 12.6729,2.95248 3.14514,-2.69372 8.52268,-1.38695 12.60564,-2.01446 3.47232,-0.22011 8.4045,-0.83003 10.88198,-0.54014 1.1221,-2.27392 7.71425,-3.14342 2.6985,-5.55896 0.34097,-2.24649 2.05504,-7.21778 -2.52874,-5.81461 -8.64814,0.97206 -17.00469,-0.50772 -25.69004,-0.32837 -16.84736,-0.11288 -33.339202,-0.0371 -50.17729,-0.28599 -8.501194,-0.44327 -14.790502,-0.33429 -24.550834,-0.39544 -0.9011,-0.0471 -3.285819,0.46333 -4.188132,0.48553"
       id="path3823"
       inkscape:connector-curvature="0"
       sodipodi:nodetypes="ccccccccccccccccccccc" />
  </g>
</svg>
