<?xml version="1.0" encoding="utf-8"?>
<!-- Generator: Adobe Illustrator 16.0.0, SVG Export Plug-In . SVG Version: 6.00 Build 0)  -->
<!DOCTYPE svg PUBLIC "-//W3C//DTD SVG 1.1//EN" "http://www.w3.org/Graphics/SVG/1.1/DTD/svg11.dtd">
<svg version="1.1" id="Layer_1" xmlns="http://www.w3.org/2000/svg" xmlns:xlink="http://www.w3.org/1999/xlink" x="0px" y="0px"
	 width="293.914px" height="285px" viewBox="0 0 293.914 285" enable-background="new 0 0 293.914 285" xml:space="preserve">
<g>
	
		<linearGradient id="SVGID_1_" gradientUnits="userSpaceOnUse" x1="127.1108" y1="125.897" x2="246.0254" y2="125.897" gradientTransform="matrix(1 0 0 -1 -8.3599 309.0547)">
		<stop  offset="0" style="stop-color:#F58620"/>
		<stop  offset="1" style="stop-color:#E17D26"/>
	</linearGradient>
	<path fill="url(#SVGID_1_)" d="M232.934,138.89l-44.223-32.043l3.688,48.45l-73.647,72.778c0,0,3.756,13.852,29.313,31.393
		l89.601-93.552L232.934,138.89z"/>
	<path fill="#E3F0FA" d="M187.055,94.432c-0.387,0.281-0.43,0.929-0.43,0.929l-0.598,9.474l41.844,8.046l1.289-1.527l0.831-9.667
		c0,0,0.036-0.158-0.125-0.391c-0.116-0.17-0.614-0.269-0.614-0.269l-40.701-6.682C188.551,94.345,187.48,94.121,187.055,94.432z"/>
	<path fill="#C9E0E6" d="M171.789,121.945c0,0.151,0.751,0.213,0.751,0.213l42.095,9.667l13.836-19.501l-42.441-7.49l-11.954,13.496
		C174.074,118.33,171.789,120.575,171.789,121.945z"/>
	<path fill="#E3F0FA" d="M171.789,121.945l3.359,50.915c0,0-0.117,1.016,0.332,1.543s1.269,0.695,1.269,0.695L212.99,188.4
		c0,0,1.188,0.5,1.188,0.359c0-0.572,0.02-3.714,0.02-3.714l0.438-53.222L171.789,121.945z"/>
	<path fill="#94ADB8" d="M241.852,119.459l-2.756,1.169l-24.469,11.197c0,0-0.193-1.115,0.943-2.515
		c1.156-1.422,12.287-15.789,12.74-17.015c0.571-1.556,1.057-10.968,1.556-11.001c0.499-0.034-0.091,9.626,0.381,10.653
		c0.362,0.786,6.621,3.809,9.325,5.193C240.182,117.455,241.87,118.33,241.852,119.459z"/>
	<path fill="#AEC9D1" d="M214.634,131.825l-0.393,55.776l-0.063,1.158c0.739,0.114,2.071-1.227,2.071-1.227l22.999-19.547
		c0,0,0.977-0.655,1.311-1.346c0.33-0.69,0.278-0.678,0.371-1.709c0.744-8.447,1.203-45.296,0.922-45.475
		C241.538,119.257,214.634,131.825,214.634,131.825z"/>
	<path fill="#F1F4FA" d="M171.789,121.945c0,0,0-1.577,1.275-2.488l42.728,9.574c0,0-1.235,1.624-1.216,2.82v0.947l-42.73-10.012
		L171.789,121.945z"/>
	<g>
		<path fill="#91D8F7" d="M187.961,144.203c-0.027-0.008-0.059-0.016-0.089-0.021c-0.56-0.14-1.069-0.164-1.526-0.07
			c-0.457,0.093-0.881,0.305-1.273,0.636c-0.293-0.495-0.657-0.901-1.098-1.217c-0.428-0.306-0.929-0.531-1.507-0.683
			c-0.026-0.007-0.052-0.013-0.077-0.019c-0.588-0.143-1.119-0.171-1.592-0.084c-0.472,0.087-0.904,0.298-1.298,0.63l-0.013-0.2
			c-0.024-0.338-0.153-0.63-0.391-0.876c-0.232-0.24-0.511-0.401-0.836-0.485c-0.01-0.001-0.019-0.004-0.027-0.006
			c-0.351-0.083-0.625-0.05-0.82,0.104c-0.199,0.152-0.283,0.428-0.251,0.821l0.53,5.993c0.041,0.435,0.188,0.791,0.436,1.07
			c0.241,0.273,0.531,0.456,0.872,0.549c0.01,0.002,0.019,0.006,0.024,0.008c0.357,0.09,0.636,0.054,0.836-0.113
			c0.201-0.166,0.283-0.467,0.248-0.902l-0.211-2.831c-0.062-0.881,0.016-1.524,0.234-1.934c0.223-0.409,0.729-0.517,1.52-0.323
			c0.011,0.003,0.021,0.005,0.033,0.008c0.375,0.1,0.657,0.26,0.842,0.484c0.191,0.232,0.312,0.5,0.369,0.803
			c0.053,0.302,0.092,0.716,0.117,1.243l0.178,3.339c0.023,0.439,0.149,0.799,0.379,1.075c0.22,0.268,0.494,0.446,0.824,0.54
			c0.012,0.003,0.021,0.005,0.033,0.009c0.354,0.093,0.635,0.058,0.842-0.104c0.207-0.164,0.301-0.466,0.285-0.906l-0.102-2.787
			c-0.029-0.896,0.037-1.499,0.201-1.807c0.147-0.238,0.359-0.405,0.637-0.498c0.277-0.094,0.57-0.103,0.884-0.022
			c0.011,0.002,0.021,0.005,0.033,0.008c0.37,0.101,0.646,0.261,0.832,0.486c0.19,0.231,0.31,0.489,0.354,0.771
			c0.043,0.282,0.067,0.648,0.071,1.1l0.05,3.527c0.008,0.435,0.123,0.793,0.342,1.072c0.217,0.273,0.486,0.456,0.813,0.55
			c0.007,0.003,0.015,0.005,0.022,0.007c0.347,0.092,0.625,0.059,0.836-0.106c0.212-0.162,0.314-0.465,0.314-0.904l0.016-4.095
			c0.008-0.816-0.086-1.438-0.279-1.868c-0.225-0.478-0.568-0.888-1.033-1.231C189.102,144.611,188.574,144.366,187.961,144.203"/>
		<path fill="#91D8F7" d="M194.357,145.807c-0.01-0.005-0.021-0.008-0.032-0.01c-0.343-0.089-0.621-0.055-0.843,0.102
			c-0.219,0.154-0.334,0.441-0.348,0.856l-0.129,6.002c-0.006,0.41,0.09,0.753,0.289,1.027c0.189,0.267,0.439,0.444,0.746,0.532
			c0.012,0.004,0.02,0.008,0.029,0.01c0.32,0.089,0.586,0.053,0.798-0.104c0.215-0.16,0.329-0.447,0.341-0.869l0.229-6.064
			c0.02-0.374-0.078-0.694-0.287-0.962C194.947,146.068,194.684,145.895,194.357,145.807 M194.512,142.781
			c-0.011-0.004-0.02-0.006-0.029-0.008c-0.316-0.08-0.602-0.054-0.852,0.078c-0.248,0.134-0.378,0.347-0.389,0.646
			c-0.01,0.328,0.097,0.61,0.32,0.849c0.221,0.23,0.485,0.389,0.799,0.473c0.01,0.004,0.019,0.007,0.029,0.008
			c0.313,0.081,0.586,0.06,0.823-0.064c0.238-0.125,0.364-0.347,0.382-0.67c0.021-0.335-0.084-0.617-0.312-0.85
			C195.062,143.014,194.805,142.859,194.512,142.781"/>
		<path fill="#91D8F7" d="M199.275,143.895c-0.01-0.004-0.021-0.006-0.031-0.01c-0.354-0.092-0.643-0.055-0.866,0.106
			c-0.226,0.161-0.351,0.454-0.381,0.875l-0.532,9.104c-0.02,0.409,0.064,0.751,0.251,1.027c0.183,0.269,0.427,0.446,0.729,0.537
			c0.007,0.003,0.015,0.004,0.021,0.007c0.319,0.089,0.584,0.054,0.798-0.104c0.215-0.154,0.334-0.446,0.36-0.873l0.681-9.104
			c0.037-0.426-0.041-0.771-0.238-1.042C199.876,144.162,199.611,143.984,199.275,143.895"/>
		<path fill="#91D8F7" d="M204.117,145.141c-0.008-0.002-0.016-0.006-0.025-0.008c-0.361-0.094-0.654-0.045-0.877,0.148
			c-0.222,0.193-0.355,0.521-0.406,0.988l-0.824,8.955c-0.034,0.42,0.033,0.765,0.201,1.032c0.164,0.261,0.402,0.438,0.713,0.532
			c0.008,0.003,0.017,0.005,0.023,0.007c0.276,0.08,0.53,0.039,0.764-0.118c0.229-0.156,0.367-0.438,0.405-0.844l0.164-1.668
			l1.272-0.755l1.509,3.575c0.188,0.432,0.342,0.736,0.462,0.914c0.113,0.172,0.289,0.295,0.525,0.367
			c0.008,0.004,0.019,0.006,0.025,0.01c0.29,0.085,0.534,0.057,0.737-0.084c0.202-0.142,0.325-0.377,0.371-0.711
			c0.015-0.118-0.003-0.254-0.052-0.403c-0.051-0.149-0.137-0.374-0.262-0.67l-1.721-3.999l1.275-0.708
			c0.656-0.351,1.006-0.681,1.054-0.988c0.038-0.25-0.022-0.485-0.179-0.702c-0.151-0.209-0.357-0.352-0.617-0.427
			c-0.008-0.003-0.018-0.006-0.025-0.009c-0.229-0.062-0.433-0.061-0.607,0.011c-0.176,0.068-0.438,0.216-0.782,0.438l-2.745,1.81
			l0.578-5.097c0.053-0.43-0.008-0.781-0.188-1.057C204.713,145.417,204.456,145.234,204.117,145.141"/>
	</g>
</g>
<g>
	<g>
		
			<linearGradient id="SVGID_2_" gradientUnits="userSpaceOnUse" x1="81.9868" y1="183.0596" x2="111.1487" y2="212.2216" gradientTransform="matrix(1 0 0 -1 -8.3599 309.0547)">
			<stop  offset="0" style="stop-color:#F58620"/>
			<stop  offset="1" style="stop-color:#E17D26"/>
		</linearGradient>
		<polygon fill="url(#SVGID_2_)" points="29.612,106.505 103.265,149.271 174.454,91.375 122.305,52.029 96.381,55.593 
			74.805,58.61 		"/>
	</g>
	<g>
		<path fill="#FFFFFF" d="M82.949,52.24c-31.69,18.927-18.501,57.938,1.921,69.551c9.477,5.39,32.923,9.665,46.853,2.003
			c8.009-4.404,22.423-16.818,28.03-20.422c9.554-6.142,17.726-11.656,18.97-24.857c1.01-10.724-4.459-19.798-14.484-22.653
			c-5.452-1.553-11.463-1.971-21.176-2.813C133.348,52.204,101.57,41.118,82.949,52.24z"/>
		<circle fill="#FAAE3C" cx="114.402" cy="85.453" r="21.524"/>
		<g>
			<path fill="#FDD8BA" d="M115.015,71.348c8.166,0,14.984,5.756,16.629,13.431c-0.107-9.303-7.678-16.811-17.005-16.811
				c-9.393,0-17.008,7.614-17.008,17.009c0,1.228,0.133,2.425,0.38,3.578c-0.001-0.066-0.005-0.132-0.005-0.198
				C98.006,78.963,105.621,71.348,115.015,71.348z"/>
		</g>
	</g>
</g>
<g>
	<g>
		
			<linearGradient id="SVGID_3_" gradientUnits="userSpaceOnUse" x1="108.1079" y1="88.9951" x2="128.8137" y2="109.7009" gradientTransform="matrix(1 0 0 -1 -8.3599 309.0547)">
			<stop  offset="0" style="stop-color:#F58620"/>
			<stop  offset="1" style="stop-color:#E17D26"/>
		</linearGradient>
		<path fill="url(#SVGID_3_)" d="M58.746,182.441c-6.711,17.035,4.56,28.285,4.56,28.285l67.825,52.74l40.287-36.054l-89.27-68.776
			C82.147,158.639,59.013,181.764,58.746,182.441z"/>
	</g>
	<g>
		<g>
			<path fill="#D74837" d="M138.802,233.456c-8.126,0-16.513-0.961-23.008-2.638c-22.948-5.922-38.976-24.737-38.976-45.758
				c0-22.638,18.417-41.056,41.055-41.056c4.926,0,10.43,1.019,15.1,2.792c7.641,2.899,14.988,9.081,20.158,16.96
				c3.229,4.916,4.973,10.972,5.188,17.995c0.074,2.391-0.123,4.756-0.313,7.043c-0.295,3.532-0.573,6.869,0.169,9.821
				c0.727,2.893,2.747,5.024,5.991,7.729c2.71,2.258,8.353,6.957,6.446,14.574C167.887,231.827,149.514,233.456,138.802,233.456
				C138.803,233.456,138.803,233.456,138.802,233.456z"/>
			<path fill="#F9B99C" d="M117.874,148.031c4.486,0,9.485,0.938,13.671,2.529c7.419,2.814,13.908,8.83,18.223,15.404
				c3.121,4.756,4.356,10.287,4.528,15.91c0.181,5.829-1.465,11.999-0.024,17.723c1.067,4.256,4.053,7.118,7.315,9.84
				c3.291,2.742,6.306,5.772,5.121,10.508c-1.692,6.772-14.504,9.486-27.906,9.486c-7.832,0-15.867-0.928-22.002-2.511
				c-19.803-5.11-35.956-21.409-35.956-41.86C80.844,164.611,97.422,148.031,117.874,148.031 M117.874,139.981
				c-24.857,0-45.08,20.223-45.08,45.08c0,22.855,17.269,43.274,41.995,49.655c6.81,1.757,15.562,2.765,24.014,2.765
				c26.298,0,33.938-8.475,35.716-15.582c2.518-10.069-4.963-16.301-7.778-18.646c-2.604-2.171-4.202-3.786-4.661-5.613
				c-0.58-2.307-0.329-5.318-0.062-8.509c0.201-2.399,0.407-4.882,0.326-7.503c-0.236-7.775-2.203-14.531-5.846-20.079
				c-5.624-8.571-13.678-15.319-22.096-18.515C129.294,141.094,123.269,139.981,117.874,139.981L117.874,139.981z"/>
		</g>
		<g>
			<g>
				<path fill="#E87158" d="M96.914,154.537c-7.483,7.984-10.406,14.635-11.776,23.012c-4.831,29.516,27.522,49.862,54.966,51.873
					c-8.236,0.11-16.826-0.83-23.304-2.5c-19.803-5.109-35.956-21.41-35.956-41.859C80.844,172.393,87.211,161.214,96.914,154.537z"
					/>
			</g>
		</g>
		<circle fill="#FFFFFF" cx="110.378" cy="174.163" r="8.277"/>
	</g>
</g>
<circle fill="#2C3E50" cx="143.889" cy="144.997" r="217.5"/>
<g>
	<linearGradient id="SVGID_4_" gradientUnits="userSpaceOnUse" x1="117.0088" y1="182.6543" x2="235.9229" y2="182.6543">
		<stop  offset="0" style="stop-color:#2C3E50"/>
		<stop  offset="1" style="stop-color:#2C353F"/>
	</linearGradient>
	<path fill="url(#SVGID_4_)" d="M231.192,138.387l-44.223-32.043l3.688,48.45l-73.648,72.778c0,0,3.756,13.852,29.313,31.393
		l89.601-93.552L231.192,138.387z"/>
	<path fill="#E2F1FF" d="M185.312,93.929c-0.386,0.281-0.429,0.929-0.429,0.929l-0.597,9.474l41.843,8.046l1.289-1.527l0.831-9.667
		c0,0,0.036-0.158-0.125-0.391c-0.116-0.17-0.614-0.269-0.614-0.269l-40.701-6.682C186.81,93.842,185.738,93.618,185.312,93.929z"/>
	<path fill="#CAE2E7" d="M170.047,121.442c0,0.151,0.751,0.213,0.751,0.213l42.095,9.667l13.836-19.501l-42.441-7.49l-11.955,13.496
		C172.332,117.827,170.047,120.072,170.047,121.442z"/>
	<path fill="#E2F1FF" d="M170.047,121.442l3.359,50.914c0,0-0.117,1.016,0.333,1.543c0.448,0.527,1.268,0.696,1.268,0.696
		l36.241,13.303c0,0,1.188,0.5,1.188,0.359c0-0.572,0.019-3.714,0.019-3.714l0.438-53.222L170.047,121.442z"/>
	<path fill="#95AEB8" d="M240.11,118.956l-2.756,1.169l-24.469,11.197c0,0-0.194-1.115,0.943-2.515
		c1.157-1.422,12.288-15.789,12.74-17.015c0.572-1.556,1.057-10.968,1.556-11.001c0.499-0.034-0.091,9.626,0.381,10.653
		c0.362,0.786,6.621,3.809,9.325,5.193C238.44,116.952,240.128,117.827,240.11,118.956z"/>
	<path fill="#AFCBD2" d="M212.893,131.322l-0.393,55.776l-0.064,1.159c0.74,0.114,2.072-1.227,2.072-1.227l22.999-19.546
		c0,0,0.977-0.656,1.31-1.347c0.331-0.69,0.279-0.677,0.371-1.709c0.745-8.446,1.204-45.295,0.923-45.474
		C239.796,118.754,212.893,131.322,212.893,131.322z"/>
	<path fill="#F2F6FF" d="M170.047,121.442c0,0,0-1.577,1.276-2.488l42.727,9.574c0,0-1.235,1.624-1.216,2.82v0.947l-42.731-10.012
		L170.047,121.442z"/>
	<g>
		<g enable-background="new    ">
			<defs>
				<polygon id="SVGID_5_" enable-background="new    " points="175.663,145.621 175.085,133.604 208.922,143.147 206.725,155.166 
									"/>
			</defs>
			<clipPath id="SVGID_6_">
				<use xlink:href="#SVGID_5_"  overflow="visible"/>
			</clipPath>
		</g>
	</g>
	<g>
		<path fill="#8DDBFF" d="M186.22,143.7c-0.028-0.008-0.059-0.015-0.089-0.022c-0.56-0.139-1.069-0.164-1.527-0.069
			c-0.456,0.092-0.88,0.304-1.272,0.635c-0.293-0.495-0.658-0.901-1.099-1.217c-0.427-0.306-0.928-0.531-1.506-0.683
			c-0.026-0.007-0.052-0.013-0.078-0.019c-0.588-0.143-1.119-0.171-1.591-0.084s-0.904,0.298-1.298,0.63l-0.013-0.2
			c-0.024-0.338-0.153-0.63-0.391-0.876c-0.232-0.24-0.51-0.401-0.836-0.485c-0.009-0.001-0.018-0.004-0.027-0.006
			c-0.35-0.083-0.624-0.05-0.82,0.104c-0.199,0.152-0.283,0.428-0.251,0.821l0.531,5.993c0.041,0.434,0.188,0.791,0.435,1.07
			c0.241,0.273,0.531,0.456,0.872,0.549c0.01,0.002,0.018,0.005,0.025,0.008c0.357,0.09,0.635,0.053,0.835-0.114
			c0.201-0.166,0.284-0.467,0.248-0.902l-0.211-2.831c-0.062-0.881,0.016-1.524,0.235-1.934c0.222-0.409,0.728-0.517,1.519-0.323
			c0.011,0.003,0.022,0.005,0.033,0.008c0.376,0.1,0.658,0.26,0.843,0.484c0.191,0.233,0.312,0.5,0.368,0.803
			c0.053,0.302,0.093,0.716,0.117,1.243l0.178,3.339c0.024,0.44,0.15,0.799,0.38,1.075c0.219,0.268,0.493,0.447,0.824,0.54
			c0.011,0.003,0.021,0.005,0.033,0.009c0.354,0.093,0.634,0.057,0.842-0.104c0.206-0.164,0.301-0.466,0.284-0.907l-0.101-2.787
			c-0.029-0.896,0.037-1.499,0.202-1.807c0.147-0.238,0.358-0.405,0.636-0.497c0.277-0.094,0.571-0.103,0.884-0.023
			c0.011,0.002,0.021,0.005,0.033,0.008c0.37,0.1,0.646,0.261,0.832,0.486c0.19,0.232,0.309,0.489,0.354,0.771
			c0.043,0.282,0.068,0.648,0.072,1.099l0.05,3.527c0.007,0.435,0.123,0.793,0.342,1.073c0.216,0.273,0.486,0.456,0.813,0.55
			c0.006,0.002,0.015,0.004,0.022,0.006c0.347,0.093,0.625,0.059,0.836-0.106c0.212-0.162,0.315-0.465,0.315-0.904l0.015-4.095
			c0.008-0.816-0.086-1.438-0.279-1.868c-0.225-0.478-0.569-0.888-1.033-1.231C187.36,144.109,186.832,143.863,186.22,143.7"/>
		<path fill="#8DDBFF" d="M192.616,145.303c-0.011-0.004-0.022-0.007-0.033-0.009c-0.342-0.089-0.621-0.055-0.843,0.102
			c-0.218,0.154-0.334,0.441-0.347,0.856l-0.129,6.002c-0.006,0.41,0.09,0.753,0.289,1.027c0.19,0.267,0.439,0.444,0.746,0.533
			c0.011,0.004,0.02,0.007,0.03,0.009c0.32,0.089,0.585,0.053,0.797-0.104c0.215-0.16,0.329-0.447,0.341-0.869l0.229-6.064
			c0.019-0.374-0.078-0.694-0.288-0.962C193.206,145.565,192.941,145.392,192.616,145.303 M192.77,142.278
			c-0.01-0.004-0.019-0.006-0.029-0.008c-0.316-0.08-0.601-0.054-0.851,0.078c-0.248,0.134-0.378,0.347-0.389,0.646
			c-0.01,0.328,0.097,0.61,0.321,0.848c0.22,0.231,0.485,0.39,0.798,0.474c0.01,0.003,0.019,0.006,0.029,0.007
			c0.314,0.081,0.587,0.06,0.824-0.064c0.238-0.125,0.364-0.347,0.382-0.67c0.02-0.335-0.085-0.618-0.312-0.85
			C193.321,142.51,193.063,142.356,192.77,142.278"/>
		<path fill="#8DDBFF" d="M197.534,143.391c-0.01-0.004-0.022-0.006-0.032-0.009c-0.354-0.092-0.643-0.055-0.866,0.106
			c-0.225,0.162-0.351,0.454-0.381,0.875l-0.532,9.104c-0.02,0.409,0.064,0.751,0.251,1.027c0.182,0.269,0.426,0.447,0.729,0.537
			c0.007,0.003,0.015,0.004,0.021,0.007c0.319,0.089,0.584,0.054,0.798-0.103c0.214-0.155,0.333-0.447,0.36-0.873l0.681-9.104
			c0.037-0.426-0.042-0.771-0.238-1.042C198.135,143.659,197.87,143.482,197.534,143.391"/>
		<path fill="#8DDBFF" d="M202.375,144.638c-0.008-0.003-0.016-0.006-0.025-0.008c-0.362-0.094-0.655-0.045-0.877,0.148
			c-0.222,0.194-0.356,0.522-0.407,0.989l-0.824,8.954c-0.034,0.421,0.034,0.765,0.202,1.033c0.163,0.261,0.402,0.438,0.712,0.532
			c0.008,0.003,0.017,0.005,0.024,0.007c0.276,0.08,0.53,0.039,0.763-0.118c0.23-0.156,0.368-0.438,0.406-0.844l0.164-1.668
			l1.273-0.755l1.508,3.576c0.188,0.431,0.342,0.735,0.462,0.914c0.113,0.171,0.289,0.294,0.525,0.367
			c0.008,0.003,0.019,0.006,0.026,0.009c0.29,0.085,0.534,0.057,0.737-0.083c0.202-0.142,0.326-0.378,0.371-0.712
			c0.015-0.118-0.003-0.253-0.052-0.403c-0.05-0.15-0.137-0.374-0.261-0.67l-1.721-3.999l1.275-0.708
			c0.656-0.35,1.007-0.681,1.054-0.988c0.038-0.25-0.022-0.485-0.179-0.702c-0.151-0.209-0.357-0.352-0.617-0.427
			c-0.008-0.003-0.018-0.006-0.025-0.009c-0.229-0.062-0.433-0.06-0.608,0.011c-0.176,0.068-0.437,0.216-0.782,0.439l-2.745,1.809
			l0.578-5.097c0.053-0.429-0.008-0.781-0.188-1.056C202.972,144.914,202.714,144.731,202.375,144.638"/>
	</g>
</g>
<g>
	<g>
		<linearGradient id="SVGID_7_" gradientUnits="userSpaceOnUse" x1="71.8848" y1="125.4932" x2="101.0466" y2="96.3313">
			<stop  offset="0" style="stop-color:#2C3E50"/>
			<stop  offset="1" style="stop-color:#2C353F"/>
		</linearGradient>
		<polygon fill="url(#SVGID_7_)" points="27.87,106.002 101.523,148.769 172.712,90.872 120.563,51.526 94.64,55.09 73.063,58.107 
					"/>
	</g>
	<g>
		<path fill="#FFFFFF" d="M81.207,51.737c-31.69,18.927-18.501,57.938,1.921,69.551c9.477,5.39,32.923,9.665,46.853,2.003
			c8.009-4.404,22.424-16.818,28.03-20.422c9.553-6.142,17.725-11.656,18.97-24.857c1.01-10.724-4.46-19.798-14.484-22.653
			c-5.453-1.553-11.463-1.971-21.177-2.813C131.606,51.701,99.828,40.615,81.207,51.737z"/>
		<circle fill="#FDB03B" cx="112.661" cy="84.95" r="21.524"/>
		<g>
			<path fill="#FFDABB" d="M113.273,70.845c8.166,0,14.984,5.756,16.629,13.431c-0.107-9.303-7.678-16.811-17.005-16.811
				c-9.393,0-17.008,7.614-17.008,17.009c0,1.228,0.133,2.425,0.38,3.578c-0.001-0.066-0.005-0.132-0.005-0.198
				C96.265,78.46,103.879,70.845,113.273,70.845z"/>
		</g>
	</g>
</g>
<g>
	<g>
		
			<linearGradient id="SVGID_8_" gradientUnits="userSpaceOnUse" x1="101.4863" y1="225.2227" x2="122.1919" y2="204.5171" gradientTransform="matrix(0.9989 -0.0462 0.0462 0.9989 -9.626 5.713)">
			<stop  offset="0" style="stop-color:#2C3E50"/>
			<stop  offset="1" style="stop-color:#2C353F"/>
		</linearGradient>
		<path fill="url(#SVGID_8_)" d="M59.463,190.323c-5.917,17.327,5.862,28.044,5.862,28.044l70.19,49.551l38.577-37.877
			L81.74,165.463C81.74,165.463,59.699,189.633,59.463,190.323z"/>
	</g>
	<g>
		<g>
			<path fill="#D84838" d="M136.866,237.696c-6.534,0-12.99-0.598-18.179-1.684c-23.198-4.854-40.077-22.91-41.048-43.908
				c-0.507-10.953,3.282-21.449,10.67-29.554s17.489-12.848,28.444-13.354c0.577-0.027,1.163-0.04,1.755-0.04
				c4.487,0,9.266,0.757,13.458,2.13c7.768,2.544,15.393,8.38,20.92,16.011c3.45,4.762,5.474,10.729,6.013,17.736
				c0.185,2.384,0.097,4.757,0.012,7.051c-0.131,3.542-0.254,6.888,0.623,9.802c0.859,2.856,2.977,4.893,6.342,7.445
				c2.812,2.129,8.665,6.563,7.114,14.261C170.354,236.679,144.676,237.696,136.866,237.696
				C136.866,237.696,136.867,237.696,136.866,237.696z"/>
			<path fill="#FABA9D" d="M118.507,153.182c4.063,0,8.44,0.697,12.205,1.931c7.541,2.47,14.301,8.178,18.914,14.547
				c3.338,4.605,4.828,10.074,5.26,15.684c0.449,5.814-0.908,12.054,0.794,17.705c1.264,4.201,4.377,6.923,7.764,9.491
				c3.414,2.586,6.564,5.475,5.601,10.259c-1.541,7.65-17.189,10.874-32.178,10.874c-6.258,0-12.402-0.562-17.355-1.599
				c-20.018-4.189-36.907-19.726-37.852-40.154c-0.945-20.428,14.849-37.757,35.279-38.701
				C117.455,153.193,117.979,153.182,118.507,153.182 M118.507,145.132c-0.653,0-1.307,0.016-1.942,0.045
				c-12.027,0.556-23.12,5.763-31.231,14.662s-12.272,20.424-11.716,32.452c1.056,22.831,19.25,42.431,44.245,47.661
				c5.452,1.142,12.201,1.77,19.004,1.77c10.998,0,36.918-1.689,40.069-17.334c2.05-10.175-5.71-16.053-8.632-18.266
				c-2.7-2.048-4.372-3.589-4.915-5.393c-0.686-2.277-0.574-5.298-0.456-8.496c0.089-2.407,0.181-4.896-0.021-7.511
				c-0.598-7.757-2.874-14.415-6.769-19.787c-6.013-8.302-14.369-14.671-22.926-17.474
				C128.633,145.96,123.409,145.132,118.507,145.132L118.507,145.132z"/>
		</g>
		<g>
			<g>
				<path fill="#E97158" d="M96.302,160.685c-7.106,8.322-9.719,15.101-10.701,23.531c-3.462,29.708,29.797,48.537,57.304,49.278
					c-8.222,0.49-16.846-0.052-23.394-1.421c-20.018-4.189-36.907-19.726-37.852-40.154
					C81.074,179.263,86.917,167.803,96.302,160.685z"/>
			</g>
		</g>
		<circle fill="#FFFFFF" cx="110.659" cy="179.667" r="8.277"/>
	</g>
</g>
</svg>
