<?xml version="1.0" encoding="utf-8"?>
<!-- Generator: Adobe Illustrator 16.0.0, SVG Export Plug-In . SVG Version: 6.00 Build 0)  -->
<!DOCTYPE svg PUBLIC "-//W3C//DTD SVG 1.1//EN" "http://www.w3.org/Graphics/SVG/1.1/DTD/svg11.dtd">
<svg version="1.1" id="Layer_1" xmlns="http://www.w3.org/2000/svg" xmlns:xlink="http://www.w3.org/1999/xlink" x="0px" y="0px"
	 width="293.914px" height="285px" viewBox="0 0 293.914 285" enable-background="new 0 0 293.914 285" xml:space="preserve">
<circle fill="#FF685D" cx="140.554" cy="148.442" r="215.5"/>
<g>
	<g>
		<path fill="#FFFFFF" d="M49.641,131.461c1.353,3.689-2.417,9.088-7.221,9.088c-0.001,0-0.044,0-1.976,0
			c-2.832,0-4.248,0.771-4.248,2.311c0,0.738,0.395,1.314,1.186,1.729c0.789,0.416,1.915,0.622,3.375,0.622
			c2.465,0,4.799-0.859,6.636,1.336c1.656,1.982,2.727,5.651,2.026,8.167c-1.106,3.966-6.873,3.973-10.121,3.973
			c-5.125,0-9.204-1.478-12.239-4.436c-3.036-2.957-4.554-6.596-4.554-10.917c0-4.569,1.581-8.339,4.742-11.309
			c3.161-2.971,7.178-4.455,12.052-4.455c2.106,0,4.283,0.287,6.529,0.858C47.938,128.966,49.14,130.097,49.641,131.461z"/>
		<path fill="#FFFFFF" d="M231.738,137.359c1.085,2.956-1.938,7.282-5.787,7.282c-0.001,0-0.034,0-1.583,0
			c-2.269,0-3.403,0.62-3.403,1.854c0,0.592,0.316,1.051,0.949,1.386c0.632,0.332,1.535,0.495,2.705,0.495
			c1.974,0,3.847-0.688,5.318,1.072c1.326,1.587,2.185,4.529,1.623,6.545c-0.886,3.177-5.507,3.183-8.11,3.183
			c-4.105,0-7.376-1.185-9.81-3.553c-2.433-2.371-3.648-5.287-3.648-8.749c0-3.663,1.268-6.683,3.8-9.064
			c2.534-2.379,5.752-3.569,9.658-3.569c1.688,0,3.432,0.23,5.233,0.688C230.374,135.36,231.337,136.267,231.738,137.359z"/>
		<path fill="#FFFFFF" d="M64.5,158.548c-3.767,0-6.872-1.135-9.315-3.409c-2.443-2.271-3.665-5.231-3.665-8.879
			c0-3.649,1.205-6.618,3.616-8.911c2.41-2.291,5.532-3.438,9.364-3.438c3.859,0,6.997,1.147,9.414,3.438
			c2.417,2.292,3.626,5.262,3.626,8.911c0,3.633-1.208,6.592-3.626,8.87C71.497,157.409,68.359,158.548,64.5,158.548z M64.5,143.296
			c-0.79,0-1.432,0.253-1.926,0.762c-0.493,0.506-0.741,1.159-0.741,1.964c0,0.803,0.248,1.456,0.741,1.955
			c0.494,0.502,1.136,0.753,1.926,0.753c0.803,0,1.455-0.251,1.956-0.753c0.501-0.499,0.751-1.152,0.751-1.955
			c0-0.815-0.25-1.474-0.751-1.976C65.955,143.547,65.303,143.296,64.5,143.296z"/>
		<path fill="#FFFFFF" d="M77.671,155.754c-0.158-1.983,0.8-3.493,2.767-3.931c2.247-0.5,3.973,0.995,6.122,0.995
			c0.711,0,1.282-0.159,1.709-0.475c0.428-0.316,0.643-0.725,0.643-1.224c0-0.487-0.181-0.912-0.543-1.276
			c-0.362-0.361-1.321-0.767-2.875-1.214c-1.568-0.447-2.852-0.938-3.853-1.473c-1.001-0.533-1.834-1.319-2.499-2.36
			c-0.665-1.04-0.998-2.173-0.998-3.397c0-2.371,1.018-4.212,3.052-5.522c2.035-1.311,4.89-1.967,8.564-1.967
			c2.739,0,6.104-0.001,8.633,1.183c1.462,0.683,1.67,2.128,0.589,3.267c-1.287,1.355-3.637,1.065-5.317,1.065c0,0-0.005,0-1.791,0
			c-0.593,0-1.074,0.13-1.442,0.395c-0.369,0.262-0.554,0.598-0.554,1.007c0,0.486,0.188,0.907,0.564,1.263
			c0.375,0.354,1.373,0.737,2.993,1.146c1.646,0.409,3.007,0.875,4.08,1.404c1.074,0.524,1.931,1.315,2.568,2.37
			c0.64,1.053,0.958,2.258,0.958,3.613c0,2.45-0.991,4.385-2.973,5.8c-1.982,1.417-4.545,2.124-7.693,2.124
			c-2.959,0-5.908,0.329-8.837-0.278c-1.285-0.269-3.285-0.636-3.777-2.067C77.712,156.062,77.683,155.912,77.671,155.754z"/>
		<path fill="#FFFFFF" d="M108.225,134.405c1.966-0.003,4.049,0.124,5.816,1.034c0.853,0.44,0.217,0.796,1.509,0.645
			c1.637-0.192,2.961-1.615,4.679-1.884c2.181-0.341,4.217,0.151,6.093,1.257c0.4,0.237,3.64,2.214,3.023,2.861
			c1.356-1.422,2.716-2.463,4.079-3.123c1.364-0.658,2.901-0.987,4.614-0.987c2.582,0,4.616,0.791,6.105,2.371
			c1.487,1.58,2.231,3.806,2.231,6.676v6.935c0,4.4-2.595,8-5.769,8c-3.174,0-5.769-3.194-5.769-7.101
			c0-3.907-0.093-7.777-0.207-8.601c0,0,0,0-0.415-0.469c-0.415-0.466-0.958-0.7-1.629-0.7c-0.752,0-1.495,0.256-2.233,0.77v8.1
			c0,4.4-2.595,8-5.768,8c-3.174,0-5.769-3.194-5.769-7.101c0-3.907-0.09-7.768-0.202-8.584c0,0,0,0-0.401-0.474
			c-0.402-0.473-0.951-0.711-1.649-0.711c-0.725,0-1.469,0.271-2.233,0.809v8.062c0,4.4-2.747,8-6.105,8c-3.357,0-6.104-3.6-6.104-8
			v-7.785C102.12,138.01,104.863,134.411,108.225,134.405z"/>
		<path fill="#FFFFFF" d="M171.478,151.268c0.651,0.438,0.263,1.669-0.683,3.103c-0.742,1.122-1.785,2.126-2.908,2.86
			c-1.872,1.225-4.122,1.317-6.286,1.317c-4.137,0-7.462-1.148-9.978-3.447s-3.772-5.324-3.772-9.079
			c0-3.569,1.153-6.479,3.466-8.731c2.312-2.253,5.311-3.38,9-3.38c1.882,0,3.627,0.316,5.234,0.949
			c1.607,0.631,2.997,1.562,4.17,2.786c1.17,1.226,2.034,2.648,2.587,4.267c0.896,2.617,1.815,6.674-2.419,5.888
			c-2.324-0.431-8.393-1.538-8.146,2.416c0.095,1.493,1.628,1.925,2.851,1.921c1.525-0.005,3.486-0.396,4.953-0.825
			C170.519,151.026,171.14,151.038,171.478,151.268z M160.372,143.334c0.182,0.253,0.469,0.464,0.881,0.605
			c2.417,0.834,5.81-4.042,1.474-4.042C161.083,139.899,159.484,142.105,160.372,143.334z"/>
		<path fill="#FFFFFF" d="M191.464,134.405c1.4,0,2.548,1.502,2.548,3.339c0,1.836-1.151,3.216-2.548,3.339
			c-3.581,0.315-3.424,1.939-3.424,3.343c0,3.761,0.078,5.286,5.799,3.208c1.728,0.195,0.868,4.088,0.451,5.92
			c-0.388,1.701-2.829,4.197-4.604,4.636c-3.659,0.909-7.468,1.044-10.114-1.265c-2.01-1.752-2.432-5.085-2.432-8.155
			c0-4.096,1.098-6.665-2.823-6.979c-1.822-0.146-0.483-3.402,2.979-6.116l4.706-3.372c3.462-2.714,6.913-3.166,6.913-1.296
			C188.915,132.876,190.062,134.405,191.464,134.405z"/>
		<path fill="#FFFFFF" d="M234.235,155.39c-0.024-0.034-0.047-0.065-0.07-0.099c-0.565-0.809-0.471-1.835,0.077-2.637
			c0.467-0.68,1.535-1.333,2.36-1.45c0.998-0.14,1.817,0.535,2.67,0.928c0.927,0.425,1.938,0.687,2.963,0.687
			c0.71,0,1.279-0.159,1.707-0.475c0.428-0.316,0.643-0.725,0.643-1.224c0-0.487-0.182-0.912-0.543-1.276
			c-0.363-0.361-1.321-0.767-2.876-1.214c-1.566-0.447-2.852-0.938-3.853-1.473c-1-0.533-1.833-1.319-2.498-2.36
			c-0.665-1.04-0.998-2.173-0.998-3.397c0-2.371,1.018-4.212,3.052-5.522c2.035-1.311,4.891-1.967,8.563-1.967
			c1.795,0,3.576,0.112,5.356,0.322c1.369,0.162,4.117,0.267,4.775,1.781c0.619,1.429-1.553,2.845-2.587,3.403
			c-1.296,0.698-2.659,0.215-4.005-0.003c-1.077-0.174-3.419-0.227-3.419,1.414c0,0.486,0.188,0.907,0.562,1.263
			c0.376,0.354,1.372,0.737,2.993,1.146c1.646,0.409,3.006,0.875,4.08,1.404c1.073,0.524,1.928,1.315,2.567,2.37
			c0.639,1.053,0.958,2.258,0.958,3.613c0,2.45-0.991,4.385-2.973,5.8c-1.981,1.417-4.548,2.124-7.695,2.124
			c-2.305,0-4.618-0.179-6.884-0.606C237.547,157.638,235.273,156.769,234.235,155.39z"/>
	</g>
	<path fill="#FFFFFF" d="M202.909,132.039c-1.23-0.026-2.279-0.495-3.147-1.405c-0.869-0.909-1.289-1.979-1.263-3.208
		c0.027-1.231,0.497-2.272,1.406-3.124c0.907-0.853,1.978-1.264,3.208-1.236c1.23,0.027,2.271,0.488,3.124,1.378
		c0.852,0.893,1.265,1.953,1.237,3.184c-0.029,1.229-0.487,2.28-1.381,3.15C205.204,131.647,204.143,132.067,202.909,132.039z"/>
	<path fill="#FFFFFF" d="M201.396,159.272c-2.645-0.062-4.76-2.238-4.702-4.84l0.359-15.914c0.059-2.601,2.27-4.681,4.915-4.622
		l1.793,0.042c2.646,0.06,4.76,2.237,4.702,4.838l-0.358,15.914c-0.059,2.603-2.27,4.681-4.916,4.62L201.396,159.272z"/>
</g>
</svg>
