<?xml version="1.0" encoding="utf-8"?>
<!-- Generator: Adobe Illustrator 16.0.0, SVG Export Plug-In . SVG Version: 6.00 Build 0)  -->
<!DOCTYPE svg PUBLIC "-//W3C//DTD SVG 1.1//EN" "http://www.w3.org/Graphics/SVG/1.1/DTD/svg11.dtd">
<svg version="1.1" id="Layer_1" xmlns="http://www.w3.org/2000/svg" xmlns:xlink="http://www.w3.org/1999/xlink" x="0px" y="0px"
	 width="293.914px" height="285px" viewBox="0 0 293.914 285" enable-background="new 0 0 293.914 285" xml:space="preserve">
<circle fill="#168885" cx="144.166" cy="144.859" r="212.5"/>
<g>
	<path fill="#FFFFFF" d="M41.146,159.464c-4.411-0.1-7.939-3.79-7.84-8.201l0.461-20.502c0.099-4.412,3.79-7.94,8.202-7.841
		l14.011,0.315c4.412,0.1,7.975,2.245,7.918,4.767c-0.057,2.522-3.228,4.516-7.048,4.43c-3.82-0.086-6.931,0.345-7.02,3.161
		c-0.099,3.156,2.243,3.369,5.074,3.431c2.833,0.065,5.103,2.181,5.047,4.703c-0.059,2.523-2.421,4.44-5.252,4.471
		c-5.418,0.055-5.208,2.487-5.28,5.666c-0.071,3.18-3.739,5.703-8.15,5.604L41.146,159.464z"/>
	<path fill="#FFFFFF" d="M63.689,142.604c-0.653-0.379-1.229-0.916-1.488-1.391c-0.538-0.979-0.564-2.225-0.372-3.299
		c0.357-2.009,1.684-4.011,3.461-5.025c1.221-0.696,3.171-1.333,4.583-1.315c0.002,0,1.451-0.518,6.75-0.398
		c5.044,0.113,8.74,1.274,11.087,3.484c2.346,2.21,3.469,5.534,3.368,9.971l-0.178,7.93c-0.1,4.41-3.511,7.944-7.58,7.854
		c-1.961-0.046-3.961-0.094-5.862-0.615c-1.913-0.523-2.913-0.711-4.812,0.093c-2.959,1.247-7.122,0.481-9.401-1.836
		c-1.435-1.462-2.129-3.278-2.08-5.45c0.054-2.475,1.012-4.47,2.865-5.984c1.855-1.517,4.251-2.241,7.189-2.173
		c1.726,0.037,3.404,0.3,5.039,0.782c0.029-1.34-0.461-2.398-1.475-3.172c-1.012-0.773-2.437-1.18-4.273-1.223
		c-1.768-0.037-3.23,1.902-4.913,2.248C65.033,143.2,64.325,142.975,63.689,142.604z M75.528,153.568
		c0.811-1.423,0.539-3.731-1.06-4.207c-3.088-0.92-5.155,3.364-2.194,4.94C73.841,155.136,74.955,154.571,75.528,153.568z"/>
	<path fill="#FFFFFF" d="M92.72,157.735c-0.055-0.315-0.012-0.71,0.143-1.222c0.348-1.152,1.143-2.303,2.087-3.044
		c0.539-0.427,2.556-1.588,3.283-1.174c0,0,0,0,1.42,0.808c1.419,0.807,2.823,1.224,4.211,1.255
		c0.862,0.021,1.558-0.155,2.084-0.526c0.528-0.37,0.799-0.858,0.812-1.466c0.013-0.592-0.195-1.111-0.625-1.562
		c-0.429-0.448-1.578-0.966-3.45-1.551c-1.888-0.586-3.431-1.216-4.63-1.889c-1.199-0.675-2.188-1.651-2.966-2.931
		c-0.776-1.277-1.149-2.661-1.115-4.146c0.065-2.873,1.348-5.076,3.85-6.609c2.502-1.534,5.98-2.25,10.436-2.149
		c2.687,0.062,5.369,0.393,8.022,0.814c1.396,0.224,3.684,0.329,4.179,2.003c0.525,1.783-1.615,3.184-2.918,3.929
		c-1.82,1.041-3.565,0.289-5.474,0.058c-1.315-0.16-3.813-0.299-3.856,1.581c-0.013,0.59,0.203,1.108,0.649,1.548
		c0.446,0.442,1.645,0.932,3.597,1.469c1.984,0.541,3.618,1.146,4.907,1.814c1.288,0.666,2.303,1.648,3.048,2.944
		c0.746,1.293,1.099,2.765,1.061,4.407c-0.065,2.97-1.32,5.285-3.761,6.945c-2.442,1.663-5.57,2.453-9.385,2.366
		c-2.83-0.063-5.828-0.294-8.625-0.737c-1.787-0.282-3.467-0.968-5.171-1.549C93.506,158.771,92.849,158.468,92.72,157.735z"/>
	<path fill="#FFFFFF" d="M131.919,124.947c4.076,0.092,7.354,2.747,7.283,5.903c-0.027,1.215,0.394,2.46,1.655,2.829
		c1.681,0.497,3.884-1.2,5.758-1.144c3.061,0.089,6.796,0.992,8.969,3.295c1.852,1.958,2.735,4.645,2.661,8.062l-0.23,10.18
		c-0.099,4.41-3.329,7.949-7.174,7.862c-3.846-0.087-6.911-3.767-6.812-8.178l0.014-0.628c0.046-2.056,0.048-4.111-0.025-6.164
		c-0.05-1.479,0.402-3.484-0.267-4.837c-0.972-1.965-3.828-0.866-4.607,0.565c-0.99,1.827-0.304,4.338-0.341,6.315
		c-0.03,1.543-0.079,3.084-0.113,4.627c-0.101,4.411-3.518,7.946-7.593,7.854c-4.076-0.092-7.33-3.777-7.232-8.188l0.462-20.504
		C124.426,128.389,127.843,124.855,131.919,124.947z"/>
	<path fill="#FFFFFF" d="M168.792,130.916c-1.47-0.033-2.725-0.593-3.761-1.679c-1.038-1.084-1.54-2.363-1.506-3.831
		c0.032-1.47,0.593-2.711,1.677-3.729c1.084-1.016,2.361-1.508,3.831-1.474c1.469,0.03,2.711,0.581,3.729,1.645
		c1.017,1.065,1.509,2.331,1.477,3.8c-0.033,1.47-0.583,2.723-1.647,3.76C171.527,130.445,170.259,130.948,168.792,130.916z"/>
	<path fill="#FFFFFF" d="M193.23,163.322c-4.567-0.103-8.3-1.563-11.199-4.385c-2.9-2.821-4.299-6.443-4.2-10.866
		c0.102-4.42,1.641-7.988,4.628-10.701c2.982-2.711,6.797-4.014,11.441-3.91c4.68,0.105,8.451,1.578,11.318,4.422
		c2.865,2.845,4.252,6.479,4.151,10.9c-0.1,4.407-1.644,7.956-4.636,10.653C201.743,162.134,197.907,163.428,193.23,163.322z
		 M193.646,144.834c-0.956-0.021-1.743,0.269-2.355,0.87c-0.613,0.601-0.931,1.389-0.953,2.36c-0.022,0.974,0.26,1.771,0.845,2.394
		c0.587,0.619,1.357,0.941,2.314,0.962c0.975,0.021,1.771-0.262,2.393-0.854c0.62-0.596,0.941-1.38,0.963-2.353
		c0.021-0.988-0.263-1.794-0.855-2.414C195.401,145.178,194.617,144.858,193.646,144.834z"/>
	<path fill="#FFFFFF" d="M219.496,134.635c2.023,0.044,4.473-0.116,6.247,1.042c0.963,0.627,1.012,1.346,2.214,1.188
		c0.844-0.112,1.684-0.708,2.45-1.063c3.894-1.813,10.086-1.358,13.111,1.951c1.754,1.917,2.587,4.718,2.506,8.405l-0.223,9.895
		c-0.1,4.41-3.327,7.946-7.173,7.861c-3.846-0.086-6.912-3.768-6.813-8.178c0,0,0.019-0.771,0.019-0.771
		c0.064-2.851,0.101-5.673-0.199-8.515c-0.176-1.69-0.526-3.852-2.87-3.277c-1.877,0.464-2.04,2.721-2.134,4.303
		c-0.157,2.705-0.143,5.426-0.203,8.137c-0.098,4.412-3.511,7.947-7.578,7.857c-4.071-0.095-7.32-3.778-7.223-8.187l0.291-12.794
		C212.017,138.079,215.428,134.543,219.496,134.635z"/>
	<path fill="#FFFFFF" d="M166.983,162.299c-3.157-0.072-5.686-2.539-5.62-5.486l0.405-18.023c0.068-2.946,2.703-5.297,5.861-5.227
		l2.14,0.048c3.158,0.071,5.686,2.54,5.62,5.486l-0.406,18.024c-0.064,2.947-2.702,5.299-5.861,5.227L166.983,162.299z"/>
</g>
</svg>
