<?xml version="1.0" encoding="utf-8"?>
<!-- Generator: Adobe Illustrator 16.0.0, SVG Export Plug-In . SVG Version: 6.00 Build 0)  -->
<!DOCTYPE svg PUBLIC "-//W3C//DTD SVG 1.1//EN" "http://www.w3.org/Graphics/SVG/1.1/DTD/svg11.dtd">
<svg version="1.1" id="Layer_1" xmlns="http://www.w3.org/2000/svg" xmlns:xlink="http://www.w3.org/1999/xlink" x="0px" y="0px"
	 width="293.914px" height="285px" viewBox="0 0 293.914 285" enable-background="new 0 0 293.914 285" xml:space="preserve">
<g>
	<path fill="#FFFFFF" d="M64.544,175.489c-5.485,0.406-10.304-3.75-10.709-9.234l-2.48-33.559
		c-0.405-5.485,3.751-10.305,9.236-10.71l24.056-1.778c5.485-0.405,8.71,2.198,8.983,5.892c0.273,3.692-2.459,8.398-7.944,8.804
		l-0.39,0.029c-5.485,0.405-9.858,1.656-9.661,4.327c0.197,2.67,1.328,5.34,7.897,4.298c4.106-0.651,7.761,2.464,8.034,6.156
		c0.273,3.693-2.888,7.113-7.042,7.271c-7.395,0.281-7.256,4.369-6.912,9.025s-3.862,8.799-9.347,9.205L64.544,175.489z"/>
	<path fill="#FFFFFF" d="M119.501,172.062c-6.685,0.494-12.345-1.113-16.978-4.826c-4.634-3.711-7.19-8.805-7.669-15.279
		s1.271-11.903,5.247-16.286s9.366-6.826,16.168-7.329c6.849-0.507,12.567,1.116,17.157,4.865c4.59,3.75,7.124,8.862,7.603,15.337
		c0.477,6.452-1.28,11.856-5.27,16.218C131.769,169.122,126.35,171.556,119.501,172.062z M117.5,144.995
		c-1.402,0.104-2.508,0.638-3.318,1.602c-0.81,0.966-1.162,2.16-1.057,3.586s0.629,2.551,1.571,3.375
		c0.942,0.822,2.114,1.184,3.517,1.08c1.426-0.105,2.55-0.637,3.373-1.59c0.822-0.953,1.181-2.145,1.075-3.57
		c-0.107-1.449-0.638-2.584-1.591-3.407C120.116,145.248,118.926,144.89,117.5,144.995z"/>
	<path fill="#FFFFFF" d="M167.556,168.509c-6.686,0.494-12.345-1.113-16.979-4.824c-4.634-3.713-7.19-8.805-7.669-15.28
		c-0.479-6.475,1.271-11.903,5.248-16.287c3.977-4.383,9.365-6.826,16.167-7.329c6.849-0.506,12.567,1.116,17.157,4.866
		s7.124,8.862,7.603,15.337c0.478,6.451-1.28,11.857-5.271,16.219C179.823,165.569,174.405,168.003,167.556,168.509z
		 M165.555,141.442c-1.402,0.104-2.509,0.639-3.318,1.603c-0.811,0.965-1.163,2.16-1.058,3.586s0.63,2.55,1.571,3.374
		c0.942,0.824,2.115,1.184,3.518,1.08c1.425-0.105,2.549-0.635,3.372-1.588c0.822-0.956,1.181-2.146,1.076-3.571
		c-0.107-1.449-0.639-2.585-1.592-3.407C168.17,141.696,166.98,141.337,165.555,141.442z"/>
	<path fill="#FFFFFF" d="M229.369,109.511c5.484-0.405,10.305,3.75,10.71,9.235l2.48,33.558c0.405,5.486-3.751,10.305-9.235,10.711
		l-5.824,0.43c-5.484,0.404-14.461,0.42-19.947,0.031c0,0-4.165-0.293-8.812-4.039c-4.648-3.746-7.201-8.703-7.657-14.875
		c-0.443-6.007,1.166-11.173,4.83-15.498s8.452-6.706,14.366-7.143c3.272-0.242,6.032,0.059,8.28,0.903l-0.183-2.475
		c-0.406-5.485,3.75-10.305,9.235-10.71L229.369,109.511z M218.493,148.409c0.114-0.045,0.221-0.105,0.334-0.152
		c5.136-2.132,2.462-9.219-2.028-9.157c-4.115,0.057-5.09,3.842-4.33,6.454C213.152,147.905,216.246,149.302,218.493,148.409z"/>
</g>
</svg>
