<?xml version="1.0" encoding="utf-8"?>
<!-- Generator: Adobe Illustrator 16.0.0, SVG Export Plug-In . SVG Version: 6.00 Build 0)  -->
<!DOCTYPE svg PUBLIC "-//W3C//DTD SVG 1.1//EN" "http://www.w3.org/Graphics/SVG/1.1/DTD/svg11.dtd">
<svg version="1.1" id="Layer_1" xmlns="http://www.w3.org/2000/svg" xmlns:xlink="http://www.w3.org/1999/xlink" x="0px" y="0px"
	 width="293.914px" height="285px" viewBox="0 0 293.914 285" enable-background="new 0 0 293.914 285" xml:space="preserve">
<g>
	<g>
		<path fill="#FFFFFF" d="M43.792,130.095c1.539,4.195-2.749,10.333-8.21,10.333c-0.001,0-0.049,0-2.247,0
			c-3.22,0-4.829,0.877-4.829,2.629c0,0.84,0.449,1.493,1.348,1.965c0.897,0.474,2.176,0.707,3.838,0.707
			c2.802,0,5.456-0.979,7.544,1.52c1.883,2.253,3.1,6.426,2.304,9.287c-1.257,4.507-7.814,4.516-11.507,4.516
			c-5.826,0-10.464-1.681-13.916-5.043c-3.452-3.361-5.178-7.5-5.178-12.412c0-5.197,1.797-9.481,5.391-12.858
			c3.594-3.377,8.162-5.065,13.703-5.065c2.396,0,4.871,0.326,7.424,0.976C41.856,127.258,43.223,128.543,43.792,130.095z"/>
		<path fill="#FFFFFF" d="M250.836,136.801c1.232,3.361-2.203,8.279-6.578,8.279c-0.002,0-0.04,0-1.802,0
			c-2.58,0-3.869,0.704-3.869,2.109c0,0.672,0.358,1.193,1.08,1.574c0.72,0.379,1.745,0.564,3.076,0.564
			c2.243,0,4.37-0.784,6.044,1.219c1.509,1.805,2.484,5.146,1.846,7.439c-1.005,3.613-6.26,3.619-9.221,3.619
			c-4.668,0-8.385-1.346-11.153-4.039c-2.764-2.694-4.147-6.012-4.147-9.948c0-4.164,1.439-7.598,4.32-10.305
			c2.881-2.705,6.539-4.059,10.98-4.059c1.92,0,3.902,0.261,5.951,0.782C249.285,134.528,250.38,135.558,250.836,136.801z"/>
		<path fill="#FFFFFF" d="M60.688,160.893c-4.284,0-7.814-1.291-10.592-3.877c-2.777-2.582-4.167-5.947-4.167-10.097
			c0-4.147,1.371-7.523,4.111-10.129c2.741-2.606,6.29-3.91,10.647-3.91c4.387,0,7.956,1.304,10.703,3.91
			c2.749,2.606,4.123,5.982,4.123,10.129c0,4.134-1.374,7.496-4.123,10.087C68.643,159.598,65.075,160.893,60.688,160.893z
			 M60.688,143.551c-0.898,0-1.628,0.289-2.191,0.865c-0.561,0.576-0.842,1.32-0.842,2.232c0,0.914,0.281,1.656,0.842,2.225
			c0.562,0.57,1.292,0.854,2.191,0.854c0.914,0,1.654-0.283,2.224-0.854c0.569-0.568,0.854-1.311,0.854-2.225
			c0-0.928-0.284-1.674-0.854-2.244C62.341,143.836,61.601,143.551,60.688,143.551z"/>
		<path fill="#FFFFFF" d="M75.663,157.716c-0.179-2.257,0.91-3.972,3.146-4.469c2.555-0.567,4.518,1.13,6.961,1.13
			c0.809,0,1.457-0.18,1.942-0.538c0.487-0.36,0.73-0.823,0.73-1.393c0-0.554-0.206-1.036-0.617-1.45
			c-0.412-0.411-1.501-0.871-3.269-1.381c-1.782-0.508-3.243-1.066-4.38-1.674c-1.138-0.606-2.085-1.502-2.842-2.685
			c-0.756-1.182-1.134-2.472-1.134-3.863c0-2.695,1.157-4.79,3.47-6.279c2.314-1.49,5.56-2.236,9.737-2.236
			c3.115,0,6.942-0.001,9.817,1.345c1.661,0.776,1.898,2.419,0.668,3.714c-1.461,1.54-4.134,1.21-6.045,1.21c0,0-0.005,0-2.036,0
			c-0.674,0-1.221,0.148-1.64,0.449c-0.42,0.299-0.629,0.681-0.629,1.145c0,0.554,0.213,1.032,0.64,1.438
			c0.428,0.402,1.562,0.837,3.404,1.3c1.871,0.467,3.417,0.996,4.638,1.597c1.221,0.598,2.194,1.496,2.92,2.696
			c0.727,1.197,1.089,2.566,1.089,4.109c0,2.785-1.126,4.983-3.381,6.592c-2.254,1.611-5.168,2.416-8.747,2.416
			c-3.364,0-6.717,0.375-10.048-0.317c-1.461-0.306-3.735-0.722-4.294-2.351C75.711,158.064,75.677,157.896,75.663,157.716z"/>
		<path fill="#FFFFFF" d="M110.402,133.442c2.235-0.003,4.604,0.141,6.613,1.176c0.969,0.501,0.248,0.905,1.716,0.732
			c1.861-0.218,3.367-1.836,5.319-2.141c2.48-0.388,4.796,0.171,6.929,1.429c0.455,0.269,4.139,2.517,3.437,3.252
			c1.542-1.617,3.088-2.8,4.638-3.55c1.55-0.748,3.299-1.123,5.246-1.123c2.935,0,5.248,0.898,6.941,2.696
			c1.692,1.797,2.538,4.328,2.538,7.591v7.883c0,5.006-2.952,9.1-6.559,9.1c-3.609,0-6.561-3.635-6.561-8.074
			c0-4.442-0.106-8.844-0.235-9.779c0,0,0,0-0.473-0.532c-0.471-0.531-1.089-0.796-1.852-0.796c-0.855,0-1.7,0.291-2.539,0.876
			v9.208c0,5.006-2.952,9.1-6.559,9.1c-3.608,0-6.56-3.635-6.56-8.074c0-4.441-0.102-8.833-0.229-9.761c0,0,0,0-0.457-0.538
			c-0.457-0.54-1.082-0.809-1.875-0.809c-0.823,0-1.669,0.307-2.538,0.919v9.164c0,5.006-3.123,9.1-6.942,9.1
			c-3.817,0-6.94-4.094-6.94-9.1v-8.849C103.461,137.541,106.58,133.448,110.402,133.442z"/>
		<path fill="#FFFFFF" d="M182.32,152.616c0.74,0.497,0.299,1.895-0.777,3.524c-0.842,1.275-2.029,2.418-3.307,3.254
			c-2.127,1.392-4.684,1.498-7.147,1.498c-4.702,0-8.483-1.307-11.342-3.92c-2.86-2.615-4.292-6.055-4.292-10.324
			c0-4.058,1.314-7.366,3.943-9.926c2.627-2.562,6.039-3.843,10.231-3.843c2.14,0,4.125,0.359,5.952,1.079
			c1.829,0.719,3.408,1.776,4.74,3.167c1.332,1.394,2.314,3.011,2.943,4.851c1.016,2.976,2.062,7.588-2.75,6.696
			c-2.645-0.488-9.543-1.749-9.262,2.748c0.107,1.696,1.85,2.188,3.239,2.184c1.733-0.006,3.966-0.451,5.631-0.94
			C181.23,152.34,181.936,152.354,182.32,152.616z M169.693,143.595c0.209,0.286,0.533,0.526,1.002,0.688
			c2.748,0.948,6.605-4.596,1.674-4.594C170.501,139.689,168.684,142.198,169.693,143.595z"/>
		<path fill="#FFFFFF" d="M205.044,133.442c1.593,0,2.896,1.708,2.896,3.796c0,2.088-1.311,3.657-2.896,3.797
			c-4.071,0.358-3.894,2.204-3.894,3.8c0,4.276,0.088,6.01,6.593,3.647c1.967,0.223,0.987,4.647,0.514,6.73
			c-0.44,1.936-3.218,4.773-5.233,5.271c-4.16,1.033-8.492,1.186-11.502-1.439c-2.283-1.99-2.765-5.781-2.765-9.271
			c0-4.656,1.248-7.579-3.21-7.935c-2.072-0.167-0.549-3.868,3.389-6.954l5.349-3.833c3.938-3.086,7.86-3.6,7.86-1.474
			C202.146,131.704,203.45,133.442,205.044,133.442z"/>
		<path fill="#FFFFFF" d="M253.676,157.301c-0.027-0.037-0.055-0.072-0.08-0.111c-0.644-0.918-0.535-2.086,0.088-2.998
			c0.53-0.772,1.744-1.517,2.682-1.647c1.134-0.159,2.066,0.606,3.035,1.054c1.057,0.484,2.205,0.78,3.369,0.78
			c0.81,0,1.457-0.18,1.943-0.538c0.487-0.359,0.729-0.824,0.729-1.393c0-0.555-0.205-1.036-0.615-1.45
			c-0.414-0.411-1.502-0.871-3.271-1.381c-1.779-0.509-3.24-1.066-4.38-1.675c-1.136-0.605-2.085-1.5-2.842-2.684
			c-0.756-1.182-1.134-2.472-1.134-3.863c0-2.695,1.158-4.79,3.471-6.279c2.314-1.49,5.561-2.236,9.736-2.236
			c2.041,0,4.068,0.128,6.09,0.366c1.559,0.184,4.684,0.303,5.431,2.025c0.704,1.625-1.766,3.234-2.942,3.869
			c-1.473,0.793-3.022,0.243-4.553-0.004c-1.225-0.198-3.889-0.257-3.889,1.608c0,0.554,0.213,1.032,0.641,1.438
			c0.428,0.402,1.561,0.837,3.403,1.3c1.873,0.467,3.419,0.996,4.64,1.597c1.221,0.598,2.193,1.496,2.92,2.696
			c0.727,1.197,1.09,2.566,1.09,4.109c0,2.785-1.129,4.983-3.381,6.592c-2.256,1.611-5.17,2.416-8.75,2.416
			c-2.621,0-5.25-0.201-7.826-0.688C257.441,159.855,254.855,158.87,253.676,157.301z"/>
	</g>
	<path fill="#FFFFFF" d="M218.059,130.752c-1.397-0.03-2.593-0.563-3.58-1.598c-0.987-1.034-1.467-2.25-1.436-3.648
		c0.031-1.4,0.564-2.584,1.598-3.551c1.033-0.97,2.25-1.438,3.649-1.406c1.399,0.031,2.583,0.555,3.552,1.567
		c0.967,1.014,1.438,2.22,1.406,3.62c-0.034,1.398-0.557,2.592-1.568,3.581C220.667,130.306,219.458,130.784,218.059,130.752z"/>
	<path fill="#FFFFFF" d="M216.336,161.716c-3.007-0.067-5.412-2.545-5.348-5.504l0.41-18.093c0.066-2.957,2.58-5.321,5.588-5.254
		l2.039,0.047c3.007,0.068,5.412,2.544,5.347,5.5l-0.41,18.095c-0.063,2.959-2.581,5.321-5.587,5.253L216.336,161.716z"/>
</g>
<g>
	<g>
		<path fill="#2C2C2E" d="M290.812,146.782L15.1,194.062c5.798,15.27,14.143,29.28,24.518,41.52l241.983-41.496
			C287.208,179.332,290.438,163.41,290.812,146.782z"/>
	</g>
	<g enable-background="new    ">
		<path fill="#292929" d="M80.815,217.511c-1.157,0.202-2.211,0.168-3.16-0.104c-0.949-0.272-1.782-0.712-2.499-1.323
			c-0.716-0.607-1.308-1.354-1.774-2.24c-0.467-0.883-0.788-1.832-0.966-2.846c-0.127-0.725-0.153-1.617-0.08-2.674
			c0.074-1.057,0.192-1.99,0.355-2.797c0.163-0.811,0.4-1.594,0.714-2.359c0.313-0.764,0.71-1.455,1.191-2.073
			c0.481-0.62,1.047-1.146,1.697-1.573c0.65-0.431,1.396-0.719,2.238-0.867c0.759-0.133,1.479-0.146,2.163-0.041
			c0.685,0.107,1.289,0.312,1.815,0.621c0.527,0.307,0.967,0.703,1.32,1.188c0.353,0.487,0.582,1.036,0.689,1.648
			c0.075,0.426,0.087,0.854,0.037,1.289s-0.201,0.96-0.455,1.577c-0.255,0.619-0.53,1.057-0.826,1.316
			c-0.297,0.256-0.654,0.423-1.074,0.496c-0.632,0.111-1.068,0.026-1.308-0.254c-0.388-0.434-0.56-0.85-0.513-1.244
			c0.001-0.206,0.032-0.688,0.093-1.447c0.007-0.104-0.026-0.33-0.1-0.678c-0.053-0.301-0.128-0.545-0.226-0.734
			s-0.251-0.266-0.463-0.229c-0.511,0.09-0.925,0.289-1.243,0.595c-0.318,0.308-0.57,0.681-0.757,1.119
			c-0.186,0.438-0.341,1.04-0.464,1.802c-0.123,0.764-0.194,1.397-0.215,1.903s-0.005,0.983,0.048,1.433
			c0.054,0.447,0.106,0.822,0.159,1.122c0.078,0.45,0.201,0.911,0.368,1.386c0.166,0.473,0.406,0.891,0.72,1.256
			c0.314,0.363,0.688,0.646,1.12,0.848c0.434,0.201,0.955,0.248,1.565,0.141c0.601-0.104,1.23-0.405,1.892-0.9
			c0.66-0.497,1.307-1.09,1.939-1.781s1.223-1.432,1.767-2.223s1.002-1.529,1.372-2.213l1.675,1.948
			c-0.703,1.503-1.507,2.875-2.41,4.116c-0.384,0.531-0.812,1.057-1.28,1.578c-0.47,0.52-0.973,0.997-1.508,1.434
			c-0.536,0.436-1.108,0.812-1.717,1.132C82.111,217.178,81.476,217.395,80.815,217.511z"/>
		<path fill="#292929" d="M98.099,199.576c0.49,0.662,0.896,1.38,1.219,2.154c0.322,0.775,0.572,1.668,0.75,2.682
			c0.13,0.738,0.179,1.496,0.147,2.275c-0.031,0.777-0.139,1.545-0.322,2.299s-0.443,1.477-0.78,2.166
			c-0.337,0.691-0.75,1.312-1.239,1.861c-0.491,0.551-1.05,1.016-1.68,1.396c-0.629,0.382-1.325,0.64-2.088,0.772
			c-1.101,0.193-2.084,0.117-2.95-0.229c-0.865-0.343-1.616-0.859-2.252-1.547s-1.155-1.499-1.558-2.434s-0.691-1.902-0.866-2.903
			c-0.29-1.651-0.332-3.108-0.129-4.376c0.203-1.266,0.612-2.408,1.227-3.424c0.615-1.018,1.435-1.876,2.458-2.577
			c1.024-0.702,2.23-1.174,3.619-1.417c1.188-0.208,2.333-0.219,3.436-0.032c1.103,0.188,2.161,0.511,3.176,0.972
			c1.016,0.46,1.996,1.092,2.942,1.891c0.945,0.802,1.83,1.568,2.655,2.3l0.106,2.707c-0.416-0.392-0.958-0.798-1.625-1.222
			c-0.668-0.425-1.38-0.9-2.136-1.425s-1.484-0.954-2.188-1.29c-0.703-0.334-1.306-0.611-1.809-0.832L98.099,199.576z
			 M94.207,211.452c0.425-0.075,0.8-0.362,1.125-0.864c0.324-0.501,0.579-1.107,0.765-1.814c0.185-0.711,0.286-1.547,0.304-2.51
			c0.019-0.963-0.036-1.808-0.163-2.534c-0.101-0.574-0.238-1.101-0.412-1.581c-0.174-0.478-0.381-0.883-0.619-1.215
			s-0.514-0.579-0.827-0.744c-0.312-0.164-0.662-0.213-1.05-0.145c-0.513,0.09-0.962,0.395-1.348,0.914
			c-0.386,0.518-0.694,1.147-0.925,1.891c-0.231,0.742-0.374,1.544-0.43,2.404s0.008,1.811,0.189,2.849
			c0.093,0.524,0.229,1.011,0.409,1.455c0.182,0.445,0.408,0.821,0.682,1.128s0.603,0.533,0.988,0.678
			C93.282,211.508,93.718,211.537,94.207,211.452z"/>
		<path fill="#292929" d="M112.492,208.45c-0.028-0.163-0.057-0.397-0.084-0.702c-0.028-0.307-0.052-0.659-0.069-1.057
			c-0.019-0.398-0.034-0.82-0.048-1.264c-0.013-0.443-0.026-0.885-0.038-1.322c-0.039-1.029-0.059-2.139-0.062-3.33l-0.281,0.049
			c-0.117,0.215-0.239,0.529-0.367,0.941s-0.303,1.012-0.524,1.803c-0.223,0.791-0.504,1.817-0.844,3.076
			c-0.341,1.259-0.794,2.809-1.361,4.646c-0.162,0.541-0.395,0.93-0.694,1.162c-0.301,0.235-0.651,0.387-1.052,0.457
			c-0.512,0.09-0.943,0.057-1.294-0.102c-0.35-0.158-0.64-0.4-0.871-0.729c-0.232-0.327-0.416-0.716-0.552-1.161
			c-0.137-0.444-0.247-0.909-0.332-1.396c-0.09-0.516-0.166-1.132-0.227-1.848c-0.062-0.716-0.11-1.474-0.146-2.271
			c-0.037-0.799-0.047-1.715-0.028-2.75c0.019-1.033,0.034-1.938,0.049-2.707c0.013-0.77,0.04-1.477,0.082-2.121
			s0.091-1.174,0.147-1.588c0.054-0.426,0.116-0.768,0.187-1.027c0.071-0.26,0.166-0.469,0.286-0.625
			c0.121-0.158,0.277-0.277,0.47-0.357c0.192-0.078,0.445-0.146,0.758-0.201c0.476-0.082,0.85-0.133,1.124-0.146
			c0.274-0.016,0.488,0.025,0.641,0.121c0.152,0.097,0.261,0.257,0.325,0.48c0.065,0.223,0.132,0.53,0.2,0.921
			c0.038,0.214,0.071,0.462,0.102,0.743s0.054,0.582,0.071,0.904c0.03,0.32,0.05,0.648,0.057,0.984
			c0.023,0.647,0.03,0.984,0.022,1.012c-0.024,0.889-0.038,1.881-0.039,2.974l0.245,0.19c0.019-0.043,0.126-0.406,0.322-1.09
			c0.195-0.686,0.417-1.368,0.665-2.049c0.248-0.682,0.52-1.395,0.813-2.143c0.295-0.748,0.584-1.414,0.868-1.996
			c0.272-0.582,0.582-1.078,0.928-1.49c0.347-0.412,0.802-0.668,1.365-0.766c0.524-0.093,1.002-0.016,1.432,0.227
			c0.429,0.244,0.693,0.649,0.793,1.218c0.086,0.492,0.137,0.964,0.151,1.417c0.024,0.582,0.025,1.023,0.001,1.328
			c-0.03,0.343-0.06,0.764-0.088,1.264c-0.015,0.432-0.066,1.059-0.154,1.881c-0.015,0.133-0.021,0.322-0.017,0.568
			c0.001,0.078,0.004,0.129,0.009,0.155l0.246,0.19c0.018-0.043,0.135-0.404,0.351-1.086s0.46-1.365,0.732-2.051
			c0.273-0.685,0.566-1.406,0.878-2.164c0.312-0.756,0.61-1.427,0.895-2.01c0.274-0.568,0.562-1.059,0.864-1.469
			s0.716-0.662,1.241-0.754c0.588-0.104,1.111-0.035,1.571,0.202c0.461,0.238,0.741,0.642,0.841,1.21
			c0.152,0.871,0.254,1.705,0.304,2.502c0.049,0.799,0.069,1.686,0.061,2.664c-0.01,0.977,0.01,1.861,0.059,2.652
			s0.149,1.623,0.302,2.494c0.119,0.681,0.305,1.221,0.555,1.62c0.25,0.397,0.5,0.575,0.75,0.532
			c0.263-0.047,0.527-0.151,0.796-0.316c0.268-0.164,0.536-0.36,0.806-0.59c0.269-0.229,0.526-0.484,0.773-0.769
			c0.246-0.284,0.479-0.575,0.697-0.874c0.512-0.688,1.003-1.451,1.475-2.287l1.098,4.39c-0.476,0.522-0.945,1.058-1.409,1.608
			c-0.465,0.551-0.968,1.064-1.509,1.541c-0.542,0.476-1.154,0.896-1.839,1.26c-0.684,0.364-1.481,0.626-2.395,0.785
			c-0.45,0.08-0.854,0.002-1.21-0.232c-0.357-0.234-0.674-0.592-0.952-1.074c-0.278-0.481-0.52-1.064-0.723-1.748
			s-0.377-1.438-0.521-2.258c-0.14-0.795-0.259-1.643-0.359-2.541c-0.099-0.9-0.179-1.812-0.237-2.74l-0.281,0.049l-2.12,10.303
			c-0.233,0.58-0.534,0.994-0.903,1.244c-0.368,0.25-0.815,0.422-1.341,0.514c-0.4,0.07-0.737,0.02-1.013-0.15
			c-0.274-0.172-0.506-0.412-0.696-0.723c-0.189-0.311-0.342-0.664-0.456-1.055C112.647,209.213,112.558,208.827,112.492,208.45z"/>
		<path fill="#292929" d="M140.243,202.979c-0.378,0.492-0.86,1.031-1.446,1.617c-0.588,0.586-1.233,1.144-1.94,1.674
			c-0.706,0.529-1.439,0.997-2.2,1.4c-0.761,0.404-1.503,0.67-2.229,0.797c-0.65,0.113-1.214,0.119-1.688,0.016
			c-0.477-0.104-0.88-0.293-1.212-0.57s-0.6-0.641-0.8-1.089c-0.201-0.446-0.351-0.952-0.449-1.516
			c-0.138-0.787-0.212-1.722-0.221-2.803c-0.021-2.237-0.002-3.497,0.054-3.782c0.076-0.566,0.21-1.809,0.4-3.73
			c0.213-1.576,0.336-2.601,0.368-3.069c0.006-0.328,0.128-0.643,0.366-0.944c0.219-0.273,0.478-0.512,0.777-0.713
			c0.3-0.202,0.619-0.369,0.957-0.5c0.339-0.131,0.649-0.223,0.931-0.271c0.517-0.09,0.884-0.055,1.102,0.107
			c0.219,0.162,0.356,0.405,0.413,0.729c0.048,0.275,0.052,0.675,0.012,1.2s-0.087,1.123-0.138,1.795
			c-0.053,0.671-0.15,1.539-0.296,2.605s-0.214,1.967-0.207,2.7c0.006,0.733-0.019,1.466-0.075,2.202
			c-0.058,0.734-0.035,1.389,0.066,1.965c0.099,0.562,0.239,0.998,0.422,1.307c0.184,0.311,0.469,0.43,0.856,0.361
			c0.45-0.078,0.923-0.322,1.418-0.732c0.496-0.408,0.986-0.884,1.471-1.426c0.485-0.543,0.954-1.098,1.409-1.668
			c0.455-0.568,0.858-1.06,1.212-1.47L140.243,202.979z M128.41,184.764c-0.052-0.289-0.046-0.629,0.015-1.018
			c0.061-0.387,0.204-0.768,0.429-1.137c0.226-0.372,0.553-0.709,0.982-1.014c0.431-0.303,0.996-0.516,1.696-0.639
			c0.438-0.076,0.859-0.098,1.264-0.064c0.406,0.032,0.771,0.129,1.095,0.286c0.324,0.159,0.601,0.392,0.829,0.704
			c0.229,0.311,0.384,0.699,0.466,1.166c0.075,0.43,0.079,0.858,0.013,1.287c-0.067,0.428-0.223,0.826-0.468,1.193
			c-0.245,0.369-0.578,0.691-1,0.967c-0.423,0.275-0.953,0.468-1.591,0.58c-1.101,0.192-1.959,0.073-2.575-0.358
			C128.947,186.287,128.562,185.635,128.41,184.764z"/>
		<path fill="#292929" d="M138.943,203.283c-0.145-0.824-0.262-1.787-0.352-2.885c-0.089-1.102-0.172-2.311-0.249-3.631
			c-0.076-1.32-0.112-2.517-0.106-3.586c0.006-1.071,0.031-1.99,0.077-2.76c0.037-0.6,0.218-1.127,0.545-1.584
			c0.325-0.455,0.826-0.744,1.501-0.862c0.676-0.118,1.181,0.005,1.516,0.372s0.562,0.895,0.684,1.582
			c0.032,0.187,0.059,0.445,0.076,0.77c0.019,0.326,0.033,0.684,0.043,1.074c0.012,0.393,0.021,0.796,0.029,1.215
			c0.009,0.416,0.03,0.889,0.065,1.418c0.034,0.529,0.055,0.924,0.063,1.188c0.007,0.264,0.018,0.438,0.033,0.525l0.376-0.064
			c0.05-0.151,0.131-0.395,0.239-0.729c0.109-0.336,0.22-0.809,0.331-1.422c0.111-0.611,0.251-1.162,0.417-1.648
			s0.319-0.952,0.461-1.395c0.142-0.445,0.272-0.838,0.393-1.182c0.12-0.343,0.211-0.598,0.272-0.764
			c0.281-0.744,0.656-1.287,1.125-1.627c0.47-0.34,1.017-0.564,1.642-0.674s1.168,0.066,1.629,0.526s0.771,1.153,0.934,2.079
			c0.025,0.137,0.037,0.374,0.039,0.708c0,0.336-0.004,0.736-0.012,1.202c-0.01,0.465-0.006,1.062,0.014,1.794
			s0.033,1.386,0.045,1.965c0.01,0.577,0.037,1.147,0.076,1.708c0.041,0.56,0.102,1.07,0.182,1.533
			c0.137,0.775,0.346,1.396,0.627,1.861c0.281,0.467,0.629,0.664,1.041,0.592c0.15-0.027,0.354-0.119,0.607-0.281
			c0.387-0.223,0.627-0.399,0.719-0.531c0.477-0.521,0.729-0.777,0.756-0.77c0.039,0.006,0.414-0.318,1.125-0.971
			c0.889-0.814,1.945-1.805,3.172-2.973l0.717,4.204l-0.812,0.877c-0.064,0.075-0.596,0.504-1.592,1.284
			c-1.439,1.129-2.344,1.816-2.713,2.061c-0.898,0.609-1.463,0.965-1.689,1.069c-0.59,0.31-1.229,0.525-1.916,0.646
			c-0.688,0.121-1.354-0.275-1.998-1.187c-0.643-0.912-1.131-2.325-1.467-4.238c-0.131-0.75-0.222-1.569-0.275-2.455
			c-0.052-0.886-0.091-1.843-0.116-2.869l-0.3,0.052l-3.205,10.615c-0.171,0.57-0.391,0.971-0.66,1.198
			c-0.28,0.241-0.627,0.399-1.039,0.472c-0.513,0.09-0.944,0.053-1.296-0.111c-0.351-0.164-0.643-0.416-0.876-0.755
			c-0.234-0.339-0.42-0.739-0.558-1.198C139.143,204.264,139.031,203.785,138.943,203.283z"/>
		<path fill="#292929" d="M162.988,220.83c-0.562-0.049-1.098-0.182-1.605-0.395s-0.949-0.559-1.322-1.035s-0.652-1.059-0.838-1.748
			c-0.33-1.295-0.211-2.754,0.355-4.373c0.33-0.909,0.557-1.542,0.682-1.898c0.123-0.357,0.338-0.867,0.641-1.533
			c0.301-0.664,0.623-1.272,0.967-1.822c0.701-1.141,1.285-2.059,1.75-2.754c0.465-0.691,1.031-1.452,1.697-2.279l-0.016-2.295
			c-1.168,1.57-2.414,2.471-3.74,2.703c-0.975,0.171-1.924,0.035-2.846-0.41c-0.922-0.443-1.666-1.066-2.232-1.871
			c-1.025-1.431-1.363-3.254-1.016-5.467c0.309-2.064,0.682-3.79,1.123-5.174c0.439-1.387,1.104-2.641,1.988-3.762
			c1.287-1.631,2.65-2.572,4.088-2.824c0.65-0.115,1.158-0.014,1.521,0.301c0.045,0.03,0.113,0.094,0.207,0.188
			c0.094,0.095,0.158,0.152,0.195,0.172c0.035,0.02,0.098,0.061,0.186,0.123s0.166,0.098,0.23,0.106
			c0.066,0.008,0.152,0.022,0.26,0.042c0.107,0.021,0.223,0.025,0.352,0.018c0.127-0.01,0.273-0.029,0.438-0.059l0.824-0.162
			c0.562-0.1,0.979,0.003,1.252,0.303c0.098,0.127,0.211,0.293,0.338,0.505c0.219,0.362,0.463,1.646,0.732,3.851
			c0.082,0.684,0.07,1.551-0.037,2.6c-0.105,1.051-0.096,2.193,0.031,3.431s0.268,2.853,0.424,4.842
			c0.324-0.275,0.666-0.604,1.025-0.989c1.281-1.367,2.588-3.725,3.922-7.07l1.949,3.952c-0.229,0.756-0.707,1.664-1.436,2.726
			c-0.744,1.051-1.387,1.873-1.928,2.466c-0.098,0.094-0.176,0.165-0.232,0.214c-1.064,0.986-1.834,1.709-2.309,2.164
			c-0.297,0.285-0.457,0.732-0.48,1.342c-0.021,0.609,0.035,1.736,0.168,3.375c0.02,0.477,0.037,0.844,0.051,1.102
			c0.027,0.582,0.055,1.154,0.082,1.717c0.025,0.562,0.01,1.207-0.051,1.932c-0.059,0.727-0.158,1.401-0.293,2.023
			c-0.137,0.622-0.344,1.258-0.623,1.906s-0.621,1.215-1.027,1.697c-0.404,0.482-0.916,0.907-1.535,1.273s-1.322,0.618-2.111,0.756
			C164.152,220.849,163.551,220.879,162.988,220.83z M160.814,199.008c0.391,0.472,0.832,0.666,1.318,0.58
			c0.852-0.149,1.438-0.953,1.762-2.416c0.25-1.151,0.305-2.276,0.162-3.373l0.312-6.494c-1.449,0.255-2.555,1.454-3.312,3.598
			c-0.824,2.285-1.229,3.805-1.213,4.562C159.885,197.095,160.209,198.275,160.814,199.008z M164.07,210.975
			c-0.607,1.531-1.037,3.053-1.287,4.566c-0.205,1.26,0.111,1.816,0.949,1.67c0.301-0.053,0.559-0.137,0.777-0.254
			c0.219-0.115,0.41-0.287,0.576-0.516s0.305-0.469,0.416-0.721c0.109-0.252,0.213-0.604,0.307-1.059
			c0.094-0.455,0.176-0.897,0.242-1.328c0.066-0.432,0.133-1,0.203-1.709c0.049-0.381,0.061-0.795,0.039-1.235
			c-0.023-0.442-0.053-0.988-0.086-1.64c-0.033-0.65-0.055-1.064-0.064-1.24C165.369,208.289,164.678,209.445,164.07,210.975z"/>
		<path fill="#292929" d="M184.461,192.051c0.594-0.728,1.074-1.333,1.441-1.814s0.723-1.029,1.066-1.643
			c0.342-0.613,0.613-1.114,0.809-1.501c0.197-0.386,0.43-0.843,0.697-1.372s0.594-1.176,0.975-1.939
			c0.383-0.764,0.885-1.721,1.508-2.873c0.123-0.256,0.266-0.508,0.428-0.76c0.162-0.25,0.352-0.482,0.564-0.694
			c0.213-0.213,0.459-0.399,0.734-0.559c0.273-0.159,0.594-0.271,0.955-0.333c0.602-0.105,1.076-0.121,1.424-0.045
			c0.35,0.076,0.615,0.195,0.799,0.359c0.184,0.162,0.305,0.346,0.367,0.551c0.061,0.205,0.105,0.383,0.131,0.533
			c0.055,0.305-0.006,0.66-0.18,1.068c-0.174,0.407-0.373,0.808-0.602,1.199c-0.229,0.393-0.445,0.752-0.652,1.082
			c-0.205,0.328-0.316,0.566-0.33,0.713c0.068,0.391,0.16,0.742,0.273,1.056c0.115,0.312,0.246,0.614,0.396,0.907
			s0.307,0.604,0.469,0.934c0.164,0.33,0.332,0.715,0.506,1.153s0.295,1.062,0.367,1.87c0.07,0.809,0.176,1.617,0.318,2.426
			c0.396-0.382,0.832-0.742,1.309-1.08c0.475-0.336,0.971-0.688,1.488-1.051c0.516-0.365,1.043-0.76,1.58-1.186
			c0.537-0.427,1.066-0.92,1.588-1.48l0.762,4.244c-0.674,0.715-1.477,1.414-2.406,2.1s-1.924,1.318-2.98,1.902
			c-1.057,0.582-2.137,1.086-3.242,1.509s-2.17,0.726-3.195,0.905c-0.738,0.129-1.438,0.184-2.098,0.163
			c-0.662-0.019-1.258-0.127-1.789-0.323c-0.529-0.197-0.984-0.497-1.365-0.898c-0.379-0.402-0.656-0.92-0.832-1.555
			c-0.168,0.068-0.336,0.123-0.504,0.166c-0.166,0.041-0.33,0.077-0.492,0.105c-0.201,0.035-0.389,0.061-0.566,0.08
			c-0.178,0.018-0.336-0.002-0.475-0.062c-0.141-0.061-0.264-0.176-0.371-0.348c-0.107-0.169-0.191-0.425-0.25-0.767
			c-0.053-0.303-0.027-0.597,0.076-0.882c0.105-0.285,0.24-0.548,0.404-0.785c0.166-0.236,0.334-0.449,0.508-0.635
			C184.248,192.305,184.377,192.158,184.461,192.051z M187.227,194.068c0.15-0.027,0.332,0.04,0.549,0.197
			c0.213,0.158,0.459,0.33,0.736,0.516c0.277,0.187,0.59,0.346,0.936,0.48s0.719,0.168,1.119,0.099
			c0.488-0.085,0.877-0.239,1.166-0.459c0.291-0.22,0.506-0.482,0.646-0.788c0.139-0.305,0.215-0.643,0.227-1.016
			c0.012-0.375-0.016-0.758-0.084-1.148c-0.061-0.342-0.143-0.686-0.25-1.031c-0.105-0.346-0.176-0.787-0.211-1.321
			c-0.037-0.535-0.119-0.937-0.25-1.208c-0.133-0.268-0.246-0.5-0.344-0.691L187.227,194.068z"/>
		<path fill="#292929" d="M211.395,179.724c0.488,0.662,0.895,1.38,1.217,2.153c0.324,0.776,0.574,1.67,0.752,2.684
			c0.129,0.737,0.178,1.496,0.146,2.273c-0.031,0.779-0.139,1.546-0.322,2.3s-0.443,1.477-0.781,2.167
			c-0.336,0.691-0.75,1.311-1.238,1.861c-0.49,0.549-1.051,1.015-1.68,1.395c-0.629,0.383-1.326,0.639-2.088,0.773
			c-1.102,0.191-2.084,0.117-2.949-0.229c-0.867-0.344-1.617-0.86-2.254-1.548c-0.635-0.687-1.154-1.499-1.557-2.435
			c-0.402-0.934-0.691-1.901-0.867-2.902c-0.289-1.651-0.332-3.108-0.129-4.376c0.203-1.266,0.613-2.407,1.227-3.424
			c0.615-1.017,1.436-1.876,2.459-2.577s2.23-1.174,3.619-1.416c1.188-0.209,2.332-0.219,3.436-0.033
			c1.102,0.188,2.16,0.512,3.176,0.971c1.016,0.461,1.996,1.092,2.941,1.893s1.832,1.566,2.656,2.299l0.105,2.707
			c-0.416-0.391-0.957-0.799-1.625-1.222c-0.666-0.425-1.379-0.899-2.135-1.425s-1.484-0.955-2.188-1.289s-1.307-0.611-1.809-0.833
			L211.395,179.724z M207.5,191.6c0.426-0.074,0.801-0.363,1.125-0.864s0.58-1.106,0.764-1.815c0.186-0.709,0.287-1.545,0.305-2.509
			c0.02-0.964-0.035-1.808-0.162-2.534c-0.102-0.574-0.238-1.101-0.412-1.58c-0.174-0.479-0.381-0.883-0.619-1.215
			s-0.514-0.58-0.826-0.746c-0.312-0.163-0.662-0.211-1.051-0.144c-0.512,0.09-0.963,0.394-1.348,0.913
			c-0.387,0.52-0.695,1.148-0.926,1.892s-0.373,1.544-0.43,2.405c-0.055,0.859,0.008,1.81,0.191,2.848
			c0.092,0.524,0.229,1.011,0.408,1.455c0.182,0.445,0.408,0.821,0.682,1.128s0.602,0.532,0.988,0.677
			C206.576,191.656,207.014,191.686,207.5,191.6z"/>
		<path fill="#292929" d="M227.562,176.891c0.49,0.662,0.896,1.38,1.219,2.154c0.322,0.775,0.572,1.668,0.75,2.682
			c0.129,0.738,0.178,1.496,0.146,2.275c-0.031,0.777-0.139,1.545-0.322,2.299s-0.443,1.477-0.779,2.166
			c-0.338,0.691-0.75,1.312-1.24,1.861c-0.49,0.551-1.049,1.016-1.68,1.396c-0.629,0.382-1.324,0.64-2.088,0.772
			c-1.1,0.193-2.084,0.117-2.949-0.229c-0.865-0.343-1.617-0.859-2.252-1.547c-0.637-0.688-1.156-1.499-1.557-2.434
			c-0.404-0.935-0.693-1.902-0.867-2.904c-0.291-1.65-0.332-3.107-0.129-4.375c0.203-1.266,0.613-2.408,1.227-3.424
			c0.615-1.018,1.434-1.876,2.459-2.577c1.023-0.702,2.229-1.174,3.617-1.417c1.188-0.208,2.334-0.219,3.436-0.032
			c1.104,0.188,2.162,0.511,3.178,0.972c1.014,0.46,1.994,1.092,2.941,1.891c0.945,0.802,1.83,1.568,2.654,2.3l0.107,2.707
			c-0.416-0.392-0.959-0.798-1.625-1.222c-0.668-0.425-1.381-0.9-2.137-1.425s-1.484-0.954-2.188-1.29
			c-0.703-0.334-1.305-0.611-1.809-0.832L227.562,176.891z M223.67,188.767c0.424-0.075,0.799-0.362,1.125-0.864
			c0.324-0.501,0.578-1.107,0.764-1.814c0.186-0.711,0.287-1.547,0.305-2.51c0.018-0.964-0.037-1.808-0.164-2.534
			c-0.1-0.574-0.238-1.101-0.412-1.581c-0.174-0.478-0.381-0.883-0.619-1.215s-0.514-0.579-0.826-0.744
			c-0.312-0.164-0.662-0.213-1.049-0.145c-0.514,0.09-0.963,0.394-1.35,0.913c-0.385,0.519-0.693,1.148-0.924,1.892
			c-0.232,0.742-0.375,1.544-0.43,2.404c-0.057,0.86,0.008,1.811,0.189,2.849c0.092,0.524,0.229,1.011,0.41,1.455
			c0.182,0.445,0.408,0.821,0.68,1.128c0.273,0.307,0.604,0.532,0.99,0.678C222.744,188.822,223.182,188.852,223.67,188.767z"/>
		<path fill="#292929" d="M234.061,186.616c-0.145-0.825-0.262-1.787-0.35-2.886c-0.09-1.1-0.174-2.31-0.25-3.63
			c-0.076-1.321-0.113-2.517-0.107-3.587s0.033-1.99,0.078-2.76c0.037-0.6,0.219-1.126,0.545-1.584
			c0.324-0.455,0.826-0.744,1.502-0.861c0.674-0.119,1.18,0.006,1.514,0.372c0.336,0.366,0.562,0.894,0.684,1.581
			c0.033,0.188,0.059,0.445,0.076,0.77c0.02,0.326,0.033,0.684,0.045,1.075c0.01,0.392,0.02,0.796,0.027,1.214
			c0.01,0.416,0.031,0.889,0.066,1.418c0.033,0.529,0.055,0.926,0.062,1.188s0.02,0.438,0.035,0.525l0.375-0.065
			c0.051-0.15,0.131-0.394,0.238-0.729c0.109-0.336,0.221-0.809,0.332-1.421s0.25-1.163,0.416-1.648
			c0.166-0.487,0.32-0.952,0.461-1.396c0.143-0.444,0.273-0.836,0.393-1.182c0.121-0.342,0.211-0.597,0.273-0.762
			c0.281-0.746,0.656-1.289,1.125-1.629s1.016-0.564,1.641-0.674c0.627-0.109,1.168,0.066,1.631,0.527
			c0.459,0.459,0.771,1.152,0.934,2.078c0.025,0.137,0.037,0.375,0.037,0.709c0,0.336-0.004,0.736-0.012,1.201
			c-0.008,0.466-0.004,1.064,0.016,1.795c0.018,0.73,0.033,1.386,0.043,1.965c0.012,0.578,0.037,1.146,0.078,1.707
			c0.039,0.561,0.102,1.07,0.182,1.533c0.137,0.775,0.344,1.396,0.625,1.863c0.281,0.465,0.629,0.662,1.043,0.59
			c0.148-0.026,0.352-0.119,0.607-0.281c0.387-0.223,0.625-0.398,0.719-0.531c0.475-0.521,0.727-0.777,0.754-0.77
			c0.041,0.006,0.414-0.318,1.125-0.971c0.889-0.814,1.947-1.804,3.172-2.973l0.719,4.205l-0.812,0.877
			c-0.064,0.075-0.596,0.504-1.594,1.284c-1.439,1.129-2.344,1.815-2.713,2.062c-0.898,0.607-1.461,0.964-1.688,1.068
			c-0.59,0.31-1.23,0.525-1.918,0.646s-1.352-0.274-1.996-1.187c-0.643-0.912-1.131-2.326-1.467-4.238
			c-0.131-0.75-0.225-1.57-0.275-2.455c-0.053-0.887-0.092-1.844-0.117-2.869l-0.299,0.053l-3.205,10.614
			c-0.172,0.57-0.391,0.97-0.66,1.198c-0.281,0.24-0.627,0.398-1.039,0.471c-0.514,0.09-0.945,0.053-1.295-0.11
			c-0.352-0.165-0.645-0.416-0.877-0.755c-0.234-0.34-0.42-0.739-0.559-1.198S234.148,187.117,234.061,186.616z"/>
	</g>
	<g>
		<g enable-background="new    ">
			<path fill="#FF685D" d="M80.815,215.51c-1.157,0.203-2.211,0.168-3.16-0.104c-0.949-0.272-1.782-0.713-2.499-1.322
				c-0.716-0.608-1.308-1.355-1.774-2.24s-0.788-1.834-0.966-2.848c-0.127-0.725-0.153-1.616-0.08-2.673
				c0.074-1.057,0.192-1.989,0.355-2.798s0.4-1.594,0.714-2.359c0.313-0.762,0.71-1.453,1.191-2.072s1.047-1.145,1.697-1.574
				s1.396-0.719,2.238-0.865c0.759-0.133,1.479-0.146,2.163-0.041c0.685,0.105,1.289,0.312,1.815,0.619
				c0.527,0.308,0.967,0.705,1.32,1.189c0.353,0.486,0.582,1.036,0.689,1.648c0.075,0.426,0.087,0.854,0.037,1.289
				c-0.05,0.434-0.201,0.961-0.455,1.578c-0.255,0.619-0.53,1.057-0.826,1.314c-0.297,0.258-0.654,0.424-1.074,0.498
				c-0.632,0.109-1.068,0.025-1.308-0.256c-0.388-0.434-0.56-0.848-0.513-1.244c0.001-0.205,0.032-0.688,0.093-1.445
				c0.007-0.104-0.026-0.332-0.1-0.679c-0.053-0.301-0.128-0.546-0.226-0.735c-0.098-0.188-0.251-0.264-0.463-0.227
				c-0.511,0.089-0.925,0.287-1.243,0.594s-0.57,0.681-0.757,1.119c-0.186,0.438-0.341,1.04-0.464,1.801
				c-0.123,0.764-0.194,1.398-0.215,1.904s-0.005,0.983,0.048,1.432c0.054,0.447,0.106,0.823,0.159,1.123
				c0.078,0.45,0.201,0.912,0.368,1.387c0.166,0.471,0.406,0.891,0.72,1.255c0.314,0.364,0.688,0.646,1.12,0.848
				c0.434,0.2,0.955,0.249,1.565,0.142c0.601-0.105,1.23-0.406,1.892-0.901c0.66-0.497,1.307-1.089,1.939-1.781
				c0.633-0.69,1.223-1.431,1.767-2.224c0.544-0.791,1.002-1.529,1.372-2.213l1.675,1.949c-0.703,1.504-1.507,2.875-2.41,4.115
				c-0.384,0.531-0.812,1.059-1.28,1.578c-0.47,0.521-0.973,0.998-1.508,1.434c-0.536,0.436-1.108,0.814-1.717,1.133
				C82.111,215.176,81.476,215.395,80.815,215.51z"/>
			<path fill="#FF685D" d="M98.099,197.575c0.49,0.662,0.896,1.38,1.219,2.153c0.322,0.776,0.572,1.67,0.75,2.684
				c0.13,0.736,0.179,1.496,0.147,2.273c-0.031,0.779-0.139,1.545-0.322,2.299s-0.443,1.478-0.78,2.168
				c-0.337,0.691-0.75,1.311-1.239,1.86c-0.491,0.55-1.05,1.016-1.68,1.396c-0.629,0.383-1.325,0.639-2.088,0.772
				c-1.101,0.192-2.084,0.118-2.95-0.228c-0.865-0.344-1.616-0.86-2.252-1.549c-0.636-0.686-1.155-1.498-1.558-2.434
				c-0.402-0.934-0.691-1.901-0.866-2.902c-0.29-1.651-0.332-3.108-0.129-4.377c0.203-1.266,0.612-2.406,1.227-3.424
				c0.615-1.016,1.435-1.875,2.458-2.576c1.024-0.701,2.23-1.174,3.619-1.417c1.188-0.208,2.333-0.219,3.436-0.032
				c1.103,0.188,2.161,0.512,3.176,0.971c1.016,0.461,1.996,1.092,2.942,1.892c0.945,0.802,1.83,1.567,2.655,2.3l0.106,2.707
				c-0.416-0.391-0.958-0.799-1.625-1.223c-0.668-0.424-1.38-0.898-2.136-1.424s-1.484-0.955-2.188-1.289s-1.306-0.611-1.809-0.833
				L98.099,197.575z M94.207,209.451c0.425-0.074,0.8-0.363,1.125-0.865c0.324-0.5,0.579-1.106,0.765-1.814
				c0.185-0.709,0.286-1.545,0.304-2.51c0.019-0.963-0.036-1.807-0.163-2.533c-0.101-0.574-0.238-1.102-0.412-1.58
				s-0.381-0.883-0.619-1.216c-0.238-0.331-0.514-0.579-0.827-0.745c-0.312-0.164-0.662-0.212-1.05-0.145
				c-0.513,0.09-0.962,0.395-1.348,0.914s-0.694,1.148-0.925,1.892c-0.231,0.743-0.374,1.544-0.43,2.404s0.008,1.811,0.189,2.849
				c0.093,0.524,0.229,1.011,0.409,1.455c0.182,0.445,0.408,0.821,0.682,1.128c0.273,0.306,0.603,0.532,0.988,0.677
				C93.282,209.508,93.718,209.537,94.207,209.451z"/>
			<path fill="#FF685D" d="M112.492,206.449c-0.028-0.163-0.057-0.397-0.084-0.703c-0.028-0.306-0.052-0.658-0.069-1.056
				c-0.019-0.398-0.034-0.82-0.048-1.264c-0.013-0.444-0.026-0.886-0.038-1.323c-0.039-1.029-0.059-2.139-0.062-3.328l-0.281,0.049
				c-0.117,0.215-0.239,0.527-0.367,0.939s-0.303,1.013-0.524,1.805c-0.223,0.791-0.504,1.816-0.844,3.074
				c-0.341,1.26-0.794,2.809-1.361,4.647c-0.162,0.541-0.395,0.93-0.694,1.163c-0.301,0.234-0.651,0.387-1.052,0.457
				c-0.512,0.09-0.943,0.055-1.294-0.102c-0.35-0.158-0.64-0.401-0.871-0.73c-0.232-0.328-0.416-0.715-0.552-1.16
				c-0.137-0.445-0.247-0.91-0.332-1.396c-0.09-0.516-0.166-1.131-0.227-1.848c-0.062-0.716-0.11-1.473-0.146-2.271
				c-0.037-0.797-0.047-1.714-0.028-2.748c0.019-1.035,0.034-1.938,0.049-2.707c0.013-0.77,0.04-1.479,0.082-2.121
				c0.042-0.646,0.091-1.176,0.147-1.588c0.054-0.426,0.116-0.77,0.187-1.027c0.071-0.261,0.166-0.47,0.286-0.627
				c0.121-0.158,0.277-0.275,0.47-0.355c0.192-0.079,0.445-0.146,0.758-0.201c0.476-0.084,0.85-0.133,1.124-0.148
				s0.488,0.025,0.641,0.121c0.152,0.098,0.261,0.258,0.325,0.48c0.065,0.223,0.132,0.531,0.2,0.922
				c0.038,0.214,0.071,0.461,0.102,0.743s0.054,0.583,0.071,0.904c0.03,0.319,0.05,0.647,0.057,0.985
				c0.023,0.646,0.03,0.983,0.022,1.012c-0.024,0.887-0.038,1.879-0.039,2.973l0.245,0.19c0.019-0.042,0.126-0.405,0.322-1.091
				c0.195-0.684,0.417-1.367,0.665-2.049c0.248-0.68,0.52-1.395,0.813-2.143c0.295-0.746,0.584-1.412,0.868-1.996
				c0.272-0.581,0.582-1.076,0.928-1.49c0.347-0.41,0.802-0.666,1.365-0.766c0.524-0.092,1.002-0.016,1.432,0.228
				c0.429,0.243,0.693,0.649,0.793,1.218c0.086,0.492,0.137,0.965,0.151,1.417c0.024,0.581,0.025,1.023,0.001,1.327
				c-0.03,0.344-0.06,0.765-0.088,1.265c-0.015,0.432-0.066,1.059-0.154,1.88c-0.015,0.134-0.021,0.322-0.017,0.568
				c0.001,0.078,0.004,0.13,0.009,0.156l0.246,0.19c0.018-0.042,0.135-0.404,0.351-1.085c0.216-0.682,0.46-1.366,0.732-2.051
				c0.273-0.686,0.566-1.407,0.878-2.164c0.312-0.758,0.61-1.428,0.895-2.012c0.274-0.568,0.562-1.057,0.864-1.469
				c0.302-0.408,0.716-0.662,1.241-0.754c0.588-0.103,1.111-0.034,1.571,0.203c0.461,0.238,0.741,0.641,0.841,1.209
				c0.152,0.871,0.254,1.705,0.304,2.503c0.049,0.798,0.069,1.687,0.061,2.663c-0.01,0.978,0.01,1.861,0.059,2.654
				c0.049,0.79,0.149,1.622,0.302,2.493c0.119,0.681,0.305,1.222,0.555,1.62s0.5,0.576,0.75,0.531
				c0.263-0.045,0.527-0.15,0.796-0.314c0.268-0.164,0.536-0.361,0.806-0.591c0.269-0.228,0.526-0.485,0.773-0.769
				c0.246-0.285,0.479-0.575,0.697-0.874c0.512-0.688,1.003-1.451,1.475-2.288l1.098,4.391c-0.476,0.522-0.945,1.058-1.409,1.607
				c-0.465,0.553-0.968,1.064-1.509,1.543c-0.542,0.475-1.154,0.895-1.839,1.258c-0.684,0.365-1.481,0.627-2.395,0.787
				c-0.45,0.078-0.854,0-1.21-0.232c-0.357-0.234-0.674-0.594-0.952-1.074c-0.278-0.482-0.52-1.065-0.723-1.75
				c-0.203-0.684-0.377-1.436-0.521-2.258c-0.14-0.793-0.259-1.641-0.359-2.541c-0.099-0.899-0.179-1.812-0.237-2.738l-0.281,0.049
				l-2.12,10.302c-0.233,0.579-0.534,0.995-0.903,1.244c-0.368,0.25-0.815,0.422-1.341,0.515c-0.4,0.069-0.737,0.02-1.013-0.151
				c-0.274-0.171-0.506-0.413-0.696-0.722c-0.189-0.312-0.342-0.664-0.456-1.057S112.558,206.826,112.492,206.449z"/>
			<path fill="#FF685D" d="M140.243,200.978c-0.378,0.493-0.86,1.032-1.446,1.616c-0.588,0.588-1.233,1.145-1.94,1.675
				c-0.706,0.529-1.439,0.997-2.2,1.399c-0.761,0.406-1.503,0.671-2.229,0.798c-0.65,0.114-1.214,0.119-1.688,0.015
				c-0.477-0.102-0.88-0.293-1.212-0.569s-0.6-0.64-0.8-1.089c-0.201-0.447-0.351-0.952-0.449-1.516
				c-0.138-0.787-0.212-1.723-0.221-2.803c-0.021-2.236-0.002-3.496,0.054-3.783c0.076-0.564,0.21-1.809,0.4-3.73
				c0.213-1.576,0.336-2.6,0.368-3.068c0.006-0.328,0.128-0.643,0.366-0.945c0.219-0.272,0.478-0.51,0.777-0.711
				c0.3-0.203,0.619-0.371,0.957-0.502c0.339-0.131,0.649-0.221,0.931-0.271c0.517-0.091,0.884-0.054,1.102,0.106
				c0.219,0.162,0.356,0.406,0.413,0.73c0.048,0.275,0.052,0.676,0.012,1.199c-0.04,0.525-0.087,1.124-0.138,1.795
				c-0.053,0.672-0.15,1.541-0.296,2.607c-0.146,1.065-0.214,1.965-0.207,2.699c0.006,0.733-0.019,1.467-0.075,2.202
				c-0.058,0.735-0.035,1.39,0.066,1.964c0.099,0.562,0.239,0.998,0.422,1.309c0.184,0.309,0.469,0.43,0.856,0.361
				c0.45-0.079,0.923-0.322,1.418-0.732c0.496-0.408,0.986-0.885,1.471-1.427c0.485-0.543,0.954-1.099,1.409-1.669
				c0.455-0.568,0.858-1.059,1.212-1.469L140.243,200.978z M128.41,182.764c-0.052-0.291-0.046-0.629,0.015-1.019
				c0.061-0.388,0.204-0.768,0.429-1.138c0.226-0.371,0.553-0.709,0.982-1.012c0.431-0.303,0.996-0.516,1.696-0.639
				c0.438-0.076,0.859-0.098,1.264-0.066c0.406,0.033,0.771,0.129,1.095,0.287s0.601,0.393,0.829,0.704s0.384,0.7,0.466,1.167
				c0.075,0.428,0.079,0.857,0.013,1.285c-0.067,0.428-0.223,0.826-0.468,1.195c-0.245,0.367-0.578,0.689-1,0.966
				c-0.423,0.275-0.953,0.468-1.591,0.579c-1.101,0.193-1.959,0.074-2.575-0.357C128.947,184.285,128.562,183.633,128.41,182.764z"
				/>
			<path fill="#FF685D" d="M138.943,201.283c-0.145-0.826-0.262-1.787-0.352-2.887c-0.089-1.1-0.172-2.309-0.249-3.629
				c-0.076-1.322-0.112-2.518-0.106-3.588s0.031-1.99,0.077-2.759c0.037-0.599,0.218-1.126,0.545-1.585
				c0.325-0.455,0.826-0.742,1.501-0.861c0.676-0.118,1.181,0.006,1.516,0.373c0.335,0.365,0.562,0.894,0.684,1.581
				c0.032,0.187,0.059,0.444,0.076,0.77c0.019,0.325,0.033,0.684,0.043,1.075c0.012,0.391,0.021,0.795,0.029,1.213
				c0.009,0.416,0.03,0.891,0.065,1.42c0.034,0.527,0.055,0.924,0.063,1.188c0.007,0.262,0.018,0.438,0.033,0.525l0.376-0.066
				c0.05-0.15,0.131-0.393,0.239-0.729c0.109-0.335,0.22-0.809,0.331-1.42c0.111-0.613,0.251-1.162,0.417-1.648
				c0.166-0.488,0.319-0.953,0.461-1.396s0.272-0.836,0.393-1.182c0.12-0.342,0.211-0.596,0.272-0.762
				c0.281-0.745,0.656-1.288,1.125-1.628c0.47-0.34,1.017-0.564,1.642-0.675c0.625-0.109,1.168,0.066,1.629,0.527
				c0.461,0.46,0.771,1.153,0.934,2.079c0.025,0.137,0.037,0.374,0.039,0.708c0,0.336-0.004,0.736-0.012,1.201
				c-0.01,0.467-0.006,1.064,0.014,1.795c0.02,0.731,0.033,1.387,0.045,1.965c0.01,0.578,0.037,1.146,0.076,1.707
				c0.041,0.561,0.102,1.071,0.182,1.534c0.137,0.775,0.346,1.396,0.627,1.862c0.281,0.466,0.629,0.662,1.041,0.59
				c0.15-0.025,0.354-0.119,0.607-0.28c0.387-0.223,0.627-0.399,0.719-0.532c0.477-0.521,0.729-0.777,0.756-0.769
				c0.039,0.006,0.414-0.318,1.125-0.972c0.889-0.813,1.945-1.803,3.172-2.973l0.717,4.205l-0.812,0.877
				c-0.064,0.076-0.596,0.504-1.592,1.285c-1.439,1.129-2.344,1.815-2.713,2.061c-0.898,0.607-1.463,0.965-1.689,1.068
				c-0.59,0.311-1.229,0.525-1.916,0.646c-0.688,0.12-1.354-0.275-1.998-1.188c-0.643-0.912-1.131-2.325-1.467-4.238
				c-0.131-0.75-0.222-1.569-0.275-2.455c-0.052-0.887-0.091-1.844-0.116-2.869l-0.3,0.053l-3.205,10.615
				c-0.171,0.57-0.391,0.97-0.66,1.197c-0.28,0.241-0.627,0.399-1.039,0.472c-0.513,0.09-0.944,0.054-1.296-0.11
				c-0.351-0.166-0.643-0.416-0.876-0.756c-0.234-0.34-0.42-0.738-0.558-1.197C139.143,202.264,139.031,201.783,138.943,201.283z"/>
			<path fill="#FF685D" d="M162.988,218.83c-0.562-0.051-1.098-0.182-1.605-0.396c-0.508-0.213-0.949-0.559-1.322-1.034
				s-0.652-1.058-0.838-1.747c-0.33-1.297-0.211-2.754,0.355-4.375c0.33-0.908,0.557-1.541,0.682-1.898
				c0.123-0.356,0.338-0.867,0.641-1.533c0.301-0.664,0.623-1.271,0.967-1.822c0.701-1.141,1.285-2.058,1.75-2.752
				c0.465-0.693,1.031-1.453,1.697-2.279l-0.016-2.295c-1.168,1.57-2.414,2.471-3.74,2.702c-0.975,0.171-1.924,0.035-2.846-0.41
				c-0.922-0.443-1.666-1.067-2.232-1.87c-1.025-1.432-1.363-3.254-1.016-5.467c0.309-2.065,0.682-3.791,1.123-5.176
				c0.439-1.385,1.104-2.639,1.988-3.761c1.287-1.63,2.65-2.573,4.088-2.825c0.65-0.113,1.158-0.012,1.521,0.301
				c0.045,0.031,0.113,0.095,0.207,0.188c0.094,0.096,0.158,0.152,0.195,0.172c0.035,0.021,0.098,0.062,0.186,0.124
				c0.088,0.063,0.166,0.099,0.23,0.106c0.066,0.008,0.152,0.021,0.26,0.043c0.107,0.02,0.223,0.025,0.352,0.016
				c0.127-0.008,0.273-0.027,0.438-0.057l0.824-0.164c0.562-0.098,0.979,0.004,1.252,0.305c0.098,0.125,0.211,0.293,0.338,0.504
				c0.219,0.362,0.463,1.646,0.732,3.851c0.082,0.683,0.07,1.552-0.037,2.599c-0.105,1.053-0.096,2.195,0.031,3.432
				c0.127,1.238,0.268,2.852,0.424,4.842c0.324-0.275,0.666-0.605,1.025-0.99c1.281-1.367,2.588-3.724,3.922-7.068l1.949,3.951
				c-0.229,0.756-0.707,1.664-1.436,2.725c-0.744,1.051-1.387,1.873-1.928,2.467c-0.098,0.094-0.176,0.164-0.232,0.214
				c-1.064,0.987-1.834,1.708-2.309,2.165c-0.297,0.283-0.457,0.731-0.48,1.342c-0.021,0.609,0.035,1.734,0.168,3.375
				c0.02,0.477,0.037,0.844,0.051,1.101c0.027,0.582,0.055,1.153,0.082,1.717c0.025,0.563,0.01,1.208-0.051,1.933
				c-0.059,0.727-0.158,1.4-0.293,2.023c-0.137,0.621-0.344,1.256-0.623,1.905c-0.279,0.647-0.621,1.214-1.027,1.696
				c-0.404,0.483-0.916,0.908-1.535,1.274s-1.322,0.618-2.111,0.757C164.152,218.848,163.551,218.879,162.988,218.83z
				 M160.814,197.006c0.391,0.473,0.832,0.666,1.318,0.58c0.852-0.148,1.438-0.953,1.762-2.414c0.25-1.152,0.305-2.277,0.162-3.374
				l0.312-6.493c-1.449,0.254-2.555,1.453-3.312,3.598c-0.824,2.283-1.229,3.804-1.213,4.562
				C159.885,195.094,160.209,196.273,160.814,197.006z M164.07,208.975c-0.607,1.529-1.037,3.053-1.287,4.564
				c-0.205,1.26,0.111,1.818,0.949,1.671c0.301-0.053,0.559-0.138,0.777-0.253s0.41-0.287,0.576-0.516
				c0.166-0.23,0.305-0.471,0.416-0.723c0.109-0.25,0.213-0.604,0.307-1.059s0.176-0.896,0.242-1.327s0.133-0.999,0.203-1.708
				c0.049-0.383,0.061-0.795,0.039-1.236c-0.023-0.441-0.053-0.988-0.086-1.64c-0.033-0.65-0.055-1.064-0.064-1.241
				C165.369,206.287,164.678,207.443,164.07,208.975z"/>
			<path fill="#FF685D" d="M184.461,190.051c0.594-0.729,1.074-1.334,1.441-1.814c0.367-0.482,0.723-1.029,1.066-1.644
				c0.342-0.614,0.613-1.114,0.809-1.501c0.197-0.386,0.43-0.844,0.697-1.372c0.268-0.529,0.594-1.175,0.975-1.939
				c0.383-0.763,0.885-1.722,1.508-2.873c0.123-0.257,0.266-0.509,0.428-0.759s0.352-0.482,0.564-0.695s0.459-0.399,0.734-0.559
				c0.273-0.158,0.594-0.27,0.955-0.334c0.602-0.105,1.076-0.119,1.424-0.043c0.35,0.075,0.615,0.195,0.799,0.357
				c0.184,0.164,0.305,0.348,0.367,0.552c0.061,0.204,0.105,0.382,0.131,0.534c0.055,0.303-0.006,0.659-0.18,1.066
				c-0.174,0.408-0.373,0.809-0.602,1.199c-0.229,0.393-0.445,0.754-0.652,1.084c-0.205,0.328-0.316,0.566-0.33,0.711
				c0.068,0.393,0.16,0.744,0.273,1.057c0.115,0.312,0.246,0.614,0.396,0.907c0.15,0.292,0.307,0.604,0.469,0.935
				c0.164,0.33,0.332,0.713,0.506,1.152c0.174,0.438,0.295,1.062,0.367,1.87c0.07,0.808,0.176,1.616,0.318,2.425
				c0.396-0.381,0.832-0.741,1.309-1.078c0.475-0.338,0.971-0.688,1.488-1.053c0.516-0.363,1.043-0.759,1.58-1.186
				c0.537-0.426,1.066-0.92,1.588-1.479l0.762,4.243c-0.674,0.715-1.477,1.414-2.406,2.102c-0.93,0.684-1.924,1.318-2.98,1.9
				c-1.057,0.584-2.137,1.086-3.242,1.51s-2.17,0.726-3.195,0.905c-0.738,0.13-1.438,0.183-2.098,0.163
				c-0.662-0.02-1.258-0.127-1.789-0.324c-0.529-0.197-0.984-0.496-1.365-0.898c-0.379-0.4-0.656-0.919-0.832-1.555
				c-0.168,0.068-0.336,0.125-0.504,0.167c-0.166,0.042-0.33,0.077-0.492,0.105c-0.201,0.035-0.389,0.062-0.566,0.08
				s-0.336-0.003-0.475-0.062c-0.141-0.062-0.264-0.177-0.371-0.347s-0.191-0.426-0.25-0.768c-0.053-0.303-0.027-0.598,0.076-0.883
				c0.105-0.285,0.24-0.547,0.404-0.783c0.166-0.238,0.334-0.449,0.508-0.637S184.377,190.156,184.461,190.051z M187.227,192.066
				c0.15-0.025,0.332,0.041,0.549,0.199c0.213,0.157,0.459,0.33,0.736,0.514c0.277,0.188,0.59,0.348,0.936,0.482
				s0.719,0.168,1.119,0.098c0.488-0.086,0.877-0.239,1.166-0.459c0.291-0.221,0.506-0.482,0.646-0.787
				c0.139-0.305,0.215-0.645,0.227-1.018s-0.016-0.756-0.084-1.148c-0.061-0.34-0.143-0.684-0.25-1.029
				c-0.105-0.348-0.176-0.788-0.211-1.322c-0.037-0.535-0.119-0.936-0.25-1.207c-0.133-0.27-0.246-0.5-0.344-0.691L187.227,192.066z
				"/>
			<path fill="#FF685D" d="M211.395,177.723c0.488,0.662,0.895,1.381,1.217,2.154c0.324,0.775,0.574,1.669,0.752,2.683
				c0.129,0.737,0.178,1.495,0.146,2.274c-0.031,0.777-0.139,1.545-0.322,2.299s-0.443,1.477-0.781,2.167
				c-0.336,0.69-0.75,1.312-1.238,1.86c-0.49,0.551-1.051,1.016-1.68,1.396s-1.326,0.639-2.088,0.771
				c-1.102,0.193-2.084,0.117-2.949-0.228c-0.867-0.344-1.617-0.86-2.254-1.548c-0.635-0.688-1.154-1.498-1.557-2.434
				c-0.402-0.934-0.691-1.902-0.867-2.903c-0.289-1.651-0.332-3.108-0.129-4.376c0.203-1.266,0.613-2.407,1.227-3.424
				c0.615-1.017,1.436-1.876,2.459-2.576c1.023-0.703,2.23-1.174,3.619-1.418c1.188-0.208,2.332-0.219,3.436-0.032
				c1.102,0.188,2.16,0.511,3.176,0.972c1.016,0.46,1.996,1.092,2.941,1.891c0.945,0.802,1.832,1.568,2.656,2.301l0.105,2.707
				c-0.416-0.393-0.957-0.799-1.625-1.223c-0.666-0.425-1.379-0.9-2.135-1.425s-1.484-0.954-2.188-1.29
				c-0.703-0.333-1.307-0.611-1.809-0.832L211.395,177.723z M207.5,189.599c0.426-0.075,0.801-0.362,1.125-0.864
				c0.324-0.501,0.58-1.107,0.764-1.814c0.186-0.711,0.287-1.547,0.305-2.51c0.02-0.963-0.035-1.808-0.162-2.534
				c-0.102-0.574-0.238-1.101-0.412-1.581c-0.174-0.477-0.381-0.882-0.619-1.215c-0.238-0.332-0.514-0.579-0.826-0.744
				c-0.312-0.164-0.662-0.213-1.051-0.145c-0.512,0.09-0.963,0.395-1.348,0.914c-0.387,0.518-0.695,1.148-0.926,1.891
				c-0.23,0.743-0.373,1.545-0.43,2.404c-0.055,0.86,0.008,1.811,0.191,2.849c0.092,0.524,0.229,1.011,0.408,1.455
				c0.182,0.446,0.408,0.821,0.682,1.128s0.602,0.533,0.988,0.678S207.014,189.684,207.5,189.599z"/>
			<path fill="#FF685D" d="M227.562,174.89c0.49,0.661,0.896,1.38,1.219,2.153c0.322,0.776,0.572,1.67,0.75,2.684
				c0.129,0.736,0.178,1.496,0.146,2.273c-0.031,0.779-0.139,1.545-0.322,2.299s-0.443,1.478-0.779,2.168
				c-0.338,0.691-0.75,1.311-1.24,1.86s-1.049,1.016-1.68,1.396c-0.629,0.383-1.324,0.639-2.088,0.772
				c-1.1,0.192-2.084,0.118-2.949-0.228c-0.865-0.344-1.617-0.86-2.252-1.549c-0.637-0.686-1.156-1.498-1.557-2.434
				c-0.404-0.934-0.693-1.902-0.867-2.902c-0.291-1.652-0.332-3.109-0.129-4.377c0.203-1.266,0.613-2.406,1.227-3.424
				c0.615-1.016,1.434-1.875,2.459-2.576c1.023-0.701,2.229-1.174,3.617-1.417c1.188-0.208,2.334-0.219,3.436-0.032
				c1.104,0.188,2.162,0.512,3.178,0.971c1.014,0.461,1.994,1.092,2.941,1.892c0.945,0.802,1.83,1.567,2.654,2.3l0.107,2.707
				c-0.416-0.391-0.959-0.799-1.625-1.223c-0.668-0.424-1.381-0.898-2.137-1.424s-1.484-0.955-2.188-1.289s-1.305-0.612-1.809-0.833
				L227.562,174.89z M223.67,186.766c0.424-0.074,0.799-0.363,1.125-0.865c0.324-0.5,0.578-1.106,0.764-1.814
				c0.186-0.709,0.287-1.545,0.305-2.51c0.018-0.963-0.037-1.807-0.164-2.533c-0.1-0.574-0.238-1.102-0.412-1.58
				s-0.381-0.883-0.619-1.216c-0.238-0.331-0.514-0.579-0.826-0.745c-0.312-0.164-0.662-0.212-1.049-0.145
				c-0.514,0.09-0.963,0.395-1.35,0.914c-0.385,0.519-0.693,1.148-0.924,1.892c-0.232,0.743-0.375,1.544-0.43,2.404
				c-0.057,0.86,0.008,1.811,0.189,2.849c0.092,0.524,0.229,1.011,0.41,1.455c0.182,0.445,0.408,0.821,0.68,1.127
				c0.273,0.307,0.604,0.533,0.99,0.678C222.744,186.822,223.182,186.852,223.67,186.766z"/>
			<path fill="#FF685D" d="M234.061,184.615c-0.145-0.825-0.262-1.787-0.35-2.885c-0.09-1.102-0.174-2.311-0.25-3.631
				c-0.076-1.321-0.113-2.518-0.107-3.587c0.006-1.071,0.033-1.99,0.078-2.759c0.037-0.6,0.219-1.127,0.545-1.584
				c0.324-0.457,0.826-0.744,1.502-0.863c0.674-0.117,1.18,0.006,1.514,0.373c0.336,0.366,0.562,0.895,0.684,1.582
				c0.033,0.186,0.059,0.444,0.076,0.77c0.02,0.326,0.033,0.684,0.045,1.074c0.01,0.392,0.02,0.795,0.027,1.214
				c0.01,0.416,0.031,0.89,0.066,1.419c0.033,0.528,0.055,0.924,0.062,1.188c0.008,0.262,0.02,0.438,0.035,0.525l0.375-0.065
				c0.051-0.151,0.131-0.394,0.238-0.729c0.109-0.335,0.221-0.809,0.332-1.421c0.111-0.613,0.25-1.162,0.416-1.648
				s0.32-0.953,0.461-1.395c0.143-0.445,0.273-0.838,0.393-1.183c0.121-0.343,0.211-0.597,0.273-0.763
				c0.281-0.744,0.656-1.287,1.125-1.627s1.016-0.564,1.641-0.674c0.627-0.11,1.168,0.065,1.631,0.525
				c0.459,0.461,0.771,1.154,0.934,2.08c0.025,0.137,0.037,0.373,0.037,0.707c0,0.336-0.004,0.736-0.012,1.203
				c-0.008,0.465-0.004,1.062,0.016,1.793c0.018,0.732,0.033,1.387,0.043,1.965c0.012,0.578,0.037,1.148,0.078,1.709
				c0.039,0.559,0.102,1.07,0.182,1.533c0.137,0.775,0.344,1.396,0.625,1.861c0.281,0.467,0.629,0.663,1.043,0.591
				c0.148-0.026,0.352-0.119,0.607-0.28c0.387-0.223,0.625-0.4,0.719-0.531c0.475-0.521,0.727-0.778,0.754-0.77
				c0.041,0.006,0.414-0.318,1.125-0.972c0.889-0.813,1.947-1.804,3.172-2.973l0.719,4.204l-0.812,0.877
				c-0.064,0.076-0.596,0.504-1.594,1.285c-1.439,1.129-2.344,1.816-2.713,2.061c-0.898,0.609-1.461,0.965-1.688,1.068
				c-0.59,0.311-1.23,0.525-1.918,0.646s-1.352-0.275-1.996-1.188c-0.643-0.912-1.131-2.324-1.467-4.238
				c-0.131-0.75-0.225-1.568-0.275-2.455c-0.053-0.887-0.092-1.842-0.117-2.869l-0.299,0.053l-3.205,10.615
				c-0.172,0.57-0.391,0.971-0.66,1.197c-0.281,0.242-0.627,0.4-1.039,0.473c-0.514,0.09-0.945,0.053-1.295-0.111
				c-0.352-0.165-0.645-0.416-0.877-0.756c-0.234-0.34-0.42-0.738-0.559-1.197S234.148,185.116,234.061,184.615z"/>
		</g>
	</g>
</g>
</svg>
