<?xml version="1.0" encoding="utf-8"?>
<!-- Generator: Adobe Illustrator 16.0.0, SVG Export Plug-In . SVG Version: 6.00 Build 0)  -->
<!DOCTYPE svg PUBLIC "-//W3C//DTD SVG 1.1//EN" "http://www.w3.org/Graphics/SVG/1.1/DTD/svg11.dtd">
<svg version="1.1" id="Layer_1" xmlns="http://www.w3.org/2000/svg" xmlns:xlink="http://www.w3.org/1999/xlink" x="0px" y="0px"
	 width="250.5px" height="103.5px" viewBox="0 0 250.5 103.5" enable-background="new 0 0 250.5 103.5" xml:space="preserve">
<g>
	<g>
		<path fill="#FFFFFF" d="M38.432,48.291c-2.2-0.125-4.006-2.161-4.006-4.802v-6.328c0-2.642,2.161-4.803,4.802-4.803h22.355
			c2.641,0,4.802,2.161,4.802,4.803v6.328c0,2.641-1.806,4.687-4.007,4.802c-3.764,0.197-4.164,0.757-4.007,4.803v10.429
			c0,2.641-2.161,4.801-4.802,4.801h-6.329c-2.641,0-4.802-2.161-4.802-4.801V53.093C42.527,49.288,41.887,48.488,38.432,48.291z"/>
	</g>
	<g>
		<path fill="#FFFFFF" d="M81.655,43.059c0,1.711,1.243,1.344,2.762-0.817c0,0,1.779-2.53,5.298-2.53
			c1.964,0,3.583,0.645,4.856,1.934c1.273,1.289,1.909,2.922,1.909,4.902c0,2.074-0.625,3.751-1.875,5.031
			c-1.249,1.281-2.879,1.921-4.891,1.921c-2.294,0-4.258-0.864-5.892-2.593c-1.445,1.226-2.168,3.504-2.168,6.834v5.781
			c0,2.641-2.161,4.801-4.802,4.801h-4.961c-2.641,0-4.802-2.161-4.802-4.801V44.75c0-2.641,2.161-4.802,4.802-4.802h4.961
			C79.494,39.947,81.655,41.348,81.655,43.059z"/>
	</g>
	<g>
		<path fill="#FFFFFF" d="M127.066,39.947c2.641,0,4.802,2.161,4.802,4.802v18.772c0,2.641-2.161,4.801-4.802,4.801h-4.349
			c-2.641,0-4.802-1.119-4.802-2.486c0-1.361-0.021-2.475-0.047-2.486c-0.285-0.119-1.544,1.695-1.725,1.902
			c-1.347,1.545-2.802,2.237-4.758,2.816c-1.244,0.368-2.545,0.516-3.839,0.477c-2.443-0.073-4.831-0.899-6.613-2.626
			c-1.815-1.76-2.723-4.226-2.723-7.4V44.75c0-2.641,2.161-4.802,4.802-4.802h4.16c2.641,0,4.802,2.161,4.802,4.802v5.692
			c0,1.533,0.068,3.063,0.206,4.59c0.1,1.101-0.068,2.514,0.497,3.498c0.772,1.345,4.6,0.745,4.6-0.928c0-0.002,0-12.851,0-12.851
			c0-2.641,2.161-4.802,4.802-4.802H127.066z"/>
	</g>
	<g>
		<path fill="#FFFFFF" d="M154.395,39.947c1.672,0,3.041,1.793,3.041,3.983s-1.369,3.982-3.041,3.982s-4.093,0.756-4.094,2.428
			c-0.002,1.588-0.624,5.761,1.441,6.47c1.691,0.581,4.669-2.395,6.261-1.076c1.39,1.151,3.58,9.599-4.637,12.198
			c-5.12,1.62-11.598,0.087-14.669-4.406c-1.351-1.978-1.909-4.352-1.909-6.728v-4.083c0-2.641-1.337-4.803-2.971-4.803
			s-1.27-1.333,0.809-2.962l12.947-10.148c2.081-1.63,3.781-1.138,3.781,1.091C151.354,38.123,152.723,39.947,154.395,39.947z"/>
	</g>
	<g>
		<path fill="#FFFFFF" d="M170.892,32.358c2.641,0,4.802,2.161,4.802,4.803v1.685c0,2.641,1.713,3.484,3.806,1.873
			c0,0,1.309-1.007,4.797-1.007c3.222,0,5.763,0.943,7.626,2.829c1.861,1.885,2.792,4.51,2.792,7.873v13.109
			c0,2.641-2.16,4.801-4.802,4.801h-4.16c-2.642,0-4.802-2.161-4.802-4.801c0,0,0-6.797,0-6.8c0-1.657,0.164-3.293,0.002-4.949
			c-0.089-0.919-0.179-1.792-0.662-2.601c-0.549-0.915-1.07-0.835-2.099-0.835c-3.195,0-2.5,3.569-2.515,5.731
			c-0.018,2.55,0.028,5.101,0.015,7.65c-0.003,0.602,0.002,1.202,0.002,1.803c0,2.641-2.161,4.801-4.802,4.801h-4.985
			c-2.642,0-4.803-2.161-4.803-4.801V37.161c0-2.642,2.161-4.803,4.803-4.803H170.892z"/>
	</g>
</g>
<g>
	<g>
		<path fill="#FFFFFF" d="M18.357,93.746c0,2.556-2.09,4.646-4.646,4.646H7.59c-2.555,0-4.646-2.09-4.646-4.646v-25.5
			c0-2.555,2.091-4.646,4.646-4.646h6.121c2.555,0,4.646,2.091,4.646,4.646V71.7c0,2.554,1.765,4.645,3.922,4.645
			c2.157,0,3.921-2.091,3.921-4.645v-3.455c0-2.555,2.09-4.646,4.646-4.646h6.12c2.556,0,4.646,2.091,4.646,4.646v25.5
			c0,2.556-2.09,4.646-4.646,4.646h-6.12c-2.556,0-4.646-2.09-4.646-4.646v-3.637c0-2.555-1.765-4.645-3.921-4.645
			c-2.157,0-3.922,2.09-3.922,4.645V93.746z"/>
	</g>
	<g>
		<path fill="#FFFFFF" d="M73.095,70.941c2.555,0,4.646,2.09,4.646,4.645v18.159c0,2.556-2.091,4.646-4.646,4.646h-4.206
			c-2.555,0-4.645-1.083-4.645-2.406c0-1.322-0.021-2.405-0.046-2.405c-0.025,0-1.305,1.36-2.842,3.024c0,0,0,0-1.444,0.805
			c-1.444,0.806-3.162,1.208-5.153,1.208c-2.873,0-5.186-0.851-6.942-2.554c-1.756-1.701-2.634-4.087-2.634-7.159v-13.32
			c0-2.555,2.09-4.645,4.645-4.645h4.025c2.555,0,4.645,2.09,4.645,4.645v5.506c0,1.625,0.078,3.252,0.264,4.867
			c0.122,1.057-0.191,2.625,0.785,3.363c1.22,0.923,3.637-0.04,4.078-1.431c0.256-0.806-0.041-1.919-0.002-2.771
			c0.113-2.528,0-5.083-0.002-7.616c-0.001-0.639,0.008-1.278,0.008-1.918c0-2.555,2.091-4.645,4.646-4.645H73.095z"/>
	</g>
	<g>
		<path fill="#FFFFFF" d="M90.731,63.6c2.555,0,4.646,1.842,4.646,4.094c0,2.447,1.595,3.17,3.748,3.02
			c4.156-0.292,8.275,0.88,11.254,3.875c2.568,2.584,3.854,5.836,3.854,9.758c0,3.953-1.345,7.281-4.037,9.986
			c-2.69,2.704-6.475,4.059-11.354,4.059h-12.91c-2.555,0-4.646-2.09-4.646-4.646v-25.5c0-2.555,2.091-4.646,4.646-4.646H90.731z
			 M94.903,83.689c-0.208,0.484-0.315,1.011-0.286,1.545c0.219,3.939,6.095,3.63,6.095-0.385
			C100.712,81.416,96.257,80.545,94.903,83.689z"/>
	</g>
	<g>
		<path fill="#FFFFFF" d="M116.689,91.528c0-2.051,0.726-3.803,2.178-5.254c1.451-1.452,3.203-2.178,5.254-2.178
			c2.037,0,3.781,0.726,5.232,2.178c1.453,1.451,2.179,3.203,2.179,5.254c0,2.037-0.726,3.786-2.179,5.244
			c-1.451,1.459-3.195,2.188-5.232,2.188c-2.051,0-3.803-0.729-5.254-2.188C117.416,95.314,116.689,93.565,116.689,91.528z"/>
	</g>
	<g>
		<path fill="#FFFFFF" d="M158.97,72.312c0.167,0.244,0.282,0.551,0.334,0.945c0.261,1.977,0.056,4.154,0.056,6.148
			c0,2.554-1.958,3.913-4.351,3.017c0,0-1.015-0.379-3.356-0.379c-1.365,0-3.189,0.119-3.978,1.425
			c-0.725,1.204,0.026,2.631,1.263,3.15c1.795,0.752,3.902,0.598,5.656-0.196c1.794-0.812,4.346-1.739,5.867,0.123
			c1.241,1.518,0.852,3.952,0.606,5.74c-0.447,3.284-3.051,5.591-6.252,6.271c0,0-1.148,0.243-4.279,0.243
			c-5.503,0-9.759-1.322-12.769-3.966c-3.01-2.645-4.514-6.004-4.514-10.078c0-4.072,1.437-7.488,4.309-10.248
			c2.873-2.758,6.727-4.138,11.56-4.138c2.637,0,5.284,0.26,7.844,0.901C157.837,71.49,158.561,71.712,158.97,72.312z"/>
	</g>
	<g>
		<path fill="#FFFFFF" d="M177.695,98.801c-4.348,0-7.932-1.311-10.75-3.931c-2.82-2.623-4.229-6.039-4.229-10.249
			c0-4.21,1.391-7.638,4.173-10.282c2.781-2.645,6.383-3.968,10.807-3.968c4.453,0,8.075,1.323,10.864,3.968
			c2.79,2.644,4.183,6.071,4.183,10.282c0,4.194-1.393,7.607-4.183,10.236C185.771,97.487,182.148,98.801,177.695,98.801z
			 M177.695,81.2c-0.912,0-1.653,0.293-2.224,0.878c-0.569,0.585-0.854,1.341-0.854,2.268c0,0.928,0.285,1.68,0.854,2.257
			c0.57,0.578,1.312,0.867,2.224,0.867c0.928,0,1.68-0.289,2.258-0.867c0.576-0.578,0.866-1.33,0.866-2.257
			c0-0.942-0.29-1.701-0.866-2.28C179.375,81.49,178.623,81.2,177.695,81.2z"/>
	</g>
	<g>
		<path fill="#FFFFFF" d="M203.69,70.197c1.239,0.379,2.261,1.147,3.464,1.824c2.152,1.212,3.072,0.674,4.972-0.693
			c0,0,1.329-0.957,4.688-0.957c3.997,0,6.954,1.581,8.869,4.742c1.564-1.641,3.135-2.842,4.708-3.602s3.347-1.141,5.323-1.141
			c2.979,0,5.327,0.913,7.046,2.736c1.717,1.824,2.575,4.393,2.575,7.705v12.591c0,2.555-2.09,4.645-4.645,4.645h-4.023
			c-2.557,0-4.646-2.09-4.646-4.645v-7.101c0-2.555-0.108-5.423-0.24-6.374c0,0,0,0-0.479-0.54c-0.827-0.935-2.242-1.16-3.298-0.514
			c-1.516,0.925-1.092,2.246-1.073,3.753c0.017,1.232,0.011,2.464-0.002,3.696c-0.025,2.36-0.085,4.72-0.085,7.08
			c0,2.555-2.09,4.645-4.646,4.645h-4.023c-2.556,0-4.646-2.09-4.646-4.645v-7.101c0-2.555-0.104-5.415-0.232-6.355
			c0,0,0,0-0.464-0.547c-0.776-0.919-2.071-1.108-3.129-0.614c-1.388,0.648-1.319,1.811-1.277,3.147
			c0.04,1.306,0.025,2.615,0.014,3.922c-0.021,2.516-0.087,5.032-0.087,7.548c0,2.555-2.09,4.645-4.646,4.645h-4.799
			c-2.556,0-4.646-2.09-4.646-4.645c0,0,0-18.137,0-18.159c0-4.14,4.583-5.327,7.922-5.283
			C202.734,69.969,203.228,70.056,203.69,70.197z"/>
	</g>
</g>
<text transform="matrix(1 0 0 1 73.2891 34.915)" fill="#FFFFFF" font-family="'Pacifico'" font-size="34.5769">the</text>
</svg>
