<?xml version="1.0" encoding="utf-8"?>
<!-- Generator: Adobe Illustrator 16.0.0, SVG Export Plug-In . SVG Version: 6.00 Build 0)  -->
<!DOCTYPE svg PUBLIC "-//W3C//DTD SVG 1.1//EN" "http://www.w3.org/Graphics/SVG/1.1/DTD/svg11.dtd">
<svg version="1.1" id="Layer_1" xmlns="http://www.w3.org/2000/svg" xmlns:xlink="http://www.w3.org/1999/xlink" x="0px" y="0px"
	 width="250.5px" height="103.5px" viewBox="0 0 250.5 103.5" enable-background="new 0 0 250.5 103.5" xml:space="preserve">
<g>
	<path fill="#FFFFFF" d="M53.082,46.16c-2.175-0.124-3.96-2.137-3.96-4.748v-6.256c0-2.611,2.137-4.748,4.748-4.748h22.1
		c2.611,0,4.748,2.136,4.748,4.748v6.256c0,2.611-1.786,4.633-3.961,4.748c-3.721,0.194-4.116,0.748-3.961,4.747v10.311
		c0,2.611-2.136,4.748-4.748,4.748h-6.256c-2.611,0-4.748-2.136-4.748-4.748V50.907C57.13,47.146,56.498,46.354,53.082,46.16z"/>
</g>
<g>
	<path fill="#FFFFFF" d="M95.812,40.987c0,1.692,1.229,1.328,2.731-0.808c0,0,1.759-2.501,5.238-2.501
		c1.941,0,3.542,0.637,4.8,1.912c1.258,1.274,1.887,2.889,1.887,4.846c0,2.051-0.618,3.709-1.853,4.975
		c-1.234,1.267-2.847,1.899-4.834,1.899c-2.268,0-4.21-0.854-5.825-2.564c-1.429,1.212-2.144,3.464-2.144,6.757v5.715
		c0,2.611-2.136,4.748-4.748,4.748H86.16c-2.611,0-4.748-2.136-4.748-4.748V42.659c0-2.611,2.137-4.748,4.748-4.748h4.904
		C93.676,37.911,95.812,39.295,95.812,40.987z"/>
</g>
<g>
	<path fill="#FFFFFF" d="M191.439,71.764c0,1.642,1.192,1.288,2.649-0.783c0,0,1.705-2.426,5.082-2.426
		c1.884,0,3.437,0.617,4.656,1.854c1.221,1.234,1.83,2.802,1.83,4.701c0,1.988-0.601,3.598-1.798,4.826
		c-1.196,1.229-2.762,1.842-4.688,1.842c-2.2,0-4.084-0.829-5.649-2.487c-1.388,1.177-2.082,3.36-2.082,6.556v5.545
		c0,2.533-2.072,4.604-4.605,4.604h-4.756c-2.533,0-4.607-2.072-4.607-4.604V73.386c0-2.534,2.074-4.605,4.607-4.605h4.756
		C189.367,68.78,191.439,70.122,191.439,71.764z"/>
</g>
<g>
	<path fill="#FFFFFF" d="M140.705,37.911c2.611,0,4.748,2.137,4.748,4.748v18.559c0,2.611-2.137,4.748-4.748,4.748h-4.299
		c-2.611,0-4.748-1.106-4.748-2.458c0-1.345-0.021-2.447-0.047-2.458c-0.281-0.116-1.525,1.677-1.705,1.882
		c-1.331,1.527-2.77,2.211-4.704,2.784c-1.229,0.363-2.516,0.509-3.795,0.472c-2.416-0.072-4.775-0.889-6.537-2.597
		c-1.794-1.739-2.692-4.178-2.692-7.315V42.659c0-2.611,2.137-4.748,4.748-4.748h4.112c2.611,0,4.748,2.137,4.748,4.748v5.627
		c0,1.516,0.067,3.028,0.205,4.538c0.098,1.089-0.068,2.486,0.491,3.458c0.763,1.329,4.547,0.737,4.547-0.918
		c0-0.003,0-12.705,0-12.705c0-2.611,2.136-4.748,4.748-4.748H140.705z"/>
</g>
<g>
	<path fill="#FFFFFF" d="M167.721,37.911c1.653,0,3.006,1.772,3.006,3.938c0,2.167-1.353,3.939-3.006,3.939
		c-1.652,0-4.046,0.747-4.046,2.399c-0.003,1.569-0.616,5.695,1.425,6.396c1.672,0.574,4.613-2.369,6.189-1.063
		c1.373,1.139,3.539,9.49-4.583,12.06c-5.062,1.601-11.468,0.086-14.502-4.356c-1.336-1.955-1.89-4.303-1.89-6.652v-4.035
		c0-2.611-1.32-4.748-2.937-4.748c-1.614,0-1.254-1.318,0.8-2.93l12.799-10.033c2.057-1.61,3.737-1.125,3.737,1.079
		C164.716,36.108,166.068,37.911,167.721,37.911z"/>
</g>
<g>
	<path fill="#FFFFFF" d="M184.029,30.409c2.611,0,4.748,2.136,4.748,4.748v1.666c0,2.611,1.693,3.444,3.762,1.852
		c0,0,1.295-0.996,4.742-0.996c3.186,0,5.697,0.933,7.537,2.796c1.842,1.864,2.762,4.459,2.762,7.783v12.96
		c0,2.611-2.137,4.748-4.748,4.748h-4.111c-2.611,0-4.748-2.136-4.748-4.748c0,0,0-6.72,0-6.722c0-1.639,0.162-3.255,0.004-4.893
		c-0.09-0.909-0.178-1.772-0.656-2.571c-0.543-0.906-1.059-0.826-2.073-0.826c-3.158,0-2.472,3.528-2.485,5.666
		c-0.019,2.521,0.026,5.042,0.016,7.563c-0.004,0.595,0.002,1.188,0.002,1.782c0,2.611-2.137,4.748-4.748,4.748h-4.93
		c-2.609,0-4.746-2.136-4.746-4.748V35.156c0-2.611,2.137-4.748,4.746-4.748L184.029,30.409L184.029,30.409z"/>
</g>
<g>
	<path fill="#FFFFFF" d="M33.236,91.1c0,2.525-2.066,4.592-4.593,4.592h-6.051c-2.526,0-4.593-2.065-4.593-4.592V65.889
		c0-2.525,2.067-4.592,4.593-4.592h6.051c2.526,0,4.593,2.066,4.593,4.592v3.416c0,2.525,1.745,4.592,3.877,4.592
		c2.132,0,3.876-2.066,3.876-4.592v-3.416c0-2.525,2.067-4.592,4.593-4.592h6.05c2.526,0,4.593,2.066,4.593,4.592V91.1
		c0,2.525-2.066,4.592-4.593,4.592h-6.05c-2.526,0-4.593-2.065-4.593-4.592v-3.596c0-2.525-1.744-4.593-3.876-4.593
		c-2.133,0-3.877,2.067-3.877,4.593V91.1z"/>
</g>
<g>
	<path fill="#FFFFFF" d="M87.35,68.555c2.526,0,4.593,2.065,4.593,4.592V91.1c0,2.525-2.067,4.592-4.593,4.592h-4.159
		c-2.526,0-4.592-1.069-4.592-2.377c0-1.309-0.021-2.377-0.046-2.377c-0.025,0-1.29,1.346-2.81,2.989c0,0,0,0-1.428,0.798
		c-1.428,0.795-3.125,1.193-5.095,1.193c-2.84,0-5.127-0.843-6.862-2.525c-1.736-1.682-2.604-4.041-2.604-7.076v-13.17
		c0-2.526,2.067-4.592,4.592-4.592h3.978c2.526,0,4.593,2.065,4.593,4.592v5.442c0,1.606,0.078,3.216,0.261,4.812
		c0.121,1.047-0.189,2.597,0.776,3.326c1.207,0.912,3.595-0.039,4.031-1.416c0.253-0.795-0.041-1.896-0.003-2.738
		c0.112-2.5,0-5.026-0.002-7.53c0-0.632,0.008-1.265,0.008-1.896c0-2.526,2.067-4.592,4.593-4.592H87.35z"/>
</g>
<g>
	<path fill="#FFFFFF" d="M104.785,61.296c2.526,0,4.593,1.82,4.593,4.046c0,2.419,1.577,3.135,3.705,2.985
		c4.109-0.289,8.182,0.87,11.126,3.832c2.539,2.555,3.811,5.771,3.811,9.647c0,3.906-1.33,7.198-3.991,9.871
		c-2.66,2.676-6.401,4.014-11.225,4.014h-12.763c-2.526,0-4.593-2.066-4.593-4.594V65.889c0-2.527,2.067-4.593,4.593-4.593H104.785z
		 M108.91,81.157c-0.206,0.478-0.312,0.999-0.283,1.526c0.216,3.896,6.025,3.59,6.025-0.381
		C114.652,78.909,110.248,78.048,108.91,81.157z"/>
</g>
<g>
	<path fill="#FFFFFF" d="M130.447,88.907c0-2.028,0.718-3.761,2.152-5.195c1.436-1.435,3.168-2.153,5.195-2.153
		c2.014,0,3.738,0.719,5.174,2.153s2.152,3.167,2.152,5.195c0,2.014-0.717,3.743-2.152,5.184c-1.436,1.443-3.16,2.163-5.174,2.163
		c-2.027,0-3.76-0.72-5.195-2.163C131.165,92.648,130.447,90.921,130.447,88.907z"/>
</g>
<g enable-background="new    ">
	<path fill="#FF685D" d="M103.549,29.198c-1.07,0.623-2.022,1.168-2.858,1.636c-0.836,0.467-1.58,0.856-2.231,1.168
		s-1.231,0.545-1.738,0.701c-0.507,0.155-0.967,0.233-1.379,0.233c-0.841,0-1.583-0.256-2.224-0.768
		c-0.642-0.512-1.179-1.249-1.611-2.212c-0.431-0.962-0.755-2.128-0.971-3.496c-0.216-1.369-0.324-2.91-0.324-4.624
		c0-0.667,0.027-1.379,0.083-2.136c0.055-0.757,0.132-1.508,0.231-2.254c-0.336-0.049-0.597-0.096-0.781-0.139
		c-0.185-0.044-0.381-0.087-0.588-0.131c-0.207-0.043-0.47-0.089-0.79-0.139s-0.781-0.111-1.386-0.187
		c-0.269-0.036-0.476-0.107-0.622-0.213s-0.251-0.229-0.319-0.372c-0.067-0.142-0.106-0.291-0.118-0.445
		c-0.011-0.155-0.017-0.288-0.017-0.399c0-0.176,0.109-0.31,0.327-0.402c0.218-0.092,0.498-0.161,0.839-0.207
		c0.341-0.047,0.716-0.072,1.124-0.078s0.8-0.003,1.175,0.009c0.375,0.011,0.71,0.02,1.006,0.024c0.296,0.006,0.5-0.002,0.612-0.024
		c0.3-1.498,0.68-2.949,1.142-4.353c0.461-1.403,0.977-2.651,1.549-3.745c0.572-1.093,1.197-1.969,1.875-2.629
		c0.677-0.66,1.388-0.991,2.133-0.991c0.479,0,0.916,0.134,1.311,0.4c0.395,0.268,0.732,0.623,1.01,1.067s0.493,0.965,0.643,1.56
		c0.15,0.595,0.226,1.214,0.226,1.858c0,0.534-0.078,1.098-0.234,1.69c-0.156,0.593-0.368,1.197-0.635,1.812
		s-0.582,1.238-0.943,1.869c-0.361,0.632-0.743,1.258-1.144,1.878c0.101-0.037,0.268-0.044,0.501-0.021s0.504,0.038,0.81,0.047
		c0.306,0.009,0.637,0.018,0.993,0.027c0.356,0.009,0.701,0.019,1.035,0.029c0.334,0.012,0.645,0.022,0.935,0.033
		c0.29,0.012,0.528,0.022,0.718,0.034c0.223,0.012,0.384,0.136,0.484,0.371s0.15,0.533,0.15,0.892c0,0.416-0.112,0.755-0.334,1.016
		c-0.223,0.262-0.468,0.392-0.735,0.392h-6.417c-0.324,0.445-0.651,0.882-0.981,1.311c-0.33,0.429-0.634,0.815-0.914,1.16
		c-0.044,0.689-0.083,1.368-0.117,2.036c-0.011,0.289-0.022,0.587-0.033,0.893c-0.011,0.307-0.022,0.609-0.034,0.91
		c-0.011,0.3-0.02,0.59-0.025,0.867c-0.006,0.278-0.008,0.534-0.008,0.769c0,0.601,0.056,1.107,0.167,1.519
		c0.112,0.412,0.274,0.748,0.486,1.01c0.212,0.262,0.472,0.45,0.779,0.567s0.65,0.176,1.031,0.176c0.233,0,0.526-0.056,0.877-0.167
		c0.351-0.111,0.735-0.265,1.153-0.459c0.417-0.195,0.857-0.426,1.32-0.693c0.462-0.267,0.918-0.559,1.37-0.876
		s0.883-0.65,1.295-1.001s0.785-0.71,1.12-1.077V29.198z M98.208,8.062c0-0.121-0.009-0.257-0.025-0.406
		c-0.017-0.15-0.053-0.291-0.109-0.424c-0.056-0.134-0.143-0.244-0.26-0.333s-0.282-0.133-0.494-0.133
		c-0.291,0-0.584,0.254-0.88,0.763c-0.296,0.508-0.581,1.156-0.854,1.946c-0.274,0.79-0.531,1.66-0.771,2.61
		c-0.24,0.95-0.46,1.872-0.662,2.767c0.167,0.017,0.335,0.031,0.502,0.044s0.341,0.026,0.52,0.043
		c0.335-0.561,0.684-1.168,1.047-1.822c0.363-0.654,0.689-1.297,0.98-1.93c0.291-0.632,0.531-1.223,0.721-1.772
		S98.208,8.414,98.208,8.062z"/>
	<path fill="#FF685D" d="M108.022,22.742c0.456-0.617,0.968-1.28,1.536-1.989s1.327-1.526,2.278-2.452s1.73-1.591,2.337-1.997
		c0.606-0.405,1.176-0.608,1.71-0.608c0.134,0,0.284,0.025,0.451,0.076c0.167,0.052,0.326,0.145,0.476,0.281
		c0.15,0.136,0.275,0.325,0.376,0.569c0.1,0.244,0.15,0.559,0.15,0.944c0,0.771-0.106,1.522-0.317,2.253
		c-0.211,0.731-0.612,1.619-1.202,2.662c-0.59,1.044-0.988,1.945-1.193,2.705c-0.206,0.76-0.309,1.554-0.309,2.381
		c0,0.454,0.067,0.816,0.2,1.089c0.134,0.272,0.306,0.408,0.518,0.408c0.267,0,0.551-0.057,0.851-0.169
		c0.301-0.112,0.601-0.258,0.901-0.438c0.3-0.18,0.595-0.385,0.885-0.615c0.289-0.23,0.562-0.469,0.818-0.717
		c0.612-0.573,1.212-1.225,1.802-1.955l0.284,4.443c-0.201,0.146-0.454,0.329-0.76,0.549c-0.306,0.219-0.646,0.451-1.018,0.697
		c-0.373,0.246-0.776,0.494-1.21,0.745s-0.871,0.473-1.31,0.666c-0.44,0.193-0.879,0.353-1.319,0.478
		c-0.439,0.126-0.859,0.188-1.26,0.188c-0.626,0-1.17-0.156-1.631-0.469c-0.461-0.313-0.84-0.711-1.136-1.193
		c-0.296-0.482-0.519-1.01-0.667-1.582c-0.148-0.573-0.222-1.113-0.222-1.623c0-0.359,0.049-0.761,0.148-1.205
		c0.098-0.444,0.22-0.891,0.364-1.341c0.145-0.449,0.307-0.888,0.486-1.314c0.18-0.428,0.348-0.81,0.504-1.146
		s0.292-0.612,0.408-0.826s0.191-0.337,0.226-0.371l-0.351-0.051c-0.189,0.121-0.509,0.43-0.96,0.925
		c-0.45,0.495-0.959,1.119-1.527,1.874c-0.567,0.754-1.155,1.601-1.761,2.542c-0.606,0.94-1.154,1.912-1.644,2.913
		c-0.245,0.496-0.445,0.928-0.601,1.296c-0.156,0.369-0.309,0.666-0.459,0.891s-0.314,0.395-0.492,0.509
		c-0.178,0.115-0.407,0.173-0.685,0.173c-0.367,0-0.657-0.099-0.868-0.298c-0.212-0.198-0.373-0.462-0.484-0.791
		s-0.184-0.703-0.217-1.121s-0.05-0.847-0.05-1.286c0-0.764,0.008-1.764,0.025-3.001c0.017-1.237,0.069-2.608,0.158-4.113
		c0.089-1.506,0.251-3.064,0.488-4.679c0.235-1.613,0.47-3.219,0.704-4.815c0.233-1.598,0.582-3.118,1.044-4.561
		c0.462-1.443,1.025-2.714,1.688-3.812s1.44-1.97,2.331-2.616c0.892-0.646,1.917-0.97,3.075-0.97c0.601,0,1.093,0.09,1.478,0.269
		c0.384,0.179,0.689,0.431,0.918,0.755c0.228,0.325,0.386,0.714,0.476,1.167c0.089,0.453,0.133,0.96,0.133,1.52
		c0,0.832-0.117,1.754-0.351,2.766c-0.233,1.011-0.542,2.062-0.926,3.152s-0.821,2.194-1.31,3.312
		c-0.49,1.118-0.991,2.203-1.502,3.254c-0.512,1.052-1.016,2.043-1.511,2.977c-0.495,0.933-0.932,1.753-1.31,2.461L108.022,22.742z
		 M109.504,12.239c0.658-1.702,1.134-3.138,1.43-4.306s0.443-2.03,0.443-2.587c0-0.846-0.119-1.269-0.356-1.269
		c-0.29,0-0.718,0.473-1.286,1.418c-0.567,0.946-1.235,2.319-2.003,4.121c-0.189,0.612-0.365,1.246-0.526,1.902
		s-0.29,1.312-0.384,1.966c-0.094,0.655-0.188,1.298-0.279,1.931c-0.091,0.633-0.177,1.229-0.258,1.791
		c-0.244,1.32-0.431,2.612-0.561,3.878c0.301-0.701,0.63-1.464,0.987-2.287s0.708-1.638,1.054-2.444
		c0.345-0.807,0.671-1.569,0.978-2.286C109.049,13.35,109.303,12.74,109.504,12.239z"/>
	<path fill="#FF685D" d="M125.84,32.937c-1.04,0-1.949-0.192-2.728-0.578c-0.779-0.385-1.429-0.902-1.948-1.554
		s-0.909-1.404-1.169-2.26s-0.39-1.753-0.39-2.692c0-0.615,0.116-1.349,0.349-2.199c0.232-0.852,0.473-1.606,0.722-2.266
		c0.249-0.658,0.562-1.287,0.938-1.886s0.816-1.126,1.32-1.582c0.504-0.455,1.068-0.817,1.693-1.087
		c0.625-0.269,1.32-0.403,2.084-0.403c0.623,0,1.203,0.1,1.737,0.3s0.999,0.48,1.396,0.842c0.395,0.361,0.704,0.798,0.927,1.309
		c0.224,0.512,0.335,1.084,0.335,1.717c0,0.675-0.227,1.432-0.678,2.269c-0.451,0.838-0.979,1.557-1.581,2.154
		c-0.603,0.599-1.318,1.132-2.149,1.6c-0.83,0.468-1.731,0.832-2.701,1.094c0.167,0.294,0.332,0.538,0.494,0.734
		c0.162,0.196,0.326,0.349,0.494,0.457c0.167,0.108,0.343,0.185,0.527,0.229c0.184,0.043,0.382,0.065,0.595,0.065
		c0.668,0,1.371-0.131,2.111-0.393c0.74-0.261,1.461-0.587,2.161-0.979c0.701-0.392,1.363-0.819,1.986-1.281
		c0.623-0.463,1.151-0.9,1.585-1.313l2.154,2.187c-0.98,1.043-2.02,1.966-3.121,2.768c-0.479,0.344-0.994,0.682-1.545,1.015
		c-0.551,0.332-1.129,0.627-1.735,0.885s-1.235,0.464-1.886,0.618C127.167,32.859,126.508,32.937,125.84,32.937z M123.611,24.987
		c0.402,0,0.841-0.101,1.315-0.302s0.916-0.46,1.324-0.775c0.407-0.315,0.807-0.74,1.197-1.273c0.391-0.532,0.587-0.974,0.587-1.321
		c0-0.49-0.093-0.893-0.276-1.208c-0.185-0.315-0.41-0.474-0.679-0.474c-0.48,0-0.892,0.087-1.231,0.262
		c-0.341,0.174-0.625,0.399-0.854,0.677c-0.229,0.278-0.414,0.593-0.553,0.947c-0.14,0.354-0.302,0.791-0.486,1.313
		c-0.185,0.522-0.288,0.952-0.31,1.289C123.622,24.46,123.611,24.748,123.611,24.987z"/>
</g>
<g>
	<path fill="#FFFFFF" d="M161.57,95.893c-4.133,0-7.541-1.246-10.221-3.738c-2.683-2.493-4.022-5.742-4.022-9.745
		c0-4.004,1.323-7.265,3.969-9.779s6.069-3.772,10.274-3.772c4.236,0,7.681,1.258,10.334,3.772c2.652,2.515,3.977,5.774,3.977,9.779
		c0,3.989-1.324,7.233-3.977,9.733C169.251,94.645,165.807,95.893,161.57,95.893z M161.57,79.156c-0.865,0-1.57,0.277-2.112,0.834
		s-0.812,1.275-0.812,2.158c0,0.881,0.271,1.597,0.812,2.146c0.542,0.549,1.247,0.823,2.112,0.823c0.884,0,1.6-0.274,2.147-0.823
		c0.55-0.55,0.824-1.265,0.824-2.146c0-0.896-0.274-1.619-0.824-2.168C163.17,79.432,162.454,79.156,161.57,79.156z"/>
</g>
<g>
	<path fill="#FFFFFF" d="M227.154,68.307h-5.08c-3.352,0-5.727,0.125-7.127,0.377c-1.4,0.25-2.678,0.719-3.826,1.403
		c-1.15,0.687-2.154,1.779-3.016,3.278c-0.859,1.5-1.289,3.293-1.289,5.379c0,3.167,1.01,5.695,3.026,7.583
		c2.318,2.17,5.158,2.618,8.216,2.308c1.317-0.134,5.344-1.847,5.979,0.223c1.287,4.188-9.045,2.115-10.629,1.832
		c-3.473-0.619-6.812,0.801-6.418,4.863c0.246,2.551,0.951,4.746,3.385,6.026c2.377,1.25,5.012,1.747,7.672,1.877
		c5.58,0.274,12.164-0.625,14.184-6.656c0.617-1.848,0.898-3.868,1.062-5.807c0.213-2.558,0.369-5.134,0.371-7.701
		c0.002-2.372,0.062-4.758-0.011-7.128c-0.059-2.01-0.149-4.055-1.586-5.614C230.779,69.155,229.068,68.307,227.154,68.307z
		 M219.385,81.146c-1.572,0-2.848-1.274-2.848-2.848c0-1.572,1.275-2.849,2.848-2.849c1.573,0,2.85,1.276,2.85,2.849
		C222.234,79.872,220.957,81.146,219.385,81.146z"/>
</g>
</svg>
