<?xml version="1.0" encoding="utf-8"?>
<!-- Generator: Adobe Illustrator 16.0.0, SVG Export Plug-In . SVG Version: 6.00 Build 0)  -->
<!DOCTYPE svg PUBLIC "-//W3C//DTD SVG 1.1//EN" "http://www.w3.org/Graphics/SVG/1.1/DTD/svg11.dtd">
<svg version="1.1" id="Layer_1" xmlns="http://www.w3.org/2000/svg" xmlns:xlink="http://www.w3.org/1999/xlink" x="0px" y="0px"
	 width="300px" height="300px" viewBox="0 0 300 300" enable-background="new 0 0 300 300" xml:space="preserve">
<g>
	<g>
		<circle fill="#F5957F" stroke="#FF7368" stroke-width="14.1019" stroke-miterlimit="10" cx="149.425" cy="167.467" r="116.794"/>
		<g>
			<linearGradient id="SVGID_1_" gradientUnits="userSpaceOnUse" x1="118.0986" y1="252.9697" x2="150.6024" y2="220.4659">
				<stop  offset="0" style="stop-color:#F5957F"/>
				<stop  offset="1" style="stop-color:#EB8979"/>
			</linearGradient>
			<path fill="url(#SVGID_1_)" d="M62.923,227.409c0,0,7.756,24.679,44.422,38.781c42.776,16.452,73.331,4.935,73.331,4.935
				l28.008-30.766L95.309,195.161L62.923,227.409z"/>
		</g>
		<g>
			<linearGradient id="SVGID_2_" gradientUnits="userSpaceOnUse" x1="168.3594" y1="171.5312" x2="190.9224" y2="151.7887">
				<stop  offset="0" style="stop-color:#F5957F"/>
				<stop  offset="1" style="stop-color:#EB8979"/>
			</linearGradient>
			<polygon fill="url(#SVGID_2_)" points="119.331,146.323 203.942,218.948 242.493,180.823 170.719,90.917 			"/>
		</g>
		<g>
			
				<rect x="216.438" y="147.285" transform="matrix(0.8335 -0.5525 0.5525 0.8335 -54.1495 150.7461)" fill="#FABA9D" width="13.188" height="35.857"/>
			<g>
				<path fill="#EFB297" d="M226.521,182.391l-19.082-28.723l4.094-2.713l19.092,28.891c-4.067,2.07-4.388,4.192-4.232,5.641
					c0.343,3.192,2.788,4.209,2.788,4.209s-1.244-0.162-2.269-1.65C225.751,186.354,225.3,184.212,226.521,182.391z"/>
			</g>
			<path fill="#B46848" d="M219.557,103.479c9.131,13.772,3.313,28.155,2.449,41.296c-0.323,4.955,0.96,8.398,0.96,8.398
				l-11.015,7.27c0,0-2.508-2.291-7.744-4.142c-12.25-4.328-27.525-4.86-36.523-18.434c-11.571-17.454-9.34-39.302,4.984-48.798
				C186.992,79.572,207.985,86.024,219.557,103.479z"/>
			<g>
				<path fill="#9E5B3E" d="M172.439,89.189c0.3-0.218,1.31-0.868,2.597-1.536c-14.152,11.051-15.558,29.445-1.759,46.342
					c10.451,12.797,21.895,14.739,34.336,19.063c4.589,1.595,8.308,4.587,8.423,4.688l-4.091,2.702c0,0-2.864-2.474-7.552-4.103
					c-12.441-4.324-24.229-3.756-35.628-16.476C154.788,124.276,156.526,100.822,172.439,89.189z"/>
			</g>
			<g>
				<circle fill="#BB6C4B" cx="193.286" cy="134.04" r="2.204"/>
				<circle fill="#BB6C4B" cx="201.898" cy="134.341" r="2.204"/>
				<circle fill="#BB6C4B" cx="198.516" cy="125.705" r="2.203"/>
				<circle fill="#BB6C4B" cx="190.084" cy="126.308" r="2.205"/>
				<circle fill="#BB6C4B" cx="195.841" cy="118.405" r="2.204"/>
				<circle fill="#BB6C4B" cx="206.388" cy="121.988" r="2.204"/>
				<circle fill="#BB6C4B" cx="210.9" cy="128.793" r="2.204"/>
				<circle fill="#BB6C4B" cx="192.651" cy="143.595" r="2.204"/>
				<circle fill="#BB6C4B" cx="203.428" cy="144.623" r="2.204"/>
				<circle fill="#BB6C4B" cx="211.667" cy="138.199" r="2.204"/>
				<circle fill="#BB6C4B" cx="213.092" cy="146.149" r="2.204"/>
				<circle fill="#BB6C4B" cx="183.786" cy="133.127" r="2.203"/>
			</g>
			<circle fill="#BB6C4B" cx="209.11" cy="99.523" r="2.204"/>
			<circle fill="#BB6C4B" cx="208.694" cy="110.601" r="2.204"/>
			<circle fill="#BB6C4B" cx="174.765" cy="129.218" r="2.204"/>
			<circle fill="#BB6C4B" cx="217.563" cy="110.181" r="2.203"/>
			<circle fill="#BB6C4B" cx="217.77" cy="119.004" r="2.204"/>
			<circle fill="#BB6C4B" cx="219.575" cy="129.675" r="2.203"/>
			<path fill="#FABA9D" d="M235.274,175.881c-1.498,0.956-2.338,2.555-2.386,4.207c-1.479-0.574-3.201-0.466-4.642,0.452
				c-2.403,1.533-3.109,4.723-1.577,7.123c1.529,2.405,4.719,3.11,7.123,1.579c0.123-0.078,0.234-0.168,0.35-0.255l0.009,0.003
				c0,0,0.006-0.01,0.021-0.022c0.442-0.345,0.815-0.746,1.116-1.19c0.513-0.507,1.138-1.067,1.733-1.463
				c1.362-0.904,2.339-0.765,3.798-1.73c2.403-1.532,3.11-4.722,1.577-7.125C240.865,175.057,237.676,174.35,235.274,175.881z"/>
		</g>
		<g>
			<linearGradient id="SVGID_3_" gradientUnits="userSpaceOnUse" x1="69.3022" y1="187.0156" x2="101.9727" y2="154.3451">
				<stop  offset="0" style="stop-color:#F5957F"/>
				<stop  offset="1" style="stop-color:#EB8979"/>
			</linearGradient>
			<path fill="url(#SVGID_3_)" d="M44.357,140.918c-6.11,15.512-3.29,34.783-3.29,34.783l42.775,68.631l72.177-72.077
				l-81.288-62.627C74.731,109.628,44.601,140.299,44.357,140.918z"/>
		</g>
		<g>
			<g>
				<path fill="#FF9EA5" d="M197.441,193.996c-14.692,0-14.692,5.295-29.386,5.295c-14.69,0-14.69-5.295-29.383-5.295
					c-14.691,0-14.691,5.295-29.383,5.295c-6.758,0-10.495-1.554-13.981-3.03v23.7v17.851v4.343
					c3.425,0.972,7.342,1.687,14.278,1.687c14.693,0,14.693-5.294,29.385-5.294c14.692,0,14.692,5.294,29.384,5.294
					c14.691,0,14.691-5.294,29.383-5.294c4.872,0,8.175,0.809,10.944,1.812v-45.431
					C205.947,194.364,202.411,193.996,197.441,193.996z"/>
			</g>
			<g>
				<path fill="#FEE7DA" d="M208.684,197.518c-2.736-0.564-6.272-0.934-11.242-0.934c-14.692,0-14.692,5.295-29.386,5.295
					c-14.69,0-14.69-5.295-29.383-5.295c-14.691,0-14.691,5.295-29.383,5.295c-6.758,0-10.495-1.554-13.981-3.03v14.364
					c3.246,2.076,5.708,3.191,13.198,2.56c14.651-1.232,15.599-5.564,30.291-5.564c14.691,0,17.958,7.018,28.776,6.533
					c14.68-0.657,15.178-5.926,29.867-5.926c4.876,0,8.448,0.81,11.242,1.813v-11.888v-2.258V197.518z"/>
			</g>
			<g>
				<g>
					<path fill="#FEE7DA" d="M197.441,217.878c-14.692,0-14.692,5.295-29.386,5.295c-14.69,0-14.782-5.947-29.475-5.947
						c-14.69,0-14.665,5.387-29.292,6.914c-7.921,0.828-10.495-0.102-13.981-1.578v10.252c3.425,0.972,7.046,1.724,13.982,1.687
						c17.823-0.095,14.599-5.66,29.29-5.66c14.692,0,14.734,6.049,29.425,6.049c14.692,0,14.746-5.685,29.436-5.685
						c4.876,0,8.448,0.81,11.242,1.815v-11.232C205.949,219.138,202.373,217.878,197.441,217.878z"/>
				</g>
				<path fill="#C9695B" d="M196.953,193.189c-6.324,0.142-11.002,1.577-15.521,2.964c-3.981,1.221-7.741,2.374-12.358,2.521
					c-4.957,0.161-10.237-1.284-15.343-2.682c-5.033-1.377-10.238-2.803-15.36-2.803c-5.055,0-8.979,1.272-13.133,2.62
					c-4.342,1.408-8.833,2.864-15.021,2.864c-8.292,0-14.847-3.311-14.907-3.343c-0.158-0.089,0.166-0.138,0-0.17v4.165
					c2.231,1.042,7.786,3.221,14.907,3.221c6.68,0,11.412-1.535,15.988-3.02c3.911-1.269,7.605-2.466,12.167-2.466
					c4.704,0,9.48,1.308,14.537,2.691c5.045,1.381,10.255,2.806,15.401,2.806c0.288,0,0.577-0.004,0.863-0.013
					c5.035-0.162,9.173-1.432,13.176-2.659c4.317-1.324,8.781-2.694,14.676-2.826c6.819-0.151,11.401,1.355,11.447,1.369
					c0.076,0.025,0.145,0.04,0.213,0.054v-3.993C207.003,194.027,202.748,193.057,196.953,193.189z"/>
			</g>
		</g>
		<g>
			<g>
				<path fill="#D84838" d="M126.32,177.757c-7.401,0-15.037-0.875-20.95-2.401c-20.896-5.393-35.491-22.526-35.491-41.666
					c0-20.614,16.77-37.385,37.384-37.385c4.488,0,9.5,0.926,13.751,2.542c6.958,2.642,13.649,8.271,18.356,15.444
					c2.939,4.479,4.528,9.992,4.723,16.387c0.067,2.176-0.113,4.33-0.287,6.413c-0.269,3.217-0.522,6.255,0.154,8.944
					c0.662,2.634,2.501,4.575,5.456,7.038c2.468,2.056,7.607,6.335,5.872,13.271c-2.483,9.931-19.211,11.414-28.964,11.414
					C126.322,177.757,126.321,177.757,126.32,177.757z"/>
				<path fill="#FABA9D" d="M107.263,99.97c4.086,0,8.638,0.854,12.45,2.303c6.754,2.564,12.665,8.041,16.593,14.028
					c2.841,4.33,3.968,9.367,4.124,14.487c0.163,5.308-1.333,10.927-0.024,16.138c0.974,3.875,3.691,6.482,6.664,8.96
					c2.998,2.496,5.741,5.256,4.663,9.566c-1.542,6.169-13.207,8.639-25.412,8.639c-7.131,0-14.448-0.844-20.034-2.285
					c-18.032-4.653-32.742-19.495-32.742-38.117C73.544,115.066,88.641,99.97,107.263,99.97 M107.263,92.64
					c-22.634,0-41.049,18.415-41.049,41.05c0,20.812,15.725,39.404,38.24,45.215c6.2,1.601,14.17,2.518,21.866,2.518
					c23.948,0,30.904-7.717,32.523-14.19c2.293-9.169-4.52-14.842-7.084-16.978c-2.37-1.977-3.826-3.448-4.245-5.114
					c-0.527-2.097-0.298-4.841-0.056-7.746c0.182-2.185,0.371-4.444,0.297-6.831c-0.215-7.079-2.006-13.231-5.322-18.284
					c-5.121-7.804-12.454-13.949-20.12-16.859C117.665,93.653,112.178,92.64,107.263,92.64L107.263,92.64z"/>
			</g>
			<g>
				<g>
					<path fill="#E97158" d="M88.178,105.894c-6.815,7.271-9.477,13.327-10.724,20.954c-4.398,26.876,25.063,45.404,50.053,47.236
						c-7.5,0.099-15.323-0.757-21.221-2.277c-18.032-4.653-32.742-19.495-32.742-38.117
						C73.544,122.152,79.341,111.974,88.178,105.894z"/>
				</g>
			</g>
			<circle fill="#FFFFFF" cx="100.438" cy="123.765" r="7.537"/>
		</g>
	</g>
	<g>
		<g>
			<path fill="#FF7368" d="M56.451,80.737c-2.625,2.406-6.917,2.035-9.537-0.825l-10.22-11.158c-2.621-2.859-2.678-7.109-0.13-9.443
				s6.437-4.037,8.641-3.784c2.204,0.253,3.961-1.357,3.905-3.578c-0.056-2.221,1.981-5.945,4.525-8.276
				c2.543-2.33,6.769-1.898,9.389,0.962l10.222,11.157c2.62,2.859,2.614,7.167-0.012,9.573c-2.626,2.405-6.919,2.035-9.538-0.825
				l-0.36-0.394c-2.62-2.86-5.499-3.339-4.662-1.459c1.231,2.768-0.737,4.703-3.617,3.312c-1.853-0.894-1.574,1.913,1.046,4.773
				l0.361,0.393C59.082,74.023,59.077,78.332,56.451,80.737z"/>
		</g>
		<g>
			<path fill="#FF7368" d="M91.445,45.991c2.835-1.303,5.841-0.868,6.684,0.965c0.843,1.834-1.351,4.659-4.875,6.276l-9.242,4.247
				c-3.524,1.618-7.731,0.06-9.349-3.466l-6.317-13.75c-1.619-3.523-0.061-7.732,3.465-9.351l9.241-4.246
				c3.523-1.618,7.096-1.442,7.938,0.391c0.843,1.834-0.786,4.399-3.622,5.702c-2.833,1.301-4.812,3.107-4.396,4.012
				c0.416,0.904,2.369,0.903,4.342-0.003c1.972-0.906,4.275-0.147,5.117,1.686c0.842,1.834-0.083,4.075-2.055,4.982
				c-1.972,0.905-3.247,2.383-2.833,3.283C85.954,47.621,88.61,47.292,91.445,45.991z"/>
		</g>
		<g>
			<path fill="#FF7368" d="M110.203,42.985c-0.157,1.427-2.252,4.188-5.728,4.961c-3.477,0.772-6.834-2.708-6.386-6.56l1.943-16.732
				c0.447-3.851,3.91-7.692,7.696-8.533l4.242-0.944c3.785-0.84,8.549,1.171,10.586,4.472l8.847,14.333
				c2.036,3.3,0.266,7.715-3.206,8.486c-3.471,0.771-6.325-0.685-7.073-1.911c-0.747-1.225-3.811-3.67-6.363-3.104
				C112.21,38.021,110.362,41.558,110.203,42.985z M111.449,29.322c-0.153,1.497,0.584,3.459,1.957,3.372
				C117.43,32.438,111.967,24.32,111.449,29.322z"/>
			<path fill="none" stroke="#FF7368" stroke-width="4.324" stroke-miterlimit="10" d="M116.861,25.05
				c-0.885,2.457,0.553,6.154,3.457,6.181c3.177,0.03,3.448-3.694,2.539-5.984c-0.923-2.332-3.897-3.293-5.523-1.092
				C117.134,24.425,116.976,24.727,116.861,25.05z"/>
		</g>
		<g>
			<path fill="#FF7368" d="M132.353,24.433c-0.414-0.055-0.814-0.161-1.181-0.388c-1.781-1.102-2.096-4.113-2.099-5.99
				c-0.004-3.562,3.164-6.48,7.041-6.485l11.876-0.018c3.878-0.006,7.055,2.904,7.059,6.464c0.007,4.275-1.31,5.264-5.062,6.182
				c-3.144,0.77-1.832,4.84-1.431,7.354l0.004,2.182c0.006,3.878-2.903,7.054-6.465,7.06c-3.561,0.005-6.48-3.164-6.485-7.042
				c0,0-0.002-2.179-0.002-2.18c-0.002-2.067,1.98-4.329,0.103-6.27C134.792,24.355,133.518,24.591,132.353,24.433z"/>
		</g>
	</g>
</g>
</svg>
