<?xml version="1.0" encoding="utf-8"?>
<!-- Generator: Adobe Illustrator 16.0.0, SVG Export Plug-In . SVG Version: 6.00 Build 0)  -->
<!DOCTYPE svg PUBLIC "-//W3C//DTD SVG 1.1//EN" "http://www.w3.org/Graphics/SVG/1.1/DTD/svg11.dtd">
<svg version="1.1" id="Layer_1" xmlns="http://www.w3.org/2000/svg" xmlns:xlink="http://www.w3.org/1999/xlink" x="0px" y="0px"
	 width="300px" height="300px" viewBox="0 0 300 300" enable-background="new 0 0 300 300" xml:space="preserve">
<g>
	<g>
		<circle fill="#F5957F" stroke="#FF7368" stroke-width="14.1429" stroke-miterlimit="10" cx="149.729" cy="169.079" r="117.133"/>
		<g>
			<linearGradient id="SVGID_1_" gradientUnits="userSpaceOnUse" x1="118.3115" y1="254.8291" x2="150.9093" y2="222.2313">
				<stop  offset="0" style="stop-color:#F5957F"/>
				<stop  offset="1" style="stop-color:#EB8979"/>
			</linearGradient>
			<path fill="url(#SVGID_1_)" d="M62.977,229.195c0,0,7.778,24.75,44.55,38.893c42.9,16.501,73.542,4.951,73.542,4.951
				l28.09-30.855l-113.704-45.33L62.977,229.195z"/>
		</g>
		<g>
			<linearGradient id="SVGID_2_" gradientUnits="userSpaceOnUse" x1="168.7178" y1="173.1562" x2="191.3466" y2="153.356">
				<stop  offset="0" style="stop-color:#F5957F"/>
				<stop  offset="1" style="stop-color:#EB8979"/>
			</linearGradient>
			<polygon fill="url(#SVGID_2_)" points="119.548,147.874 204.405,220.71 243.067,182.475 171.085,92.306 			"/>
		</g>
		<g>
			
				<rect x="216.936" y="148.839" transform="matrix(0.8335 -0.5525 0.5525 0.8335 -54.9498 151.2907)" fill="#FABA9D" width="13.228" height="35.961"/>
			<g>
				<path fill="#EFB297" d="M227.05,184.047l-19.138-28.807l4.106-2.721l19.146,28.974c-4.08,2.076-4.401,4.205-4.245,5.657
					c0.345,3.202,2.796,4.222,2.796,4.222s-1.247-0.162-2.274-1.655C226.277,188.021,225.823,185.872,227.05,184.047z"/>
			</g>
			<path fill="#B46848" d="M220.064,104.904c9.157,13.813,3.321,28.237,2.457,41.417c-0.324,4.968,0.962,8.422,0.962,8.422
				l-11.047,7.292c0,0-2.516-2.299-7.767-4.154c-12.284-4.342-27.604-4.875-36.628-18.487c-11.606-17.505-9.368-39.417,4.997-48.941
				C187.406,80.929,208.459,87.399,220.064,104.904z"/>
			<g>
				<path fill="#9E5B3E" d="M172.81,90.574c0.301-0.218,1.314-0.871,2.605-1.541c-14.194,11.083-15.603,29.531-1.766,46.477
					c10.483,12.835,21.96,14.782,34.437,19.118c4.602,1.6,8.332,4.602,8.446,4.703l-4.101,2.709c0,0-2.874-2.479-7.575-4.114
					c-12.477-4.337-24.3-3.768-35.731-16.522C155.106,125.762,156.852,102.241,172.81,90.574z"/>
			</g>
			<g>
				<circle fill="#BB6C4B" cx="193.717" cy="135.555" r="2.21"/>
				<circle fill="#BB6C4B" cx="202.354" cy="135.856" r="2.21"/>
				<circle fill="#BB6C4B" cx="198.963" cy="127.196" r="2.21"/>
				<circle fill="#BB6C4B" cx="190.505" cy="127.8" r="2.21"/>
				<circle fill="#BB6C4B" cx="196.279" cy="119.874" r="2.209"/>
				<circle fill="#BB6C4B" cx="206.858" cy="123.468" r="2.211"/>
				<circle fill="#BB6C4B" cx="211.382" cy="130.292" r="2.21"/>
				<circle fill="#BB6C4B" cx="193.081" cy="145.138" r="2.21"/>
				<circle fill="#BB6C4B" cx="203.889" cy="146.168" r="2.211"/>
				<circle fill="#BB6C4B" cx="212.152" cy="139.726" r="2.21"/>
				<circle fill="#BB6C4B" cx="213.581" cy="147.699" r="2.21"/>
				<circle fill="#BB6C4B" cx="184.19" cy="134.639" r="2.209"/>
			</g>
			<circle fill="#BB6C4B" cx="209.587" cy="100.937" r="2.21"/>
			<circle fill="#BB6C4B" cx="209.17" cy="112.048" r="2.21"/>
			<circle fill="#BB6C4B" cx="175.143" cy="130.718" r="2.21"/>
			<circle fill="#BB6C4B" cx="218.065" cy="111.626" r="2.21"/>
			<circle fill="#BB6C4B" cx="218.272" cy="120.475" r="2.21"/>
			<circle fill="#BB6C4B" cx="220.083" cy="131.177" r="2.21"/>
			<path fill="#FABA9D" d="M235.828,177.518c-1.503,0.959-2.345,2.562-2.393,4.22c-1.485-0.577-3.211-0.468-4.655,0.453
				c-2.411,1.537-3.119,4.734-1.583,7.144c1.535,2.412,4.734,3.119,7.144,1.582c0.125-0.078,0.237-0.167,0.351-0.255l0.009,0.003
				c0,0,0.008-0.009,0.021-0.022c0.445-0.345,0.819-0.748,1.12-1.193c0.516-0.508,1.142-1.071,1.739-1.466
				c1.365-0.907,2.347-0.768,3.81-1.736c2.408-1.537,3.118-4.736,1.581-7.146C241.436,176.69,238.236,175.982,235.828,177.518z"/>
		</g>
		<g>
			<linearGradient id="SVGID_3_" gradientUnits="userSpaceOnUse" x1="69.3735" y1="188.6846" x2="102.1389" y2="155.9192">
				<stop  offset="0" style="stop-color:#F5957F"/>
				<stop  offset="1" style="stop-color:#EB8979"/>
			</linearGradient>
			<path fill="url(#SVGID_3_)" d="M44.355,142.452c-6.127,15.558-3.299,34.887-3.299,34.887l42.899,68.828l72.387-72.286
				l-81.524-62.809C74.818,111.072,44.6,141.833,44.355,142.452z"/>
		</g>
		<g>
			<g>
				<path fill="#FF9EA5" d="M197.885,195.686c-14.735,0-14.735,5.311-29.471,5.311c-14.734,0-14.734-5.311-29.469-5.311
					c-14.734,0-14.734,5.311-29.468,5.311c-6.777,0-10.525-1.559-14.021-3.04v23.77v17.902v4.356
					c3.435,0.974,7.363,1.69,14.319,1.69c14.736,0,14.736-5.31,29.471-5.31c14.734,0,14.734,5.31,29.469,5.31
					s14.734-5.31,29.468-5.31c4.889,0,8.199,0.811,10.977,1.818v-45.562C206.415,196.055,202.868,195.686,197.885,195.686z"/>
			</g>
			<g>
				<path fill="#FEE7DA" d="M209.159,199.217c-2.744-0.566-6.291-0.936-11.274-0.936c-14.735,0-14.735,5.311-29.471,5.311
					c-14.734,0-14.734-5.311-29.469-5.311c-14.734,0-14.734,5.311-29.468,5.311c-6.777,0-10.525-1.559-14.021-3.04v14.406
					c3.255,2.082,5.724,3.2,13.237,2.566c14.694-1.235,15.644-5.58,30.378-5.58c14.735,0,18.012,7.037,28.86,6.552
					c14.723-0.659,15.221-5.942,29.956-5.942c4.889,0,8.472,0.812,11.272,1.819V202.45v-2.265V199.217z"/>
			</g>
			<g>
				<g>
					<path fill="#FEE7DA" d="M197.885,219.637c-14.735,0-14.735,5.31-29.471,5.31c-14.734,0-14.825-5.965-29.561-5.965
						c-14.733,0-14.707,5.403-29.377,6.936c-7.944,0.83-10.525-0.103-14.021-1.583v10.28c3.435,0.976,7.066,1.73,14.022,1.692
						c17.875-0.095,14.642-5.677,29.375-5.677c14.735,0,14.777,6.066,29.511,6.066c14.734,0,14.787-5.699,29.522-5.699
						c4.889,0,8.472,0.812,11.272,1.818V221.55C206.418,220.899,202.831,219.637,197.885,219.637z"/>
				</g>
				<path fill="#C9695B" d="M197.395,194.877c-6.343,0.142-11.032,1.581-15.567,2.972c-3.991,1.225-7.762,2.382-12.393,2.528
					c-4.973,0.161-10.268-1.289-15.388-2.69c-5.047-1.381-10.268-2.81-15.404-2.81c-5.07,0-9.005,1.275-13.171,2.627
					c-4.355,1.412-8.859,2.873-15.065,2.873c-8.317,0-14.89-3.32-14.951-3.353c-0.158-0.089,0.166-0.139,0-0.171v4.178
					c2.237,1.043,7.808,3.229,14.951,3.229c6.699,0,11.444-1.539,16.034-3.027c3.922-1.272,7.626-2.473,12.203-2.473
					c4.718,0,9.507,1.311,14.578,2.698c5.062,1.385,10.285,2.814,15.447,2.814c0.289,0,0.577-0.004,0.865-0.014
					c5.049-0.161,9.2-1.435,13.214-2.666c4.33-1.328,8.808-2.702,14.718-2.835c6.841-0.151,11.436,1.359,11.479,1.374
					c0.077,0.025,0.147,0.039,0.215,0.054v-4.005C207.474,195.717,203.207,194.743,197.395,194.877z"/>
			</g>
		</g>
		<g>
			<g>
				<path fill="#D84838" d="M126.559,179.398c-7.422,0-15.082-0.878-21.013-2.408c-20.957-5.409-35.594-22.592-35.594-41.787
					c0-20.674,16.819-37.493,37.492-37.493c4.499,0,9.525,0.929,13.791,2.548c6.979,2.65,13.69,8.295,18.41,15.489
					c2.947,4.492,4.541,10.022,4.736,16.435c0.067,2.182-0.113,4.341-0.287,6.429c-0.269,3.228-0.523,6.275,0.154,8.974
					c0.664,2.642,2.509,4.588,5.472,7.058c2.475,2.062,7.627,6.354,5.889,13.31c-2.49,9.96-19.269,11.447-29.049,11.447
					C126.56,179.398,126.56,179.398,126.559,179.398z"/>
				<path fill="#FABA9D" d="M107.444,101.386c4.099,0,8.663,0.857,12.486,2.309c6.773,2.572,12.701,8.064,16.642,14.069
					c2.849,4.343,3.979,9.395,4.136,14.53c0.163,5.322-1.337,10.957-0.024,16.186c0.976,3.885,3.701,6.5,6.683,8.985
					c3.005,2.504,5.756,5.271,4.676,9.595c-1.547,6.187-13.244,8.663-25.484,8.663c-7.153,0-14.491-0.846-20.095-2.292
					c-18.084-4.667-32.836-19.552-32.836-38.228C73.628,116.527,88.768,101.386,107.444,101.386 M107.444,94.034
					c-22.7,0-41.168,18.468-41.168,41.169c0,20.872,15.771,39.519,38.351,45.346c6.219,1.605,14.213,2.525,21.932,2.525
					c24.016,0,30.993-7.739,32.616-14.231c2.298-9.194-4.531-14.884-7.103-17.026c-2.378-1.982-3.838-3.458-4.258-5.128
					c-0.529-2.105-0.299-4.858-0.056-7.772c0.183-2.191,0.372-4.456,0.298-6.847c-0.217-7.1-2.013-13.27-5.337-18.338
					c-5.136-7.827-12.491-13.99-20.179-16.909C117.874,95.05,112.371,94.034,107.444,94.034L107.444,94.034z"/>
			</g>
			<g>
				<g>
					<path fill="#E97158" d="M88.304,107.327c-6.834,7.292-9.504,13.366-10.755,21.015c-4.411,26.954,25.136,45.536,50.198,47.372
						c-7.522,0.101-15.368-0.758-21.282-2.283c-18.084-4.667-32.836-19.552-32.836-38.228
						C73.628,123.633,79.442,113.424,88.304,107.327z"/>
				</g>
			</g>
			<circle fill="#FFFFFF" cx="100.6" cy="125.25" r="7.559"/>
		</g>
	</g>
	<circle fill="none" cx="150" cy="169.609" r="130.392"/>
	<text transform="matrix(0.8493 -0.5279 0.5279 0.8493 63.6826 69.7129)"><tspan x="0" y="0" fill="#FF7368" stroke="#FF7368" stroke-width="2.0807" stroke-miterlimit="10" font-family="'GillSans-UltraBold'" font-size="39.347">M</tspan><tspan x="39.738" y="0.621" fill="#FF7368" stroke="#FF7368" stroke-width="2.0807" stroke-miterlimit="10" font-family="'GillSans-UltraBold'" font-size="39.347" rotate="14.611">E</tspan><tspan x="68.791" y="7.692" fill="#FF7368" stroke="#FF7368" stroke-width="2.0807" stroke-miterlimit="10" font-family="'GillSans-UltraBold'" font-size="39.347" rotate="29.985">A</tspan><tspan x="100.957" y="26.815" fill="#FF7368" stroke="#FF7368" stroke-width="2.0807" stroke-miterlimit="10" font-family="'GillSans-UltraBold'" font-size="39.347" rotate="43.768">T</tspan></text>
</g>
</svg>
