<?xml version="1.0" encoding="utf-8"?>
<!-- Generator: Adobe Illustrator 16.0.0, SVG Export Plug-In . SVG Version: 6.00 Build 0)  -->
<!DOCTYPE svg PUBLIC "-//W3C//DTD SVG 1.1//EN" "http://www.w3.org/Graphics/SVG/1.1/DTD/svg11.dtd">
<svg version="1.1" id="Layer_1" xmlns="http://www.w3.org/2000/svg" xmlns:xlink="http://www.w3.org/1999/xlink" x="0px" y="0px"
	 width="300px" height="300px" viewBox="0 0 300 300" enable-background="new 0 0 300 300" xml:space="preserve">
<g>
	<circle fill="#F5957F" stroke="#F27369" stroke-width="15.3946" stroke-miterlimit="10" cx="150" cy="150" r="127.5"/>
	<g>
		<linearGradient id="SVGID_1_" gradientUnits="userSpaceOnUse" x1="115.8018" y1="243.3398" x2="151.2844" y2="207.8572">
			<stop  offset="0" style="stop-color:#F5957F"/>
			<stop  offset="1" style="stop-color:#EA8879"/>
		</linearGradient>
		<path fill="url(#SVGID_1_)" d="M55.569,215.437c0,0,8.468,26.94,48.492,42.336c46.696,17.959,80.053,5.388,80.053,5.388
			l30.575-33.586l-123.766-49.34L55.569,215.437z"/>
	</g>
	<g>
		<linearGradient id="SVGID_2_" gradientUnits="userSpaceOnUse" x1="170.6719" y1="154.4385" x2="195.3032" y2="132.8861">
			<stop  offset="0" style="stop-color:#F5957F"/>
			<stop  offset="1" style="stop-color:#EA8879"/>
		</linearGradient>
		<polygon fill="url(#SVGID_2_)" points="117.148,126.917 209.517,206.201 251.599,164.582 173.246,66.433 		"/>
	</g>
	<g>
		
			<rect x="223.154" y="127.969" transform="matrix(0.8335 -0.5525 0.5525 0.8335 -43.1656 151.818)" fill="#F9B99C" width="14.399" height="39.142"/>
		<g>
			<path fill="#EDB196" d="M234.166,166.292l-20.834-31.354l4.47-2.962l20.839,31.539c-4.438,2.258-4.788,4.577-4.617,6.159
				c0.375,3.483,3.042,4.592,3.042,4.592s-1.359-0.176-2.475-1.8C233.321,170.619,232.828,168.279,234.166,166.292z"/>
		</g>
		<path fill="#B36848" d="M226.56,80.146c9.968,15.035,3.615,30.735,2.675,45.083c-0.355,5.407,1.046,9.165,1.046,9.165
			l-12.022,7.938c0,0-2.739-2.503-8.455-4.522c-13.372-4.724-30.046-5.306-39.87-20.124c-12.634-19.053-10.196-42.904,5.441-53.272
			C191.011,54.048,213.929,61.092,226.56,80.146z"/>
		<g>
			<path fill="#9E5C3E" d="M175.123,64.547c0.326-0.237,1.433-0.948,2.836-1.677c-15.451,12.065-16.983,32.145-1.921,50.59
				c11.411,13.972,23.902,16.091,37.482,20.812c5.012,1.74,9.069,5.007,9.195,5.117l-4.466,2.95c0,0-3.126-2.699-8.246-4.479
				c-13.58-4.719-26.446-4.1-38.891-17.984C155.854,102.85,157.751,77.246,175.123,64.547z"/>
		</g>
		<g>
			<path fill="#BA6D4B" d="M199.887,112.18c0.733,1.106,0.431,2.6-0.676,3.334c-1.108,0.734-2.603,0.431-3.333-0.676
				c-0.736-1.108-0.436-2.601,0.674-3.335C197.661,110.77,199.154,111.073,199.887,112.18z"/>
			<circle fill="#BA6D4B" cx="207.283" cy="113.836" r="2.405"/>
			<circle fill="#BA6D4B" cx="203.592" cy="104.41" r="2.406"/>
			<circle fill="#BA6D4B" cx="194.384" cy="105.068" r="2.406"/>
			<circle fill="#BA6D4B" cx="200.67" cy="96.441" r="2.405"/>
			<circle fill="#BA6D4B" cx="212.185" cy="100.353" r="2.406"/>
			<circle fill="#BA6D4B" cx="217.109" cy="107.781" r="2.406"/>
			<circle fill="#BA6D4B" cx="197.188" cy="123.941" r="2.405"/>
			<circle fill="#BA6D4B" cx="208.952" cy="125.062" r="2.406"/>
			<circle fill="#BA6D4B" cx="217.948" cy="118.049" r="2.406"/>
			<path fill="#BA6D4B" d="M221.51,125.398c0.73,1.108,0.432,2.6-0.679,3.334c-1.106,0.734-2.598,0.432-3.334-0.675
				c-0.733-1.109-0.431-2.601,0.675-3.335C219.28,123.989,220.772,124.29,221.51,125.398z"/>
			<path fill="#BA6D4B" d="M189.516,111.183c0.736,1.107,0.433,2.599-0.676,3.334c-1.106,0.735-2.601,0.431-3.332-0.676
				c-0.736-1.107-0.434-2.601,0.674-3.335C187.289,109.773,188.78,110.076,189.516,111.183z"/>
		</g>
		<path fill="#BA6D4B" d="M217.16,74.499c0.735,1.106,0.432,2.6-0.674,3.334c-1.108,0.733-2.604,0.431-3.337-0.677
			c-0.732-1.107-0.432-2.599,0.677-3.333C214.935,73.089,216.427,73.393,217.16,74.499z"/>
		<path fill="#BA6D4B" d="M216.706,86.593c0.736,1.106,0.434,2.599-0.675,3.333c-1.105,0.734-2.6,0.432-3.335-0.675
			c-0.732-1.107-0.43-2.601,0.679-3.335C214.479,85.183,215.973,85.485,216.706,86.593z"/>
		<circle fill="#BA6D4B" cx="177.664" cy="108.244" r="2.406"/>
		<circle fill="#BA6D4B" cx="224.383" cy="87.462" r="2.406"/>
		<circle fill="#BA6D4B" cx="224.608" cy="97.095" r="2.405"/>
		<path fill="#BA6D4B" d="M228.587,107.415c0.731,1.107,0.432,2.601-0.675,3.334c-1.109,0.734-2.603,0.431-3.338-0.676
			c-0.731-1.108-0.431-2.6,0.678-3.334C226.358,106.004,227.852,106.307,228.587,107.415z"/>
		<path fill="#F9B99C" d="M243.718,159.185c-1.637,1.044-2.552,2.789-2.604,4.592c-1.614-0.625-3.493-0.507-5.065,0.495
			c-2.626,1.672-3.397,5.154-1.724,7.777c1.672,2.625,5.154,3.394,7.774,1.722c0.139-0.086,0.26-0.183,0.383-0.279l0.009,0.004
			c0,0,0.009-0.01,0.023-0.024c0.484-0.376,0.891-0.813,1.222-1.3c0.558-0.551,1.239-1.165,1.89-1.597
			c1.487-0.984,2.557-0.833,4.146-1.888c2.624-1.672,3.396-5.155,1.724-7.778C249.821,158.285,246.341,157.514,243.718,159.185z"/>
	</g>
	<g>
		<linearGradient id="SVGID_3_" gradientUnits="userSpaceOnUse" x1="62.5332" y1="171.3408" x2="98.1984" y2="135.6756">
			<stop  offset="0" style="stop-color:#F5957F"/>
			<stop  offset="1" style="stop-color:#EA8879"/>
		</linearGradient>
		<path fill="url(#SVGID_3_)" d="M35.302,121.018c-6.671,16.933-3.592,37.973-3.592,37.973l46.696,74.92l78.794-78.683L68.46,86.858
			C68.46,86.858,35.567,120.342,35.302,121.018z"/>
	</g>
	<g>
		<g>
			<path fill="#F59BA4" d="M202.416,178.961c-16.037,0-16.037,5.781-32.078,5.781c-16.038,0-16.038-5.781-32.077-5.781
				c-16.038,0-16.038,5.781-32.077,5.781c-7.378,0-11.457-1.697-15.261-3.309v25.873v19.486v4.743
				c3.739,1.06,8.015,1.841,15.586,1.841c16.04,0,16.04-5.782,32.079-5.782c16.039,0,16.039,5.782,32.078,5.782
				c16.038,0,16.038-5.782,32.075-5.782c5.322,0,8.923,0.885,11.947,1.981V179.98C211.701,179.363,207.842,178.961,202.416,178.961z
				"/>
		</g>
		<g>
			<path fill="#FDE5D9" d="M214.689,182.805c-2.988-0.617-6.848-1.019-12.273-1.019c-16.037,0-16.037,5.781-32.078,5.781
				c-16.038,0-16.038-5.781-32.077-5.781c-16.038,0-16.038,5.781-32.077,5.781c-7.378,0-11.457-1.697-15.261-3.31v15.683
				c3.543,2.266,6.23,3.484,14.409,2.794c15.995-1.347,17.026-6.074,33.066-6.074c16.038,0,19.606,7.658,31.415,7.129
				c16.025-0.716,16.568-6.467,32.606-6.467c5.322,0,9.221,0.883,12.271,1.98v-12.977v-2.465V182.805z"/>
		</g>
		<g>
			<g>
				<path fill="#FDE5D9" d="M202.416,205.032c-16.037,0-16.037,5.78-32.078,5.78c-16.038,0-16.139-6.494-32.177-6.494
					c-16.036,0-16.008,5.883-31.977,7.549c-8.647,0.904-11.457-0.11-15.261-1.724v11.193c3.739,1.061,7.69,1.881,15.263,1.841
					c19.457-0.104,15.938-6.179,31.975-6.179c16.038,0,16.086,6.604,32.124,6.604c16.037,0,16.096-6.205,32.134-6.205
					c5.322,0,9.221,0.883,12.271,1.98v-12.262C211.704,206.406,207.803,205.032,202.416,205.032z"/>
			</g>
			<path fill="#C8695B" d="M201.885,178.081c-6.905,0.155-12.011,1.721-16.946,3.235c-4.343,1.332-8.447,2.593-13.489,2.754
				c-5.412,0.175-11.176-1.404-16.749-2.93c-5.494-1.503-11.177-3.059-16.769-3.059c-5.519,0-9.802,1.388-14.338,2.86
				c-4.74,1.537-9.642,3.129-16.396,3.129c-9.054,0-16.208-3.616-16.274-3.651c-0.172-0.097,0.18-0.152,0-0.184v4.545
				c2.435,1.137,8.498,3.516,16.274,3.516c7.291,0,12.457-1.677,17.452-3.295c4.27-1.386,8.302-2.691,13.283-2.691
				c5.135,0,10.349,1.426,15.869,2.937c5.507,1.507,11.196,3.063,16.812,3.063c0.316,0,0.632-0.004,0.942-0.016
				c5.496-0.175,10.015-1.561,14.386-2.901c4.712-1.446,9.585-2.941,16.018-3.086c7.449-0.164,12.45,1.479,12.496,1.495
				c0.084,0.028,0.159,0.044,0.234,0.06v-4.36C212.855,178.995,208.209,177.936,201.885,178.081z"/>
		</g>
	</g>
	<g>
		<g>
			<path fill="#D74837" d="M124.781,161.233c-8.081,0-16.418-0.957-22.875-2.623c-22.812-5.885-38.744-24.589-38.744-45.484
				c0-22.503,18.307-40.811,40.81-40.811c4.898,0,10.371,1.011,15.013,2.774c7.596,2.884,14.9,9.028,20.04,16.858
				c3.209,4.892,4.943,10.911,5.154,17.89c0.073,2.375-0.123,4.726-0.312,6.999c-0.293,3.512-0.57,6.829,0.168,9.763
				c0.723,2.876,2.731,4.997,5.957,7.687c2.693,2.243,8.303,6.914,6.411,14.486c-2.713,10.842-20.971,12.461-31.617,12.461
				C124.784,161.233,124.782,161.233,124.781,161.233z"/>
			<path fill="#F9B99C" d="M103.972,76.316c4.462,0,9.431,0.933,13.593,2.514c7.372,2.799,13.825,8.777,18.115,15.313
				c3.101,4.727,4.331,10.226,4.5,15.816c0.178,5.793-1.457,11.928-0.026,17.617c1.063,4.231,4.029,7.077,7.274,9.783
				c3.272,2.725,6.268,5.736,5.091,10.443c-1.685,6.734-14.416,9.43-27.738,9.43c-7.785,0-15.775-0.921-21.875-2.496
				c-19.685-5.079-35.743-21.28-35.743-41.61C67.163,92.797,83.643,76.316,103.972,76.316 M103.972,68.314
				c-24.708,0-44.811,20.103-44.811,44.812c0,22.72,17.167,43.017,41.746,49.358c6.769,1.747,15.472,2.75,23.874,2.75
				c26.139,0,33.733-8.423,35.501-15.489c2.502-10.012-4.934-16.204-7.733-18.535c-2.587-2.158-4.177-3.765-4.634-5.583
				c-0.576-2.291-0.326-5.286-0.062-8.457c0.199-2.385,0.405-4.852,0.325-7.457c-0.234-7.725-2.188-14.441-5.808-19.958
				c-5.593-8.521-13.599-15.229-21.966-18.406C115.326,69.42,109.336,68.314,103.972,68.314L103.972,68.314z"/>
		</g>
		<g>
			<g>
				<path fill="#E87158" d="M83.138,82.782c-7.44,7.938-10.345,14.549-11.708,22.875c-4.801,29.341,27.362,49.568,54.642,51.565
					c-8.187,0.11-16.727-0.825-23.166-2.486c-19.685-5.079-35.743-21.28-35.743-41.61C67.163,100.531,73.492,89.42,83.138,82.782z"
					/>
			</g>
		</g>
		<circle fill="#FFFFFF" cx="96.522" cy="102.292" r="8.228"/>
	</g>
</g>
</svg>
