<?xml version="1.0" encoding="utf-8"?>
<!-- Generator: Adobe Illustrator 16.0.0, SVG Export Plug-In . SVG Version: 6.00 Build 0)  -->
<!DOCTYPE svg PUBLIC "-//W3C//DTD SVG 1.1//EN" "http://www.w3.org/Graphics/SVG/1.1/DTD/svg11.dtd">
<svg version="1.1" id="Layer_1" xmlns="http://www.w3.org/2000/svg" xmlns:xlink="http://www.w3.org/1999/xlink" x="0px" y="0px"
	 width="840px" height="75.652px" viewBox="0 0 840 75.652" enable-background="new 0 0 840 75.652" xml:space="preserve">
<g>
	<path fill="#F3716C" d="M14.521,30.081c-3.287,0-5.977-4.5-5.977-10v-3.766c0-5.5,4.5-10,10-10h27.672c5.5,0,10,4.5,10,10v3.766
		c0,5.5-2.689,10-5.977,10s-5.977,4.5-5.977,10v9.883c0,5.5-4.5,10-10,10h-3.766c-5.5,0-10-4.5-10-10v-9.883
		C20.497,34.581,17.808,30.081,14.521,30.081z"/>
	<path fill="#F3716C" d="M73.005,6.315c5.5,0,10,3.789,10,8.42s3.434,5.778,7.629,2.549c0,0,0,0,5.203,0
		c4.805,0,8.596,1.406,11.373,4.219s4.166,6.727,4.166,11.742v16.719c0,5.5-4.5,10-10,10h-0.531c-5.5,0-10-4.5-10-10v-4.469
		c0-5.5-0.617-12.404-1.371-15.344c0,0,0,0-2.742,0c-1.242,0-2.484,0.551-3.727,1.652v18.16c0,5.5-4.5,10-10,10h-1.762
		c-5.5,0-10-4.5-10-10V16.315c0-5.5,4.5-10,10-10H73.005z"/>
	<path fill="#F3716C" d="M162.845,43.827L162.845,43.827c0,4.08-3.504,10.242-7.785,13.693c0,0-3.816,3.076-12.746,3.076
		c-7.359,0-13.277-2.045-17.754-6.135s-6.715-9.475-6.715-16.154c0-6.352,2.057-11.531,6.17-15.539s9.451-6.012,16.014-6.012
		c3.352,0,6.457,0.562,9.316,1.688s5.332,2.777,7.418,4.957s3.621,4.711,4.605,7.594s1.477,6.398,1.477,10.547h-12.184
		c-5.5,0-9.04,1.729-7.867,3.844c0,0,0,0,1.875,1.219s4.02,1.828,6.434,1.828C155.978,48.432,159.892,46.897,162.845,43.827z
		 M139.36,34.124h0.23c5.5,0,9.723-1.69,9.385-3.756c0,0,0,0-0.949-1.184s-2.186-1.775-3.709-1.775c-1.336,0-2.496,0.568-3.48,1.705
		S139.36,31.92,139.36,34.124z"/>
	<path fill="#F3716C" d="M204.591,59.963c-5.5,0-10-4.5-10-10V16.315c0-5.5,4.5-10,10-10h3.062c5.5,0,12.184,2.516,14.852,5.59
		s7.043,3.074,9.721,0s9.369-5.59,14.869-5.59h3.027c5.5,0,10,4.5,10,10v33.648c0,5.5-4.5,10-10,10h-3.766c-5.5,0-10-4.5-10-10
		v-6.859c0-5.5-2.025-7.667-4.5-4.814s-6.525,2.853-9,0s-4.5-0.686-4.5,4.814v6.859c0,5.5-4.5,10-10,10H204.591z"/>
	<path fill="#F3716C" d="M312.821,43.827L312.821,43.827c0,4.08-3.504,10.242-7.785,13.693c0,0-3.816,3.076-12.746,3.076
		c-7.359,0-13.277-2.045-17.754-6.135s-6.715-9.475-6.715-16.154c0-6.352,2.057-11.531,6.17-15.539s9.451-6.012,16.014-6.012
		c3.352,0,6.457,0.562,9.316,1.688s5.332,2.777,7.418,4.957s3.621,4.711,4.605,7.594s1.477,6.398,1.477,10.547h-12.184
		c-5.5,0-9.04,1.729-7.867,3.844c0,0,0,0,1.875,1.219s4.02,1.828,6.434,1.828C305.954,48.432,309.868,46.897,312.821,43.827z
		 M289.337,34.124h0.23c5.5,0,9.723-1.69,9.385-3.756c0,0,0,0-0.949-1.184s-2.186-1.775-3.709-1.775
		c-1.336,0-2.496,0.568-3.48,1.705S289.337,31.92,289.337,34.124z"/>
	<path fill="#F3716C" d="M319.958,35.038v-2.727c0-5.5,4.201-11.612,9.336-13.583c0,0,3.766-1.444,11.547-1.444
		c7.406,0,12.867,1.582,16.383,4.746s5.273,8.004,5.273,14.52v13.414c0,5.5-4.5,10-10,10h-1.727c-5.5,0-10-0.712-10-1.582
		s-3.032,0-6.738,1.934c0,0,0,0-3.844,0c-3.234,0-5.93-1.049-8.086-3.146s-3.234-4.74-3.234-7.928c0-3.633,1.336-6.592,4.008-8.877
		s6.164-3.428,10.477-3.428c2.531,0,5.004,0.328,7.418,0.984c0-1.969-0.756-3.504-2.268-4.605s-3.615-1.652-6.311-1.652
		C328.208,31.663,324.13,32.788,319.958,35.038z M340.771,50.612L340.771,50.612c0-3.248-1.123-6.207-2.496-6.574c0,0,0,0-1.055,0
		c-1.312,0-2.367,0.34-3.164,1.02s-1.195,1.57-1.195,2.672c0,1.148,0.428,2.109,1.283,2.883s1.939,1.16,3.252,1.16
		C338.731,51.772,339.856,51.385,340.771,50.612z"/>
	<path fill="#F3716C" d="M399.306,17.635c2.494,0,4.535,2.674,4.535,5.941s-2.041,5.941-4.535,5.941s-4.535,2.041-4.535,4.535
		s0.617,6.607,1.371,9.141c0,0,0,0,2.742,0c2.016,0,3.75-1.008,5.203-3.023v6.77c0,5.5-3.412,11.519-7.582,13.375c0,0,0,0-4.898,0
		c-5.227,0-9.627-1.559-13.201-4.676s-5.361-7.406-5.361-12.867v-3.254c0-5.5-1.993-10-4.43-10s-0.889-2.776,3.44-6.169L386.9,11.71
		c4.329-3.393,7.87-3.448,7.87-0.122S396.812,17.635,399.306,17.635z"/>
	<path fill="#F3716C" d="M445.693,59.963c-5.5,0-10-4.5-10-10V16.315c0-5.5,4.5-10,10-10h3.73c5.5,0,10,4.5,10,10v33.648
		c0,5.5-4.5,10-10,10H445.693z"/>
	<path fill="#F3716C" d="M480.466,17.635c5.5,0,10,1.194,10,2.654s3.611,0.107,8.027-3.006c0,0,0,0,5.086,0
		c4.945,0,8.736,1.377,11.373,4.131s3.955,6.838,3.955,12.252v16.297c0,5.5-4.5,10-10,10h-0.531c-5.5,0-10-4.5-10-10v-4.68
		c0-5.5-0.602-12.373-1.336-15.273c0,0,0,0-2.672,0c-1.289,0-2.59,0.457-3.902,1.371v18.582c0,5.5-4.5,10-10,10h-1.727
		c-5.5,0-10-4.5-10-10V27.635c0-5.5,4.5-10,10-10H480.466z"/>
	<path fill="#F3716C" d="M566.142,6.315c5.5,0,10,4.5,10,10v33.648c0,5.5-4.5,10-10,10h-5.84c-5.5,0-14.453-0.647-19.896-1.438
		c0,0-4.131-0.601-8.49-4.679s-6.539-9.211-6.539-15.398c0-6.023,1.986-11.057,5.959-15.1s8.924-6.064,14.854-6.064
		c3.281,0,6.012,0.504,8.191,1.512v-2.48c0-5.5,4.5-10,10-10H566.142z M552.658,44.565c0.947,0,1.723-2.144,1.723-4.764
		s-1.033-5.238-2.297-5.818c0,0,0,0-1.359,0c-1.289,0-2.355,0.51-3.199,1.529s-1.266,2.303-1.266,3.85
		c0,1.805,0.51,3.123,1.529,3.955S550.431,44.565,552.658,44.565L552.658,44.565z"/>
	<path fill="#F3716C" d="M623.587,17.635c5.5,0,10,4.5,10,10v22.328c0,5.5-4.5,10-10,10h-0.812c-5.5,0-10-1.669-10-3.709
		s-0.031-3.709-0.07-3.709s-2.012,2.099-4.383,4.664c0,0,0,0-2.227,1.242s-4.875,1.863-7.945,1.863
		c-4.43,0-7.998-1.312-10.705-3.938s-4.061-6.305-4.061-11.039V27.635c0-5.5,4.5-10,10-10h0.531c5.5,0,10,4.5,10,10v2.816
		c0,5.5,0.59,12.595,1.312,15.766c0,0,0,0,2.625,0c1.758,0,3.082-0.75,3.973-2.25V27.635c0-5.5,4.5-10,10-10H623.587z"/>
	<path fill="#F3716C" d="M638.369,55.85l1.072-2.625c2.078-5.092,5.266-7.642,7.084-5.666c0,0,0,0,2.109,1.137
		s4.184,1.705,6.223,1.705c1.266,0,2.279-0.281,3.041-0.844s1.143-1.289,1.143-2.18c0-0.867-0.322-1.623-0.967-2.268
		s-2.35-1.365-5.115-2.162c-2.789-0.797-5.074-1.67-6.855-2.619s-3.264-2.35-4.447-4.201s-1.775-3.867-1.775-6.047
		c0-4.219,1.811-7.494,5.432-9.826s8.701-3.498,15.24-3.498c7.359,0,13.652,1.207,18.879,3.621l-0.861,1.785
		c-2.387,4.954-7.369,6.936-11.068,4.402c0,0,0,0-3.188,0c-1.055,0-1.91,0.234-2.566,0.703s-0.984,1.066-0.984,1.793
		c0,0.867,0.334,1.617,1.002,2.25s2.443,1.312,5.326,2.039c2.93,0.727,5.35,1.559,7.26,2.496s3.434,2.344,4.57,4.219
		s1.705,4.02,1.705,6.434c0,4.359-1.764,7.799-5.291,10.318s-8.092,3.779-13.693,3.779C654.048,60.596,646.291,59.014,638.369,55.85
		z"/>
	<path fill="#F3716C" d="M715.783,17.635c2.494,0,4.535,2.674,4.535,5.941s-2.041,5.941-4.535,5.941s-4.535,2.041-4.535,4.535
		s0.617,6.607,1.371,9.141c0,0,0,0,2.742,0c2.016,0,3.75-1.008,5.203-3.023v6.77c0,5.5-3.412,11.519-7.582,13.375c0,0,0,0-4.898,0
		c-5.227,0-9.627-1.559-13.201-4.676s-5.361-7.406-5.361-12.867v-3.254c0-5.5-1.994-10-4.43-10c-2.438,0-0.889-2.776,3.439-6.169
		l14.846-11.639c4.33-3.393,7.871-3.448,7.871-0.122S713.289,17.635,715.783,17.635z"/>
	<path fill="#F3716C" d="M748.548,22.276c0,2.553,2.588,0.96,5.752-3.54c0,0,1.021-1.452,6.271-1.452
		c2.93,0,5.344,0.961,7.242,2.883s2.848,4.359,2.848,7.312c0,3.094-0.932,5.596-2.795,7.506s-4.295,2.865-7.295,2.865
		c-3.422,0-6.352-1.289-8.789-3.867c-2.156,1.828-3.234,5.227-3.234,10.195v5.785c0,5.5-4.5,10-10,10h-1.727c-5.5,0-10-4.5-10-10
		V27.635c0-5.5,4.5-10,10-10h1.727C744.048,17.635,748.548,19.723,748.548,22.276z"/>
	<path fill="#F3716C" d="M805.488,62.633c-2.139,5.067-8.389,9.213-13.889,9.213h-3.625c-5.5,0-8.246-4.145-6.104-9.209l0.924-2.184
		c2.145-5.064,2.074-13.322-0.156-18.351l-6.797-15.326c-2.23-5.028,0.445-9.142,5.945-9.142h1.621c5.5,0,11.146,2.539,12.549,5.643
		s3.648,3.104,4.992,0s6.943-5.643,12.443-5.643h1.094c5.5,0,8.25,4.146,6.111,9.213L805.488,62.633z"/>
</g>
</svg>
