<?xml version="1.0" encoding="utf-8"?>
<!-- Generator: Adobe Illustrator 16.0.0, SVG Export Plug-In . SVG Version: 6.00 Build 0)  -->
<!DOCTYPE svg PUBLIC "-//W3C//DTD SVG 1.1//EN" "http://www.w3.org/Graphics/SVG/1.1/DTD/svg11.dtd">
<svg version="1.1" id="Layer_1" xmlns="http://www.w3.org/2000/svg" xmlns:xlink="http://www.w3.org/1999/xlink" x="0px" y="0px"
	 width="68.032px" height="68.031px" viewBox="0 0 68.032 68.031" enable-background="new 0 0 68.032 68.031" xml:space="preserve">
<path fill="#FFFFFF" d="M23.68,10.258c-1.636-0.221-3.28-0.008-4.744,0.915c-3.071,1.941-4.384,6.652-2.929,9.853
	c2.04,4.486,7.249,4.89,11.312,6.474c1.804,0.703,3.589,1.518,4.98,2.897c1.677,1.662,2.513,4.429,0.733,6.325
	c-5.15,5.488-19.31,5.37-17.112,16.29c0.385,1.908,2.482,3.868,4.309,4.479c6.111,2.04,12.167-5.125,16.988-7.678
	c4.515-2.392,9.495-5.124,13.062-8.854c1.467-1.534,2.836-3.642,2.836-5.86c0-5.141-5.551-9.238-9.064-12.124
	c-4.564-3.748-9.631-7.079-14.551-10.345C27.829,11.522,25.761,10.54,23.68,10.258z"/>
</svg>
