<?xml version="1.0" encoding="utf-8"?>
<!-- Generator: Adobe Illustrator 16.0.0, SVG Export Plug-In . SVG Version: 6.00 Build 0)  -->
<!DOCTYPE svg PUBLIC "-//W3C//DTD SVG 1.1//EN" "http://www.w3.org/Graphics/SVG/1.1/DTD/svg11.dtd">
<svg version="1.1" id="Layer_1" xmlns="http://www.w3.org/2000/svg" xmlns:xlink="http://www.w3.org/1999/xlink" x="0px" y="0px"
	 width="68.032px" height="149.698px" viewBox="221.15 67.833 68.032 149.698"
	 enable-background="new 221.15 67.833 68.032 149.698" xml:space="preserve">
<path fill="#FFFFFF" d="M241.633,76.571c-2.092-0.282-4.193-0.011-6.064,1.17c-3.927,2.481-5.605,8.505-3.744,12.597
	c2.607,5.735,9.268,6.251,14.462,8.276c2.307,0.899,4.588,1.94,6.368,3.704c2.145,2.126,3.213,5.662,0.937,8.087
	c-6.583,7.017-24.687,6.866-21.876,20.826c0.491,2.44,3.173,4.946,5.508,5.727c7.814,2.608,15.555-6.552,21.72-9.816
	c5.772-3.057,12.138-6.552,16.699-11.319c1.875-1.961,3.626-4.656,3.626-7.492c0-6.573-7.097-11.812-11.589-15.5
	c-5.835-4.792-12.312-9.051-18.604-13.226C246.938,78.186,244.293,76.931,241.633,76.571z"/>
<path fill="#FFFFFF" d="M241.633,145.336c-2.092-0.331-4.193-0.014-6.064,1.369c-3.927,2.902-5.605,9.95-3.744,14.738
	c2.607,6.711,9.268,7.314,14.462,9.685c2.307,1.051,4.588,2.27,6.368,4.333c2.145,2.488,3.213,6.625,0.937,9.463
	c-6.583,8.21-24.687,8.034-21.876,24.368c0.491,2.854,3.173,5.787,5.508,6.7c7.814,3.05,15.555-7.666,21.72-11.486
	c5.772-3.576,12.138-7.664,16.699-13.242c1.875-2.295,3.626-5.448,3.626-8.767c0-7.689-7.097-13.821-11.589-18.136
	c-5.835-5.608-12.312-10.59-18.604-15.476C246.938,147.225,244.293,145.757,241.633,145.336z"/>
</svg>
