<?xml version="1.0" encoding="utf-8"?>
<!-- Generator: Adobe Illustrator 16.0.0, SVG Export Plug-In . SVG Version: 6.00 Build 0)  -->
<!DOCTYPE svg PUBLIC "-//W3C//DTD SVG 1.1//EN" "http://www.w3.org/Graphics/SVG/1.1/DTD/svg11.dtd">
<svg version="1.1" id="Layer_1" xmlns="http://www.w3.org/2000/svg" xmlns:xlink="http://www.w3.org/1999/xlink" x="0px" y="0px"
	 width="68.032px" height="68.031px" viewBox="0 0 68.032 68.031" enable-background="new 0 0 68.032 68.031" xml:space="preserve">
<path fill="#FFFFFF" d="M39.03,12.632c-4.92,3.266-9.986,6.597-14.551,10.345c-3.514,2.885-9.064,6.983-9.064,12.124
	c0,2.219,1.369,4.326,2.836,5.86c3.567,3.729,8.548,6.462,13.062,8.854c4.821,2.553,10.877,9.718,16.988,7.678
	c1.826-0.611,3.924-2.571,4.309-4.479c2.198-10.92-11.962-10.802-17.111-16.29c-1.78-1.896-0.944-4.663,0.732-6.325
	c1.393-1.38,3.177-2.194,4.98-2.897c4.064-1.583,9.273-1.988,11.312-6.474c1.456-3.201,0.143-7.912-2.928-9.853
	c-1.464-0.923-3.107-1.136-4.744-0.915C42.772,10.54,40.704,11.522,39.03,12.632z"/>
</svg>
