<?xml version="1.0" encoding="utf-8"?>
<!-- Generator: Adobe Illustrator 16.0.0, SVG Export Plug-In . SVG Version: 6.00 Build 0)  -->
<!DOCTYPE svg PUBLIC "-//W3C//DTD SVG 1.1//EN" "http://www.w3.org/Graphics/SVG/1.1/DTD/svg11.dtd">
<svg version="1.1" id="Layer_1" xmlns="http://www.w3.org/2000/svg" xmlns:xlink="http://www.w3.org/1999/xlink" x="0px" y="0px"
	 width="300px" height="300px" viewBox="0 0 300 300" enable-background="new 0 0 300 300" xml:space="preserve">
<g>
	<g>
		<path fill="#5C9DBD" d="M269.774,149.999c0-66.044-53.729-119.775-119.775-119.775c-65.554,0-118.968,52.94-119.755,118.312
			l91.855-89.585l35.047,13.307l70.21,43.145l-10.441,20.164L97.381,257.579c15.892,7.804,33.751,12.196,52.618,12.196
			C216.045,269.775,269.774,216.044,269.774,149.999z"/>
		<path fill="#4C598D" d="M75.387,253.355l-23.784-22.316C58.539,239.453,66.539,246.955,75.387,253.355z"/>
		<path fill="#ADC9E6" d="M227.356,115.403l-70.21-43.145l-35.047-13.307l-91.855,89.585c-0.006,0.488-0.019,0.975-0.019,1.463
			c0,47.179,27.42,88.064,67.156,107.58l119.534-122.012L227.356,115.403z"/>
		<path fill="#4C598D" d="M149.999,14.833c-74.53,0-135.165,60.636-135.165,135.166c0,4.371,0.216,8.691,0.624,12.957
			c1.583,16.572,6.171,32.276,13.212,46.568c22.05,44.765,68.149,75.644,121.329,75.644c74.532,0,135.167-60.637,135.167-135.168
			C285.166,75.469,224.531,14.833,149.999,14.833z"/>
		<path fill="#5C9DBD" d="M150.01,269.775c-18.868,0-36.728-4.392-52.619-12.196c-39.736-19.516-67.156-60.401-67.156-107.58
			c0-0.488,0.013-0.975,0.02-1.463C31.042,83.164,84.455,30.224,150.01,30.224c66.043,0,119.777,53.731,119.777,119.775
			C269.787,216.044,216.053,269.775,150.01,269.775z"/>
	</g>
	<g>
		<linearGradient id="SVGID_1_" gradientUnits="userSpaceOnUse" x1="175.208" y1="111.7285" x2="94.2731" y2="192.6634">
			<stop  offset="0" style="stop-color:#5D8CA9"/>
			<stop  offset="1" style="stop-color:#5C9DBD"/>
		</linearGradient>
		<polygon fill="url(#SVGID_1_)" points="30.188,168.506 47.631,226.291 102.013,273.166 228.456,142.494 238.9,122.329 
			168.691,79.184 133.642,65.877 		"/>
	</g>
	<g>
		<linearGradient id="SVGID_2_" gradientUnits="userSpaceOnUse" x1="90.8833" y1="153.812" x2="63.7214" y2="180.9739">
			<stop  offset="0" style="stop-color:#5D8CA9"/>
			<stop  offset="1" style="stop-color:#5C9DBD"/>
		</linearGradient>
		<polygon fill="url(#SVGID_2_)" points="19.708,158.265 64.91,246.507 91.079,220.338 104.737,206.679 89.54,172.07 
			127.498,126.157 84.928,93.044 		"/>
	</g>
	<g>
		<path fill="#B9CBFF" d="M103.936,185.748c-2.44-3.815-11.779-9.885-9.49-12.037c3.162-2.974-8.135,1.663-9.362,2.411
			c-0.071,0.043-0.145,0.097-0.217,0.158c-0.036-0.087-0.075-0.169-0.12-0.241c-0.78-1.307-7.639-11.127-7.159-6.496
			c0.289,2.791-10.34,4.148-14.003,6.231c-8.502,4.834-10.827,15.895-9.625,17.773c1.203,1.877,21.39-5.092,27.508-3.508
			c6.117,1.583,20.767,17.02,22.706,15.918C106.112,204.854,109.206,193.985,103.936,185.748z"/>
		<path fill="#B9CBFF" d="M126.026,134.819c-6.261,25.333-35.337,43.618-41.427,42.112c-6.09-1.506-23.301-31.229-17.04-56.562
			c1.12-4.53,2.901-8.726,5.113-12.554c10.16-17.583,29.414-27.402,35.458-26.091C115.488,83.323,132.287,109.486,126.026,134.819z"
			/>
		<path fill="#8FA1DD" d="M126.382,134.528c-4.916,25.618-35.13,43.652-41.303,42.126c-6.172-1.525-23.692-31.315-17.433-56.636
			c1.76-7.123,3.794-10.494,5.048-12.189c3.561-4.818,13.279,9.351,26.36,12.282c12.128,2.719,25.882-2.78,28.249,0.064
			c0,0,0.086,0.74,0.093,1.327C127.428,124.197,127.927,126.477,126.382,134.528z"/>
		<circle fill="#20005C" cx="112.078" cy="103.557" r="4.888"/>
		<g>
			<path fill="#6C799C" d="M84.434,176.29c-0.038-0.089-7.738-6.962-10.4-20.869c-1.33-6.949-4.214-21.513-1.106-34.092
				c0.539-2.181,1.135-4.094,1.778-5.743l-0.018-0.007l3.033-7.48c-1.014-0.615-1.929-1.064-2.738-1.265
				c-1.149-0.283-2.083-0.067-2.781,0.874c-1.257,1.696-3.268,5.075-5.056,12.193c-4.679,18.625,2.587,38.126,9.52,48.98
				C80.725,175.291,84.434,176.29,84.434,176.29z"/>
		</g>
		<g>
			<path fill="#B9CBFF" d="M63.605,125.535c3.357-2.343,7.332-3.38,10.934-3.637c-0.34,1.447-0.681,3.292-1.043,5.772
				c-0.798,5.48-0.525,11.064,0.455,16.47c-7.656,3.451-16.966,1.547-18.184-0.018C54.388,142.355,55.624,131.112,63.605,125.535z"
				/>
		</g>
	</g>
	<path fill="#D77158" d="M140.097,76.583"/>
	<g>
		<g>
			<linearGradient id="SVGID_3_" gradientUnits="userSpaceOnUse" x1="171.8359" y1="205.8525" x2="122.6948" y2="254.9937">
				<stop  offset="0" style="stop-color:#5D8CA9"/>
				<stop  offset="1" style="stop-color:#5C9DBD"/>
			</linearGradient>
			<polygon fill="url(#SVGID_3_)" points="70.792,253.355 126.262,280.312 154.27,278.685 194.598,237.148 207.727,210.381 
				152.676,174.281 141.141,181.28 			"/>
		</g>
		<g>
			<g>
				<g>
					<path fill="#E19C5A" d="M165.198,172.824l-1.637-2.009l-1.586,0.678l-1.785-1.299l-1.33,2.211l-1.444,0.871l-1.646-0.123
						l-1.951-0.993l-1.54,0.587l-0.975,2.023l-1.227,1.133l-1.433,0.61l-1.651,0.222l-2.354-0.86l-1.245,1.128l-0.933,1.527
						l-2.134-0.108l-0.703,1.759l-0.884,1.454l-0.445,1.838l-1.188,1.042l-1.828,0.519l-1.374,0.983l-0.588,1.594l-1.392,1.024
						l-1.386,1.085l-0.542,1.603l-0.641,1.528l-1.118,1.309l1.839,2.508l-1.647,1.081l-1.642,1.188l1.562,2.102l-0.99,1.397
						l-2.05,1.279l2.421,1.983l-2.246,1.382l0.788,1.68l-0.526,1.611l0.792,1.6l-0.061,1.61l1.033,1.491l-1.593,1.855l2.572,1.144
						l-1.08,1.872l1.06,1.365l0.743,1.418l-0.308,1.808l-0.646,2.042l2.668,0.549l0.97,1.267l-0.912,2.367l2.708,0.193l-0.037,1.939
						l0.311,1.789l0.888,1.392l0.955,1.354l2.198,0.135l0.551,1.748l1.44,0.814l0.343,2.181l2.583-0.738l1.527,0.559l1.132,1.163
						l1.644,0.288l0.214,3.109l2.331-1.153l0.928,1.985l1.414,0.956l1.987-0.841l1.742-0.337l1.337,1.291l1.852-1.307l1.512,0.378
						l1.493,0.796l1.494,2.153l1.664-0.315l1.604-1.18l1.624,0.191l1.402-1.822l1.821,1.537l1.609-0.214l1.19-1.913l1.564-0.202
						l1.551-0.301l1.406-0.726l2.228,1.177l0.451-2.818l2.673,1.682l0.275-2.776l1.236-0.972l2.538,0.868l0.104-2.546l1.782-0.321
						l2.03-0.16l-0.256-2.594l1.878-0.403l0.389-1.785l2.286-0.217l-0.571-2.429l1.211-1.078l1.024-1.228l1.148-1.186l1.573-1.018
						l-0.463-2.001l1.026-1.309l0.387-1.572l0.25-1.599l0.329-1.561l0.16-1.591l0.485-1.521l-0.598-1.677l2.713-1.339l0.334-1.648
						l-0.7-1.671l-1.706-1.572l0.015-1.58l-0.544-1.521l0.518-1.668l0.071-1.64l0.489-1.781l0.013-1.717l-0.552-1.569l-1.698-1.119
						l-1.535-1.085l-0.94-1.287l0.304-1.934l-0.642-1.484l-0.266-1.752l-0.858-1.402l-0.723-1.521l-1.266-1.099l-1.856-0.526
						l-0.749-1.517l-0.866-1.457l-1.17-1.159l-2.493,0.522l0.146-2.891l-1.86-0.195l-1.623-0.454l-1.568-0.48l-0.573-2.447
						l-2.69,1.971l-0.664-2.562l-1.723-0.025l-1.765,0.268l-1.1-2.101l-1.992,1.455l-1.269-1.978l-1.583-0.626l-1.714,0.564
						l-1.687,1.277L165.198,172.824z M165.198,231.446l-1.574-2.106l-1.657,0.379l-1.226-1.762l-2.085,1.464l-1.789-0.065
						l-1.306-1.184l-0.628-2.092l-1.317-0.833l-2.249,0.143l-1.617-0.802l-1.082-1.354l-0.539-1.714l0.818-2.358l-0.942-1.251
						l-1.258-1.206l0.864-1.879l-1.215-1.316l-0.696-1.522l-1.084-1.616l0.205-1.689l1.219-1.51l0.761-1.462l-0.01-1.66l1.107-1.268
						l1.214-1.117l0.505-1.474l0.792-1.332l1.343-0.869l-0.733-3.025l2.042-0.192l1.986,0.055l0.333-2.599l1.793-0.154l2.115,1.084
						l0.785-3.028l2.031,1.713l1.468-1.076l1.625,0.427l1.647-0.691l1.611,0.358l1.814-0.515l1.038,2.229l2.38-1.557l0.867,2.063
						l1.756,0.28l1.534,0.761l0.681,1.77l0.135,2.085l2.704-0.191l1.221,1.223l-0.849,2.41l2.692,0.515l-0.435,1.982l-0.329,1.775
						l0.135,1.572l0.01,1.562l1.557,1.545l-0.946,1.595l0.145,1.64l-1.764,1.227l1.595,2.131l-0.244,1.725l-1.092,1.353
						l-0.389,1.749l-3.105-0.235l0.519,2.523l-2.185,0.095l-1.435,0.678l-0.463,2.06l-1.028,1.529l-1.909-0.129l-0.979,2.125
						l-1.72,0.346l-1.809-0.276l-1.842-1.845L165.198,231.446z"/>
				</g>
			</g>
		</g>
		<g>
			<g>
				<g>
					<path fill="#FDB06B" d="M168.791,171.028l-1.638-0.221l-1.69-0.593l-1.643,0.299l-1.263,2.534l-1.47,0.615l-2.076-1.893
						l-1.261,1.536l-1.658,0.095l-1.764-0.076l-1.634,0.367l-0.722,2.291l-2.449-1.196l-0.373,2.638l-1.596,0.457l-1.757,0.302
						l-0.915,1.486l-0.622,1.753l-2.062,0.078l-1.846,0.449l-0.651,1.658l-1.576,0.806l1.038,2.915l-1.082,1.134l-2.231,0.402
						l0.775,2.357l-1.465,0.965l0.019,1.768l-2.604,0.544l0.281,1.864l0.214,1.758l-0.301,1.538l-0.983,1.353l-0.698,1.464
						l-1.003,1.447l-1.225,1.483l2.25,1.852l-0.694,1.537l-0.7,1.588l-1.148,1.664l1.353,1.558l-1.263,1.782l1.337,1.472
						l1.375,1.374l0.285,1.558l-1.322,2.044l1.953,1.083l-0.292,1.826l0.931,1.374l0.067,1.769l0.686,1.501l2.74,0.285l0.173,1.748
						l1.425,0.936l0.866,1.306l0.338,1.767l-0.186,2.349l2.811-0.448l0.643,1.626l0.609,1.764l1.674,0.524l1.365,0.87l1.376,0.839
						l0.756,1.87l1.757,0.233l1.608,0.42l1.438,0.739l1.173,1.439l1.586,0.47l1.495,0.762l2.238-2.082l1.273,1.491l1.79-1.013
						l1.219,2.739l1.614,0.518l1.678-0.295l1.649-0.807l1.634,0.45l1.475-2.021l1.739,1.397l1.624-0.107l1.271-1.867l2.12,2.034
						l1.374-1.202l0.92-2.33l2.347,1.754l1.742-0.134l1.186-1.378l0.629-2.28l1.333-0.827l1.263-0.928l1.554-0.512l0.774-1.576
						l1.966-0.073l1.638-0.577l0.39-1.903l2.506,0.164l-0.288-2.416l0.391-1.7l3.222,0.399l0.7-1.531l0.186-1.816l1.029-1.285
						l-0.798-2.207l0.482-1.492l3.005-0.493l-0.697-1.993l0.344-1.571l1.626-1.236l-1.961-2.093l2.312-1.188l0.2-1.623l-0.562-1.686
						l-1.227-1.656l2.168-1.551l-2.137-1.551l2.682-1.776l-1.952-1.438l-0.557-1.522l-0.572-1.49l0.844-1.828l0.177-1.739
						l-2.503-0.877l1.481-2.248l-2.262-0.803l-0.098-1.702l-0.294-1.657l0.299-2.062l-2.129-0.604l-1.254-1.081l-0.427-1.686
						l-0.121-2.019l-3.191,0.672l-0.095-2.1l-0.983-1.305l-2.118-0.005l-0.855-1.441l-0.921-1.436l-1.831-0.142l-1.567-0.441
						l-1.011-1.392l-1.207-1.129l-1.621-0.29l-1.481-0.558l-1.263-1.192l-1.801,0.412l-1.274-1.364l-1.717,0.34l-1.475-0.775
						l-1.565-0.384l-1.572-0.506l-1.59-0.833L168.791,171.028z M168.791,229.651l-1.572-0.319l-1.448-0.878l-1.514-0.183
						l-2.216,1.767l-1.736-0.319l-0.465-2.799l-1.963,0.163l-1.086-1.287l-0.771-1.544l-0.892-1.296l-2.391-0.081l0.851-2.564
						l-2.623-0.284l-0.317-1.688l0.108-1.766l-1.073-1.352l-1.288-1.436l1.094-1.803l0.889-1.6l-0.614-1.578l0.833-1.461
						l-2.252-2.139l0.675-1.61l2.107-0.961l-0.975-2.341l1.564-1.067l0.328-1.88l2.704,0.109l0.457-1.832l0.769-1.708l1.303-1.156
						l1.775-0.373l1.661-0.422l1.782,0.077l1.782,0.514l1.09-2.705l1.757,0.386l1.669,0.6l1.52,1.244l1.713-1.053l1.235,1.727
						l1.802-0.625l1.927-0.425l1.481,0.805l0.446,2.382l2.185-0.317l0.651,1.735l1.364,0.893l0.501,1.647l0.837,1.306l2.763,0.26
						l0.047,1.869l1.219,1.343l0.405,1.67l-0.491,1.817l-1.488,1.768l2.401,1.504l-0.796,1.635l-1.106,1.474l0.311,1.686
						l-0.348,1.586l-0.512,1.546l-1.758,0.899l-0.229,1.681l-0.636,1.516l-1.095,1.19l-1.736,0.493l-1.109,1.079l-1.407,0.674
						l-0.071,3.068l-2.033-0.304l-1.102,1.852l-2.303-1.959l-1.568-0.031l-1.472,0.581L168.791,229.651z"/>
				</g>
			</g>
		</g>
		<g>
			<path fill="#FFD69D" d="M180.492,179.377c0.502-0.69,1.407-0.762,2.011-0.158l1.378,1.376c0.604,0.604,0.399,1.098-0.455,1.098
				h-3.066c-0.854,0-1.142-0.565-0.64-1.255L180.492,179.377z"/>
		</g>
		<g>
			<path fill="#FFD69D" d="M164.289,178.426c0.782,0.343,1.045,1.212,0.584,1.931l-1.051,1.641c-0.46,0.719-0.987,0.625-1.169-0.209
				l-0.656-2.997c-0.183-0.834,0.308-1.236,1.09-0.893L164.289,178.426z"/>
		</g>
		<g>
			<path fill="#FFD69D" d="M187.605,190.372c0.782,0.343,1.045,1.211,0.584,1.93l-1.052,1.64c-0.461,0.719-0.987,0.625-1.17-0.209
				l-0.657-2.996c-0.183-0.834,0.308-1.236,1.09-0.894L187.605,190.372z"/>
		</g>
		<g>
			<path fill="#FFD69D" d="M198.378,226.177c0.782,0.343,1.045,1.212,0.584,1.931l-1.05,1.64c-0.461,0.719-0.987,0.625-1.17-0.209
				l-0.656-2.997c-0.183-0.834,0.308-1.236,1.09-0.893L198.378,226.177z"/>
		</g>
		<g>
			<path fill="#FFD69D" d="M156.494,230.67c0.782,0.343,1.045,1.212,0.585,1.931l-1.051,1.64c-0.46,0.719-0.986,0.625-1.169-0.209
				l-0.657-2.997c-0.183-0.834,0.308-1.236,1.09-0.893L156.494,230.67z"/>
		</g>
		<g>
			<path fill="#FFD69D" d="M146.571,216.901c0.782,0.343,1.045,1.212,0.584,1.931l-1.051,1.641c-0.46,0.719-0.987,0.625-1.169-0.209
				l-0.656-2.996c-0.183-0.834,0.308-1.236,1.09-0.893L146.571,216.901z"/>
		</g>
		<g>
			<path fill="#FFD69D" d="M197.018,195.941c0.521-0.676,1.428-0.722,2.015-0.102l1.339,1.416c0.587,0.621,0.369,1.108-0.484,1.084
				l-3.066-0.086c-0.854-0.024-1.125-0.597-0.604-1.273L197.018,195.941z"/>
		</g>
		<g>
			<path fill="#FFD69D" d="M194.878,205.409c0.688-0.504,1.572-0.294,1.962,0.465l0.891,1.733c0.39,0.759,0.044,1.167-0.77,0.906
				l-2.92-0.937c-0.813-0.261-0.914-0.887-0.226-1.391L194.878,205.409z"/>
		</g>
		<g>
			<path fill="#FFD69D" d="M187.646,228.835c0.834,0.179,1.267,0.977,0.961,1.774l-0.699,1.818
				c-0.307,0.797-0.842,0.811-1.188,0.031l-1.246-2.806c-0.347-0.781,0.052-1.272,0.887-1.094L187.646,228.835z"/>
		</g>
		<g>
			<path fill="#FFD69D" d="M143.323,228.956c0.689-0.504,1.573-0.295,1.963,0.465l0.891,1.732c0.391,0.76,0.045,1.167-0.768,0.907
				l-2.922-0.938c-0.813-0.261-0.915-0.886-0.225-1.39L143.323,228.956z"/>
		</g>
		<g>
			<path fill="#FFD69D" d="M200.215,217.217c-0.043,0.853-0.763,1.406-1.599,1.23l-1.906-0.401c-0.836-0.176-0.935-0.702-0.22-1.168
				l2.571-1.677c0.715-0.466,1.264-0.15,1.221,0.702L200.215,217.217z"/>
		</g>
		<g>
			<path fill="#FFD69D" d="M148.83,186.508c0.182-0.834,0.982-1.263,1.778-0.954l1.816,0.707c0.796,0.31,0.807,0.844,0.025,1.188
				l-2.81,1.234c-0.782,0.344-1.272-0.058-1.09-0.892L148.83,186.508z"/>
		</g>
		<g>
			<path fill="#FFD69D" d="M146.457,194.754c0.747-0.413,1.597-0.094,1.889,0.709l0.664,1.831c0.292,0.803-0.103,1.164-0.876,0.802
				l-2.779-1.299c-0.773-0.361-0.794-0.995-0.047-1.408L146.457,194.754z"/>
		</g>
		<g>
			<path fill="#FFD69D" d="M176.989,233.926c0.748-0.413,1.598-0.094,1.89,0.709l0.663,1.829c0.292,0.803-0.103,1.164-0.877,0.803
				l-2.778-1.297c-0.774-0.361-0.796-0.995-0.048-1.407L176.989,233.926z"/>
		</g>
		<g>
			<path fill="#FFD69D" d="M164.856,239.597c0.477-0.708,1.378-0.813,2.004-0.232l1.428,1.325c0.626,0.581,0.439,1.082-0.414,1.114
				l-3.066,0.115c-0.853,0.032-1.162-0.522-0.685-1.231L164.856,239.597z"/>
		</g>
		<g>
			<path fill="#FFD69D" d="M137.957,195.697c-0.5-0.692-0.287-1.575,0.475-1.961l1.737-0.882c0.761-0.387,1.167-0.039,0.902,0.772
				l-0.953,2.918c-0.265,0.812-0.891,0.909-1.392,0.217L137.957,195.697z"/>
		</g>
		<g>
			<path fill="#FFD69D" d="M137.957,209.599c-0.5-0.692-0.287-1.574,0.475-1.961l1.737-0.882c0.761-0.387,1.167-0.039,0.902,0.772
				l-0.953,2.917c-0.265,0.812-0.891,0.91-1.392,0.218L137.957,209.599z"/>
		</g>
	</g>
	<g>
		<path fill="#DE947F" d="M138.661,66.844c0,0,5.018,0.837,14.22,0c9.201-0.837,12.547-1.673,25.095,0
			c12.545,1.672,25.094,4.601,27.184,6.273c2.092,1.672,15.475-3.764,31.366,8.783c15.894,12.546,10.876,34.307,7.112,40.574
			c-3.766,6.269-14.221,19.408-15.477,19.739c-1.253,0.331-14.221,14.27-18.401,14.202c-4.183-0.068-4.183-0.068-4.183-0.068
			s-19.238,8.471-21.747,5.699l5.435-5.631c0,0-13.381,7.561-16.728,5.627c-3.344-1.933-6.691-6.513-3.764-8.197
			c2.928-1.683,14.713-9.224,24.294-10.053c0,0,2.056-3.147,7.073-0.525c0,0,5.855-9.563,8.364-10.788c0,0,4.03-7.33,5.992-9.993
			c2.104-2.862,5.301-7.963,5.301-10.054c0-2.092-7.109-5.896-10.455-7.758c-3.347-1.862-7.109-1.862-7.109-1.862l-11.276,0.836
			l-12.961,3.264l-3.366,7.329l9.2,8.234l-12.129-8.234l3.765-9.567l11.71-3.534l-8.364-0.837l-7.948,6.854l-2.09,11.71
			l-0.418-14.193l8.784-7.743h-8.784l-7.896,3.308l-4.233,4.435l2.928-6.043l7.948-4.183h6.271l-6.69-3.346l-23.84,2.091l22.585-4.6
			l12.967,6.273l4.18,2.065l-4.18-2.065L153.299,86.5h-7.946l8.365-6.692l-6.273-0.418c0,0-12.546-6.532-13.802-13.513
			L138.661,66.844z"/>
		<polyline fill="#D77158" points="202.273,102.823 191,103.659 178.035,106.923 174.671,114.25 183.871,122.485 171.742,114.25 
			175.507,104.684 187.218,101.15 178.854,100.313 170.906,107.166 168.817,118.877 168.396,104.684 177.181,96.942 168.396,96.942 
			160.5,100.249 156.269,104.684 159.196,98.64 167.143,94.458 173.415,94.458 166.724,91.112 142.884,93.204 168.486,86.822 
			178.434,94.877 182.616,96.942 178.434,94.877 153.341,86.511 		"/>
		<path fill="#D77158" d="M205.787,156.302c0,0-19.448,8.515-21.957,5.743l5.435-5.631c0,0-13.381,7.561-16.728,5.627
			c-3.344-1.933-6.691-6.513-3.764-8.197c2.928-1.683,14.713-9.224,24.294-10.053c0,0,2.474-3.278,7.49-0.656L205.787,156.302z"/>
		<circle fill="#200000" cx="156.586" cy="72.334" r="4.177"/>
		<path fill="#D77158" d="M205.159,73.117v27.46l14.717-26.587C219.876,73.99,210.996,71.945,205.159,73.117z"/>
		<path fill="#D77158" d="M232.979,79.359l-17.706,23.789l28.019-13.477C243.292,89.67,240.176,81.826,232.979,79.359z"/>
		<path fill="#D77158" d="M247.465,104.69l-23.492,5.812l21.155,8.769C245.128,119.271,249.651,111.981,247.465,104.69z"/>
		<g>
			<path fill="#D77158" d="M189.68,98.926l2.95,4.597l4.315-0.376c0,0,4.583-0.648,8.782,0.293c4.2,0.941,13.209,6.422,13.593,8.921
				c0.384,2.502-1.329,4.625-3.047,7.217c-2.299,3.47-5.651,7.5-6.99,9.722c-2.07,2.835-7.261,11.177-9.143,13.965l-0.268,0.702
				l1.744,2.062c2.442-3.991,17.28-20.662,18.8-22.315c2.247-2.44,6.711-8.577,6.711-12.111c0-3.159-3.495-5.627-11.325-9.965
				l-0.635-0.352c-3.896-2.168-7.765-2.864-12.367-3.283C198.201,97.585,189.68,98.926,189.68,98.926z"/>
		</g>
	</g>
	<g>
		<path fill="#4C598D" d="M149.999,14.833c-74.53,0-135.165,60.636-135.165,135.166c0,4.371,0.216,8.691,0.624,12.957
			c1.583,16.572,6.171,32.276,13.212,46.568c22.05,44.765,68.149,75.644,121.329,75.644c74.532,0,135.167-60.637,135.167-135.168
			C285.166,75.469,224.531,14.833,149.999,14.833z M51.603,231.039l23.784,22.316C66.539,246.955,58.539,239.453,51.603,231.039z
			 M149.999,269.775c-18.867,0-36.726-4.392-52.618-12.196c-39.736-19.516-67.156-60.401-67.156-107.58
			c0-0.488,0.013-0.975,0.019-1.463C31.031,83.164,84.445,30.224,149.999,30.224c66.046,0,119.775,53.731,119.775,119.775
			C269.774,216.044,216.045,269.775,149.999,269.775z"/>
		<path fill="#4C598D" d="M75.387,253.355l-23.784-22.316C58.539,239.453,66.539,246.955,75.387,253.355z"/>
	</g>
	<path fill="#A3B3D6" d="M72.202,107.708c0,0,14.109-22.681,33.856-26.057c0,0-23.997,13.684-28.014,26.38L72.202,107.708z"/>
</g>
</svg>
