<?xml version="1.0" encoding="utf-8"?>
<!-- Generator: Adobe Illustrator 16.0.0, SVG Export Plug-In . SVG Version: 6.00 Build 0)  -->
<!DOCTYPE svg PUBLIC "-//W3C//DTD SVG 1.1//EN" "http://www.w3.org/Graphics/SVG/1.1/DTD/svg11.dtd">
<svg version="1.1" id="Layer_1" xmlns="http://www.w3.org/2000/svg" xmlns:xlink="http://www.w3.org/1999/xlink" x="0px" y="0px"
	 width="300px" height="300px" viewBox="0 0 300 300" enable-background="new 0 0 300 300" xml:space="preserve">
<g>
	<g>
		<g>
			<path fill="#5C9DBD" d="M257.838,168.309c0-60.36-49.108-109.466-109.469-109.466c-59.913,0-108.729,48.384-109.449,108.129
				l83.949-81.874l32.033,12.161l64.167,39.431l-9.546,18.429L100.278,266.627c14.523,7.135,30.847,11.148,48.091,11.148
				C208.729,277.775,257.838,228.669,257.838,168.309z"/>
			<path fill="#4C598D" d="M80.178,262.768l-21.737-20.394C64.78,250.065,72.091,256.92,80.178,262.768z"/>
			<path fill="#ADC9E6" d="M219.069,136.689l-64.167-39.431l-32.033-12.161L38.92,166.972c-0.005,0.446-0.018,0.891-0.018,1.337
				c0,43.119,25.06,80.485,61.376,98.318l109.245-111.509L219.069,136.689z"/>
			<path fill="#4C598D" d="M148.369,44.776c-68.116,0-123.534,55.416-123.534,123.533c0,3.997,0.199,7.943,0.57,11.842
				c1.448,15.145,5.641,29.498,12.075,42.56c20.152,40.914,62.284,69.132,110.889,69.132c68.117,0,123.533-55.417,123.533-123.533
				C271.902,100.192,216.486,44.776,148.369,44.776z"/>
			<path fill="#5C9DBD" d="M148.378,277.775c-17.244,0-33.566-4.014-48.091-11.148c-36.317-17.833-61.375-55.199-61.375-98.318
				c0-0.446,0.011-0.891,0.017-1.337c0.72-59.745,49.536-108.129,109.449-108.129c60.36,0,109.467,49.106,109.467,109.466
				S208.738,277.775,148.378,277.775z"/>
		</g>
		<g>
			<linearGradient id="SVGID_1_" gradientUnits="userSpaceOnUse" x1="171.4082" y1="133.3325" x2="97.4389" y2="207.3018">
				<stop  offset="0" style="stop-color:#5D8CA9"/>
				<stop  offset="1" style="stop-color:#5C9DBD"/>
			</linearGradient>
			<polygon fill="url(#SVGID_1_)" points="38.869,185.223 54.811,238.034 104.512,280.875 220.074,161.451 229.618,143.02 
				165.452,103.588 133.42,91.427 			"/>
		</g>
		<g>
			<linearGradient id="SVGID_2_" gradientUnits="userSpaceOnUse" x1="94.3403" y1="171.7949" x2="69.5166" y2="196.6187">
				<stop  offset="0" style="stop-color:#5D8CA9"/>
				<stop  offset="1" style="stop-color:#5C9DBD"/>
			</linearGradient>
			<polygon fill="url(#SVGID_2_)" points="29.291,175.861 70.603,256.511 94.519,232.596 107.002,220.111 93.112,188.479 
				127.804,146.52 88.897,116.256 			"/>
		</g>
		<g>
			<path fill="#B9CBFF" d="M106.269,200.98c-2.23-3.487-10.766-9.034-8.672-10.999c2.889-2.718-7.437,1.521-8.557,2.203
				c-0.066,0.037-0.133,0.087-0.2,0.145c-0.032-0.081-0.067-0.155-0.108-0.219c-0.714-1.196-6.982-10.172-6.543-5.937
				c0.263,2.549-9.451,3.789-12.799,5.692c-7.77,4.419-9.895,14.528-8.796,16.241c1.099,1.719,19.549-4.65,25.141-3.202
				c5.59,1.444,18.979,15.553,20.751,14.547C108.258,218.443,111.086,208.51,106.269,200.98z"/>
			<path fill="#B9CBFF" d="M126.458,154.434c-5.722,23.152-32.295,39.866-37.861,38.489c-5.566-1.375-21.294-28.541-15.573-51.693
				c1.023-4.14,2.651-7.974,4.673-11.474c9.285-16.07,26.881-25.043,32.405-23.845C116.829,107.371,132.179,131.283,126.458,154.434
				z"/>
			<path fill="#8FA1DD" d="M126.783,154.17c-4.492,23.41-32.106,39.895-37.748,38.5s-21.652-28.619-15.932-51.762
				c1.608-6.509,3.466-9.591,4.612-11.14c3.255-4.403,12.138,8.546,24.092,11.226c11.083,2.484,23.654-2.541,25.817,0.059
				c0,0,0.079,0.677,0.085,1.214C127.74,144.728,128.196,146.811,126.783,154.17z"/>
			<circle fill="#20005C" cx="113.71" cy="125.864" r="4.467"/>
			<g>
				<path fill="#6C799C" d="M88.446,192.335c-0.035-0.08-7.073-6.362-9.506-19.069c-1.214-6.351-3.851-19.662-1.011-31.159
					c0.494-1.994,1.038-3.741,1.627-5.249l-0.018-0.007l2.772-6.835c-0.926-0.563-1.763-0.975-2.501-1.157
					c-1.051-0.258-1.905-0.061-2.542,0.799c-1.149,1.55-2.987,4.639-4.622,11.144c-4.275,17.022,2.365,34.845,8.701,44.764
					C85.056,191.426,88.446,192.335,88.446,192.335z"/>
			</g>
			<g>
				<path fill="#B9CBFF" d="M69.41,145.949c3.067-2.14,6.7-3.088,9.993-3.323c-0.311,1.324-0.623,3.008-0.952,5.276
					c-0.731,5.008-0.48,10.111,0.414,15.051c-6.997,3.153-15.505,1.417-16.618-0.016C60.987,161.324,62.115,151.047,69.41,145.949z"
					/>
			</g>
		</g>
		<path fill="#D77158" d="M139.318,101.213"/>
		<g>
			<g>
				<linearGradient id="SVGID_3_" gradientUnits="userSpaceOnUse" x1="168.3271" y1="219.3545" x2="123.4151" y2="264.2665">
					<stop  offset="0" style="stop-color:#5D8CA9"/>
					<stop  offset="1" style="stop-color:#5C9DBD"/>
				</linearGradient>
				<polygon fill="url(#SVGID_3_)" points="75.978,262.768 126.674,287.407 152.272,285.917 189.129,247.957 201.128,223.492 
					150.814,190.5 140.272,196.899 				"/>
			</g>
			<g>
				<g>
					<g>
						<path fill="#E19C5A" d="M162.26,189.251l-1.518-2.443l-1.371,1.84l-1.682-1.827l-1.294,1.537l-1.647-0.693l-1.235,1.289
							l-1.767-0.782l-1.179,1.262l-0.961,1.626l-2.123-1.254l-1.458,0.479l-0.253,2.737l-1.139,0.885l-1.66,0.062l-1.954-0.228
							l0.141,2.639l-2.708-1l0.31,2.585l-1.375,0.652l-2.338-0.178l-0.094,1.925l-1.854,0.43l-0.509,1.512l0.564,2.17l-2.383,0.249
							l0.688,2.097l-1.214,1.016l-1.569,0.918l-0.172,1.56l1.362,2.051l-2.754,0.656l-0.236,1.504l-0.446,1.447l-0.08,1.519
							l1.079,1.65l-0.715,1.396l1.156,1.522l-1.883,1.424l1.045,1.458l-0.646,1.516l-0.083,1.509l0.068,1.507l1.431,1.238
							l-0.243,1.561l0.664,1.346l0.314,1.444l-0.358,1.72l1.469,1.007l0.085,1.597l2.085,0.571l-0.105,1.729l0.605,1.36l0.914,1.163
							l0.845,1.21l1.504,0.66l1.074,0.974l1.032,1.004l0.329,1.763l0.61,1.568l1.163,0.966l1.429,0.6l1.992-0.31l0.305,2.296
							l1.901-0.331l0.733,1.829l1.961-0.699l1.505,0.146l1.243,0.804l1.134,1.273l1.46,0.292l1.229,1.368l1.838-1.757l1.433,0.154
							l1.404,0.462l1.402,1.247l1.5-1.931l1.493,1.766l1.433-0.79l1.515,0.318l1.578,0.451l1.233-1.484l1.4-0.416l1.139-1.279
							l1.988,1.429l0.834-1.985l1.632,0.148l0.991-1.306l2.221,1.088l0.845-1.541l0.427-2.046l2.277,0.752l0.201-2.173l2.337,0.55
							l-0.047-2.272l2.076,0.049l1.272-0.86l0.068-1.919l1.998-0.29l-0.952-2.543l1.22-0.897l1.032-1.061l2.043-0.546l-0.818-2.087
							l0.064-1.55l0.915-1.169l2.042-0.819l-0.158-1.618l0.199-1.474l-0.89-1.688l0.605-1.338l-0.016-1.446l0.236-1.409l0.703-1.401
							l-0.501-1.455l0.232-1.443l1.19-1.546l-1.941-1.268l1.663-1.716l-0.515-1.425l-0.973-1.29l0.762-1.751l-0.458-1.441
							l-0.593-1.391l-0.232-1.547l-1.926-0.754l-0.136-1.593l-1.267-0.979l-1.471-0.788l0.297-1.97l-2.112-0.239l0.874-2.606
							l-2.249,0.009l-0.723-1.326l-0.261-1.879l-2.658,0.796l-1.145-0.837l-1.056-0.953l-0.747-1.448l-0.416-2.133l-1.833,0.201
							l-1.606-0.064l-1.308-0.611l-1.157-1.005l-1.15-1.156l-1.376-0.604l-1.385-0.639l-1.4-0.673l-1.759,1.296l-1.547,0.635
							l-1.221-2.508l-1.515-0.147L162.26,189.251z M162.26,242.827l-1.396-2.531l-1.672,1.558l-1.02-2.242l-1.751,0.872
							l-0.988-1.441l-1.727,0.243l-0.605-1.785l-1.644-0.141l-1.918-0.06l0.353-2.435l-0.758-1.169l-2.738,0.15l-0.983-1.246
							l0.062-1.754l0.671-1.83l-2.533-0.811l2.126-1.963l-2.306-1.199l0.418-1.56l1.866-1.373l-1.02-1.56l1.433-1.155l-0.078-1.478
							l-1.033-1.999l2.345-0.497l-0.651-2.098l1.377-0.871l1.722-0.431l0.693-1.311l-0.125-2.494l2.626,1.098l1.119-0.867
							l1.312-0.521l1.242-0.7l1.04-1.668l1.59,0.249l1.368-1.425l1.582,1.79l1.515-0.954l1.383,0.914l1.366,0.526l1.325,0.548
							l1.799-0.562l1.084,1.186l1.418,0.517l1.129,0.98l0.501,1.642l1.709,0.337l0.491,1.499l2.168,0.299l-0.029,1.797l0.463,1.422
							l0.628,1.341l0.377,1.431l1.042,1.323l0.348,1.515l0.112,1.551l-1.104,1.471l-0.941,1.333l-0.302,1.372l-0.048,1.468
							l0.743,1.894l-2.252,0.54l0.31,1.877l-1.894,0.43l0.17,2.056l-0.773,1.397l-1.387,0.747l-1.718,0.162l-1.199,0.84
							l-1.739-0.325l-0.611,2.453l-1.472,0.492l-1.571,0.005l-1.609-0.97L162.26,242.827z"/>
					</g>
				</g>
			</g>
			<g>
				<g>
					<g>
						<path fill="#FDB06B" d="M165.543,187.351l-1.436,1.463l-1.55-1.338l-1.495,0.085l-1.492,0.15l-1.304,1.092l-1.591-0.32
							l-1.511,0.157l-0.995,1.728l-1.15,1.036l-1.928-0.853l-1.516,0.286l-1.65,0.108l-0.677,1.85l-1.666,0.153l-0.491,1.904
							l-1.352,0.632l-0.671,1.477l-2.152-0.216l0.408,2.533l-1.826,0.243l-1.417,0.715l-1.125,1.009l-1.436,0.813l0.05,1.854
							l-1.676,0.722l1.139,2.35l-0.591,1.307l-2.429,0.495l-0.313,1.501l0.987,1.927l-2.389,0.787l0.513,1.695l-0.643,1.378
							l0.994,1.679l0.114,1.466l-2.154,1.255l0.906,1.549l0.858,1.47l-1.403,1.492l0.317,1.471l-0.438,1.548l1.704,1.245
							l0.019,1.472l0.815,1.295l0.82,1.251l-1.689,2.075l1.152,1.17l1.269,1.059l-0.592,1.902l2.4,0.408l0.425,1.403l0.408,1.449
							l0.136,1.69l1.271,0.896l-0.171,2.071l2.491-0.217l-0.27,2.313l2.122-0.062l0.374,1.81l1.376,0.679l1.407,0.592l1.127,0.967
							l0.801,1.544l2.295-1.053l1.053,1.106l0.575,2.302l2.253-1.569l1.162,1.026l0.973,1.841l1.906-1.355l1.108,1.746l1.486,0.213
							l1.602-0.736l1.525-0.745l1.411,0.313l1.434,1.907l1.492-0.465l1.332-2.007l1.721,2.409l1.472-0.406l1.229-1.506l1.268-0.94
							l1.291-0.677l1.433-0.201l1.613,0.203l1.015-1.323l1.235-0.72l1.388-0.418l2.065,0.662l1.681-0.166l-0.146-2.83l1.071-0.95
							l1.977,0.13l0.114-2.058l2.021,0.012l1.949-0.213l-0.23-2.198l0.658-1.341l0.978-1.081l1.536-0.731l-0.154-1.826l1.602-0.773
							l0.511-1.403l1.002-1.173l-1.263-2.097l1.946-0.826l0.133-1.502l0.603-1.355l-0.216-1.549l-0.428-1.539l0.07-1.424
							l0.685-1.363l1.697-1.37l-1.15-1.504l0.034-1.459l0.152-1.475l0.516-1.543l-1.987-1.187l1.729-1.812l-1.652-1.135l-0.075-1.49
							l1.043-1.903l-2.255-0.76l0.312-1.722l-1.279-1.032l-0.261-1.52l-1.804-0.646l0.898-2.295l-2.628,0.025l0.169-1.933
							l-0.46-1.54l-1.109-1.015l-1.24-0.868l-1.294-0.777l-0.688-1.454l-1.163-0.935l-1.34-0.689l-1.961,0.292l-1.348-0.52
							l-0.494-2.055l-1.869,0.458l-1.21-0.789l-0.789-1.92l-1.307-0.798l-1.706,0.45l-1.063-1.779l-1.739,0.857l-1.388-0.66
							l-1.487-0.129l-1.575,0.988l-1.376-1.655L165.543,187.351z M165.543,240.929l-1.559,1.37l-1.314-1.603l-1.395-0.359
							l-1.354-0.471l-1.668,0.241l-1.028-1.247l-1.103-0.948l-1.983,0.229l-1.56-0.567l0.004-2.153l-0.643-1.343l-0.275-1.521
							l-1.822-0.569l0.042-1.629l-1.737-0.895l-0.14-1.531l-1.018-1.346l1.392-1.672l-2.169-1.424l1.211-1.503l0.765-1.396
							l0.527-1.365l1.036-1.158l-0.495-1.724l1.56-0.823l-1.093-2.367l0.852-1.316l2.48,0.157l0.799-1.202l0.11-2.178l2.382,0.797
							l0.743-1.542l1.445-0.355l0.925-1.739l1.404-0.755l1.871,1.666l1.316-1.169l1.49-0.948l1.446,1.492l1.473-0.046l1.288,0.874
							l1.847-1.023l1.332,0.791l1.605,0.226l1.591,0.416l-0.077,2.698l1.539,0.414l1.602,0.52l-0.063,1.992l2.457,0.09l0.525,1.515
							l0.298,1.567l-0.243,1.69l0.88,1.274l-1.115,1.694l2.173,1.199l-1.735,1.537l1.453,1.516l-1.28,1.323l0.041,1.478
							l-0.066,1.511l-0.688,1.316l-1.423,0.898l0.999,2.322l-1.305,0.965l-2.344-0.089l0.597,2.673l-1.539,0.565l-2.032-0.338
							l-0.333,2.309l-1.973-0.651l-1.306,0.58l-1.137,1.337l-1.332,1.192l-1.591-0.031L165.543,240.929z"/>
					</g>
				</g>
			</g>
			<g>
				<path fill="#FFD69D" d="M176.238,195.159c0.459-0.631,1.286-0.696,1.838-0.144l1.259,1.258c0.552,0.553,0.364,1.004-0.416,1.004
					h-2.805c-0.78,0-1.043-0.517-0.584-1.147L176.238,195.159z"/>
			</g>
			<g>
				<path fill="#FFD69D" d="M161.429,194.288c0.715,0.313,0.955,1.107,0.534,1.764l-0.962,1.503
					c-0.421,0.656-0.902,0.57-1.068-0.191l-0.6-2.741c-0.166-0.762,0.282-1.13,0.997-0.816L161.429,194.288z"/>
			</g>
			<g>
				<path fill="#FFD69D" d="M182.735,205.206c0.715,0.312,0.956,1.107,0.535,1.765l-0.96,1.498c-0.42,0.657-0.901,0.571-1.068-0.19
					l-0.601-2.738c-0.167-0.762,0.281-1.129,0.996-0.816L182.735,205.206z"/>
			</g>
			<g>
				<path fill="#FFD69D" d="M192.584,237.93c0.715,0.313,0.955,1.106,0.534,1.764l-0.962,1.501c-0.421,0.657-0.902,0.57-1.068-0.191
					l-0.599-2.738c-0.166-0.762,0.282-1.13,0.997-0.816L192.584,237.93z"/>
			</g>
			<g>
				<path fill="#FFD69D" d="M154.306,242.038c0.715,0.313,0.955,1.106,0.534,1.764l-0.961,1.5c-0.421,0.657-0.902,0.57-1.069-0.191
					l-0.6-2.738c-0.167-0.762,0.281-1.13,0.996-0.816L154.306,242.038z"/>
			</g>
			<g>
				<path fill="#FFD69D" d="M145.236,229.453c0.714,0.313,0.955,1.108,0.534,1.765l-0.96,1.5c-0.421,0.656-0.902,0.57-1.069-0.191
					l-0.6-2.739c-0.167-0.762,0.281-1.129,0.996-0.815L145.236,229.453z"/>
			</g>
			<g>
				<path fill="#FFD69D" d="M191.341,210.298c0.477-0.618,1.305-0.66,1.842-0.094l1.222,1.293c0.537,0.566,0.337,1.013-0.442,0.991
					l-2.803-0.078c-0.779-0.021-1.028-0.545-0.552-1.163L191.341,210.298z"/>
			</g>
			<g>
				<path fill="#FFD69D" d="M189.383,218.951c0.629-0.461,1.437-0.271,1.794,0.424l0.815,1.583c0.357,0.694,0.041,1.066-0.702,0.829
					l-2.669-0.856c-0.743-0.237-0.836-0.81-0.207-1.271L189.383,218.951z"/>
			</g>
			<g>
				<path fill="#FFD69D" d="M182.774,240.358c0.764,0.163,1.158,0.893,0.879,1.621l-0.64,1.664c-0.279,0.729-0.768,0.74-1.085,0.027
					l-1.138-2.562c-0.317-0.713,0.048-1.163,0.812-1L182.774,240.358z"/>
			</g>
			<g>
				<path fill="#FFD69D" d="M142.267,240.471c0.63-0.46,1.438-0.27,1.794,0.425l0.813,1.583c0.357,0.694,0.041,1.066-0.702,0.828
					l-2.67-0.856c-0.743-0.238-0.835-0.811-0.206-1.271L142.267,240.471z"/>
			</g>
			<g>
				<path fill="#FFD69D" d="M194.263,229.742c-0.04,0.779-0.697,1.285-1.461,1.124l-1.741-0.366c-0.764-0.161-0.854-0.642-0.2-1.068
					l2.347-1.531c0.653-0.427,1.156-0.138,1.116,0.642L194.263,229.742z"/>
			</g>
			<g>
				<path fill="#FFD69D" d="M147.3,201.676c0.166-0.763,0.897-1.155,1.624-0.871l1.66,0.646c0.728,0.284,0.737,0.772,0.023,1.086
					l-2.567,1.129c-0.714,0.313-1.163-0.054-0.997-0.816L147.3,201.676z"/>
			</g>
			<g>
				<path fill="#FFD69D" d="M145.13,209.212c0.683-0.378,1.459-0.086,1.726,0.647l0.608,1.675c0.266,0.733-0.095,1.063-0.801,0.733
					l-2.54-1.188c-0.707-0.33-0.726-0.909-0.043-1.287L145.13,209.212z"/>
			</g>
			<g>
				<path fill="#FFD69D" d="M173.037,245.013c0.684-0.378,1.46-0.086,1.727,0.647l0.606,1.672c0.267,0.733-0.094,1.063-0.802,0.733
					l-2.538-1.185c-0.708-0.33-0.728-0.909-0.044-1.287L173.037,245.013z"/>
			</g>
			<g>
				<path fill="#FFD69D" d="M161.947,250.196c0.436-0.647,1.26-0.743,1.832-0.213l1.305,1.211c0.572,0.53,0.402,0.988-0.378,1.018
					l-2.802,0.104c-0.78,0.029-1.062-0.478-0.626-1.125L161.947,250.196z"/>
			</g>
			<g>
				<path fill="#FFD69D" d="M137.361,210.074c-0.458-0.632-0.262-1.438,0.434-1.791l1.589-0.807
					c0.696-0.353,1.067-0.035,0.824,0.707l-0.871,2.665c-0.243,0.742-0.815,0.831-1.272,0.199L137.361,210.074z"/>
			</g>
			<g>
				<path fill="#FFD69D" d="M137.362,222.78c-0.458-0.632-0.263-1.438,0.433-1.792l1.589-0.806c0.696-0.354,1.067-0.036,0.824,0.706
					l-0.871,2.664c-0.243,0.742-0.815,0.831-1.273,0.199L137.362,222.78z"/>
			</g>
		</g>
		<g>
			<path fill="#DE947F" d="M138.006,92.311c0,0,4.587,0.765,12.997,0c8.407-0.766,11.468-1.53,22.933,0
				c11.468,1.528,22.935,4.204,24.845,5.733c1.915,1.53,14.146-3.439,28.671,8.027c14.523,11.467,9.935,31.354,6.496,37.083
				c-3.44,5.729-12.996,17.737-14.142,18.041c-1.148,0.303-12.997,13.04-16.817,12.978c-3.824-0.062-3.824-0.062-3.824-0.062
				s-17.582,7.742-19.877,5.209l4.97-5.147c0,0-12.231,6.912-15.288,5.146c-3.059-1.766-6.117-5.955-3.44-7.491
				c2.674-1.539,13.444-8.433,22.202-9.19c0,0,1.877-2.874,6.466-0.479c0,0,5.349-8.741,7.645-9.86c0,0,3.683-6.698,5.474-9.133
				c1.924-2.615,4.846-7.278,4.846-9.189s-6.5-5.388-9.556-7.09c-3.06-1.701-6.499-1.701-6.499-1.701l-10.305,0.764l-11.846,2.984
				l-3.076,6.698l8.408,7.525l-11.085-7.525l3.44-8.745l10.704-3.229l-7.646-0.766l-7.263,6.265l-1.91,10.702l-0.383-12.971
				l8.025-7.076h-8.025l-7.219,3.023l-3.867,4.053l2.677-5.523l7.262-3.822h5.735l-6.116-3.059l-21.79,1.911l20.643-4.204
				l11.847,5.731l3.823,1.889l-3.823-1.889l-22.933-7.644h-7.263l7.645-6.115l-5.734-0.382c0,0-11.467-5.97-12.613-12.35
				L138.006,92.311z"/>
			<polyline fill="#D77158" points="196.144,125.192 185.839,125.957 173.992,128.94 170.915,135.638 179.326,143.163 
				168.242,135.638 171.682,126.894 182.385,123.664 174.739,122.898 167.477,129.162 165.566,139.865 165.185,126.894 
				173.21,119.818 165.185,119.818 157.967,122.84 154.098,126.894 156.773,121.371 164.035,117.548 169.771,117.548 
				163.653,114.49 141.866,116.4 165.266,110.57 174.356,117.931 178.181,119.818 174.356,117.931 151.422,110.285 			"/>
			<path fill="#D77158" d="M199.354,174.069c0,0-17.772,7.782-20.067,5.249l4.97-5.147c0,0-12.231,6.912-15.288,5.146
				c-3.059-1.766-6.117-5.955-3.44-7.491c2.674-1.539,13.444-8.433,22.202-9.19c0,0,2.261-2.995,6.848-0.599L199.354,174.069z"/>
			<circle fill="#200000" cx="154.389" cy="97.328" r="3.817"/>
			<path fill="#D77158" d="M198.78,98.043v25.098l13.452-24.298C212.232,98.843,204.115,96.973,198.78,98.043z"/>
			<path fill="#D77158" d="M224.207,103.749l-16.183,21.741l25.606-12.317C233.631,113.172,230.785,106.003,224.207,103.749z"/>
			<path fill="#D77158" d="M237.445,126.899l-21.471,5.312l19.335,8.014C235.31,140.225,239.444,133.563,237.445,126.899z"/>
			<g>
				<path fill="#D77158" d="M184.632,121.632l2.7,4.202l3.942-0.344c0,0,4.19-0.593,8.028,0.269
					c3.836,0.858,12.071,5.867,12.421,8.152c0.35,2.288-1.216,4.229-2.787,6.598c-2.1,3.169-5.164,6.853-6.386,8.883
					c-1.894,2.59-6.635,10.215-8.354,12.765l-0.245,0.642l1.593,1.884c2.232-3.649,15.791-18.884,17.182-20.395
					c2.054-2.23,6.135-7.838,6.135-11.069c0-2.886-3.194-5.141-10.352-9.107l-0.579-0.322c-3.562-1.982-7.099-2.617-11.305-3
					C192.42,120.405,184.632,121.632,184.632,121.632z"/>
			</g>
		</g>
		<g>
			<path fill="#4C598D" d="M148.369,44.776c-68.116,0-123.534,55.416-123.534,123.533c0,3.997,0.199,7.943,0.57,11.842
				c1.448,15.145,5.641,29.498,12.075,42.56c20.152,40.914,62.284,69.132,110.889,69.132c68.117,0,123.533-55.417,123.533-123.533
				C271.902,100.192,216.486,44.776,148.369,44.776z M58.441,242.374l21.737,20.394C72.091,256.92,64.78,250.065,58.441,242.374z
				 M148.369,277.775c-17.244,0-33.567-4.014-48.091-11.148c-36.316-17.833-61.376-55.199-61.376-98.318
				c0-0.446,0.013-0.891,0.018-1.337c0.72-59.745,49.537-108.129,109.449-108.129c60.36,0,109.469,49.106,109.469,109.466
				S208.729,277.775,148.369,277.775z"/>
			<path fill="#4C598D" d="M80.178,262.768l-21.737-20.394C64.78,250.065,72.091,256.92,80.178,262.768z"/>
		</g>
		<path fill="#A3B3D6" d="M77.268,129.657c0,0,12.894-20.729,30.941-23.814c0,0-21.931,12.506-25.603,24.109L77.268,129.657z"/>
	</g>
	<circle fill="none" cx="147.743" cy="168.041" r="129.16"/>
	<text transform="matrix(0.6412 -0.7673 0.7673 0.6412 39.5132 96.1265)"><tspan x="0" y="0" fill="#4C598D" font-family="'GillSans-UltraBold'" font-size="38.821">S</tspan><tspan x="25.552" y="-0.25" fill="#4C598D" font-family="'GillSans-UltraBold'" font-size="38.821" rotate="11.139">E</tspan><tspan x="51.71" y="4.059" fill="#4C598D" font-family="'GillSans-UltraBold'" font-size="38.821" rotate="25.108">A</tspan><tspan x="84.9" y="20.191" fill="#4C598D" font-family="'GillSans-UltraBold'" font-size="38.821" rotate="38.932">F</tspan><tspan x="102.988" y="33.549" fill="#4C598D" font-family="'GillSans-UltraBold'" font-size="38.821" rotate="51.044">O</tspan><tspan x="120.729" y="54.23" fill="#4C598D" font-family="'GillSans-UltraBold'" font-size="38.821" rotate="62.129">O</tspan><tspan x="134.071" y="77.945" fill="#4C598D" font-family="'GillSans-UltraBold'" font-size="38.821" rotate="74.466">D</tspan></text>
</g>
</svg>
