<?xml version="1.0" encoding="utf-8"?>
<!-- Generator: Adobe Illustrator 16.0.0, SVG Export Plug-In . SVG Version: 6.00 Build 0)  -->
<!DOCTYPE svg PUBLIC "-//W3C//DTD SVG 1.1//EN" "http://www.w3.org/Graphics/SVG/1.1/DTD/svg11.dtd">
<svg version="1.1" id="Layer_1" xmlns="http://www.w3.org/2000/svg" xmlns:xlink="http://www.w3.org/1999/xlink" x="0px" y="0px"
	 width="300px" height="300px" viewBox="0 0 300 300" enable-background="new 0 0 300 300" xml:space="preserve">
<g>
	<g>
		<path fill="#5C9DBD" d="M259.188,166.652c0-60.67-49.356-110.027-110.023-110.027c-60.219,0-109.285,48.63-110.008,108.682
			l84.377-82.292l32.193,12.224l64.496,39.632l-9.596,18.523L100.825,265.473c14.598,7.17,31.004,11.204,48.337,11.204
			C209.829,276.677,259.188,227.32,259.188,166.652z"/>
		<path fill="#4C598D" d="M80.623,261.593l-21.849-20.499C65.146,248.822,72.494,255.714,80.623,261.593z"/>
		<path fill="#ADC9E6" d="M220.223,134.87l-64.496-39.632l-32.193-12.224l-84.377,82.292c-0.006,0.446-0.018,0.896-0.018,1.346
			c0,43.336,25.188,80.896,61.689,98.817l109.802-112.077L220.223,134.87z"/>
		<path fill="#4C598D" d="M149.162,42.487c-68.465,0-124.164,55.7-124.164,124.166c0,4.015,0.199,7.98,0.573,11.898
			c1.455,15.223,5.669,29.65,12.137,42.778c20.255,41.121,62.602,69.483,111.455,69.483c68.464,0,124.163-55.699,124.163-124.162
			C273.325,98.187,217.626,42.487,149.162,42.487z"/>
		<path fill="#5C9DBD" d="M149.17,276.677c-17.332,0-33.738-4.034-48.335-11.204c-36.502-17.925-61.689-55.482-61.689-98.82
			c0-0.448,0.012-0.896,0.017-1.344C39.886,105.256,88.951,56.625,149.17,56.625c60.669,0,110.025,49.357,110.025,110.027
			C259.195,227.32,209.839,276.677,149.17,276.677z"/>
	</g>
	<g>
		
			<linearGradient id="SVGID_1_" gradientUnits="userSpaceOnUse" x1="189.0361" y1="624.3877" x2="114.6888" y2="698.735" gradientTransform="matrix(1 0 0 1 -16.7197 -492.8906)">
			<stop  offset="0" style="stop-color:#5D8CA9"/>
			<stop  offset="1" style="stop-color:#5C9DBD"/>
		</linearGradient>
		<polygon fill="url(#SVGID_1_)" points="39.103,183.65 55.125,236.732 105.081,279.791 221.23,159.757 230.824,141.232 
			166.33,101.6 134.135,89.376 		"/>
	</g>
	<g>
		
			<linearGradient id="SVGID_2_" gradientUnits="userSpaceOnUse" x1="111.5767" y1="663.0439" x2="86.6259" y2="687.9948" gradientTransform="matrix(1 0 0 1 -16.7197 -492.8906)">
			<stop  offset="0" style="stop-color:#5D8CA9"/>
			<stop  offset="1" style="stop-color:#5C9DBD"/>
		</linearGradient>
		<polygon fill="url(#SVGID_2_)" points="29.475,174.244 70.998,255.303 95.036,231.264 107.583,218.717 93.623,186.925 
			128.491,144.749 89.386,114.332 		"/>
	</g>
	<g>
		<path fill="#B9CBFF" d="M106.847,199.488c-2.242-3.504-10.82-9.08-8.717-11.057c2.904-2.729-7.474,1.527-8.6,2.215
			c-0.066,0.039-0.133,0.09-0.2,0.146c-0.033-0.08-0.068-0.153-0.11-0.222c-0.717-1.198-7.018-10.223-6.576-5.969
			c0.265,2.563-9.499,3.812-12.864,5.725c-7.81,4.441-9.945,14.604-8.841,16.324c1.104,1.729,19.648-4.676,25.268-3.221
			c5.619,1.453,19.076,15.635,20.857,14.623C108.846,217.041,111.688,207.059,106.847,199.488z"/>
		<path fill="#B9CBFF" d="M127.139,152.704c-5.751,23.272-32.46,40.069-38.055,38.687c-5.595-1.385-21.404-28.687-15.653-51.958
			c1.029-4.161,2.665-8.016,4.697-11.532c9.333-16.151,27.019-25.172,32.571-23.967
			C117.459,105.402,132.889,129.436,127.139,152.704z"/>
		<path fill="#8FA1DD" d="M127.466,152.438c-4.516,23.532-32.271,40.102-37.941,38.697c-5.668-1.398-21.763-28.765-16.013-52.026
			c1.616-6.542,3.484-9.64,4.636-11.197c3.271-4.425,12.198,8.59,24.214,11.283c11.14,2.496,23.775-2.554,25.949,0.059
			c0,0,0.08,0.68,0.086,1.22C128.427,142.949,128.885,145.041,127.466,152.438z"/>
		<circle fill="#20005C" cx="114.326" cy="123.989" r="4.49"/>
		<g>
			<path fill="#6C799C" d="M88.932,190.801c-0.034-0.081-7.108-6.395-9.553-19.169c-1.222-6.384-3.871-19.761-1.017-31.318
				c0.496-2.002,1.042-3.76,1.634-5.275l-0.017-0.006l2.786-6.87c-0.931-0.565-1.772-0.979-2.514-1.163
				c-1.056-0.259-1.914-0.061-2.555,0.803c-1.155,1.557-3.002,4.662-4.645,11.201c-4.298,17.109,2.376,35.021,8.745,44.994
				C85.525,189.884,88.932,190.801,88.932,190.801z"/>
		</g>
		<g>
			<path fill="#B9CBFF" d="M69.799,144.178c3.084-2.153,6.735-3.104,10.044-3.34c-0.312,1.329-0.625,3.023-0.958,5.302
				c-0.733,5.034-0.482,10.163,0.418,15.129c-7.033,3.17-15.584,1.422-16.705-0.018C61.333,159.628,62.468,149.3,69.799,144.178z"/>
		</g>
	</g>
	<path fill="#D77158" d="M140.063,99.211"/>
	<g>
		<g>
			
				<linearGradient id="SVGID_3_" gradientUnits="userSpaceOnUse" x1="185.9404" y1="710.8486" x2="140.7994" y2="755.9897" gradientTransform="matrix(1 0 0 1 -16.7197 -492.8906)">
				<stop  offset="0" style="stop-color:#5D8CA9"/>
				<stop  offset="1" style="stop-color:#5C9DBD"/>
			</linearGradient>
			<polygon fill="url(#SVGID_3_)" points="76.4,261.593 127.355,286.355 153.083,284.859 190.13,246.705 202.189,222.117 
				151.618,188.956 141.024,195.387 			"/>
		</g>
		<g>
			<g>
				<g>
					<path fill="#E19C5A" d="M163.121,186.661l-1.482-0.396l-1.363,1.508l-1.635-1.615l-1.3,1.324l-1.665-0.875l-1.396,0.588
						l-1.2,1.183l-1.726-0.544l-1,1.553l-1.177,0.93l-2.359-1.554l-0.721,1.886l-1.52,0.343l-0.623,1.78l-2.442-0.929l-0.504,1.854
						l-0.835,1.312l-1.841,0.167l-0.979,1.16l0.071,2.113l-2.68-0.38l-0.295,1.719l-1.458,0.803l-0.984,1.186l0.752,2.236
						l-2.054,0.549l0.294,1.84l-0.896,1.221l-0.863,1.262l-0.606,1.383l-0.347,1.467l-0.248,1.486l-0.104,1.506l0.666,1.616
						l-1.317,1.296l0.438,1.532l0.85,1.504l-2.472,1.433l0.875,1.494l-0.001,1.502l-0.31,1.549l2.053,1.199l-1.508,1.787
						l1.785,1.113l0.812,1.275l-0.754,1.776l1.826,0.888l-1.5,2.221l0.477,1.462l3.019,0.104l-1.67,2.652l3.033-0.15l-0.12,1.84
						l0.68,1.339l0.225,1.754l0.974,1.173l1.641,0.514l1.902,0.135l0.639,1.474l0.531,1.705l1.921-0.095l0.213,2.338l2.388-1.01
						l1.185,0.847l0.48,2.313l1.923-0.58l1.394,0.479l1.083,1.366l1.708-0.465l1.098,1.642l1.926-1.791l1.248,1.219l1.565-0.698
						l1.447-0.132l1.381,0.962l1.458,0.463l1.484,0.258l1.484-0.098l1.562,0.535l1.312-1.351l1.588,0.435l1.207-1.332l1.795,0.934
						l1.014-1.701l1.388-0.453l1.12-1.074l1.29-0.628l1.915,0.521l1.621-0.192l1.259-0.845l0.843-1.424l0.492-1.785l1.748-0.161
						l1.104-0.982l1.375-0.716l0.285-1.771l1.44-0.686l1.407-0.777l0.621-1.406l1.479-0.812l-0.766-2.23l1.541-0.809l0.797-1.264
						l-0.656-1.915l1.785-0.841l0.264-1.482l0.567-1.371l0.847-1.312l-0.203-1.576l-0.67-1.608l-0.238-1.479l0.983-1.345
						l0.367-1.441l-0.708-1.468l0.908-1.476l-0.023-1.479l1.094-1.625l-0.129-1.529l-2.305-1.086l1.609-1.897l-0.379-1.482
						l-1.24-1.194l-1.411-1.058l0.899-1.987l-0.358-1.521l-2.964-0.143l1.354-2.476l-0.716-1.358l-2.804,0.118l-1.01-1.035
						l-0.293-1.624l-1.281-0.807l-0.277-1.766l-0.615-1.523l-2.095,0.131l-1.306-0.688l-0.418-1.891l-1.416-0.562l-1.762,0.066
						l-0.896-1.365l-0.719-1.877l-1.404-0.586l-1.59-0.111l-1.176-1.202l-1.512-0.291l-2.043,1.874l-1.404-0.249l-1.025-2.504
						l-1.479-0.411l-1.496-0.404l-1.551,0.312L163.121,186.661z M163.121,240.512l-1.486-0.486l-1.707,1.223l-1.137-2.048
						l-1.764,0.649l-0.975-1.634l-1.429-0.413l-1.717-0.068l-0.614-1.721l-1.864-0.123l-1.396-0.817l0.873-2.685l-1.931-0.39
						l-0.365-1.501l-1.72-0.834l1.463-2.145l-1.54-1.03l-0.787-1.363l0.904-1.594l-0.217-1.427l-1.451-1.562l2.421-1.184
						l-0.546-1.559l1.062-1.162l0.637-1.236l-0.997-2.108l2.052-0.483l-0.054-1.82l1.187-0.938l1.253-0.81l1.158-0.86l1.105-0.937
						l1.169-0.879l1.216-0.856l1.068-1.438l1.768,0.642l1.338-0.886l1.428-1.121l1.592,2.379l1.461-0.785l1.436,0.271l1.311,0.75
						l1.958-1.357l0.733,2.229l1.98-0.687l1.566,0.419l0.51,1.913l2.078-0.085l-0.521,2.64l0.765,1.188l3.017-0.312l-1.604,2.698
						l3.032,0.173l-0.493,1.857l0.182,1.507l-0.618,1.604l0.127,1.399l0.885,1.403l1.157,1.57l-0.864,1.448l-1.269,1.243l0.75,1.771
						l-2.215,0.703l1.256,2.256l-0.926,1.26l-2.353,0.131l0.079,1.971l-1.004,1.135l-1.715,0.264l-0.646,1.643l-1.92-0.355
						l-0.394,2.615l-1.799-0.337l-1.226,1.319l-1.511,0.6l-1.672-0.674L163.121,240.512z"/>
				</g>
			</g>
		</g>
		<g>
			<g>
				<g>
					<path fill="#FDB06B" d="M166.423,186.861l-1.519-1.452l-1.365,1.938l-1.562-0.882l-1.343,0.976l-1.567-0.404l-1.717-0.752
						l-0.916,2.285l-1.947-1.221l-1.299,0.853l-1.488,0.348l-0.799,1.817l-1.236,0.781l-1.525,0.281l-0.944,1.254l-2.377-0.824
						l0.328,2.921l-2.621-0.88l0.492,2.791l-1.55,0.47l-1.138,0.937l-0.799,1.243l-1.73,0.498l-1.156,1.017l-1.304,0.953l0.169,1.89
						l-0.802,1.257l-0.448,1.438l-0.278,1.494l-0.689,1.303l-1.925,0.894l1.173,1.947l-0.111,1.479l-0.033,1.474l-0.375,1.395
						l-2.052,1.2l-0.057,1.519l1.631,1.582l-1.329,1.443l1.112,1.452l-0.516,1.5l-0.146,1.508l-0.273,1.554l0.729,1.391l0.062,1.521
						l1.388,1.155l0.407,1.403l1.349,1.041l-1.088,2.031l0.147,1.598l2.441,0.404l0.733,1.236l0.623,1.311l-0.019,1.789l0.23,1.705
						l1.898,0.383l0.309,1.713l1.046,1.086l1.108,1.021l0.688,1.517l2.818-1.118l0.09,2.319l1.842-0.078l1.169,0.877l1.553,0.197
						l1.145,0.924l0.502,2.455l2.172-1.36l0.699,2.411l2.188-2.002l1.324,0.543l0.896,2.687l1.496,0.313l1.823-2.286l1.269,1.954
						l1.521-0.48l1.477,0.701l1.451-1.298l1.562,1.288l1.287-1.879l1.442-0.08l1.726,1.214l1.416-0.54l1.043-1.739l1.873,1.031
						l1.428-0.474l1.41-0.527l1.361-0.646l1.604-0.195l1.363-0.699l0.455-2.104l2.061,0.354l0.382-1.993l1.694-0.275l1.328-0.781
						l0.188-1.959l0.297-1.719l1.646-0.476l1.181-0.935l1.536-0.717l0.73-1.326l1.055-1.121l0.73-1.328l0.035-1.67l-0.298-1.752
						l1.887-0.812l-0.78-1.855l0.821-1.265l0.077-1.487l1.984-1.063l-0.354-1.601l-0.481-1.562l0.27-1.445l-0.418-1.486l1.023-1.448
						l0.498-1.511l-1.313-1.407l1.162-1.616l-0.546-1.443l-1.774-1.164l1.14-1.769l-0.219-1.5l-0.312-1.485l-1.183-1.166
						l-1.105-1.135l0.734-1.983l-0.401-1.517l-2.836-0.096l-0.204-1.583l-0.018-1.786l-0.543-1.486l-2.344-0.012l-1.359-0.717
						l0.606-2.626l-2.729,0.72l0.246-2.484l-1.383-0.672l-2.094,0.367l-1.171-0.813l-0.917-1.244l-0.292-2.5l-1.321-0.789
						l-1.883,0.463l-1.046-1.407l-1.983,1.084l-0.824-2.33l-2.166,2.307l-1.375-0.352l-1.246-1.174l-1.483,0.112l-1.354-1.165
						l-1.523,0.83L166.423,186.861z M166.423,240.713l-1.416-1.54l-1.708,1.654l-1.279-1.326l-1.672,0.31l-1.164-1.189l-0.805-1.641
						l-2.273,0.928l-0.188-2.292l-1.314-0.655l-0.838-1.188l-1.955-0.278l-0.998-1.175l-0.34-1.566l-1.174-1.12l1.354-2.097
						l-2.854-0.698l1.98-1.938l-2.579-1.188l0.669-1.592l0.235-1.52l-0.036-1.545l1.312-1.256l0.715-1.289l1.011-1.111l-0.396-1.787
						l0.818-1.229l0.65-1.355l0.688-1.395l1.172-0.977l2.074,0.206l0.191-2.239l1.18-1.035l1.271-0.956l1.508-0.467l1.959,1.354
						l1.368-0.387l1.271-1.894l1.562,1.235l1.547-1.021l1.438,0.788l1.394,0.597l1.252,0.887l1.52,0.1l1.187,0.895l1.81-0.121
						l1.222,0.924l1.778,0.32l-0.178,2.342l0.518,1.443l2.482,0.061l0.828,1.343l0.54,1.481l-0.401,1.791l-0.389,1.622l1.504,1.179
						l-0.716,1.574l0.062,1.438l-0.025,1.44l-0.848,1.316l2.283,2.003l-2.166,0.95l0.482,1.799l-0.79,1.328l-0.286,1.646
						l-1.156,1.104l-2.49-0.176l0.432,2.521l-2.438-0.587l0.271,2.968l-1.466,0.674l-2.404-1.51l-1.312,0.478l-0.717,2.844
						l-1.867-1.463l-1.396,0.75L166.423,240.713z"/>
				</g>
			</g>
		</g>
		<g>
			<path fill="#FFD69D" d="M177.172,193.636c0.461-0.635,1.293-0.698,1.848-0.145l1.267,1.265c0.555,0.555,0.366,1.01-0.417,1.01
				h-2.819c-0.782,0-1.048-0.52-0.587-1.154L177.172,193.636z"/>
		</g>
		<g>
			<path fill="#FFD69D" d="M162.287,192.764c0.718,0.315,0.959,1.113,0.535,1.774l-0.965,1.507
				c-0.424,0.661-0.906,0.574-1.074-0.191l-0.602-2.754c-0.168-0.767,0.281-1.136,1-0.818L162.287,192.764z"/>
		</g>
		<g>
			<path fill="#FFD69D" d="M183.705,203.736c0.718,0.313,0.96,1.113,0.536,1.772l-0.966,1.509c-0.424,0.659-0.906,0.572-1.074-0.191
				l-0.604-2.754c-0.168-0.769,0.281-1.137,1-0.82L183.705,203.736z"/>
		</g>
		<g>
			<path fill="#FFD69D" d="M193.602,236.628c0.719,0.315,0.959,1.113,0.537,1.772l-0.967,1.508c-0.423,0.66-0.906,0.572-1.074-0.193
				l-0.602-2.751c-0.168-0.767,0.283-1.136,1.001-0.819L193.602,236.628z"/>
		</g>
		<g>
			<path fill="#FFD69D" d="M155.128,240.756c0.718,0.314,0.959,1.113,0.536,1.774l-0.965,1.505c-0.424,0.66-0.907,0.574-1.074-0.192
				l-0.604-2.751c-0.168-0.767,0.283-1.136,1-0.82L155.128,240.756z"/>
		</g>
		<g>
			<path fill="#FFD69D" d="M146.012,228.105c0.719,0.313,0.961,1.111,0.537,1.772l-0.965,1.507
				c-0.424,0.661-0.907,0.574-1.074-0.191l-0.604-2.75c-0.167-0.769,0.283-1.137,1.002-0.821L146.012,228.105z"/>
		</g>
		<g>
			<path fill="#FFD69D" d="M192.352,208.854c0.479-0.621,1.312-0.664,1.853-0.094l1.229,1.301c0.539,0.569,0.34,1.02-0.445,0.996
				l-2.814-0.078c-0.783-0.021-1.033-0.549-0.556-1.17L192.352,208.854z"/>
		</g>
		<g>
			<path fill="#FFD69D" d="M190.384,217.552c0.634-0.463,1.445-0.271,1.804,0.427l0.819,1.592c0.358,0.697,0.041,1.072-0.704,0.832
				l-2.686-0.86c-0.746-0.239-0.84-0.813-0.206-1.276L190.384,217.552z"/>
		</g>
		<g>
			<path fill="#FFD69D" d="M183.742,239.068c0.767,0.164,1.164,0.896,0.883,1.63l-0.643,1.67c-0.28,0.731-0.771,0.745-1.09,0.028
				l-1.146-2.576c-0.318-0.717,0.049-1.168,0.814-1.004L183.742,239.068z"/>
		</g>
		<g>
			<path fill="#FFD69D" d="M143.027,239.182c0.633-0.464,1.444-0.271,1.804,0.426l0.817,1.593c0.359,0.696,0.041,1.071-0.706,0.833
				l-2.683-0.861c-0.747-0.238-0.84-0.812-0.207-1.275L143.027,239.182z"/>
		</g>
		<g>
			<path fill="#FFD69D" d="M195.289,228.396c-0.04,0.783-0.7,1.291-1.469,1.131l-1.75-0.368c-0.77-0.161-0.858-0.644-0.201-1.072
				l2.359-1.54c0.655-0.429,1.162-0.139,1.121,0.645L195.289,228.396z"/>
		</g>
		<g>
			<path fill="#FFD69D" d="M148.086,200.189c0.167-0.769,0.901-1.162,1.633-0.877l1.669,0.647c0.729,0.285,0.739,0.774,0.021,1.091
				l-2.581,1.135c-0.718,0.314-1.169-0.055-1.002-0.819L148.086,200.189z"/>
		</g>
		<g>
			<path fill="#FFD69D" d="M145.907,207.764c0.687-0.379,1.467-0.086,1.734,0.651l0.609,1.683c0.268,0.736-0.095,1.068-0.806,0.735
				l-2.552-1.192c-0.711-0.332-0.73-0.914-0.044-1.293L145.907,207.764z"/>
		</g>
		<g>
			<path fill="#FFD69D" d="M173.955,243.745c0.688-0.379,1.467-0.086,1.734,0.651l0.609,1.682c0.27,0.736-0.095,1.068-0.806,0.736
				l-2.556-1.191c-0.711-0.332-0.729-0.914-0.043-1.293L173.955,243.745z"/>
		</g>
		<g>
			<path fill="#FFD69D" d="M162.809,248.954c0.438-0.651,1.268-0.747,1.84-0.214l1.312,1.218c0.574,0.533,0.402,0.994-0.38,1.022
				l-2.815,0.104c-0.783,0.029-1.068-0.479-0.631-1.13L162.809,248.954z"/>
		</g>
		<g>
			<path fill="#FFD69D" d="M138.098,208.63c-0.46-0.636-0.264-1.446,0.436-1.801l1.598-0.812c0.699-0.354,1.072-0.035,0.829,0.709
				l-0.876,2.681c-0.244,0.745-0.819,0.836-1.279,0.2L138.098,208.63z"/>
		</g>
		<g>
			<path fill="#FFD69D" d="M138.097,221.398c-0.459-0.635-0.263-1.445,0.437-1.801l1.597-0.812c0.7-0.354,1.073-0.035,0.829,0.71
				l-0.876,2.68c-0.244,0.745-0.819,0.835-1.278,0.2L138.097,221.398z"/>
		</g>
	</g>
	<g>
		<path fill="#DE947F" d="M138.746,90.264c0,0,4.61,0.769,13.061,0c8.453-0.769,11.526-1.537,23.053,0
			c11.525,1.537,23.052,4.226,24.973,5.763c1.922,1.537,14.216-3.457,28.814,8.067c14.6,11.526,9.986,31.515,6.529,37.272
			c-3.457,5.757-13.062,17.825-14.215,18.131c-1.152,0.305-13.062,13.11-16.902,13.047c-3.844-0.063-3.844-0.063-3.844-0.063
			s-17.673,7.783-19.979,5.235l4.996-5.172c0,0-12.295,6.942-15.369,5.17c-3.071-1.776-6.147-5.983-3.457-7.53
			c2.689-1.545,13.514-8.473,22.316-9.233c0,0,1.887-2.892,6.498-0.482c0,0,5.377-8.782,7.684-9.907c0,0,3.701-6.733,5.502-9.182
			c1.935-2.629,4.871-7.315,4.871-9.236s-6.531-5.416-9.604-7.126s-6.532-1.71-6.532-1.71l-10.354,0.769l-11.908,2.998l-3.091,6.731
			l8.449,7.564l-11.141-7.564l3.457-8.788l10.76-3.247l-7.687-0.77l-7.298,6.296l-1.922,10.757l-0.385-13.037l8.066-7.113h-8.066
			l-7.254,3.039l-3.888,4.074l2.688-5.552l7.3-3.841h5.763l-6.146-3.074l-21.896,1.921l20.745-4.226l11.909,5.762l3.842,1.897
			l-3.842-1.897l-23.051-7.683h-7.299l7.684-6.147l-5.763-0.383c0,0-11.526-6.001-12.678-12.414L138.746,90.264z"/>
		<polyline fill="#D77158" points="197.18,123.314 186.822,124.083 174.915,127.08 171.822,133.812 180.275,141.376 
			169.135,133.812 172.592,125.024 183.35,121.777 175.665,121.009 168.365,127.304 166.443,138.062 166.062,125.024 
			174.128,117.912 166.062,117.912 158.809,120.951 154.919,125.024 157.607,119.472 164.907,115.631 170.671,115.631 
			164.523,112.557 142.624,114.479 166.143,108.617 175.281,116.015 179.124,117.912 175.281,116.015 152.229,108.331 		"/>
		<path fill="#D77158" d="M200.407,172.439c0,0-17.865,7.821-20.171,5.274l4.996-5.172c0,0-12.295,6.942-15.369,5.17
			c-3.071-1.774-6.147-5.981-3.457-7.528c2.689-1.545,13.514-8.475,22.316-9.235c0,0,2.271-3.013,6.881-0.604L200.407,172.439z"/>
		<circle fill="#200000" cx="155.211" cy="95.308" r="3.836"/>
		<path fill="#D77158" d="M199.83,96.027v25.225l13.518-24.423C213.348,96.829,205.189,94.95,199.83,96.027z"/>
		<path fill="#D77158" d="M225.387,101.761l-16.266,21.852l25.736-12.38C234.857,111.232,231.996,104.026,225.387,101.761z"/>
		<path fill="#D77158" d="M238.691,125.03l-21.58,5.338l19.436,8.056C236.547,138.424,240.701,131.728,238.691,125.03z"/>
		<g>
			<path fill="#D77158" d="M185.609,119.735l2.713,4.223l3.963-0.346c0,0,4.21-0.595,8.068,0.27
				c3.855,0.864,12.135,5.898,12.483,8.195c0.353,2.299-1.222,4.249-2.8,6.63c-2.112,3.187-5.189,6.889-6.422,8.929
				c-1.901,2.605-6.668,10.271-8.395,12.829l-0.246,0.646l1.601,1.895c2.245-3.668,15.874-18.981,17.271-20.5
				c2.062-2.242,6.165-7.878,6.165-11.126c0-2.902-3.21-5.168-10.403-9.153l-0.582-0.323c-3.582-1.992-7.135-2.631-11.36-3.016
				C193.438,118.503,185.609,119.735,185.609,119.735z"/>
		</g>
	</g>
	<g>
		<path fill="#3A739E" d="M149.162,42.487c-68.465,0-124.164,55.7-124.164,124.166c0,4.015,0.199,7.98,0.573,11.898
			c1.455,15.223,5.669,29.65,12.137,42.778c20.255,41.121,62.602,69.483,111.455,69.483c68.464,0,124.163-55.699,124.163-124.162
			C273.325,98.187,217.626,42.487,149.162,42.487z M149.162,276.677c-17.333,0-33.739-4.034-48.337-11.204
			c-36.501-17.925-61.689-55.482-61.689-98.82c0-0.448,0.012-0.896,0.018-1.344c0.723-60.053,49.789-108.683,110.008-108.683
			c60.667,0,110.023,49.357,110.023,110.026C259.188,227.32,209.829,276.677,149.162,276.677z"/>
	</g>
	<path fill="#A3B3D6" d="M77.697,127.802c0,0,12.96-20.835,31.1-23.936c0,0-22.043,12.569-25.733,24.232L77.697,127.802z"/>
</g>
<g>
	<g>
		<path fill="#3A739E" d="M37.328,56.252c1.932,0.468,2.741,3.042,2.5,4.807c-0.316,2.32-2.039,2.443-3.66,3.657
			c-0.886,0.666-2.729,3.115-2.166,4.287c0.938,1.952,4.327-0.513,5.435-1.124c2.098-1.143,3.809-1.945,5.128-2.406
			c1.32-0.46,2.6-0.562,3.842-0.303c1.24,0.259,2.431,0.864,3.57,1.816c2.389,1.996,3.452,4.423,3.188,7.283
			c-0.262,2.859-1.864,6.048-4.803,9.566c-2.215,2.651-4.665,4.919-7.387,7.034c-3.245,2.519-4.708-0.125-5.823-3.487
			c-1.368-4.125,3.758-3.557,5.808-6.009c0.392-0.467,0.598-0.961,0.618-1.482c0.021-0.52-0.144-0.927-0.494-1.22
			c-0.332-0.276-0.778-0.388-1.335-0.333c-0.56,0.054-1.657,0.516-3.292,1.384c-1.472,0.791-2.76,1.385-3.864,1.787
			c-1.104,0.401-2.317,0.539-3.636,0.413c-1.318-0.125-2.616-0.721-3.894-1.789c-2.475-2.069-3.588-4.53-3.338-7.384
			s1.844-6.039,4.783-9.558c1.862-2.229,3.774-4.91,6.309-6.416C35.761,56.213,36.609,56.079,37.328,56.252z"/>
	</g>
	<g>
		<path fill="#3A739E" d="M69.453,55.125c2.411-1.951,5.417-2.271,6.679-0.71c1.263,1.56-0.178,4.837-3.2,7.283l-7.776,6.291
			c-3.022,2.446-7.495,1.974-9.941-1.049l-9.394-11.61c-2.446-3.023-1.974-7.496,1.048-9.942l7.776-6.291
			c3.022-2.446,6.528-3.17,7.79-1.61c1.262,1.56,0.322,4.433-2.089,6.383c-2.412,1.951-3.875,4.177-3.252,4.947
			c0.624,0.771,2.505,0.289,4.184-1.069c1.679-1.358,4.083-1.192,5.346,0.368c1.263,1.561,0.922,3.948-0.756,5.306
			c-1.679,1.357-2.544,3.095-1.925,3.86C64.562,58.046,67.042,57.076,69.453,55.125z"/>
	</g>
	<g>
		<path fill="#3A739E" d="M88.365,49.487c0.523,2.557-1.127,4.678-5.558,5.303c-3.507,0.495-6.16-0.443-6.556-4.311l-1.694-16.553
			c-0.396-3.868,2.164-8.376,5.688-10.02l3.815-1.779c3.524-1.643,8.624-0.705,11.331,2.085l11.59,11.939
			c2.707,2.791,2.161,5.312,0.169,8.234c-1.989,2.918-7.711,1.43-8.7,0.4c-0.989-1.031-3.726-0.975-6.081,0.123
			C90.014,46.006,88.08,48.088,88.365,49.487z M86.866,35.923c0.246,2.076,1.417,3.322,2.604,2.77
			c1.188-0.554,0.987-2.252-0.446-3.775C87.592,33.394,86.62,33.847,86.866,35.923z"/>
	</g>
	<g>
		<path fill="#3A739E" d="M117.058,41.24c-3.47,0.686-6.925-1.875-7.678-5.689l-2.894-14.652c-0.753-3.814,1.751-7.552,5.566-8.305
			l9.586-1.894c3.815-0.753,7.253,0.241,7.642,2.21c0.389,1.969-1.732,4.062-4.713,4.649c-2.98,0.589-5.189,2.235-4.909,3.66
			c0.281,1.424,2.32,2.231,4.529,1.795c2.21-0.437,4.337,0.817,4.726,2.785c0.39,1.969-1.101,3.937-3.312,4.374
			c-2.21,0.437-3.96,1.605-3.127,5.308C123.029,37.95,120.527,40.555,117.058,41.24z"/>
	</g>
	<g>
		<path fill="#3A739E" d="M145.764,38.451c-4.153-0.067-7.651-1.581-10.492-4.543c-2.843-2.961-4.229-6.537-4.161-10.729
			c0.067-4.178,1.57-7.695,4.506-10.55c2.935-2.855,6.48-4.249,10.633-4.182c4.164,0.067,7.669,1.576,10.512,4.524
			c2.842,2.949,4.229,6.513,4.162,10.691c-0.066,4.19-1.57,7.721-4.508,10.588C153.479,37.119,149.929,38.52,145.764,38.451z
			 M146.069,19.592c-0.825-0.013-1.516,0.265-2.072,0.834c-0.555,0.569-0.84,1.292-0.854,2.168
			c-0.015,0.876,0.247,1.607,0.784,2.195c0.537,0.586,1.217,0.886,2.043,0.9c0.839,0.013,1.536-0.265,2.091-0.833
			c0.555-0.569,0.841-1.292,0.854-2.169c0.014-0.875-0.247-1.607-0.784-2.194C147.595,19.906,146.907,19.606,146.069,19.592z"/>
	</g>
	<g>
		<path fill="#3A739E" d="M174.917,41.294c-4.062-0.867-7.203-3.026-9.421-6.479c-2.219-3.454-2.891-7.23-2.018-11.33
			c0.871-4.086,3.021-7.249,6.455-9.484c3.432-2.235,7.178-2.921,11.239-2.055c4.073,0.869,7.222,3.023,9.44,6.464
			c2.222,3.441,2.896,7.206,2.025,11.292c-0.875,4.1-3.029,7.274-6.463,9.522C182.746,41.473,178.991,42.163,174.917,41.294z
			 M178.85,22.847c-0.808-0.173-1.537-0.033-2.191,0.418c-0.654,0.451-1.074,1.106-1.258,1.963
			c-0.183,0.857-0.066,1.625,0.349,2.304c0.412,0.679,1.022,1.105,1.832,1.277c0.817,0.174,1.558,0.036,2.21-0.415
			c0.654-0.451,1.075-1.105,1.257-1.962c0.185-0.857,0.065-1.625-0.347-2.305C180.287,23.449,179.668,23.021,178.85,22.847z"/>
	</g>
	<g>
		<path fill="#3A739E" d="M198.068,23.522c1.604-3.542,5.813-5.125,9.355-3.52l0.154,0.069c9.238,4.167,20.503,11.023,15.127,22.881
			c-1.061,2.337-2.641,4.28-4.743,5.83c-2.104,1.55-4.538,2.391-7.306,2.525c-2.766,0.134-5.739-0.52-8.922-1.962l-6.314-2.863
			c-3.542-1.604-5.126-5.815-3.521-9.356L198.068,23.522z M208.865,33.105c-1.104,0.005-1.635,1.349-2.17,2.531
			c-0.461,1.021-1.047,2.106-1.223,3.199c-0.205,1.276,4.754-0.363,5.325-1.189c0.915-1.32,0.433-3.564-1.063-4.309
			C209.409,33.175,209.122,33.104,208.865,33.105z"/>
	</g>
</g>
</svg>
